<?xml version="1.0" encoding="utf-8" standalone="no"?>
<!DOCTYPE svg PUBLIC "-//W3C//DTD SVG 1.1//EN"
  "http://www.w3.org/Graphics/SVG/1.1/DTD/svg11.dtd">
<svg xmlns:xlink="http://www.w3.org/1999/xlink" width="576pt" height="432pt" viewBox="0 0 576 432" xmlns="http://www.w3.org/2000/svg" version="1.1">
 <metadata>
  <rdf:RDF xmlns:dc="http://purl.org/dc/elements/1.1/" xmlns:cc="http://creativecommons.org/ns#" xmlns:rdf="http://www.w3.org/1999/02/22-rdf-syntax-ns#">
   <cc:Work>
    <dc:type rdf:resource="http://purl.org/dc/dcmitype/StillImage"/>
    <dc:date>2025-10-15T12:14:09.712961</dc:date>
    <dc:format>image/svg+xml</dc:format>
    <dc:creator>
     <cc:Agent>
      <dc:title>Matplotlib v3.10.7, https://matplotlib.org/</dc:title>
     </cc:Agent>
    </dc:creator>
   </cc:Work>
  </rdf:RDF>
 </metadata>
 <defs>
  <style type="text/css">*{stroke-linejoin: round; stroke-linecap: butt}</style>
 </defs>
 <g id="figure_1">
  <g id="patch_1">
   <path d="M 0 432 
L 576 432 
L 576 0 
L 0 0 
z
" style="fill: #ffffff"/>
  </g>
  <g id="axes_1">
   <g id="patch_2">
    <path d="M 46.55 404.12 
L 565.2 404.12 
L 565.2 26.88 
L 46.55 26.88 
z
" style="fill: #ffffff"/>
   </g>
   <g id="matplotlib.axis_1">
    <g id="xtick_1">
     <g id="line2d_1">
      <path d="M 70.125 404.12 
L 70.125 26.88 
" clip-path="url(#p98aefb5e7f)" style="fill: none; stroke: #b0b0b0; stroke-width: 0.8; stroke-linecap: square"/>
     </g>
     <g id="line2d_2">
      <defs>
       <path id="m0fad595293" d="M 0 0 
L 0 3.5 
" style="stroke: #000000; stroke-width: 0.8"/>
      </defs>
      <g>
       <use xlink:href="#m0fad595293" x="70.125" y="404.12" style="stroke: #000000; stroke-width: 0.8"/>
      </g>
     </g>
     <g id="text_1">
      <!-- 0 -->
      <g transform="translate(66.94375 418.718437) scale(0.1 -0.1)">
       <defs>
        <path id="DejaVuSans-30" d="M 2034 4250 
Q 1547 4250 1301 3770 
Q 1056 3291 1056 2328 
Q 1056 1369 1301 889 
Q 1547 409 2034 409 
Q 2525 409 2770 889 
Q 3016 1369 3016 2328 
Q 3016 3291 2770 3770 
Q 2525 4250 2034 4250 
z
M 2034 4750 
Q 2819 4750 3233 4129 
Q 3647 3509 3647 2328 
Q 3647 1150 3233 529 
Q 2819 -91 2034 -91 
Q 1250 -91 836 529 
Q 422 1150 422 2328 
Q 422 3509 836 4129 
Q 1250 4750 2034 4750 
z
" transform="scale(0.015625)"/>
       </defs>
       <use xlink:href="#DejaVuSans-30"/>
      </g>
     </g>
    </g>
    <g id="xtick_2">
     <g id="line2d_3">
      <path d="M 132.991667 404.12 
L 132.991667 26.88 
" clip-path="url(#p98aefb5e7f)" style="fill: none; stroke: #b0b0b0; stroke-width: 0.8; stroke-linecap: square"/>
     </g>
     <g id="line2d_4">
      <g>
       <use xlink:href="#m0fad595293" x="132.991667" y="404.12" style="stroke: #000000; stroke-width: 0.8"/>
      </g>
     </g>
     <g id="text_2">
      <!-- 200 -->
      <g transform="translate(123.447917 418.718437) scale(0.1 -0.1)">
       <defs>
        <path id="DejaVuSans-32" d="M 1228 531 
L 3431 531 
L 3431 0 
L 469 0 
L 469 531 
Q 828 903 1448 1529 
Q 2069 2156 2228 2338 
Q 2531 2678 2651 2914 
Q 2772 3150 2772 3378 
Q 2772 3750 2511 3984 
Q 2250 4219 1831 4219 
Q 1534 4219 1204 4116 
Q 875 4013 500 3803 
L 500 4441 
Q 881 4594 1212 4672 
Q 1544 4750 1819 4750 
Q 2544 4750 2975 4387 
Q 3406 4025 3406 3419 
Q 3406 3131 3298 2873 
Q 3191 2616 2906 2266 
Q 2828 2175 2409 1742 
Q 1991 1309 1228 531 
z
" transform="scale(0.015625)"/>
       </defs>
       <use xlink:href="#DejaVuSans-32"/>
       <use xlink:href="#DejaVuSans-30" transform="translate(63.623047 0)"/>
       <use xlink:href="#DejaVuSans-30" transform="translate(127.246094 0)"/>
      </g>
     </g>
    </g>
    <g id="xtick_3">
     <g id="line2d_5">
      <path d="M 195.858333 404.12 
L 195.858333 26.88 
" clip-path="url(#p98aefb5e7f)" style="fill: none; stroke: #b0b0b0; stroke-width: 0.8; stroke-linecap: square"/>
     </g>
     <g id="line2d_6">
      <g>
       <use xlink:href="#m0fad595293" x="195.858333" y="404.12" style="stroke: #000000; stroke-width: 0.8"/>
      </g>
     </g>
     <g id="text_3">
      <!-- 400 -->
      <g transform="translate(186.314583 418.718437) scale(0.1 -0.1)">
       <defs>
        <path id="DejaVuSans-34" d="M 2419 4116 
L 825 1625 
L 2419 1625 
L 2419 4116 
z
M 2253 4666 
L 3047 4666 
L 3047 1625 
L 3713 1625 
L 3713 1100 
L 3047 1100 
L 3047 0 
L 2419 0 
L 2419 1100 
L 313 1100 
L 313 1709 
L 2253 4666 
z
" transform="scale(0.015625)"/>
       </defs>
       <use xlink:href="#DejaVuSans-34"/>
       <use xlink:href="#DejaVuSans-30" transform="translate(63.623047 0)"/>
       <use xlink:href="#DejaVuSans-30" transform="translate(127.246094 0)"/>
      </g>
     </g>
    </g>
    <g id="xtick_4">
     <g id="line2d_7">
      <path d="M 258.725 404.12 
L 258.725 26.88 
" clip-path="url(#p98aefb5e7f)" style="fill: none; stroke: #b0b0b0; stroke-width: 0.8; stroke-linecap: square"/>
     </g>
     <g id="line2d_8">
      <g>
       <use xlink:href="#m0fad595293" x="258.725" y="404.12" style="stroke: #000000; stroke-width: 0.8"/>
      </g>
     </g>
     <g id="text_4">
      <!-- 600 -->
      <g transform="translate(249.18125 418.718437) scale(0.1 -0.1)">
       <defs>
        <path id="DejaVuSans-36" d="M 2113 2584 
Q 1688 2584 1439 2293 
Q 1191 2003 1191 1497 
Q 1191 994 1439 701 
Q 1688 409 2113 409 
Q 2538 409 2786 701 
Q 3034 994 3034 1497 
Q 3034 2003 2786 2293 
Q 2538 2584 2113 2584 
z
M 3366 4563 
L 3366 3988 
Q 3128 4100 2886 4159 
Q 2644 4219 2406 4219 
Q 1781 4219 1451 3797 
Q 1122 3375 1075 2522 
Q 1259 2794 1537 2939 
Q 1816 3084 2150 3084 
Q 2853 3084 3261 2657 
Q 3669 2231 3669 1497 
Q 3669 778 3244 343 
Q 2819 -91 2113 -91 
Q 1303 -91 875 529 
Q 447 1150 447 2328 
Q 447 3434 972 4092 
Q 1497 4750 2381 4750 
Q 2619 4750 2861 4703 
Q 3103 4656 3366 4563 
z
" transform="scale(0.015625)"/>
       </defs>
       <use xlink:href="#DejaVuSans-36"/>
       <use xlink:href="#DejaVuSans-30" transform="translate(63.623047 0)"/>
       <use xlink:href="#DejaVuSans-30" transform="translate(127.246094 0)"/>
      </g>
     </g>
    </g>
    <g id="xtick_5">
     <g id="line2d_9">
      <path d="M 321.591667 404.12 
L 321.591667 26.88 
" clip-path="url(#p98aefb5e7f)" style="fill: none; stroke: #b0b0b0; stroke-width: 0.8; stroke-linecap: square"/>
     </g>
     <g id="line2d_10">
      <g>
       <use xlink:href="#m0fad595293" x="321.591667" y="404.12" style="stroke: #000000; stroke-width: 0.8"/>
      </g>
     </g>
     <g id="text_5">
      <!-- 800 -->
      <g transform="translate(312.047917 418.718437) scale(0.1 -0.1)">
       <defs>
        <path id="DejaVuSans-38" d="M 2034 2216 
Q 1584 2216 1326 1975 
Q 1069 1734 1069 1313 
Q 1069 891 1326 650 
Q 1584 409 2034 409 
Q 2484 409 2743 651 
Q 3003 894 3003 1313 
Q 3003 1734 2745 1975 
Q 2488 2216 2034 2216 
z
M 1403 2484 
Q 997 2584 770 2862 
Q 544 3141 544 3541 
Q 544 4100 942 4425 
Q 1341 4750 2034 4750 
Q 2731 4750 3128 4425 
Q 3525 4100 3525 3541 
Q 3525 3141 3298 2862 
Q 3072 2584 2669 2484 
Q 3125 2378 3379 2068 
Q 3634 1759 3634 1313 
Q 3634 634 3220 271 
Q 2806 -91 2034 -91 
Q 1263 -91 848 271 
Q 434 634 434 1313 
Q 434 1759 690 2068 
Q 947 2378 1403 2484 
z
M 1172 3481 
Q 1172 3119 1398 2916 
Q 1625 2713 2034 2713 
Q 2441 2713 2670 2916 
Q 2900 3119 2900 3481 
Q 2900 3844 2670 4047 
Q 2441 4250 2034 4250 
Q 1625 4250 1398 4047 
Q 1172 3844 1172 3481 
z
" transform="scale(0.015625)"/>
       </defs>
       <use xlink:href="#DejaVuSans-38"/>
       <use xlink:href="#DejaVuSans-30" transform="translate(63.623047 0)"/>
       <use xlink:href="#DejaVuSans-30" transform="translate(127.246094 0)"/>
      </g>
     </g>
    </g>
    <g id="xtick_6">
     <g id="line2d_11">
      <path d="M 384.458333 404.12 
L 384.458333 26.88 
" clip-path="url(#p98aefb5e7f)" style="fill: none; stroke: #b0b0b0; stroke-width: 0.8; stroke-linecap: square"/>
     </g>
     <g id="line2d_12">
      <g>
       <use xlink:href="#m0fad595293" x="384.458333" y="404.12" style="stroke: #000000; stroke-width: 0.8"/>
      </g>
     </g>
     <g id="text_6">
      <!-- 1000 -->
      <g transform="translate(371.733333 418.718437) scale(0.1 -0.1)">
       <defs>
        <path id="DejaVuSans-31" d="M 794 531 
L 1825 531 
L 1825 4091 
L 703 3866 
L 703 4441 
L 1819 4666 
L 2450 4666 
L 2450 531 
L 3481 531 
L 3481 0 
L 794 0 
L 794 531 
z
" transform="scale(0.015625)"/>
       </defs>
       <use xlink:href="#DejaVuSans-31"/>
       <use xlink:href="#DejaVuSans-30" transform="translate(63.623047 0)"/>
       <use xlink:href="#DejaVuSans-30" transform="translate(127.246094 0)"/>
       <use xlink:href="#DejaVuSans-30" transform="translate(190.869141 0)"/>
      </g>
     </g>
    </g>
    <g id="xtick_7">
     <g id="line2d_13">
      <path d="M 447.325 404.12 
L 447.325 26.88 
" clip-path="url(#p98aefb5e7f)" style="fill: none; stroke: #b0b0b0; stroke-width: 0.8; stroke-linecap: square"/>
     </g>
     <g id="line2d_14">
      <g>
       <use xlink:href="#m0fad595293" x="447.325" y="404.12" style="stroke: #000000; stroke-width: 0.8"/>
      </g>
     </g>
     <g id="text_7">
      <!-- 1200 -->
      <g transform="translate(434.6 418.718437) scale(0.1 -0.1)">
       <use xlink:href="#DejaVuSans-31"/>
       <use xlink:href="#DejaVuSans-32" transform="translate(63.623047 0)"/>
       <use xlink:href="#DejaVuSans-30" transform="translate(127.246094 0)"/>
       <use xlink:href="#DejaVuSans-30" transform="translate(190.869141 0)"/>
      </g>
     </g>
    </g>
    <g id="xtick_8">
     <g id="line2d_15">
      <path d="M 510.191667 404.12 
L 510.191667 26.88 
" clip-path="url(#p98aefb5e7f)" style="fill: none; stroke: #b0b0b0; stroke-width: 0.8; stroke-linecap: square"/>
     </g>
     <g id="line2d_16">
      <g>
       <use xlink:href="#m0fad595293" x="510.191667" y="404.12" style="stroke: #000000; stroke-width: 0.8"/>
      </g>
     </g>
     <g id="text_8">
      <!-- 1400 -->
      <g transform="translate(497.466667 418.718437) scale(0.1 -0.1)">
       <use xlink:href="#DejaVuSans-31"/>
       <use xlink:href="#DejaVuSans-34" transform="translate(63.623047 0)"/>
       <use xlink:href="#DejaVuSans-30" transform="translate(127.246094 0)"/>
       <use xlink:href="#DejaVuSans-30" transform="translate(190.869141 0)"/>
      </g>
     </g>
    </g>
   </g>
   <g id="matplotlib.axis_2">
    <g id="ytick_1">
     <g id="line2d_17">
      <path d="M 46.55 367.382015 
L 565.2 367.382015 
" clip-path="url(#p98aefb5e7f)" style="fill: none; stroke: #b0b0b0; stroke-width: 0.8; stroke-linecap: square"/>
     </g>
     <g id="line2d_18">
      <defs>
       <path id="md3f5e59a29" d="M 0 0 
L -3.5 0 
" style="stroke: #000000; stroke-width: 0.8"/>
      </defs>
      <g>
       <use xlink:href="#md3f5e59a29" x="46.55" y="367.382015" style="stroke: #000000; stroke-width: 0.8"/>
      </g>
     </g>
     <g id="text_9">
      <!-- −4 -->
      <g transform="translate(24.807813 371.181234) scale(0.1 -0.1)">
       <defs>
        <path id="DejaVuSans-2212" d="M 678 2272 
L 4684 2272 
L 4684 1741 
L 678 1741 
L 678 2272 
z
" transform="scale(0.015625)"/>
       </defs>
       <use xlink:href="#DejaVuSans-2212"/>
       <use xlink:href="#DejaVuSans-34" transform="translate(83.789062 0)"/>
      </g>
     </g>
    </g>
    <g id="ytick_2">
     <g id="line2d_19">
      <path d="M 46.55 316.253158 
L 565.2 316.253158 
" clip-path="url(#p98aefb5e7f)" style="fill: none; stroke: #b0b0b0; stroke-width: 0.8; stroke-linecap: square"/>
     </g>
     <g id="line2d_20">
      <g>
       <use xlink:href="#md3f5e59a29" x="46.55" y="316.253158" style="stroke: #000000; stroke-width: 0.8"/>
      </g>
     </g>
     <g id="text_10">
      <!-- −2 -->
      <g transform="translate(24.807813 320.052377) scale(0.1 -0.1)">
       <use xlink:href="#DejaVuSans-2212"/>
       <use xlink:href="#DejaVuSans-32" transform="translate(83.789062 0)"/>
      </g>
     </g>
    </g>
    <g id="ytick_3">
     <g id="line2d_21">
      <path d="M 46.55 265.124301 
L 565.2 265.124301 
" clip-path="url(#p98aefb5e7f)" style="fill: none; stroke: #b0b0b0; stroke-width: 0.8; stroke-linecap: square"/>
     </g>
     <g id="line2d_22">
      <g>
       <use xlink:href="#md3f5e59a29" x="46.55" y="265.124301" style="stroke: #000000; stroke-width: 0.8"/>
      </g>
     </g>
     <g id="text_11">
      <!-- 0 -->
      <g transform="translate(33.1875 268.92352) scale(0.1 -0.1)">
       <use xlink:href="#DejaVuSans-30"/>
      </g>
     </g>
    </g>
    <g id="ytick_4">
     <g id="line2d_23">
      <path d="M 46.55 213.995444 
L 565.2 213.995444 
" clip-path="url(#p98aefb5e7f)" style="fill: none; stroke: #b0b0b0; stroke-width: 0.8; stroke-linecap: square"/>
     </g>
     <g id="line2d_24">
      <g>
       <use xlink:href="#md3f5e59a29" x="46.55" y="213.995444" style="stroke: #000000; stroke-width: 0.8"/>
      </g>
     </g>
     <g id="text_12">
      <!-- 2 -->
      <g transform="translate(33.1875 217.794663) scale(0.1 -0.1)">
       <use xlink:href="#DejaVuSans-32"/>
      </g>
     </g>
    </g>
    <g id="ytick_5">
     <g id="line2d_25">
      <path d="M 46.55 162.866587 
L 565.2 162.866587 
" clip-path="url(#p98aefb5e7f)" style="fill: none; stroke: #b0b0b0; stroke-width: 0.8; stroke-linecap: square"/>
     </g>
     <g id="line2d_26">
      <g>
       <use xlink:href="#md3f5e59a29" x="46.55" y="162.866587" style="stroke: #000000; stroke-width: 0.8"/>
      </g>
     </g>
     <g id="text_13">
      <!-- 4 -->
      <g transform="translate(33.1875 166.665805) scale(0.1 -0.1)">
       <use xlink:href="#DejaVuSans-34"/>
      </g>
     </g>
    </g>
    <g id="ytick_6">
     <g id="line2d_27">
      <path d="M 46.55 111.73773 
L 565.2 111.73773 
" clip-path="url(#p98aefb5e7f)" style="fill: none; stroke: #b0b0b0; stroke-width: 0.8; stroke-linecap: square"/>
     </g>
     <g id="line2d_28">
      <g>
       <use xlink:href="#md3f5e59a29" x="46.55" y="111.73773" style="stroke: #000000; stroke-width: 0.8"/>
      </g>
     </g>
     <g id="text_14">
      <!-- 6 -->
      <g transform="translate(33.1875 115.536948) scale(0.1 -0.1)">
       <use xlink:href="#DejaVuSans-36"/>
      </g>
     </g>
    </g>
    <g id="ytick_7">
     <g id="line2d_29">
      <path d="M 46.55 60.608872 
L 565.2 60.608872 
" clip-path="url(#p98aefb5e7f)" style="fill: none; stroke: #b0b0b0; stroke-width: 0.8; stroke-linecap: square"/>
     </g>
     <g id="line2d_30">
      <g>
       <use xlink:href="#md3f5e59a29" x="46.55" y="60.608872" style="stroke: #000000; stroke-width: 0.8"/>
      </g>
     </g>
     <g id="text_15">
      <!-- 8 -->
      <g transform="translate(33.1875 64.408091) scale(0.1 -0.1)">
       <use xlink:href="#DejaVuSans-38"/>
      </g>
     </g>
    </g>
    <g id="text_16">
     <!-- Output -->
     <g transform="translate(18.728125 232.867969) rotate(-90) scale(0.1 -0.1)">
      <defs>
       <path id="DejaVuSans-4f" d="M 2522 4238 
Q 1834 4238 1429 3725 
Q 1025 3213 1025 2328 
Q 1025 1447 1429 934 
Q 1834 422 2522 422 
Q 3209 422 3611 934 
Q 4013 1447 4013 2328 
Q 4013 3213 3611 3725 
Q 3209 4238 2522 4238 
z
M 2522 4750 
Q 3503 4750 4090 4092 
Q 4678 3434 4678 2328 
Q 4678 1225 4090 567 
Q 3503 -91 2522 -91 
Q 1538 -91 948 565 
Q 359 1222 359 2328 
Q 359 3434 948 4092 
Q 1538 4750 2522 4750 
z
" transform="scale(0.015625)"/>
       <path id="DejaVuSans-75" d="M 544 1381 
L 544 3500 
L 1119 3500 
L 1119 1403 
Q 1119 906 1312 657 
Q 1506 409 1894 409 
Q 2359 409 2629 706 
Q 2900 1003 2900 1516 
L 2900 3500 
L 3475 3500 
L 3475 0 
L 2900 0 
L 2900 538 
Q 2691 219 2414 64 
Q 2138 -91 1772 -91 
Q 1169 -91 856 284 
Q 544 659 544 1381 
z
M 1991 3584 
L 1991 3584 
z
" transform="scale(0.015625)"/>
       <path id="DejaVuSans-74" d="M 1172 4494 
L 1172 3500 
L 2356 3500 
L 2356 3053 
L 1172 3053 
L 1172 1153 
Q 1172 725 1289 603 
Q 1406 481 1766 481 
L 2356 481 
L 2356 0 
L 1766 0 
Q 1100 0 847 248 
Q 594 497 594 1153 
L 594 3053 
L 172 3053 
L 172 3500 
L 594 3500 
L 594 4494 
L 1172 4494 
z
" transform="scale(0.015625)"/>
       <path id="DejaVuSans-70" d="M 1159 525 
L 1159 -1331 
L 581 -1331 
L 581 3500 
L 1159 3500 
L 1159 2969 
Q 1341 3281 1617 3432 
Q 1894 3584 2278 3584 
Q 2916 3584 3314 3078 
Q 3713 2572 3713 1747 
Q 3713 922 3314 415 
Q 2916 -91 2278 -91 
Q 1894 -91 1617 61 
Q 1341 213 1159 525 
z
M 3116 1747 
Q 3116 2381 2855 2742 
Q 2594 3103 2138 3103 
Q 1681 3103 1420 2742 
Q 1159 2381 1159 1747 
Q 1159 1113 1420 752 
Q 1681 391 2138 391 
Q 2594 391 2855 752 
Q 3116 1113 3116 1747 
z
" transform="scale(0.015625)"/>
      </defs>
      <use xlink:href="#DejaVuSans-4f"/>
      <use xlink:href="#DejaVuSans-75" transform="translate(78.710938 0)"/>
      <use xlink:href="#DejaVuSans-74" transform="translate(142.089844 0)"/>
      <use xlink:href="#DejaVuSans-70" transform="translate(181.298828 0)"/>
      <use xlink:href="#DejaVuSans-75" transform="translate(244.775391 0)"/>
      <use xlink:href="#DejaVuSans-74" transform="translate(308.154297 0)"/>
     </g>
    </g>
   </g>
   <g id="line2d_31">
    <path d="M 70.125 296.634351 
L 70.439333 296.634351 
L 70.753667 285.342262 
L 71.068 296.634351 
L 71.696667 274.050172 
L 72.325333 274.050172 
L 72.639667 262.757291 
L 72.954 262.757291 
L 73.582667 240.173086 
L 73.897 251.465176 
L 74.211333 240.173086 
L 75.154333 240.173086 
L 75.468667 251.465176 
L 75.783 240.173086 
L 76.097333 240.173086 
L 76.411667 228.880972 
L 77.040333 228.880972 
L 77.354667 217.588882 
L 77.669 228.880972 
L 77.983333 228.880972 
L 78.926333 262.757291 
L 79.240667 285.342262 
L 79.555 296.634351 
L 79.869333 319.218555 
L 80.498 319.218555 
L 80.812333 330.511437 
L 81.126667 319.218555 
L 81.441 319.218555 
L 81.755333 307.926466 
L 82.069667 307.926466 
L 82.384 296.634351 
L 82.698333 296.634351 
L 83.012667 285.342262 
L 83.641333 285.342262 
L 84.27 262.757291 
L 84.898667 262.757291 
L 85.213 251.465176 
L 85.527333 262.757291 
L 85.841667 251.465176 
L 86.156 251.465176 
L 86.470333 240.173086 
L 86.784667 240.173086 
L 87.413333 217.588882 
L 88.042 217.588882 
L 88.356333 206.296 
L 89.299333 206.296 
L 89.613667 217.588882 
L 89.928 206.296 
L 90.871 206.296 
L 91.185333 217.588882 
L 91.499667 217.588882 
L 91.814 228.880972 
L 92.128333 217.588882 
L 92.442667 240.173086 
L 93.071333 240.173086 
L 94.014333 274.050172 
L 94.328667 274.050172 
L 95.271667 307.926466 
L 95.586 307.926466 
L 95.900333 319.218555 
L 96.529 319.218555 
L 96.843333 307.926466 
L 97.157667 307.926466 
L 97.472 285.342262 
L 98.729333 240.173086 
L 99.043667 240.173086 
L 99.358 262.757291 
L 99.986667 285.342262 
L 100.301 319.218555 
L 100.615333 330.511437 
L 100.929667 353.095641 
L 101.244 364.387756 
L 101.558333 386.972727 
L 102.187 386.972727 
L 102.501333 375.680612 
L 102.815667 375.680612 
L 103.444333 353.095641 
L 104.073 296.634351 
L 104.387333 274.050172 
L 104.701667 262.757291 
L 105.016 240.173086 
L 105.644667 217.588882 
L 105.959 217.588882 
L 106.273333 251.465176 
L 106.587667 262.757291 
L 106.902 285.342262 
L 107.216333 296.634351 
L 107.530667 319.218555 
L 107.845 319.218555 
L 108.159333 296.634351 
L 108.788 274.050172 
L 109.102333 251.465176 
L 109.416667 240.173086 
L 109.731 217.588882 
L 110.359667 195.003911 
L 110.674 172.419707 
L 111.302667 172.419707 
L 111.617 183.711796 
L 111.931333 206.296 
L 112.245667 217.588882 
L 112.874333 217.588882 
L 113.188667 228.880972 
L 113.503 228.880972 
L 113.817333 240.173086 
L 114.446 240.173086 
L 114.760333 228.880972 
L 115.703333 228.880972 
L 116.017667 240.173086 
L 116.332 240.173086 
L 116.960667 262.757291 
L 117.275 262.757291 
L 117.589333 274.050172 
L 117.903667 274.050172 
L 118.218 285.342262 
L 118.532333 307.926466 
L 118.846667 307.926466 
L 119.161 330.511437 
L 120.104 364.387756 
L 120.732667 364.387756 
L 121.047 341.803552 
L 121.361333 330.511437 
L 121.675667 307.926466 
L 122.304333 285.342262 
L 122.618667 285.342262 
L 122.933 274.050172 
L 123.247333 285.342262 
L 123.561667 274.050172 
L 123.876 285.342262 
L 124.504667 285.342262 
L 125.133333 307.926466 
L 126.705 307.926466 
L 127.019333 296.634351 
L 127.333667 296.634351 
L 128.276667 262.757291 
L 128.591 262.757291 
L 128.905333 251.465176 
L 129.219667 251.465176 
L 129.848333 228.880972 
L 130.162667 228.880972 
L 130.477 217.588882 
L 130.791333 217.588882 
L 131.105667 206.296 
L 131.42 217.588882 
L 131.734333 217.588882 
L 132.048667 228.880972 
L 133.306 228.880972 
L 133.620333 240.173086 
L 133.934667 228.880972 
L 134.249 228.880972 
L 134.563333 217.588882 
L 136.135 217.588882 
L 136.449333 228.880972 
L 136.763667 228.880972 
L 137.078 251.465176 
L 138.335333 296.634351 
L 138.649667 296.634351 
L 139.592667 330.511437 
L 139.907 319.218555 
L 140.221333 319.218555 
L 140.535667 296.634351 
L 140.85 296.634351 
L 141.164333 274.050172 
L 141.478667 262.757291 
L 141.793 262.757291 
L 142.107333 251.465176 
L 143.679 307.926466 
L 144.307667 307.926466 
L 144.622 319.218555 
L 146.193667 319.218555 
L 146.508 307.926466 
L 147.451 307.926466 
L 147.765333 296.634351 
L 148.079667 296.634351 
L 148.394 307.926466 
L 148.708333 296.634351 
L 149.022667 296.634351 
L 149.337 285.342262 
L 150.28 285.342262 
L 150.594333 274.050172 
L 150.908667 274.050172 
L 151.223 262.757291 
L 152.166 262.757291 
L 152.794667 240.173086 
L 153.109 240.173086 
L 153.423333 228.880972 
L 155.938 228.880972 
L 156.566667 251.465176 
L 156.881 240.173086 
L 157.824 240.173086 
L 158.138333 228.880972 
L 159.081333 228.880972 
L 160.024333 195.003911 
L 160.338667 206.296 
L 160.653 195.003911 
L 160.967333 217.588882 
L 161.281667 206.296 
L 161.910333 228.880972 
L 163.167667 319.218555 
L 163.482 330.511437 
L 163.796333 353.095641 
L 164.425 353.095641 
L 164.739333 341.803552 
L 165.053667 319.218555 
L 165.368 307.926466 
L 165.682333 274.050172 
L 166.625333 240.173086 
L 167.254 240.173086 
L 167.568333 251.465176 
L 167.882667 274.050172 
L 168.511333 296.634351 
L 168.825667 319.218555 
L 169.768667 353.095641 
L 170.397333 353.095641 
L 171.340333 319.218555 
L 171.654667 296.634351 
L 171.969 285.342262 
L 172.283333 285.342262 
L 172.912 262.757291 
L 174.169333 262.757291 
L 174.483667 274.050172 
L 174.798 274.050172 
L 175.112333 285.342262 
L 175.426667 307.926466 
L 176.369667 307.926466 
L 176.684 319.218555 
L 176.998333 296.634351 
L 177.312667 285.342262 
L 177.627 262.757291 
L 177.941333 251.465176 
L 178.255667 228.880972 
L 178.57 217.588882 
L 179.198667 172.419707 
L 179.513 172.419707 
L 179.827333 161.127592 
L 181.084667 206.296 
L 181.399 228.880972 
L 181.713333 228.880972 
L 182.027667 240.173086 
L 182.342 240.173086 
L 182.656333 251.465176 
L 182.970667 251.465176 
L 183.285 240.173086 
L 183.599333 240.173086 
L 183.913667 217.588882 
L 184.228 206.296 
L 184.542333 217.588882 
L 184.856667 217.588882 
L 185.171 228.880972 
L 185.485333 228.880972 
L 185.799667 251.465176 
L 186.114 296.634351 
L 186.428333 285.342262 
L 186.742667 296.634351 
L 187.057 319.218555 
L 187.371333 330.511437 
L 188 330.511437 
L 188.314333 319.218555 
L 188.628667 296.634351 
L 188.943 285.342262 
L 189.257333 262.757291 
L 189.571667 262.757291 
L 189.886 251.465176 
L 190.514667 251.465176 
L 190.829 262.757291 
L 191.143333 285.342262 
L 191.457667 285.342262 
L 191.772 307.926466 
L 192.400667 330.511437 
L 192.715 330.511437 
L 193.029333 341.803552 
L 193.972333 341.803552 
L 194.286667 330.511437 
L 194.601 330.511437 
L 195.229667 307.926466 
L 195.544 307.926466 
L 196.172667 285.342262 
L 196.487 285.342262 
L 196.801333 296.634351 
L 197.744333 296.634351 
L 198.058667 285.342262 
L 198.373 285.342262 
L 199.316 251.465176 
L 200.259 251.465176 
L 200.887667 228.880972 
L 201.830667 228.880972 
L 202.145 217.588882 
L 202.459333 217.588882 
L 202.773667 240.173086 
L 203.716667 240.173086 
L 204.031 251.465176 
L 207.174333 251.465176 
L 207.488667 240.173086 
L 208.117333 240.173086 
L 208.431667 228.880972 
L 209.060333 228.880972 
L 209.689 206.296 
L 210.317667 206.296 
L 210.632 217.588882 
L 211.260667 262.757291 
L 211.889333 285.342262 
L 212.203667 307.926466 
L 212.832333 330.511437 
L 213.146667 319.218555 
L 213.461 330.511437 
L 213.775333 319.218555 
L 214.718333 251.465176 
L 215.032667 240.173086 
L 215.661333 240.173086 
L 216.918667 285.342262 
L 217.233 285.342262 
L 217.547333 307.926466 
L 218.176 307.926466 
L 218.490333 319.218555 
L 220.690667 319.218555 
L 221.005 307.926466 
L 221.319333 307.926466 
L 221.633667 285.342262 
L 222.891 285.342262 
L 223.205333 296.634351 
L 224.462667 296.634351 
L 224.777 285.342262 
L 225.72 285.342262 
L 226.348667 240.173086 
L 226.663 240.173086 
L 227.920333 195.003911 
L 228.234667 217.588882 
L 228.549 206.296 
L 228.863333 217.588882 
L 229.177667 217.588882 
L 229.492 228.880972 
L 229.806333 228.880972 
L 230.120667 240.173086 
L 230.749333 240.173086 
L 231.378 217.588882 
L 232.321 217.588882 
L 232.635333 228.880972 
L 232.949667 228.880972 
L 233.264 251.465176 
L 233.578333 262.757291 
L 233.892667 285.342262 
L 234.207 285.342262 
L 234.521333 307.926466 
L 234.835667 319.218555 
L 235.15 319.218555 
L 235.464333 330.511437 
L 236.721667 285.342262 
L 237.036 262.757291 
L 237.350333 262.757291 
L 237.664667 251.465176 
L 238.293333 251.465176 
L 238.607667 240.173086 
L 238.922 240.173086 
L 239.236333 251.465176 
L 239.550667 274.050172 
L 240.493667 307.926466 
L 240.808 307.926466 
L 241.122333 319.218555 
L 242.694 319.218555 
L 243.322667 296.634351 
L 243.637 296.634351 
L 243.951333 285.342262 
L 244.265667 296.634351 
L 244.58 296.634351 
L 244.894333 307.926466 
L 245.523 307.926466 
L 245.837333 296.634351 
L 246.151667 307.926466 
L 246.466 296.634351 
L 246.780333 296.634351 
L 247.409 274.050172 
L 247.723333 251.465176 
L 248.037667 251.465176 
L 248.980667 217.588882 
L 250.238 217.588882 
L 250.552333 228.880972 
L 250.866667 228.880972 
L 251.181 240.173086 
L 252.124 240.173086 
L 252.438333 228.880972 
L 252.752667 240.173086 
L 253.067 228.880972 
L 253.695667 228.880972 
L 254.01 240.173086 
L 254.324333 240.173086 
L 254.638667 251.465176 
L 255.267333 251.465176 
L 255.581667 262.757291 
L 255.896 251.465176 
L 256.210333 274.050172 
L 256.524667 262.757291 
L 256.839 262.757291 
L 257.153333 274.050172 
L 257.467667 274.050172 
L 257.782 285.342262 
L 258.725 285.342262 
L 259.039333 296.634351 
L 259.353667 296.634351 
L 259.668 285.342262 
L 259.982333 285.342262 
L 260.611 262.757291 
L 260.925333 262.757291 
L 261.239667 274.050172 
L 261.554 274.050172 
L 261.868333 285.342262 
L 262.497 285.342262 
L 262.811333 296.634351 
L 263.125667 285.342262 
L 263.44 319.218555 
L 263.754333 274.050172 
L 264.068667 285.342262 
L 264.383 285.342262 
L 264.697333 274.050172 
L 265.011667 285.342262 
L 265.640333 285.342262 
L 265.954667 274.050172 
L 266.269 285.342262 
L 266.583333 274.050172 
L 267.526333 274.050172 
L 267.840667 285.342262 
L 268.155 285.342262 
L 268.469333 274.050172 
L 268.783667 285.342262 
L 269.098 285.342262 
L 269.412333 296.634351 
L 270.355333 296.634351 
L 270.669667 307.926466 
L 270.984 296.634351 
L 271.298333 319.218555 
L 272.555667 319.218555 
L 273.498667 285.342262 
L 273.813 251.465176 
L 274.127333 251.465176 
L 274.441667 228.880972 
L 274.756 217.588882 
L 275.070333 195.003911 
L 275.699 172.419707 
L 276.327667 195.003911 
L 276.642 217.588882 
L 276.956333 228.880972 
L 277.270667 251.465176 
L 277.899333 274.050172 
L 278.213667 274.050172 
L 278.528 285.342262 
L 279.156667 285.342262 
L 279.471 274.050172 
L 279.785333 274.050172 
L 280.414 251.465176 
L 282.614333 251.465176 
L 282.928667 240.173086 
L 283.557333 240.173086 
L 283.871667 228.880972 
L 284.814667 228.880972 
L 285.129 240.173086 
L 285.443333 183.711796 
L 285.757667 251.465176 
L 286.072 262.757291 
L 286.386333 285.342262 
L 286.700667 330.511437 
L 287.329333 353.095641 
L 287.958 353.095641 
L 288.272333 341.803552 
L 288.586667 341.803552 
L 288.901 319.218555 
L 289.215333 307.926466 
L 289.844 262.757291 
L 290.158333 262.757291 
L 290.472667 251.465176 
L 290.787 228.880972 
L 291.415667 206.296 
L 291.73 206.296 
L 292.044333 217.588882 
L 292.358667 240.173086 
L 292.673 251.465176 
L 292.987333 274.050172 
L 293.301667 262.757291 
L 293.616 285.342262 
L 293.930333 285.342262 
L 294.244667 296.634351 
L 295.187667 296.634351 
L 295.502 274.050172 
L 295.816333 285.342262 
L 296.445 262.757291 
L 298.016667 262.757291 
L 298.331 251.465176 
L 299.274 251.465176 
L 299.902667 228.880972 
L 300.217 285.342262 
L 300.531333 251.465176 
L 301.16 251.465176 
L 301.474333 262.757291 
L 301.788667 262.757291 
L 302.103 274.050172 
L 302.417333 274.050172 
L 303.046 296.634351 
L 303.360333 285.342262 
L 303.674667 296.634351 
L 303.989 285.342262 
L 304.303333 285.342262 
L 304.617667 274.050172 
L 304.932 274.050172 
L 305.246333 262.757291 
L 305.560667 274.050172 
L 306.189333 274.050172 
L 306.503667 285.342262 
L 307.132333 285.342262 
L 307.446667 296.634351 
L 307.761 285.342262 
L 308.075333 285.342262 
L 308.389667 296.634351 
L 308.704 285.342262 
L 309.961333 285.342262 
L 310.275667 274.050172 
L 311.847333 274.050172 
L 312.161667 285.342262 
L 312.476 285.342262 
L 312.790333 274.050172 
L 315.305 274.050172 
L 315.619333 262.757291 
L 316.562333 262.757291 
L 316.876667 285.342262 
L 317.191 274.050172 
L 317.819667 274.050172 
L 318.134 285.342262 
L 318.448333 285.342262 
L 318.762667 296.634351 
L 320.02 296.634351 
L 320.334333 285.342262 
L 320.648667 296.634351 
L 320.963 285.342262 
L 321.277333 296.634351 
L 321.906 296.634351 
L 322.220333 307.926466 
L 323.163333 307.926466 
L 323.792 330.511437 
L 324.420667 330.511437 
L 324.735 319.218555 
L 325.049333 319.218555 
L 325.678 296.634351 
L 326.935333 206.296 
L 327.249667 206.296 
L 327.564 183.711796 
L 327.878333 172.419707 
L 328.507 195.003911 
L 329.45 262.757291 
L 330.078667 262.757291 
L 330.393 285.342262 
L 330.707333 296.634351 
L 331.021667 285.342262 
L 331.336 285.342262 
L 331.964667 262.757291 
L 332.279 262.757291 
L 332.593333 251.465176 
L 332.907667 251.465176 
L 333.222 240.173086 
L 333.536333 251.465176 
L 333.850667 240.173086 
L 334.165 240.173086 
L 334.793667 217.588882 
L 335.736667 217.588882 
L 336.051 240.173086 
L 336.365333 251.465176 
L 336.679667 274.050172 
L 337.622667 307.926466 
L 337.937 307.926466 
L 338.251333 319.218555 
L 338.565667 319.218555 
L 339.508667 285.342262 
L 339.823 262.757291 
L 340.451667 240.173086 
L 340.766 240.173086 
L 341.080333 251.465176 
L 341.394667 251.465176 
L 342.337667 285.342262 
L 342.652 307.926466 
L 342.966333 307.926466 
L 343.280667 330.511437 
L 344.223667 364.387756 
L 344.538 364.387756 
L 344.852333 353.095641 
L 345.481 353.095641 
L 345.795333 330.511437 
L 346.109667 330.511437 
L 346.424 319.218555 
L 346.738333 319.218555 
L 347.367 296.634351 
L 347.681333 307.926466 
L 347.995667 296.634351 
L 348.938667 296.634351 
L 349.253 285.342262 
L 349.567333 285.342262 
L 349.881667 262.757291 
L 351.139 217.588882 
L 351.453333 217.588882 
L 351.767667 206.296 
L 352.396333 206.296 
L 352.710667 217.588882 
L 353.339333 262.757291 
L 353.653667 262.757291 
L 354.282333 285.342262 
L 354.596667 274.050172 
L 354.911 274.050172 
L 355.539667 251.465176 
L 355.854 228.880972 
L 356.482667 228.880972 
L 357.425667 195.003911 
L 358.368667 195.003911 
L 359.311667 228.880972 
L 359.940333 274.050172 
L 360.569 274.050172 
L 360.883333 285.342262 
L 361.826333 285.342262 
L 362.140667 274.050172 
L 362.455 274.050172 
L 363.083667 251.465176 
L 363.398 262.757291 
L 363.712333 262.757291 
L 364.026667 274.050172 
L 364.341 296.634351 
L 364.655333 296.634351 
L 364.969667 319.218555 
L 365.284 319.218555 
L 365.598333 341.803552 
L 366.227 341.803552 
L 366.541333 353.095641 
L 366.855667 353.095641 
L 367.17 341.803552 
L 367.484333 319.218555 
L 367.798667 319.218555 
L 368.113 296.634351 
L 368.427333 307.926466 
L 368.741667 296.634351 
L 369.056 296.634351 
L 369.370333 307.926466 
L 369.684667 307.926466 
L 369.999 319.218555 
L 370.313333 319.218555 
L 370.942 341.803552 
L 371.885 341.803552 
L 372.513667 319.218555 
L 372.828 296.634351 
L 373.771 262.757291 
L 374.085333 240.173086 
L 374.399667 228.880972 
L 374.714 206.296 
L 375.657 172.419707 
L 375.971333 183.711796 
L 376.6 228.880972 
L 377.228667 251.465176 
L 377.543 251.465176 
L 377.857333 274.050172 
L 378.486 274.050172 
L 378.800333 262.757291 
L 379.114667 262.757291 
L 379.429 251.465176 
L 379.743333 228.880972 
L 380.057667 240.173086 
L 381.000667 240.173086 
L 381.315 228.880972 
L 381.629333 228.880972 
L 381.943667 206.296 
L 382.258 217.588882 
L 382.572333 217.588882 
L 383.201 240.173086 
L 383.515333 262.757291 
L 383.829667 274.050172 
L 384.772667 274.050172 
L 385.087 285.342262 
L 385.715667 285.342262 
L 386.03 274.050172 
L 386.344333 251.465176 
L 387.287333 251.465176 
L 388.859 307.926466 
L 389.173333 330.511437 
L 389.487667 330.511437 
L 390.116333 353.095641 
L 390.430667 353.095641 
L 390.745 330.511437 
L 391.059333 330.511437 
L 391.373667 319.218555 
L 392.002333 319.218555 
L 392.316667 307.926466 
L 392.945333 307.926466 
L 393.259667 319.218555 
L 393.888333 319.218555 
L 394.202667 341.803552 
L 395.145667 341.803552 
L 395.46 330.511437 
L 395.774333 307.926466 
L 396.088667 296.634351 
L 396.403 262.757291 
L 396.717333 251.465176 
L 397.346 195.003911 
L 397.974667 149.83471 
L 398.289 149.83471 
L 398.603333 161.127592 
L 398.917667 183.711796 
L 399.546333 206.296 
L 399.860667 228.880972 
L 400.175 240.173086 
L 400.489333 262.757291 
L 400.803667 262.757291 
L 401.118 274.050172 
L 401.432333 262.757291 
L 401.746667 262.757291 
L 402.375333 240.173086 
L 402.689667 240.173086 
L 403.004 228.880972 
L 404.575667 228.880972 
L 407.719 341.803552 
L 408.033333 341.803552 
L 408.347667 353.095641 
L 408.662 319.218555 
L 409.605 285.342262 
L 409.919333 262.757291 
L 410.548 262.757291 
L 411.805333 307.926466 
L 412.119667 307.926466 
L 412.434 319.218555 
L 412.748333 319.218555 
L 413.062667 330.511437 
L 413.377 330.511437 
L 413.691333 319.218555 
L 414.005667 319.218555 
L 414.32 330.511437 
L 414.634333 319.218555 
L 414.948667 319.218555 
L 415.263 307.926466 
L 416.206 307.926466 
L 416.520333 296.634351 
L 416.834667 296.634351 
L 417.149 274.050172 
L 417.463333 274.050172 
L 417.777667 262.757291 
L 418.092 240.173086 
L 418.406333 228.880972 
L 418.720667 228.880972 
L 419.349333 206.296 
L 419.978 206.296 
L 420.292333 217.588882 
L 420.606667 240.173086 
L 420.921 251.465176 
L 421.235333 274.050172 
L 421.864 274.050172 
L 422.178333 285.342262 
L 422.492667 262.757291 
L 423.435667 228.880972 
L 423.75 228.880972 
L 424.693 195.003911 
L 425.321667 195.003911 
L 425.636 206.296 
L 425.950333 195.003911 
L 426.264667 217.588882 
L 426.579 228.880972 
L 426.893333 251.465176 
L 427.522 274.050172 
L 428.150667 274.050172 
L 428.465 285.342262 
L 428.779333 285.342262 
L 429.093667 274.050172 
L 429.408 274.050172 
L 429.722333 285.342262 
L 430.979667 285.342262 
L 431.294 296.634351 
L 431.608333 296.634351 
L 431.922667 307.926466 
L 433.18 307.926466 
L 433.494333 319.218555 
L 434.123 296.634351 
L 434.437333 307.926466 
L 435.066 285.342262 
L 435.694667 285.342262 
L 436.009 296.634351 
L 436.323333 285.342262 
L 436.637667 307.926466 
L 436.952 296.634351 
L 437.266333 307.926466 
L 437.580667 296.634351 
L 437.895 319.218555 
L 438.209333 319.218555 
L 438.523667 330.511437 
L 439.466667 330.511437 
L 439.781 341.803552 
L 440.095333 330.511437 
L 441.038333 330.511437 
L 441.352667 307.926466 
L 441.981333 285.342262 
L 442.295667 262.757291 
L 442.61 251.465176 
L 442.924333 262.757291 
L 443.553 206.296 
L 443.867333 206.296 
L 444.810333 172.419707 
L 445.124667 183.711796 
L 445.439 217.588882 
L 446.067667 240.173086 
L 446.382 262.757291 
L 446.696333 274.050172 
L 447.010667 274.050172 
L 447.325 285.342262 
L 449.211 217.588882 
L 449.525333 217.588882 
L 450.154 195.003911 
L 450.468333 206.296 
L 450.782667 206.296 
L 451.097 217.588882 
L 451.411333 217.588882 
L 451.725667 240.173086 
L 452.04 240.173086 
L 452.668667 262.757291 
L 452.983 285.342262 
L 453.297333 296.634351 
L 453.611667 296.634351 
L 453.926 307.926466 
L 454.554667 307.926466 
L 455.183333 285.342262 
L 455.497667 262.757291 
L 455.812 251.465176 
L 456.126333 251.465176 
L 456.440667 228.880972 
L 456.755 251.465176 
L 457.069333 251.465176 
L 457.698 296.634351 
L 458.012333 307.926466 
L 458.641 353.095641 
L 459.584 386.972727 
L 459.898333 386.972727 
L 460.212667 364.387756 
L 461.784333 307.926466 
L 462.413 307.926466 
L 462.727333 296.634351 
L 463.041667 307.926466 
L 463.356 307.926466 
L 463.670333 296.634351 
L 464.927667 296.634351 
L 465.242 274.050172 
L 465.556333 274.050172 
L 465.870667 251.465176 
L 466.185 262.757291 
L 467.756667 206.296 
L 468.071 183.711796 
L 468.699667 183.711796 
L 469.328333 206.296 
L 469.642667 228.880972 
L 469.957 228.880972 
L 470.271333 240.173086 
L 470.9 240.173086 
L 471.214333 228.880972 
L 471.843 228.880972 
L 472.471667 206.296 
L 473.100333 206.296 
L 473.729 228.880972 
L 474.043333 251.465176 
L 474.357667 262.757291 
L 474.672 262.757291 
L 475.300667 285.342262 
L 475.615 285.342262 
L 475.929333 296.634351 
L 477.501 296.634351 
L 477.815333 285.342262 
L 478.129667 285.342262 
L 478.444 274.050172 
L 479.072667 296.634351 
L 479.387 285.342262 
L 480.015667 307.926466 
L 480.33 307.926466 
L 480.644333 319.218555 
L 480.958667 319.218555 
L 481.273 330.511437 
L 482.530333 330.511437 
L 482.844667 319.218555 
L 483.473333 319.218555 
L 483.787667 330.511437 
L 484.102 330.511437 
L 484.416333 341.803552 
L 485.673667 341.803552 
L 485.988 319.218555 
L 486.616667 296.634351 
L 486.931 274.050172 
L 487.245333 240.173086 
L 488.502667 195.003911 
L 488.817 206.296 
L 489.131333 206.296 
L 489.445667 228.880972 
L 489.76 240.173086 
L 490.074333 262.757291 
L 490.388667 274.050172 
L 490.703 274.050172 
L 491.017333 285.342262 
L 491.646 262.757291 
L 492.274667 262.757291 
L 492.589 251.465176 
L 492.903333 251.465176 
L 493.217667 228.880972 
L 493.532 228.880972 
L 493.846333 217.588882 
L 494.160667 217.588882 
L 494.789333 195.003911 
L 495.103667 195.003911 
L 495.418 183.711796 
L 495.732333 195.003911 
L 496.046667 183.711796 
L 496.675333 228.880972 
L 496.989667 240.173086 
L 497.304 262.757291 
L 497.618333 262.757291 
L 498.561333 296.634351 
L 498.875667 285.342262 
L 499.19 296.634351 
L 499.504333 285.342262 
L 499.818667 262.757291 
L 500.133 274.050172 
L 500.761667 274.050172 
L 501.076 262.757291 
L 501.390333 262.757291 
L 501.704667 274.050172 
L 502.019 274.050172 
L 503.276333 319.218555 
L 503.590667 319.218555 
L 503.905 274.050172 
L 504.219333 319.218555 
L 504.533667 319.218555 
L 504.848 330.511437 
L 505.476667 330.511437 
L 505.791 319.218555 
L 506.419667 319.218555 
L 506.734 330.511437 
L 507.048333 319.218555 
L 507.362667 319.218555 
L 507.677 330.511437 
L 509.248667 330.511437 
L 509.877333 307.926466 
L 510.191667 307.926466 
L 510.506 285.342262 
L 510.820333 274.050172 
L 511.134667 251.465176 
L 511.763333 228.880972 
L 512.077667 206.296 
L 512.392 206.296 
L 512.706333 195.003911 
L 513.020667 206.296 
L 513.335 206.296 
L 513.649333 217.588882 
L 513.963667 240.173086 
L 515.221 285.342262 
L 515.535333 274.050172 
L 515.849667 274.050172 
L 516.164 262.757291 
L 516.478333 262.757291 
L 516.792667 240.173086 
L 517.107 228.880972 
L 517.421333 228.880972 
L 517.735667 217.588882 
L 518.05 217.588882 
L 518.364333 206.296 
L 519.936 206.296 
L 520.564667 228.880972 
L 520.879 228.880972 
L 522.136333 274.050172 
L 522.450667 274.050172 
L 523.708 319.218555 
L 524.022333 307.926466 
L 524.336667 319.218555 
L 524.965333 319.218555 
L 526.222667 274.050172 
L 526.537 274.050172 
L 527.165667 251.465176 
L 527.48 274.050172 
L 527.794333 274.050172 
L 528.108667 296.634351 
L 528.737333 319.218555 
L 529.051667 341.803552 
L 529.366 341.803552 
L 529.680333 353.095641 
L 530.309 353.095641 
L 530.623333 341.803552 
L 530.937667 341.803552 
L 531.566333 319.218555 
L 531.880667 319.218555 
L 532.195 307.926466 
L 532.509333 319.218555 
L 532.823667 307.926466 
L 533.138 307.926466 
L 534.081 274.050172 
L 534.395333 274.050172 
L 534.709667 262.757291 
L 535.024 262.757291 
L 535.338333 251.465176 
L 535.652667 251.465176 
L 535.967 217.588882 
L 536.281333 251.465176 
L 536.595667 240.173086 
L 536.91 251.465176 
L 537.224333 183.711796 
L 537.538667 228.880972 
L 537.853 240.173086 
L 538.167333 228.880972 
L 538.796 251.465176 
L 539.110333 251.465176 
L 539.424667 262.757291 
L 540.682 262.757291 
L 540.996333 251.465176 
L 541.625 251.465176 
L 541.625 251.465176 
" clip-path="url(#p98aefb5e7f)" style="fill: none; stroke: #1f77b4; stroke-width: 1.5; stroke-linecap: square"/>
   </g>
   <g id="line2d_32">
    <path d="M 70.125 266.384116 
L 70.439333 267.014024 
L 70.753667 272.053258 
L 71.068 272.683166 
L 71.382333 272.683166 
L 71.696667 275.832703 
L 72.011 275.832703 
L 72.325333 276.462611 
L 72.954 278.982241 
L 74.525667 278.982241 
L 74.84 278.352333 
L 75.783 278.352333 
L 76.097333 278.982241 
L 76.411667 277.722426 
L 76.726 275.202796 
L 77.040333 271.423351 
L 77.669 268.903746 
L 77.983333 265.754209 
L 78.297667 265.124301 
L 78.612 261.344856 
L 79.555 255.675714 
L 79.869333 255.675714 
L 80.183667 256.305621 
L 80.498 259.455159 
L 81.126667 260.714948 
L 81.441 263.864486 
L 81.755333 265.124301 
L 82.069667 268.273839 
L 82.384 270.163561 
L 82.698333 273.942981 
L 83.012667 275.832703 
L 83.327 279.612148 
L 83.641333 280.871964 
L 84.27 287.800921 
L 84.898667 291.580366 
L 85.527333 297.879415 
L 85.841667 299.769138 
L 86.156 304.178465 
L 86.470333 305.43828 
L 86.784667 307.95791 
L 87.099 309.217725 
L 87.413333 311.107448 
L 88.670667 311.107448 
L 89.299333 306.698095 
L 89.613667 305.43828 
L 90.242333 304.178465 
L 90.556667 301.028953 
L 90.871 299.769138 
L 91.814 292.210273 
L 92.128333 287.800921 
L 92.442667 285.281291 
L 92.757 279.612148 
L 93.071333 278.352333 
L 93.7 268.273839 
L 94.643 255.675714 
L 94.957333 250.636454 
L 95.900333 245.597219 
L 96.843333 241.817774 
L 97.157667 241.187866 
L 97.472 239.928051 
L 97.786333 239.928051 
L 98.100667 234.258909 
L 98.415 231.739279 
L 98.729333 230.479464 
L 99.986667 215.361735 
L 100.615333 205.283214 
L 101.872667 205.283214 
L 102.187 209.692567 
L 102.501333 210.322475 
L 102.815667 213.472012 
L 103.13 215.361735 
L 103.758667 224.810322 
L 104.073 229.849557 
L 105.330333 238.038329 
L 105.644667 238.038329 
L 105.959 238.668236 
L 106.587667 238.668236 
L 106.902 243.077589 
L 107.216333 244.967312 
L 107.530667 248.116849 
L 107.845 250.006546 
L 108.159333 256.305621 
L 108.788 261.344856 
L 109.416667 271.423351 
L 110.045333 275.832703 
L 110.359667 275.832703 
L 110.674 276.462611 
L 111.302667 276.462611 
L 111.617 275.832703 
L 112.245667 271.423351 
L 112.874333 270.163561 
L 113.188667 267.014024 
L 113.503 262.604671 
L 113.817333 261.344856 
L 114.131667 259.455159 
L 114.446 258.825251 
L 114.760333 255.675714 
L 115.074667 254.415899 
L 115.389 251.266361 
L 115.703333 249.376639 
L 117.275 229.849557 
L 118.846667 205.913148 
L 119.161 205.283214 
L 119.475333 202.76361 
L 119.789667 203.393517 
L 120.732667 203.393517 
L 121.047 204.653333 
L 121.361333 206.54303 
L 121.675667 207.172937 
L 121.99 208.432752 
L 123.247333 208.432752 
L 123.561667 207.172937 
L 123.876 208.432752 
L 124.190333 207.802845 
L 124.504667 209.06266 
L 124.819 209.06266 
L 125.133333 209.692567 
L 125.762 215.361735 
L 126.390667 217.881339 
L 127.648 227.959834 
L 128.276667 234.258909 
L 128.905333 239.928051 
L 129.219667 243.707497 
L 129.534 244.337404 
L 129.848333 248.116849 
L 130.162667 248.746731 
L 131.42 248.746731 
L 131.734333 247.486942 
L 132.991667 247.486942 
L 133.620333 246.227127 
L 133.934667 244.967312 
L 134.249 244.967312 
L 134.563333 243.077589 
L 134.877667 242.447681 
L 135.192 240.557959 
L 135.506333 239.928051 
L 137.392333 216.621524 
L 137.706667 215.361735 
L 138.335333 207.172937 
L 138.649667 204.653333 
L 138.964 204.023425 
L 139.278333 201.503795 
L 140.221333 201.503795 
L 140.535667 200.873887 
L 140.85 201.503795 
L 141.164333 198.984165 
L 141.478667 197.72435 
L 141.793 192.685115 
L 142.107333 189.535578 
L 142.421667 188.90567 
L 142.736 185.126225 
L 143.050333 184.496317 
L 143.364667 182.606595 
L 143.679 181.976713 
L 144.936333 181.976713 
L 145.250667 185.126225 
L 145.879333 186.38604 
L 146.822333 190.165485 
L 147.136667 190.795393 
L 147.765333 195.20472 
L 148.394 197.72435 
L 149.651333 207.802845 
L 149.965667 208.432752 
L 150.908667 217.881339 
L 151.223 219.141154 
L 151.537333 222.920599 
L 151.851667 224.180415 
L 152.166 228.589742 
L 152.794667 233.629002 
L 153.109 234.888817 
L 153.737667 239.928051 
L 154.366333 242.447681 
L 154.680667 243.077589 
L 156.566667 243.077589 
L 156.881 243.707497 
L 157.195333 246.227127 
L 157.509667 245.597219 
L 158.452667 245.597219 
L 159.71 240.557959 
L 160.024333 236.778539 
L 160.338667 235.518724 
L 160.653 231.739279 
L 160.967333 229.849557 
L 161.281667 223.550507 
L 161.596 221.660784 
L 161.910333 212.842105 
L 162.224667 208.432752 
L 162.853333 197.094442 
L 163.167667 193.94493 
L 163.482 193.314997 
L 165.996667 193.314997 
L 166.311 187.645855 
L 166.625333 184.496317 
L 166.939667 183.86641 
L 167.254 180.716898 
L 167.568333 178.827175 
L 167.882667 174.417823 
L 168.511333 170.008496 
L 168.825667 168.748681 
L 169.14 168.748681 
L 169.454333 171.268311 
L 169.768667 171.898193 
L 170.083 171.898193 
L 170.397333 174.417823 
L 170.711667 175.04773 
L 171.026 178.197268 
L 171.654667 182.606595 
L 171.969 185.756132 
L 172.597667 185.756132 
L 172.912 187.645855 
L 173.226333 188.275763 
L 173.540667 188.275763 
L 173.855 188.90567 
L 174.169333 188.90567 
L 174.798 190.165485 
L 175.426667 197.094442 
L 176.055333 205.913148 
L 176.369667 207.172937 
L 176.684 209.692567 
L 177.941333 226.700045 
L 178.255667 229.849557 
L 178.57 234.888817 
L 178.884333 236.148632 
L 179.198667 236.778539 
L 180.141667 236.778539 
L 180.456 235.518724 
L 180.770333 233.629002 
L 181.084667 230.479464 
L 181.713333 226.700045 
L 182.027667 226.700045 
L 182.342 225.44023 
L 182.656333 225.44023 
L 182.970667 223.550507 
L 183.599333 222.290692 
L 183.913667 219.141154 
L 184.228 217.881339 
L 184.856667 212.212197 
L 185.171 209.692567 
L 185.485333 203.393517 
L 185.799667 200.24398 
L 186.114 193.314997 
L 186.428333 191.4253 
L 186.742667 193.314997 
L 187.057 188.275763 
L 187.371333 186.38604 
L 188.628667 186.38604 
L 188.943 185.756132 
L 189.886 173.787915 
L 190.200333 173.787915 
L 190.514667 170.638403 
L 190.829 168.748681 
L 191.143333 164.969235 
L 191.772 161.189816 
L 192.086333 158.040278 
L 192.400667 158.040278 
L 193.029333 161.189816 
L 193.343667 161.189816 
L 193.658 161.819698 
L 193.972333 161.819698 
L 194.915333 166.858958 
L 195.229667 170.638403 
L 195.544 171.268311 
L 195.858333 172.5281 
L 196.172667 176.307545 
L 196.487 176.307545 
L 196.801333 177.56736 
L 197.43 184.496317 
L 197.744333 185.756132 
L 198.373 192.055208 
L 198.687333 194.574812 
L 199.001667 198.984165 
L 199.316 200.873887 
L 199.630333 204.023425 
L 199.944667 205.913148 
L 200.259 209.692567 
L 200.887667 214.10192 
L 202.459333 214.10192 
L 202.773667 212.842105 
L 203.088 212.842105 
L 203.402333 215.991617 
L 203.716667 217.881339 
L 204.345333 217.881339 
L 204.659667 219.771062 
L 205.602667 219.771062 
L 205.917 220.400969 
L 207.488667 220.400969 
L 207.803 219.771062 
L 208.117333 217.881339 
L 208.431667 217.881339 
L 208.746 217.251432 
L 209.374667 211.58229 
L 209.689 210.322475 
L 210.632 201.503795 
L 211.260667 192.685115 
L 211.575 188.90567 
L 212.518 183.236528 
L 213.775333 183.236528 
L 214.089667 184.496317 
L 214.404 184.496317 
L 214.718333 183.236528 
L 215.347 173.158008 
L 215.661333 173.158008 
L 216.29 168.748681 
L 217.861667 156.780463 
L 218.176 157.410371 
L 218.490333 156.780463 
L 218.804667 156.780463 
L 219.119 158.040278 
L 219.747667 161.189816 
L 221.319333 167.488866 
L 221.948 171.268311 
L 222.262333 171.268311 
L 222.576667 171.898193 
L 223.205333 175.677638 
L 223.519667 176.307545 
L 223.834 179.457083 
L 224.462667 181.976713 
L 225.091333 187.645855 
L 225.405667 190.165485 
L 226.348667 200.873887 
L 226.977333 202.133702 
L 227.291667 204.653333 
L 227.606 204.653333 
L 228.234667 203.393517 
L 228.863333 204.653333 
L 229.177667 202.133702 
L 229.492 202.76361 
L 229.806333 201.503795 
L 230.120667 201.503795 
L 230.435 200.873887 
L 230.749333 199.614072 
L 231.063667 199.614072 
L 231.378 198.984165 
L 232.635333 191.4253 
L 233.578333 179.457083 
L 233.892667 178.197268 
L 234.207 176.307545 
L 234.521333 175.677638 
L 234.835667 174.417823 
L 235.15 175.04773 
L 235.778667 175.04773 
L 236.093 175.677638 
L 237.036 175.677638 
L 237.350333 175.04773 
L 237.979 167.488866 
L 238.293333 164.969235 
L 238.607667 164.969235 
L 238.922 163.079513 
L 239.236333 159.300093 
L 239.550667 158.040278 
L 239.865 154.890741 
L 240.808 154.890741 
L 241.122333 155.520648 
L 241.436667 155.520648 
L 241.751 156.780463 
L 242.379667 156.780463 
L 242.694 158.040278 
L 243.008333 159.929975 
L 243.322667 160.559908 
L 243.637 160.559908 
L 244.58 162.449605 
L 244.894333 164.339328 
L 245.208667 164.969235 
L 246.466 171.898193 
L 246.780333 176.937453 
L 247.094667 178.827175 
L 247.723333 185.126225 
L 248.037667 187.645855 
L 248.352 188.275763 
L 248.666333 190.795393 
L 248.980667 190.795393 
L 249.295 190.165485 
L 249.609333 188.90567 
L 250.552333 188.90567 
L 250.866667 188.275763 
L 251.181 188.275763 
L 251.495333 187.645855 
L 252.752667 187.645855 
L 253.067 184.496317 
L 253.381333 184.496317 
L 253.695667 182.606595 
L 254.01 181.976713 
L 254.324333 179.457083 
L 254.638667 178.827175 
L 254.953 176.307545 
L 255.267333 175.04773 
L 255.896 171.268311 
L 256.210333 170.638403 
L 256.524667 166.858958 
L 256.839 166.858958 
L 257.153333 163.079513 
L 257.467667 161.189816 
L 257.782 160.559908 
L 258.096333 158.040278 
L 258.410667 157.410371 
L 259.039333 154.260833 
L 259.353667 153.630926 
L 259.668 154.260833 
L 259.982333 154.260833 
L 260.611 151.741203 
L 260.925333 151.111296 
L 261.239667 149.851506 
L 261.554 149.221573 
L 261.868333 149.221573 
L 262.182667 146.701968 
L 262.497 146.701968 
L 262.811333 146.072061 
L 263.125667 144.812246 
L 263.44 145.442153 
L 263.754333 144.812246 
L 264.068667 150.481414 
L 264.383 144.182338 
L 264.697333 144.812246 
L 265.011667 144.812246 
L 265.326 144.182338 
L 265.640333 144.812246 
L 266.583333 144.812246 
L 266.897667 145.442153 
L 267.212 144.182338 
L 268.155 144.182338 
L 268.469333 145.442153 
L 268.783667 145.442153 
L 269.098 144.812246 
L 269.412333 146.072061 
L 269.726667 146.072061 
L 270.041 147.961784 
L 270.355333 147.961784 
L 270.669667 149.221573 
L 270.984 151.111296 
L 271.298333 156.150556 
L 271.612667 156.780463 
L 271.927 161.819698 
L 272.555667 166.858958 
L 274.127333 186.38604 
L 274.441667 186.38604 
L 274.756 189.535578 
L 276.013333 189.535578 
L 276.327667 188.275763 
L 276.642 187.645855 
L 276.956333 184.496317 
L 277.585 183.236528 
L 277.899333 184.496317 
L 278.213667 185.126225 
L 278.528 186.38604 
L 278.842333 187.015948 
L 279.156667 188.90567 
L 279.471 189.535578 
L 279.785333 190.795393 
L 280.099667 190.795393 
L 280.414 191.4253 
L 283.243 191.4253 
L 284.186 182.606595 
L 284.500333 180.08699 
L 284.814667 180.08699 
L 285.757667 172.5281 
L 286.072 159.929975 
L 286.386333 162.449605 
L 286.700667 158.040278 
L 287.015 158.670186 
L 287.329333 163.70942 
L 287.958 166.22905 
L 288.272333 166.858958 
L 288.586667 170.008496 
L 288.901 171.268311 
L 289.215333 175.677638 
L 289.529667 176.307545 
L 289.844 178.827175 
L 290.158333 180.08699 
L 290.472667 180.08699 
L 290.787 180.716898 
L 291.101333 180.08699 
L 291.415667 176.937453 
L 291.73 176.307545 
L 292.044333 175.04773 
L 292.673 171.268311 
L 293.301667 170.008496 
L 293.616 171.268311 
L 293.930333 168.748681 
L 294.244667 171.268311 
L 294.559 171.268311 
L 294.873333 171.898193 
L 295.187667 171.898193 
L 295.816333 173.158008 
L 296.130667 172.5281 
L 296.445 174.417823 
L 297.073667 173.158008 
L 298.645333 173.158008 
L 298.959667 170.008496 
L 299.902667 163.70942 
L 300.217 160.559908 
L 300.531333 159.929975 
L 300.845667 164.969235 
L 301.16 158.040278 
L 301.474333 153.630926 
L 303.046 144.182338 
L 303.360333 144.182338 
L 303.674667 144.812246 
L 303.989 142.922523 
L 304.303333 142.292616 
L 304.617667 139.773011 
L 304.932 139.773011 
L 305.246333 138.513171 
L 305.560667 137.883289 
L 305.875 135.993566 
L 306.189333 135.993566 
L 306.818 131.584214 
L 307.132333 131.584214 
L 307.446667 130.324398 
L 308.075333 129.064609 
L 308.389667 127.174886 
L 309.018333 127.174886 
L 309.332667 125.915071 
L 309.961333 125.915071 
L 310.275667 125.285164 
L 310.59 125.285164 
L 310.904333 124.025349 
L 311.218667 124.025349 
L 312.161667 122.135626 
L 312.476 120.875811 
L 313.104667 120.875811 
L 313.419 120.245904 
L 314.362 120.245904 
L 314.676333 119.615996 
L 315.619333 119.615996 
L 315.933667 118.986114 
L 316.248 117.726274 
L 316.562333 117.096366 
L 317.191 114.576762 
L 317.505333 114.576762 
L 317.819667 111.427224 
L 318.134 111.427224 
L 318.448333 110.167409 
L 318.762667 110.167409 
L 319.077 108.907594 
L 320.648667 108.907594 
L 320.963 108.277712 
L 321.277333 108.907594 
L 321.591667 108.277712 
L 321.906 108.907594 
L 322.220333 108.907594 
L 322.534667 109.537501 
L 323.163333 113.946854 
L 323.477667 115.836577 
L 325.363667 135.363659 
L 325.992333 145.442153 
L 326.621 153.001018 
L 326.935333 153.630926 
L 327.249667 153.630926 
L 327.564 152.371111 
L 327.878333 153.001018 
L 328.192667 153.001018 
L 329.45 146.072061 
L 329.764333 146.072061 
L 330.078667 147.961784 
L 330.393 147.331876 
L 330.707333 147.331876 
L 331.021667 150.481414 
L 331.964667 152.371111 
L 332.279 152.371111 
L 332.593333 151.741203 
L 332.907667 151.741203 
L 333.222 150.481414 
L 333.536333 150.481414 
L 333.850667 147.961784 
L 334.165 147.331876 
L 334.479333 143.552431 
L 335.422333 137.253381 
L 335.736667 134.733751 
L 336.994 119.615996 
L 337.622667 116.466484 
L 338.251333 116.466484 
L 338.565667 115.836577 
L 339.823 115.836577 
L 340.137333 113.946854 
L 340.451667 106.387964 
L 341.394667 100.088914 
L 341.709 96.939377 
L 342.337667 88.120697 
L 342.966333 80.561832 
L 343.280667 79.931925 
L 343.595 77.412295 
L 343.909333 78.67211 
L 344.538 78.67211 
L 345.166667 79.931925 
L 345.481 81.19174 
L 346.109667 87.490789 
L 346.424 88.120697 
L 346.738333 91.900142 
L 347.052667 93.789839 
L 347.367 97.56931 
L 347.995667 101.978637 
L 348.31 108.277712 
L 348.624333 109.537501 
L 349.567333 122.765534 
L 349.881667 125.285164 
L 350.196 130.954306 
L 350.824667 135.993566 
L 351.139 137.253381 
L 351.767667 137.253381 
L 352.082 138.513171 
L 352.710667 138.513171 
L 353.025 137.253381 
L 353.339333 137.253381 
L 353.653667 139.143078 
L 353.968 144.182338 
L 354.911 150.481414 
L 355.225333 150.481414 
L 355.539667 153.630926 
L 355.854 154.890741 
L 356.168333 155.520648 
L 356.482667 154.260833 
L 357.111333 154.260833 
L 357.425667 152.371111 
L 357.74 146.701968 
L 358.368667 143.552431 
L 360.254667 120.875811 
L 360.569 120.875811 
L 360.883333 118.986114 
L 361.197667 115.206669 
L 361.512 113.316947 
L 362.455 104.498267 
L 362.769333 99.459007 
L 363.083667 98.199192 
L 363.398 95.04968 
L 363.712333 90.640327 
L 364.026667 88.120697 
L 364.655333 78.67211 
L 364.969667 76.782387 
L 365.284 71.743152 
L 365.598333 71.743152 
L 365.912667 69.85343 
L 366.227 70.483337 
L 366.541333 69.85343 
L 367.17 69.85343 
L 367.484333 70.483337 
L 367.798667 70.483337 
L 368.113 69.85343 
L 368.427333 70.483337 
L 368.741667 68.593615 
L 369.056 69.223522 
L 369.684667 69.223522 
L 370.313333 73.632875 
L 370.627667 75.522572 
L 370.942 76.15248 
L 371.570667 81.821647 
L 372.199333 88.750604 
L 374.399667 124.025349 
L 374.714 125.915071 
L 375.028333 126.544979 
L 375.342667 125.915071 
L 375.657 126.544979 
L 375.971333 126.544979 
L 376.285667 125.915071 
L 376.914333 125.915071 
L 377.228667 126.544979 
L 377.543 126.544979 
L 377.857333 127.804768 
L 378.171667 127.804768 
L 378.486 130.954306 
L 378.800333 130.954306 
L 379.114667 132.214121 
L 379.743333 133.473936 
L 380.057667 132.844029 
L 380.372 129.064609 
L 381.000667 129.064609 
L 381.315 127.174886 
L 381.629333 126.544979 
L 381.943667 124.025349 
L 382.258 123.395441 
L 382.572333 118.986114 
L 382.886667 118.356181 
L 383.201 113.946854 
L 383.829667 108.277712 
L 384.458333 107.017871 
L 384.772667 105.758082 
L 385.401333 99.459007 
L 385.715667 98.829099 
L 386.344333 96.309469 
L 386.973 89.380512 
L 387.287333 88.750604 
L 388.859 71.113245 
L 389.173333 68.593615 
L 389.487667 67.963707 
L 389.802 69.85343 
L 390.430667 69.85343 
L 390.745 70.483337 
L 391.373667 70.483337 
L 392.002333 73.632875 
L 392.316667 74.892665 
L 392.631 75.522572 
L 392.945333 75.522572 
L 393.259667 76.15248 
L 393.574 77.412295 
L 393.888333 79.931925 
L 394.202667 79.931925 
L 394.517 82.451555 
L 394.831333 89.380512 
L 395.46 96.939377 
L 397.346 129.064609 
L 397.660333 128.434676 
L 398.289 128.434676 
L 398.917667 127.174886 
L 400.175 117.096366 
L 400.803667 117.096366 
L 401.118 118.986114 
L 401.746667 118.986114 
L 402.061 117.726274 
L 402.375333 117.726274 
L 402.689667 115.836577 
L 403.004 111.427224 
L 403.318333 110.797316 
L 403.632667 108.907594 
L 403.947 108.277712 
L 404.89 98.199192 
L 406.147333 81.821647 
L 406.776 73.632875 
L 407.090333 72.373034 
L 407.404667 71.743152 
L 408.347667 71.743152 
L 408.662 72.373034 
L 408.976333 74.262783 
L 409.290667 72.373034 
L 409.919333 71.113245 
L 410.233667 68.593615 
L 410.548 67.3338 
L 410.862333 67.3338 
L 411.176667 64.81417 
L 411.491 64.184262 
L 412.434 64.184262 
L 412.748333 64.81417 
L 413.062667 66.703892 
L 413.377 66.703892 
L 413.691333 69.85343 
L 414.005667 71.113245 
L 414.32 71.113245 
L 414.948667 78.042202 
L 415.263 78.67211 
L 415.577333 83.081437 
L 415.891667 84.971185 
L 417.777667 108.277712 
L 418.092 113.946854 
L 418.406333 117.096366 
L 418.720667 117.726274 
L 419.035 117.726274 
L 419.663667 118.986114 
L 420.292333 118.986114 
L 420.606667 118.356181 
L 420.921 118.356181 
L 421.549667 124.025349 
L 421.864 127.174886 
L 422.178333 127.174886 
L 422.492667 128.434676 
L 422.807 132.214121 
L 423.121333 132.214121 
L 423.435667 132.844029 
L 423.75 132.844029 
L 424.064333 132.214121 
L 424.378667 132.214121 
L 425.007333 127.804768 
L 425.321667 126.544979 
L 425.636 124.655256 
L 426.264667 117.726274 
L 426.579 111.427224 
L 426.893333 110.167409 
L 427.207667 105.128174 
L 428.465 94.419772 
L 429.408 84.341277 
L 429.722333 81.19174 
L 430.351 77.412295 
L 430.665333 73.632875 
L 430.979667 71.743152 
L 431.608333 66.073985 
L 432.551333 60.404843 
L 432.865667 59.774935 
L 433.18 58.515095 
L 433.808667 58.515095 
L 434.123 59.145028 
L 434.437333 57.885213 
L 434.751667 55.365583 
L 435.066 54.735675 
L 435.380333 53.475886 
L 435.694667 52.845978 
L 436.009 52.845978 
L 436.323333 51.586137 
L 436.637667 51.586137 
L 436.952 49.69644 
L 437.266333 51.586137 
L 437.580667 50.326322 
L 437.895 50.326322 
L 438.209333 49.066533 
L 439.152333 59.145028 
L 439.466667 60.404843 
L 439.781 62.29454 
L 440.095333 65.444077 
L 440.409667 70.483337 
L 440.724 73.002968 
L 441.352667 82.451555 
L 441.667 88.750604 
L 441.981333 91.270234 
L 442.61 102.608544 
L 442.924333 105.758082 
L 443.238667 110.167409 
L 443.553 118.356181 
L 443.867333 118.356181 
L 444.181667 117.096366 
L 444.496 119.615996 
L 445.124667 119.615996 
L 445.439 118.356181 
L 445.753333 118.356181 
L 446.067667 118.986114 
L 446.382 118.986114 
L 446.696333 119.615996 
L 447.010667 123.395441 
L 447.325 124.025349 
L 447.639333 124.025349 
L 447.953667 127.174886 
L 448.268 127.174886 
L 448.582333 127.804768 
L 448.896667 127.804768 
L 449.211 127.174886 
L 449.525333 125.285164 
L 449.839667 122.135626 
L 450.154 121.505719 
L 450.468333 119.615996 
L 450.782667 116.466484 
L 451.097 115.206669 
L 451.411333 110.167409 
L 451.725667 107.647779 
L 452.04 102.608544 
L 452.354333 100.718822 
L 452.668667 94.419772 
L 453.297333 87.490789 
L 453.926 87.490789 
L 454.554667 86.230974 
L 454.869 84.971185 
L 455.183333 84.341277 
L 455.497667 82.451555 
L 455.812 78.67211 
L 456.126333 72.373034 
L 456.440667 71.113245 
L 456.755 68.593615 
L 457.069333 61.664632 
L 457.383667 59.774935 
L 457.698 51.586137 
L 458.012333 48.436625 
L 458.641 44.027273 
L 459.584 44.027273 
L 459.898333 44.65718 
L 460.841333 49.69644 
L 461.47 55.99549 
L 462.098667 61.03475 
L 462.413 62.29454 
L 462.727333 66.073985 
L 463.356 69.85343 
L 463.670333 75.522572 
L 464.299 79.302017 
L 465.556333 96.939377 
L 465.870667 99.459007 
L 466.185 105.128174 
L 466.499333 107.647779 
L 466.813667 114.576762 
L 467.442333 120.875811 
L 467.756667 123.395441 
L 468.071 123.395441 
L 468.699667 122.135626 
L 469.642667 122.135626 
L 469.957 121.505719 
L 470.271333 122.135626 
L 471.528667 122.135626 
L 472.157333 117.096366 
L 472.471667 116.466484 
L 473.414667 109.537501 
L 474.357667 97.56931 
L 474.672 95.679587 
L 474.986333 91.900142 
L 475.300667 86.230974 
L 475.615 83.081437 
L 475.929333 81.821647 
L 476.243667 78.042202 
L 476.558 76.782387 
L 477.815333 67.3338 
L 478.758333 62.29454 
L 479.072667 57.885213 
L 479.387 57.885213 
L 479.701333 55.99549 
L 480.015667 50.95623 
L 480.33 50.326322 
L 480.644333 50.326322 
L 480.958667 49.69644 
L 481.587333 49.69644 
L 481.901667 50.326322 
L 482.530333 50.326322 
L 482.844667 51.586137 
L 483.473333 51.586137 
L 483.787667 52.845978 
L 484.730667 57.885213 
L 485.045 62.29454 
L 485.359333 64.81417 
L 485.673667 68.593615 
L 486.302333 78.67211 
L 486.616667 81.821647 
L 487.245333 93.789839 
L 487.559667 98.199192 
L 487.874 98.199192 
L 488.188333 99.459007 
L 488.817 103.238452 
L 489.131333 103.238452 
L 489.445667 103.868359 
L 489.76 103.238452 
L 490.074333 104.498267 
L 490.388667 106.387964 
L 490.703 112.057132 
L 491.017333 113.316947 
L 491.331667 113.946854 
L 491.646 117.726274 
L 491.960333 118.356181 
L 492.274667 119.615996 
L 492.589 124.025349 
L 492.903333 126.544979 
L 493.217667 127.174886 
L 493.532 129.694517 
L 493.846333 129.694517 
L 494.160667 130.324398 
L 494.475 130.324398 
L 494.789333 129.694517 
L 495.418 123.395441 
L 495.732333 122.765534 
L 496.046667 118.986114 
L 496.361 117.096366 
L 496.675333 110.167409 
L 496.989667 108.277712 
L 497.304 105.128174 
L 497.618333 100.718822 
L 497.932667 98.829099 
L 498.247 95.04968 
L 498.561333 93.159957 
L 498.875667 93.159957 
L 499.19 92.53005 
L 499.504333 90.010419 
L 499.818667 89.380512 
L 500.133 86.230974 
L 500.447333 78.042202 
L 500.761667 77.412295 
L 501.076 76.15248 
L 502.333333 66.073985 
L 502.647667 61.664632 
L 503.276333 58.515095 
L 503.590667 58.515095 
L 503.905 59.145028 
L 504.219333 57.885213 
L 504.533667 47.806718 
L 504.848 52.21607 
L 505.162333 52.845978 
L 505.476667 54.735675 
L 506.419667 54.735675 
L 506.734 55.365583 
L 507.048333 56.625398 
L 507.362667 58.515095 
L 507.677 58.515095 
L 507.991333 59.774935 
L 508.305667 62.924473 
L 508.934333 67.3338 
L 510.191667 83.081437 
L 511.449 102.608544 
L 512.077667 105.758082 
L 512.392 107.017871 
L 512.706333 107.647779 
L 513.020667 109.537501 
L 513.649333 109.537501 
L 513.963667 108.277712 
L 514.278 108.277712 
L 515.849667 120.875811 
L 516.164 121.505719 
L 516.478333 124.025349 
L 516.792667 125.285164 
L 517.107 128.434676 
L 517.421333 127.174886 
L 517.735667 126.544979 
L 518.05 126.544979 
L 518.364333 124.025349 
L 518.993 121.505719 
L 519.307333 120.875811 
L 519.621667 118.986114 
L 521.193333 102.608544 
L 521.507667 97.56931 
L 521.822 94.419772 
L 522.450667 85.601067 
L 522.765 82.451555 
L 523.079333 77.412295 
L 523.393667 74.262783 
L 523.708 73.002968 
L 524.336667 73.002968 
L 524.651 71.113245 
L 524.965333 71.113245 
L 525.279667 70.483337 
L 525.594 70.483337 
L 525.908333 69.223522 
L 526.222667 67.3338 
L 526.537 62.924473 
L 526.851333 60.404843 
L 527.165667 60.404843 
L 527.794333 53.475886 
L 528.108667 53.475886 
L 528.423 48.436625 
L 529.051667 48.436625 
L 529.680333 50.95623 
L 529.994667 50.95623 
L 530.309 51.586137 
L 530.623333 52.845978 
L 530.937667 55.99549 
L 531.252 56.625398 
L 531.566333 60.404843 
L 531.880667 61.664632 
L 532.823667 69.85343 
L 533.138 75.522572 
L 533.452333 76.782387 
L 534.081 84.341277 
L 534.709667 90.640327 
L 535.024 95.04968 
L 535.338333 97.56931 
L 535.967 103.868359 
L 536.281333 106.387964 
L 536.595667 105.758082 
L 536.91 113.316947 
L 537.224333 114.576762 
L 537.538667 117.726274 
L 537.853 107.647779 
L 538.167333 114.576762 
L 538.481667 118.986114 
L 538.796 118.356181 
L 539.110333 119.615996 
L 539.424667 123.395441 
L 539.739 123.395441 
L 540.053333 124.655256 
L 540.367667 125.285164 
L 541.310667 129.064609 
L 541.625 129.694517 
L 541.625 129.694517 
" clip-path="url(#p98aefb5e7f)" style="fill: none; stroke: #ff7f0e; stroke-width: 1.5; stroke-linecap: square"/>
   </g>
   <g id="patch_3">
    <path d="M 46.55 404.12 
L 46.55 26.88 
" style="fill: none; stroke: #000000; stroke-width: 0.8; stroke-linejoin: miter; stroke-linecap: square"/>
   </g>
   <g id="patch_4">
    <path d="M 565.2 404.12 
L 565.2 26.88 
" style="fill: none; stroke: #000000; stroke-width: 0.8; stroke-linejoin: miter; stroke-linecap: square"/>
   </g>
   <g id="patch_5">
    <path d="M 46.55 404.12 
L 565.2 404.12 
" style="fill: none; stroke: #000000; stroke-width: 0.8; stroke-linejoin: miter; stroke-linecap: square"/>
   </g>
   <g id="patch_6">
    <path d="M 46.55 26.88 
L 565.2 26.88 
" style="fill: none; stroke: #000000; stroke-width: 0.8; stroke-linejoin: miter; stroke-linecap: square"/>
   </g>
   <g id="text_17">
    <!-- Plant Outputs (Angle &amp; Position) -->
    <g transform="translate(209.371562 20.88) scale(0.12 -0.12)">
     <defs>
      <path id="DejaVuSans-50" d="M 1259 4147 
L 1259 2394 
L 2053 2394 
Q 2494 2394 2734 2622 
Q 2975 2850 2975 3272 
Q 2975 3691 2734 3919 
Q 2494 4147 2053 4147 
L 1259 4147 
z
M 628 4666 
L 2053 4666 
Q 2838 4666 3239 4311 
Q 3641 3956 3641 3272 
Q 3641 2581 3239 2228 
Q 2838 1875 2053 1875 
L 1259 1875 
L 1259 0 
L 628 0 
L 628 4666 
z
" transform="scale(0.015625)"/>
      <path id="DejaVuSans-6c" d="M 603 4863 
L 1178 4863 
L 1178 0 
L 603 0 
L 603 4863 
z
" transform="scale(0.015625)"/>
      <path id="DejaVuSans-61" d="M 2194 1759 
Q 1497 1759 1228 1600 
Q 959 1441 959 1056 
Q 959 750 1161 570 
Q 1363 391 1709 391 
Q 2188 391 2477 730 
Q 2766 1069 2766 1631 
L 2766 1759 
L 2194 1759 
z
M 3341 1997 
L 3341 0 
L 2766 0 
L 2766 531 
Q 2569 213 2275 61 
Q 1981 -91 1556 -91 
Q 1019 -91 701 211 
Q 384 513 384 1019 
Q 384 1609 779 1909 
Q 1175 2209 1959 2209 
L 2766 2209 
L 2766 2266 
Q 2766 2663 2505 2880 
Q 2244 3097 1772 3097 
Q 1472 3097 1187 3025 
Q 903 2953 641 2809 
L 641 3341 
Q 956 3463 1253 3523 
Q 1550 3584 1831 3584 
Q 2591 3584 2966 3190 
Q 3341 2797 3341 1997 
z
" transform="scale(0.015625)"/>
      <path id="DejaVuSans-6e" d="M 3513 2113 
L 3513 0 
L 2938 0 
L 2938 2094 
Q 2938 2591 2744 2837 
Q 2550 3084 2163 3084 
Q 1697 3084 1428 2787 
Q 1159 2491 1159 1978 
L 1159 0 
L 581 0 
L 581 3500 
L 1159 3500 
L 1159 2956 
Q 1366 3272 1645 3428 
Q 1925 3584 2291 3584 
Q 2894 3584 3203 3211 
Q 3513 2838 3513 2113 
z
" transform="scale(0.015625)"/>
      <path id="DejaVuSans-20" transform="scale(0.015625)"/>
      <path id="DejaVuSans-73" d="M 2834 3397 
L 2834 2853 
Q 2591 2978 2328 3040 
Q 2066 3103 1784 3103 
Q 1356 3103 1142 2972 
Q 928 2841 928 2578 
Q 928 2378 1081 2264 
Q 1234 2150 1697 2047 
L 1894 2003 
Q 2506 1872 2764 1633 
Q 3022 1394 3022 966 
Q 3022 478 2636 193 
Q 2250 -91 1575 -91 
Q 1294 -91 989 -36 
Q 684 19 347 128 
L 347 722 
Q 666 556 975 473 
Q 1284 391 1588 391 
Q 1994 391 2212 530 
Q 2431 669 2431 922 
Q 2431 1156 2273 1281 
Q 2116 1406 1581 1522 
L 1381 1569 
Q 847 1681 609 1914 
Q 372 2147 372 2553 
Q 372 3047 722 3315 
Q 1072 3584 1716 3584 
Q 2034 3584 2315 3537 
Q 2597 3491 2834 3397 
z
" transform="scale(0.015625)"/>
      <path id="DejaVuSans-28" d="M 1984 4856 
Q 1566 4138 1362 3434 
Q 1159 2731 1159 2009 
Q 1159 1288 1364 580 
Q 1569 -128 1984 -844 
L 1484 -844 
Q 1016 -109 783 600 
Q 550 1309 550 2009 
Q 550 2706 781 3412 
Q 1013 4119 1484 4856 
L 1984 4856 
z
" transform="scale(0.015625)"/>
      <path id="DejaVuSans-41" d="M 2188 4044 
L 1331 1722 
L 3047 1722 
L 2188 4044 
z
M 1831 4666 
L 2547 4666 
L 4325 0 
L 3669 0 
L 3244 1197 
L 1141 1197 
L 716 0 
L 50 0 
L 1831 4666 
z
" transform="scale(0.015625)"/>
      <path id="DejaVuSans-67" d="M 2906 1791 
Q 2906 2416 2648 2759 
Q 2391 3103 1925 3103 
Q 1463 3103 1205 2759 
Q 947 2416 947 1791 
Q 947 1169 1205 825 
Q 1463 481 1925 481 
Q 2391 481 2648 825 
Q 2906 1169 2906 1791 
z
M 3481 434 
Q 3481 -459 3084 -895 
Q 2688 -1331 1869 -1331 
Q 1566 -1331 1297 -1286 
Q 1028 -1241 775 -1147 
L 775 -588 
Q 1028 -725 1275 -790 
Q 1522 -856 1778 -856 
Q 2344 -856 2625 -561 
Q 2906 -266 2906 331 
L 2906 616 
Q 2728 306 2450 153 
Q 2172 0 1784 0 
Q 1141 0 747 490 
Q 353 981 353 1791 
Q 353 2603 747 3093 
Q 1141 3584 1784 3584 
Q 2172 3584 2450 3431 
Q 2728 3278 2906 2969 
L 2906 3500 
L 3481 3500 
L 3481 434 
z
" transform="scale(0.015625)"/>
      <path id="DejaVuSans-65" d="M 3597 1894 
L 3597 1613 
L 953 1613 
Q 991 1019 1311 708 
Q 1631 397 2203 397 
Q 2534 397 2845 478 
Q 3156 559 3463 722 
L 3463 178 
Q 3153 47 2828 -22 
Q 2503 -91 2169 -91 
Q 1331 -91 842 396 
Q 353 884 353 1716 
Q 353 2575 817 3079 
Q 1281 3584 2069 3584 
Q 2775 3584 3186 3129 
Q 3597 2675 3597 1894 
z
M 3022 2063 
Q 3016 2534 2758 2815 
Q 2500 3097 2075 3097 
Q 1594 3097 1305 2825 
Q 1016 2553 972 2059 
L 3022 2063 
z
" transform="scale(0.015625)"/>
      <path id="DejaVuSans-26" d="M 1556 2509 
Q 1272 2256 1139 2004 
Q 1006 1753 1006 1478 
Q 1006 1022 1337 719 
Q 1669 416 2169 416 
Q 2466 416 2725 514 
Q 2984 613 3213 813 
L 1556 2509 
z
M 1997 2859 
L 3584 1234 
Q 3769 1513 3872 1830 
Q 3975 2147 3994 2503 
L 4575 2503 
Q 4538 2091 4375 1687 
Q 4213 1284 3922 891 
L 4794 0 
L 4006 0 
L 3559 459 
Q 3234 181 2878 45 
Q 2522 -91 2113 -91 
Q 1359 -91 881 339 
Q 403 769 403 1441 
Q 403 1841 612 2192 
Q 822 2544 1241 2853 
Q 1091 3050 1012 3245 
Q 934 3441 934 3628 
Q 934 4134 1281 4442 
Q 1628 4750 2203 4750 
Q 2463 4750 2720 4694 
Q 2978 4638 3244 4525 
L 3244 3956 
Q 2972 4103 2725 4179 
Q 2478 4256 2266 4256 
Q 1938 4256 1733 4082 
Q 1528 3909 1528 3634 
Q 1528 3475 1620 3314 
Q 1713 3153 1997 2859 
z
" transform="scale(0.015625)"/>
      <path id="DejaVuSans-6f" d="M 1959 3097 
Q 1497 3097 1228 2736 
Q 959 2375 959 1747 
Q 959 1119 1226 758 
Q 1494 397 1959 397 
Q 2419 397 2687 759 
Q 2956 1122 2956 1747 
Q 2956 2369 2687 2733 
Q 2419 3097 1959 3097 
z
M 1959 3584 
Q 2709 3584 3137 3096 
Q 3566 2609 3566 1747 
Q 3566 888 3137 398 
Q 2709 -91 1959 -91 
Q 1206 -91 779 398 
Q 353 888 353 1747 
Q 353 2609 779 3096 
Q 1206 3584 1959 3584 
z
" transform="scale(0.015625)"/>
      <path id="DejaVuSans-69" d="M 603 3500 
L 1178 3500 
L 1178 0 
L 603 0 
L 603 3500 
z
M 603 4863 
L 1178 4863 
L 1178 4134 
L 603 4134 
L 603 4863 
z
" transform="scale(0.015625)"/>
      <path id="DejaVuSans-29" d="M 513 4856 
L 1013 4856 
Q 1481 4119 1714 3412 
Q 1947 2706 1947 2009 
Q 1947 1309 1714 600 
Q 1481 -109 1013 -844 
L 513 -844 
Q 928 -128 1133 580 
Q 1338 1288 1338 2009 
Q 1338 2731 1133 3434 
Q 928 4138 513 4856 
z
" transform="scale(0.015625)"/>
     </defs>
     <use xlink:href="#DejaVuSans-50"/>
     <use xlink:href="#DejaVuSans-6c" transform="translate(60.302734 0)"/>
     <use xlink:href="#DejaVuSans-61" transform="translate(88.085938 0)"/>
     <use xlink:href="#DejaVuSans-6e" transform="translate(149.365234 0)"/>
     <use xlink:href="#DejaVuSans-74" transform="translate(212.744141 0)"/>
     <use xlink:href="#DejaVuSans-20" transform="translate(251.953125 0)"/>
     <use xlink:href="#DejaVuSans-4f" transform="translate(283.740234 0)"/>
     <use xlink:href="#DejaVuSans-75" transform="translate(362.451172 0)"/>
     <use xlink:href="#DejaVuSans-74" transform="translate(425.830078 0)"/>
     <use xlink:href="#DejaVuSans-70" transform="translate(465.039062 0)"/>
     <use xlink:href="#DejaVuSans-75" transform="translate(528.515625 0)"/>
     <use xlink:href="#DejaVuSans-74" transform="translate(591.894531 0)"/>
     <use xlink:href="#DejaVuSans-73" transform="translate(631.103516 0)"/>
     <use xlink:href="#DejaVuSans-20" transform="translate(683.203125 0)"/>
     <use xlink:href="#DejaVuSans-28" transform="translate(714.990234 0)"/>
     <use xlink:href="#DejaVuSans-41" transform="translate(754.003906 0)"/>
     <use xlink:href="#DejaVuSans-6e" transform="translate(822.412109 0)"/>
     <use xlink:href="#DejaVuSans-67" transform="translate(885.791016 0)"/>
     <use xlink:href="#DejaVuSans-6c" transform="translate(949.267578 0)"/>
     <use xlink:href="#DejaVuSans-65" transform="translate(977.050781 0)"/>
     <use xlink:href="#DejaVuSans-20" transform="translate(1038.574219 0)"/>
     <use xlink:href="#DejaVuSans-26" transform="translate(1070.361328 0)"/>
     <use xlink:href="#DejaVuSans-20" transform="translate(1148.339844 0)"/>
     <use xlink:href="#DejaVuSans-50" transform="translate(1180.126953 0)"/>
     <use xlink:href="#DejaVuSans-6f" transform="translate(1236.804688 0)"/>
     <use xlink:href="#DejaVuSans-73" transform="translate(1297.986328 0)"/>
     <use xlink:href="#DejaVuSans-69" transform="translate(1350.085938 0)"/>
     <use xlink:href="#DejaVuSans-74" transform="translate(1377.869141 0)"/>
     <use xlink:href="#DejaVuSans-69" transform="translate(1417.078125 0)"/>
     <use xlink:href="#DejaVuSans-6f" transform="translate(1444.861328 0)"/>
     <use xlink:href="#DejaVuSans-6e" transform="translate(1506.042969 0)"/>
     <use xlink:href="#DejaVuSans-29" transform="translate(1569.421875 0)"/>
    </g>
   </g>
   <g id="legend_1">
    <g id="patch_7">
     <path d="M 53.55 64.23625 
L 145.2 64.23625 
Q 147.2 64.23625 147.2 62.23625 
L 147.2 33.88 
Q 147.2 31.88 145.2 31.88 
L 53.55 31.88 
Q 51.55 31.88 51.55 33.88 
L 51.55 62.23625 
Q 51.55 64.23625 53.55 64.23625 
z
" style="fill: #ffffff; opacity: 0.8; stroke: #cccccc; stroke-linejoin: miter"/>
    </g>
    <g id="line2d_33">
     <path d="M 55.55 39.978437 
L 65.55 39.978437 
L 75.55 39.978437 
" style="fill: none; stroke: #1f77b4; stroke-width: 1.5; stroke-linecap: square"/>
    </g>
    <g id="text_18">
     <!-- Angle (deg) -->
     <g transform="translate(83.55 43.478437) scale(0.1 -0.1)">
      <defs>
       <path id="DejaVuSans-64" d="M 2906 2969 
L 2906 4863 
L 3481 4863 
L 3481 0 
L 2906 0 
L 2906 525 
Q 2725 213 2448 61 
Q 2172 -91 1784 -91 
Q 1150 -91 751 415 
Q 353 922 353 1747 
Q 353 2572 751 3078 
Q 1150 3584 1784 3584 
Q 2172 3584 2448 3432 
Q 2725 3281 2906 2969 
z
M 947 1747 
Q 947 1113 1208 752 
Q 1469 391 1925 391 
Q 2381 391 2643 752 
Q 2906 1113 2906 1747 
Q 2906 2381 2643 2742 
Q 2381 3103 1925 3103 
Q 1469 3103 1208 2742 
Q 947 2381 947 1747 
z
" transform="scale(0.015625)"/>
      </defs>
      <use xlink:href="#DejaVuSans-41"/>
      <use xlink:href="#DejaVuSans-6e" transform="translate(68.408203 0)"/>
      <use xlink:href="#DejaVuSans-67" transform="translate(131.787109 0)"/>
      <use xlink:href="#DejaVuSans-6c" transform="translate(195.263672 0)"/>
      <use xlink:href="#DejaVuSans-65" transform="translate(223.046875 0)"/>
      <use xlink:href="#DejaVuSans-20" transform="translate(284.570312 0)"/>
      <use xlink:href="#DejaVuSans-28" transform="translate(316.357422 0)"/>
      <use xlink:href="#DejaVuSans-64" transform="translate(355.371094 0)"/>
      <use xlink:href="#DejaVuSans-65" transform="translate(418.847656 0)"/>
      <use xlink:href="#DejaVuSans-67" transform="translate(480.371094 0)"/>
      <use xlink:href="#DejaVuSans-29" transform="translate(543.847656 0)"/>
     </g>
    </g>
    <g id="line2d_34">
     <path d="M 55.55 54.656563 
L 65.55 54.656563 
L 75.55 54.656563 
" style="fill: none; stroke: #ff7f0e; stroke-width: 1.5; stroke-linecap: square"/>
    </g>
    <g id="text_19">
     <!-- Position (m) -->
     <g transform="translate(83.55 58.156563) scale(0.1 -0.1)">
      <defs>
       <path id="DejaVuSans-6d" d="M 3328 2828 
Q 3544 3216 3844 3400 
Q 4144 3584 4550 3584 
Q 5097 3584 5394 3201 
Q 5691 2819 5691 2113 
L 5691 0 
L 5113 0 
L 5113 2094 
Q 5113 2597 4934 2840 
Q 4756 3084 4391 3084 
Q 3944 3084 3684 2787 
Q 3425 2491 3425 1978 
L 3425 0 
L 2847 0 
L 2847 2094 
Q 2847 2600 2669 2842 
Q 2491 3084 2119 3084 
Q 1678 3084 1418 2786 
Q 1159 2488 1159 1978 
L 1159 0 
L 581 0 
L 581 3500 
L 1159 3500 
L 1159 2956 
Q 1356 3278 1631 3431 
Q 1906 3584 2284 3584 
Q 2666 3584 2933 3390 
Q 3200 3197 3328 2828 
z
" transform="scale(0.015625)"/>
      </defs>
      <use xlink:href="#DejaVuSans-50"/>
      <use xlink:href="#DejaVuSans-6f" transform="translate(56.677734 0)"/>
      <use xlink:href="#DejaVuSans-73" transform="translate(117.859375 0)"/>
      <use xlink:href="#DejaVuSans-69" transform="translate(169.958984 0)"/>
      <use xlink:href="#DejaVuSans-74" transform="translate(197.742188 0)"/>
      <use xlink:href="#DejaVuSans-69" transform="translate(236.951172 0)"/>
      <use xlink:href="#DejaVuSans-6f" transform="translate(264.734375 0)"/>
      <use xlink:href="#DejaVuSans-6e" transform="translate(325.916016 0)"/>
      <use xlink:href="#DejaVuSans-20" transform="translate(389.294922 0)"/>
      <use xlink:href="#DejaVuSans-28" transform="translate(421.082031 0)"/>
      <use xlink:href="#DejaVuSans-6d" transform="translate(460.095703 0)"/>
      <use xlink:href="#DejaVuSans-29" transform="translate(557.507812 0)"/>
     </g>
    </g>
   </g>
  </g>
 </g>
 <defs>
  <clipPath id="p98aefb5e7f">
   <rect x="46.55" y="26.88" width="518.65" height="377.24"/>
  </clipPath>
 </defs>
</svg>
