<?xml version="1.0" encoding="utf-8" standalone="no"?>
<!DOCTYPE svg PUBLIC "-//W3C//DTD SVG 1.1//EN"
  "http://www.w3.org/Graphics/SVG/1.1/DTD/svg11.dtd">
<svg xmlns:xlink="http://www.w3.org/1999/xlink" width="576pt" height="432pt" viewBox="0 0 576 432" xmlns="http://www.w3.org/2000/svg" version="1.1">
 <metadata>
  <rdf:RDF xmlns:dc="http://purl.org/dc/elements/1.1/" xmlns:cc="http://creativecommons.org/ns#" xmlns:rdf="http://www.w3.org/1999/02/22-rdf-syntax-ns#">
   <cc:Work>
    <dc:type rdf:resource="http://purl.org/dc/dcmitype/StillImage"/>
    <dc:date>2025-10-15T12:14:09.834478</dc:date>
    <dc:format>image/svg+xml</dc:format>
    <dc:creator>
     <cc:Agent>
      <dc:title>Matplotlib v3.10.7, https://matplotlib.org/</dc:title>
     </cc:Agent>
    </dc:creator>
   </cc:Work>
  </rdf:RDF>
 </metadata>
 <defs>
  <style type="text/css">*{stroke-linejoin: round; stroke-linecap: butt}</style>
 </defs>
 <g id="figure_1">
  <g id="patch_1">
   <path d="M 0 432 
L 576 432 
L 576 0 
L 0 0 
z
" style="fill: #ffffff"/>
  </g>
  <g id="axes_1">
   <g id="patch_2">
    <path d="M 59.24 404.12 
L 565.2 404.12 
L 565.2 26.88 
L 59.24 26.88 
z
" style="fill: #ffffff"/>
   </g>
   <g id="matplotlib.axis_1">
    <g id="xtick_1">
     <g id="line2d_1">
      <path d="M 82.238182 404.12 
L 82.238182 26.88 
" clip-path="url(#p161d86ca07)" style="fill: none; stroke: #b0b0b0; stroke-width: 0.8; stroke-linecap: square"/>
     </g>
     <g id="line2d_2">
      <defs>
       <path id="md18482418b" d="M 0 0 
L 0 3.5 
" style="stroke: #000000; stroke-width: 0.8"/>
      </defs>
      <g>
       <use xlink:href="#md18482418b" x="82.238182" y="404.12" style="stroke: #000000; stroke-width: 0.8"/>
      </g>
     </g>
     <g id="text_1">
      <!-- 0 -->
      <g transform="translate(79.056932 418.718437) scale(0.1 -0.1)">
       <defs>
        <path id="DejaVuSans-30" d="M 2034 4250 
Q 1547 4250 1301 3770 
Q 1056 3291 1056 2328 
Q 1056 1369 1301 889 
Q 1547 409 2034 409 
Q 2525 409 2770 889 
Q 3016 1369 3016 2328 
Q 3016 3291 2770 3770 
Q 2525 4250 2034 4250 
z
M 2034 4750 
Q 2819 4750 3233 4129 
Q 3647 3509 3647 2328 
Q 3647 1150 3233 529 
Q 2819 -91 2034 -91 
Q 1250 -91 836 529 
Q 422 1150 422 2328 
Q 422 3509 836 4129 
Q 1250 4750 2034 4750 
z
" transform="scale(0.015625)"/>
       </defs>
       <use xlink:href="#DejaVuSans-30"/>
      </g>
     </g>
    </g>
    <g id="xtick_2">
     <g id="line2d_3">
      <path d="M 143.566667 404.12 
L 143.566667 26.88 
" clip-path="url(#p161d86ca07)" style="fill: none; stroke: #b0b0b0; stroke-width: 0.8; stroke-linecap: square"/>
     </g>
     <g id="line2d_4">
      <g>
       <use xlink:href="#md18482418b" x="143.566667" y="404.12" style="stroke: #000000; stroke-width: 0.8"/>
      </g>
     </g>
     <g id="text_2">
      <!-- 200 -->
      <g transform="translate(134.022917 418.718437) scale(0.1 -0.1)">
       <defs>
        <path id="DejaVuSans-32" d="M 1228 531 
L 3431 531 
L 3431 0 
L 469 0 
L 469 531 
Q 828 903 1448 1529 
Q 2069 2156 2228 2338 
Q 2531 2678 2651 2914 
Q 2772 3150 2772 3378 
Q 2772 3750 2511 3984 
Q 2250 4219 1831 4219 
Q 1534 4219 1204 4116 
Q 875 4013 500 3803 
L 500 4441 
Q 881 4594 1212 4672 
Q 1544 4750 1819 4750 
Q 2544 4750 2975 4387 
Q 3406 4025 3406 3419 
Q 3406 3131 3298 2873 
Q 3191 2616 2906 2266 
Q 2828 2175 2409 1742 
Q 1991 1309 1228 531 
z
" transform="scale(0.015625)"/>
       </defs>
       <use xlink:href="#DejaVuSans-32"/>
       <use xlink:href="#DejaVuSans-30" transform="translate(63.623047 0)"/>
       <use xlink:href="#DejaVuSans-30" transform="translate(127.246094 0)"/>
      </g>
     </g>
    </g>
    <g id="xtick_3">
     <g id="line2d_5">
      <path d="M 204.895152 404.12 
L 204.895152 26.88 
" clip-path="url(#p161d86ca07)" style="fill: none; stroke: #b0b0b0; stroke-width: 0.8; stroke-linecap: square"/>
     </g>
     <g id="line2d_6">
      <g>
       <use xlink:href="#md18482418b" x="204.895152" y="404.12" style="stroke: #000000; stroke-width: 0.8"/>
      </g>
     </g>
     <g id="text_3">
      <!-- 400 -->
      <g transform="translate(195.351402 418.718437) scale(0.1 -0.1)">
       <defs>
        <path id="DejaVuSans-34" d="M 2419 4116 
L 825 1625 
L 2419 1625 
L 2419 4116 
z
M 2253 4666 
L 3047 4666 
L 3047 1625 
L 3713 1625 
L 3713 1100 
L 3047 1100 
L 3047 0 
L 2419 0 
L 2419 1100 
L 313 1100 
L 313 1709 
L 2253 4666 
z
" transform="scale(0.015625)"/>
       </defs>
       <use xlink:href="#DejaVuSans-34"/>
       <use xlink:href="#DejaVuSans-30" transform="translate(63.623047 0)"/>
       <use xlink:href="#DejaVuSans-30" transform="translate(127.246094 0)"/>
      </g>
     </g>
    </g>
    <g id="xtick_4">
     <g id="line2d_7">
      <path d="M 266.223636 404.12 
L 266.223636 26.88 
" clip-path="url(#p161d86ca07)" style="fill: none; stroke: #b0b0b0; stroke-width: 0.8; stroke-linecap: square"/>
     </g>
     <g id="line2d_8">
      <g>
       <use xlink:href="#md18482418b" x="266.223636" y="404.12" style="stroke: #000000; stroke-width: 0.8"/>
      </g>
     </g>
     <g id="text_4">
      <!-- 600 -->
      <g transform="translate(256.679886 418.718437) scale(0.1 -0.1)">
       <defs>
        <path id="DejaVuSans-36" d="M 2113 2584 
Q 1688 2584 1439 2293 
Q 1191 2003 1191 1497 
Q 1191 994 1439 701 
Q 1688 409 2113 409 
Q 2538 409 2786 701 
Q 3034 994 3034 1497 
Q 3034 2003 2786 2293 
Q 2538 2584 2113 2584 
z
M 3366 4563 
L 3366 3988 
Q 3128 4100 2886 4159 
Q 2644 4219 2406 4219 
Q 1781 4219 1451 3797 
Q 1122 3375 1075 2522 
Q 1259 2794 1537 2939 
Q 1816 3084 2150 3084 
Q 2853 3084 3261 2657 
Q 3669 2231 3669 1497 
Q 3669 778 3244 343 
Q 2819 -91 2113 -91 
Q 1303 -91 875 529 
Q 447 1150 447 2328 
Q 447 3434 972 4092 
Q 1497 4750 2381 4750 
Q 2619 4750 2861 4703 
Q 3103 4656 3366 4563 
z
" transform="scale(0.015625)"/>
       </defs>
       <use xlink:href="#DejaVuSans-36"/>
       <use xlink:href="#DejaVuSans-30" transform="translate(63.623047 0)"/>
       <use xlink:href="#DejaVuSans-30" transform="translate(127.246094 0)"/>
      </g>
     </g>
    </g>
    <g id="xtick_5">
     <g id="line2d_9">
      <path d="M 327.552121 404.12 
L 327.552121 26.88 
" clip-path="url(#p161d86ca07)" style="fill: none; stroke: #b0b0b0; stroke-width: 0.8; stroke-linecap: square"/>
     </g>
     <g id="line2d_10">
      <g>
       <use xlink:href="#md18482418b" x="327.552121" y="404.12" style="stroke: #000000; stroke-width: 0.8"/>
      </g>
     </g>
     <g id="text_5">
      <!-- 800 -->
      <g transform="translate(318.008371 418.718437) scale(0.1 -0.1)">
       <defs>
        <path id="DejaVuSans-38" d="M 2034 2216 
Q 1584 2216 1326 1975 
Q 1069 1734 1069 1313 
Q 1069 891 1326 650 
Q 1584 409 2034 409 
Q 2484 409 2743 651 
Q 3003 894 3003 1313 
Q 3003 1734 2745 1975 
Q 2488 2216 2034 2216 
z
M 1403 2484 
Q 997 2584 770 2862 
Q 544 3141 544 3541 
Q 544 4100 942 4425 
Q 1341 4750 2034 4750 
Q 2731 4750 3128 4425 
Q 3525 4100 3525 3541 
Q 3525 3141 3298 2862 
Q 3072 2584 2669 2484 
Q 3125 2378 3379 2068 
Q 3634 1759 3634 1313 
Q 3634 634 3220 271 
Q 2806 -91 2034 -91 
Q 1263 -91 848 271 
Q 434 634 434 1313 
Q 434 1759 690 2068 
Q 947 2378 1403 2484 
z
M 1172 3481 
Q 1172 3119 1398 2916 
Q 1625 2713 2034 2713 
Q 2441 2713 2670 2916 
Q 2900 3119 2900 3481 
Q 2900 3844 2670 4047 
Q 2441 4250 2034 4250 
Q 1625 4250 1398 4047 
Q 1172 3844 1172 3481 
z
" transform="scale(0.015625)"/>
       </defs>
       <use xlink:href="#DejaVuSans-38"/>
       <use xlink:href="#DejaVuSans-30" transform="translate(63.623047 0)"/>
       <use xlink:href="#DejaVuSans-30" transform="translate(127.246094 0)"/>
      </g>
     </g>
    </g>
    <g id="xtick_6">
     <g id="line2d_11">
      <path d="M 388.880606 404.12 
L 388.880606 26.88 
" clip-path="url(#p161d86ca07)" style="fill: none; stroke: #b0b0b0; stroke-width: 0.8; stroke-linecap: square"/>
     </g>
     <g id="line2d_12">
      <g>
       <use xlink:href="#md18482418b" x="388.880606" y="404.12" style="stroke: #000000; stroke-width: 0.8"/>
      </g>
     </g>
     <g id="text_6">
      <!-- 1000 -->
      <g transform="translate(376.155606 418.718437) scale(0.1 -0.1)">
       <defs>
        <path id="DejaVuSans-31" d="M 794 531 
L 1825 531 
L 1825 4091 
L 703 3866 
L 703 4441 
L 1819 4666 
L 2450 4666 
L 2450 531 
L 3481 531 
L 3481 0 
L 794 0 
L 794 531 
z
" transform="scale(0.015625)"/>
       </defs>
       <use xlink:href="#DejaVuSans-31"/>
       <use xlink:href="#DejaVuSans-30" transform="translate(63.623047 0)"/>
       <use xlink:href="#DejaVuSans-30" transform="translate(127.246094 0)"/>
       <use xlink:href="#DejaVuSans-30" transform="translate(190.869141 0)"/>
      </g>
     </g>
    </g>
    <g id="xtick_7">
     <g id="line2d_13">
      <path d="M 450.209091 404.12 
L 450.209091 26.88 
" clip-path="url(#p161d86ca07)" style="fill: none; stroke: #b0b0b0; stroke-width: 0.8; stroke-linecap: square"/>
     </g>
     <g id="line2d_14">
      <g>
       <use xlink:href="#md18482418b" x="450.209091" y="404.12" style="stroke: #000000; stroke-width: 0.8"/>
      </g>
     </g>
     <g id="text_7">
      <!-- 1200 -->
      <g transform="translate(437.484091 418.718437) scale(0.1 -0.1)">
       <use xlink:href="#DejaVuSans-31"/>
       <use xlink:href="#DejaVuSans-32" transform="translate(63.623047 0)"/>
       <use xlink:href="#DejaVuSans-30" transform="translate(127.246094 0)"/>
       <use xlink:href="#DejaVuSans-30" transform="translate(190.869141 0)"/>
      </g>
     </g>
    </g>
    <g id="xtick_8">
     <g id="line2d_15">
      <path d="M 511.537576 404.12 
L 511.537576 26.88 
" clip-path="url(#p161d86ca07)" style="fill: none; stroke: #b0b0b0; stroke-width: 0.8; stroke-linecap: square"/>
     </g>
     <g id="line2d_16">
      <g>
       <use xlink:href="#md18482418b" x="511.537576" y="404.12" style="stroke: #000000; stroke-width: 0.8"/>
      </g>
     </g>
     <g id="text_8">
      <!-- 1400 -->
      <g transform="translate(498.812576 418.718437) scale(0.1 -0.1)">
       <use xlink:href="#DejaVuSans-31"/>
       <use xlink:href="#DejaVuSans-34" transform="translate(63.623047 0)"/>
       <use xlink:href="#DejaVuSans-30" transform="translate(127.246094 0)"/>
       <use xlink:href="#DejaVuSans-30" transform="translate(190.869141 0)"/>
      </g>
     </g>
    </g>
   </g>
   <g id="matplotlib.axis_2">
    <g id="ytick_1">
     <g id="line2d_17">
      <path d="M 59.24 384.425818 
L 565.2 384.425818 
" clip-path="url(#p161d86ca07)" style="fill: none; stroke: #b0b0b0; stroke-width: 0.8; stroke-linecap: square"/>
     </g>
     <g id="line2d_18">
      <defs>
       <path id="mfc1d980bae" d="M 0 0 
L -3.5 0 
" style="stroke: #000000; stroke-width: 0.8"/>
      </defs>
      <g>
       <use xlink:href="#mfc1d980bae" x="59.24" y="384.425818" style="stroke: #000000; stroke-width: 0.8"/>
      </g>
     </g>
     <g id="text_9">
      <!-- −150 -->
      <g transform="translate(24.772813 388.225037) scale(0.1 -0.1)">
       <defs>
        <path id="DejaVuSans-2212" d="M 678 2272 
L 4684 2272 
L 4684 1741 
L 678 1741 
L 678 2272 
z
" transform="scale(0.015625)"/>
        <path id="DejaVuSans-35" d="M 691 4666 
L 3169 4666 
L 3169 4134 
L 1269 4134 
L 1269 2991 
Q 1406 3038 1543 3061 
Q 1681 3084 1819 3084 
Q 2600 3084 3056 2656 
Q 3513 2228 3513 1497 
Q 3513 744 3044 326 
Q 2575 -91 1722 -91 
Q 1428 -91 1123 -41 
Q 819 9 494 109 
L 494 744 
Q 775 591 1075 516 
Q 1375 441 1709 441 
Q 2250 441 2565 725 
Q 2881 1009 2881 1497 
Q 2881 1984 2565 2268 
Q 2250 2553 1709 2553 
Q 1456 2553 1204 2497 
Q 953 2441 691 2322 
L 691 4666 
z
" transform="scale(0.015625)"/>
       </defs>
       <use xlink:href="#DejaVuSans-2212"/>
       <use xlink:href="#DejaVuSans-31" transform="translate(83.789062 0)"/>
       <use xlink:href="#DejaVuSans-35" transform="translate(147.412109 0)"/>
       <use xlink:href="#DejaVuSans-30" transform="translate(211.035156 0)"/>
      </g>
     </g>
    </g>
    <g id="ytick_2">
     <g id="line2d_19">
      <path d="M 59.24 340.487133 
L 565.2 340.487133 
" clip-path="url(#p161d86ca07)" style="fill: none; stroke: #b0b0b0; stroke-width: 0.8; stroke-linecap: square"/>
     </g>
     <g id="line2d_20">
      <g>
       <use xlink:href="#mfc1d980bae" x="59.24" y="340.487133" style="stroke: #000000; stroke-width: 0.8"/>
      </g>
     </g>
     <g id="text_10">
      <!-- −100 -->
      <g transform="translate(24.772813 344.286352) scale(0.1 -0.1)">
       <use xlink:href="#DejaVuSans-2212"/>
       <use xlink:href="#DejaVuSans-31" transform="translate(83.789062 0)"/>
       <use xlink:href="#DejaVuSans-30" transform="translate(147.412109 0)"/>
       <use xlink:href="#DejaVuSans-30" transform="translate(211.035156 0)"/>
      </g>
     </g>
    </g>
    <g id="ytick_3">
     <g id="line2d_21">
      <path d="M 59.24 296.548449 
L 565.2 296.548449 
" clip-path="url(#p161d86ca07)" style="fill: none; stroke: #b0b0b0; stroke-width: 0.8; stroke-linecap: square"/>
     </g>
     <g id="line2d_22">
      <g>
       <use xlink:href="#mfc1d980bae" x="59.24" y="296.548449" style="stroke: #000000; stroke-width: 0.8"/>
      </g>
     </g>
     <g id="text_11">
      <!-- −50 -->
      <g transform="translate(31.135313 300.347668) scale(0.1 -0.1)">
       <use xlink:href="#DejaVuSans-2212"/>
       <use xlink:href="#DejaVuSans-35" transform="translate(83.789062 0)"/>
       <use xlink:href="#DejaVuSans-30" transform="translate(147.412109 0)"/>
      </g>
     </g>
    </g>
    <g id="ytick_4">
     <g id="line2d_23">
      <path d="M 59.24 252.609764 
L 565.2 252.609764 
" clip-path="url(#p161d86ca07)" style="fill: none; stroke: #b0b0b0; stroke-width: 0.8; stroke-linecap: square"/>
     </g>
     <g id="line2d_24">
      <g>
       <use xlink:href="#mfc1d980bae" x="59.24" y="252.609764" style="stroke: #000000; stroke-width: 0.8"/>
      </g>
     </g>
     <g id="text_12">
      <!-- 0 -->
      <g transform="translate(45.8775 256.408983) scale(0.1 -0.1)">
       <use xlink:href="#DejaVuSans-30"/>
      </g>
     </g>
    </g>
    <g id="ytick_5">
     <g id="line2d_25">
      <path d="M 59.24 208.67108 
L 565.2 208.67108 
" clip-path="url(#p161d86ca07)" style="fill: none; stroke: #b0b0b0; stroke-width: 0.8; stroke-linecap: square"/>
     </g>
     <g id="line2d_26">
      <g>
       <use xlink:href="#mfc1d980bae" x="59.24" y="208.67108" style="stroke: #000000; stroke-width: 0.8"/>
      </g>
     </g>
     <g id="text_13">
      <!-- 50 -->
      <g transform="translate(39.515 212.470299) scale(0.1 -0.1)">
       <use xlink:href="#DejaVuSans-35"/>
       <use xlink:href="#DejaVuSans-30" transform="translate(63.623047 0)"/>
      </g>
     </g>
    </g>
    <g id="ytick_6">
     <g id="line2d_27">
      <path d="M 59.24 164.732395 
L 565.2 164.732395 
" clip-path="url(#p161d86ca07)" style="fill: none; stroke: #b0b0b0; stroke-width: 0.8; stroke-linecap: square"/>
     </g>
     <g id="line2d_28">
      <g>
       <use xlink:href="#mfc1d980bae" x="59.24" y="164.732395" style="stroke: #000000; stroke-width: 0.8"/>
      </g>
     </g>
     <g id="text_14">
      <!-- 100 -->
      <g transform="translate(33.1525 168.531614) scale(0.1 -0.1)">
       <use xlink:href="#DejaVuSans-31"/>
       <use xlink:href="#DejaVuSans-30" transform="translate(63.623047 0)"/>
       <use xlink:href="#DejaVuSans-30" transform="translate(127.246094 0)"/>
      </g>
     </g>
    </g>
    <g id="ytick_7">
     <g id="line2d_29">
      <path d="M 59.24 120.793711 
L 565.2 120.793711 
" clip-path="url(#p161d86ca07)" style="fill: none; stroke: #b0b0b0; stroke-width: 0.8; stroke-linecap: square"/>
     </g>
     <g id="line2d_30">
      <g>
       <use xlink:href="#mfc1d980bae" x="59.24" y="120.793711" style="stroke: #000000; stroke-width: 0.8"/>
      </g>
     </g>
     <g id="text_15">
      <!-- 150 -->
      <g transform="translate(33.1525 124.59293) scale(0.1 -0.1)">
       <use xlink:href="#DejaVuSans-31"/>
       <use xlink:href="#DejaVuSans-35" transform="translate(63.623047 0)"/>
       <use xlink:href="#DejaVuSans-30" transform="translate(127.246094 0)"/>
      </g>
     </g>
    </g>
    <g id="ytick_8">
     <g id="line2d_31">
      <path d="M 59.24 76.855027 
L 565.2 76.855027 
" clip-path="url(#p161d86ca07)" style="fill: none; stroke: #b0b0b0; stroke-width: 0.8; stroke-linecap: square"/>
     </g>
     <g id="line2d_32">
      <g>
       <use xlink:href="#mfc1d980bae" x="59.24" y="76.855027" style="stroke: #000000; stroke-width: 0.8"/>
      </g>
     </g>
     <g id="text_16">
      <!-- 200 -->
      <g transform="translate(33.1525 80.654245) scale(0.1 -0.1)">
       <use xlink:href="#DejaVuSans-32"/>
       <use xlink:href="#DejaVuSans-30" transform="translate(63.623047 0)"/>
       <use xlink:href="#DejaVuSans-30" transform="translate(127.246094 0)"/>
      </g>
     </g>
    </g>
    <g id="ytick_9">
     <g id="line2d_33">
      <path d="M 59.24 32.916342 
L 565.2 32.916342 
" clip-path="url(#p161d86ca07)" style="fill: none; stroke: #b0b0b0; stroke-width: 0.8; stroke-linecap: square"/>
     </g>
     <g id="line2d_34">
      <g>
       <use xlink:href="#mfc1d980bae" x="59.24" y="32.916342" style="stroke: #000000; stroke-width: 0.8"/>
      </g>
     </g>
     <g id="text_17">
      <!-- 250 -->
      <g transform="translate(33.1525 36.715561) scale(0.1 -0.1)">
       <use xlink:href="#DejaVuSans-32"/>
       <use xlink:href="#DejaVuSans-35" transform="translate(63.623047 0)"/>
       <use xlink:href="#DejaVuSans-30" transform="translate(127.246094 0)"/>
      </g>
     </g>
    </g>
    <g id="text_18">
     <!-- Control Input -->
     <g transform="translate(18.693125 248.107031) rotate(-90) scale(0.1 -0.1)">
      <defs>
       <path id="DejaVuSans-43" d="M 4122 4306 
L 4122 3641 
Q 3803 3938 3442 4084 
Q 3081 4231 2675 4231 
Q 1875 4231 1450 3742 
Q 1025 3253 1025 2328 
Q 1025 1406 1450 917 
Q 1875 428 2675 428 
Q 3081 428 3442 575 
Q 3803 722 4122 1019 
L 4122 359 
Q 3791 134 3420 21 
Q 3050 -91 2638 -91 
Q 1578 -91 968 557 
Q 359 1206 359 2328 
Q 359 3453 968 4101 
Q 1578 4750 2638 4750 
Q 3056 4750 3426 4639 
Q 3797 4528 4122 4306 
z
" transform="scale(0.015625)"/>
       <path id="DejaVuSans-6f" d="M 1959 3097 
Q 1497 3097 1228 2736 
Q 959 2375 959 1747 
Q 959 1119 1226 758 
Q 1494 397 1959 397 
Q 2419 397 2687 759 
Q 2956 1122 2956 1747 
Q 2956 2369 2687 2733 
Q 2419 3097 1959 3097 
z
M 1959 3584 
Q 2709 3584 3137 3096 
Q 3566 2609 3566 1747 
Q 3566 888 3137 398 
Q 2709 -91 1959 -91 
Q 1206 -91 779 398 
Q 353 888 353 1747 
Q 353 2609 779 3096 
Q 1206 3584 1959 3584 
z
" transform="scale(0.015625)"/>
       <path id="DejaVuSans-6e" d="M 3513 2113 
L 3513 0 
L 2938 0 
L 2938 2094 
Q 2938 2591 2744 2837 
Q 2550 3084 2163 3084 
Q 1697 3084 1428 2787 
Q 1159 2491 1159 1978 
L 1159 0 
L 581 0 
L 581 3500 
L 1159 3500 
L 1159 2956 
Q 1366 3272 1645 3428 
Q 1925 3584 2291 3584 
Q 2894 3584 3203 3211 
Q 3513 2838 3513 2113 
z
" transform="scale(0.015625)"/>
       <path id="DejaVuSans-74" d="M 1172 4494 
L 1172 3500 
L 2356 3500 
L 2356 3053 
L 1172 3053 
L 1172 1153 
Q 1172 725 1289 603 
Q 1406 481 1766 481 
L 2356 481 
L 2356 0 
L 1766 0 
Q 1100 0 847 248 
Q 594 497 594 1153 
L 594 3053 
L 172 3053 
L 172 3500 
L 594 3500 
L 594 4494 
L 1172 4494 
z
" transform="scale(0.015625)"/>
       <path id="DejaVuSans-72" d="M 2631 2963 
Q 2534 3019 2420 3045 
Q 2306 3072 2169 3072 
Q 1681 3072 1420 2755 
Q 1159 2438 1159 1844 
L 1159 0 
L 581 0 
L 581 3500 
L 1159 3500 
L 1159 2956 
Q 1341 3275 1631 3429 
Q 1922 3584 2338 3584 
Q 2397 3584 2469 3576 
Q 2541 3569 2628 3553 
L 2631 2963 
z
" transform="scale(0.015625)"/>
       <path id="DejaVuSans-6c" d="M 603 4863 
L 1178 4863 
L 1178 0 
L 603 0 
L 603 4863 
z
" transform="scale(0.015625)"/>
       <path id="DejaVuSans-20" transform="scale(0.015625)"/>
       <path id="DejaVuSans-49" d="M 628 4666 
L 1259 4666 
L 1259 0 
L 628 0 
L 628 4666 
z
" transform="scale(0.015625)"/>
       <path id="DejaVuSans-70" d="M 1159 525 
L 1159 -1331 
L 581 -1331 
L 581 3500 
L 1159 3500 
L 1159 2969 
Q 1341 3281 1617 3432 
Q 1894 3584 2278 3584 
Q 2916 3584 3314 3078 
Q 3713 2572 3713 1747 
Q 3713 922 3314 415 
Q 2916 -91 2278 -91 
Q 1894 -91 1617 61 
Q 1341 213 1159 525 
z
M 3116 1747 
Q 3116 2381 2855 2742 
Q 2594 3103 2138 3103 
Q 1681 3103 1420 2742 
Q 1159 2381 1159 1747 
Q 1159 1113 1420 752 
Q 1681 391 2138 391 
Q 2594 391 2855 752 
Q 3116 1113 3116 1747 
z
" transform="scale(0.015625)"/>
       <path id="DejaVuSans-75" d="M 544 1381 
L 544 3500 
L 1119 3500 
L 1119 1403 
Q 1119 906 1312 657 
Q 1506 409 1894 409 
Q 2359 409 2629 706 
Q 2900 1003 2900 1516 
L 2900 3500 
L 3475 3500 
L 3475 0 
L 2900 0 
L 2900 538 
Q 2691 219 2414 64 
Q 2138 -91 1772 -91 
Q 1169 -91 856 284 
Q 544 659 544 1381 
z
M 1991 3584 
L 1991 3584 
z
" transform="scale(0.015625)"/>
      </defs>
      <use xlink:href="#DejaVuSans-43"/>
      <use xlink:href="#DejaVuSans-6f" transform="translate(69.824219 0)"/>
      <use xlink:href="#DejaVuSans-6e" transform="translate(131.005859 0)"/>
      <use xlink:href="#DejaVuSans-74" transform="translate(194.384766 0)"/>
      <use xlink:href="#DejaVuSans-72" transform="translate(233.59375 0)"/>
      <use xlink:href="#DejaVuSans-6f" transform="translate(272.457031 0)"/>
      <use xlink:href="#DejaVuSans-6c" transform="translate(333.638672 0)"/>
      <use xlink:href="#DejaVuSans-20" transform="translate(361.421875 0)"/>
      <use xlink:href="#DejaVuSans-49" transform="translate(393.208984 0)"/>
      <use xlink:href="#DejaVuSans-6e" transform="translate(422.701172 0)"/>
      <use xlink:href="#DejaVuSans-70" transform="translate(486.080078 0)"/>
      <use xlink:href="#DejaVuSans-75" transform="translate(549.556641 0)"/>
      <use xlink:href="#DejaVuSans-74" transform="translate(612.935547 0)"/>
     </g>
    </g>
   </g>
   <g id="line2d_35">
    <path d="M 82.238182 334.738135 
L 82.544824 294.711002 
L 82.851467 274.175885 
L 83.158109 320.579001 
L 83.464752 278.803131 
L 83.771394 270.758499 
L 84.078036 286.764138 
L 84.384679 288.284726 
L 84.691321 261.538986 
L 84.997964 278.210037 
L 85.304606 249.006058 
L 85.611248 234.488244 
L 85.917891 276.836423 
L 86.224533 231.265455 
L 86.531176 244.695415 
L 87.144461 239.848296 
L 87.451103 266.667749 
L 87.757745 221.094615 
L 88.064388 235.239124 
L 88.37103 202.725853 
L 88.677673 212.44417 
L 88.984315 205.323719 
L 89.290958 172.26886 
L 89.5976 211.342389 
L 89.904242 189.260522 
L 90.210885 214.674403 
L 90.517527 221.686466 
L 90.82417 232.131013 
L 91.130812 272.264716 
L 91.437455 269.88495 
L 91.744097 315.065174 
L 92.050739 289.344958 
L 92.357382 297.481961 
L 92.664024 331.423317 
L 92.970667 293.229039 
L 93.277309 316.908847 
L 93.583952 293.743637 
L 93.890594 316.402144 
L 94.197236 292.998331 
L 94.503879 315.355508 
L 94.810521 290.935879 
L 95.117164 312.342128 
L 95.423806 315.173078 
L 95.730448 292.216801 
L 96.037091 282.851119 
L 96.343733 300.078652 
L 96.650376 301.914949 
L 96.957018 276.98957 
L 97.263661 322.841661 
L 97.570303 280.196269 
L 97.876945 299.490219 
L 98.183588 270.51114 
L 98.49023 286.76898 
L 98.796873 257.027291 
L 99.103515 242.692813 
L 99.410158 254.097505 
L 99.7168 250.170513 
L 100.023442 217.323272 
L 100.330085 227.953452 
L 100.94337 213.39269 
L 101.250012 236.16176 
L 101.556655 187.180586 
L 101.863297 197.137358 
L 102.476582 182.656738 
L 102.783224 203.903604 
L 103.089867 181.077592 
L 103.396509 204.185038 
L 103.703152 151.896596 
L 104.009794 218.840408 
L 104.316436 179.521746 
L 104.623079 176.578513 
L 104.929721 197.07746 
L 105.543006 214.244496 
L 105.849648 194.854503 
L 106.156291 219.960208 
L 106.462933 229.77786 
L 106.769576 244.197196 
L 107.076218 229.620651 
L 107.382861 261.695326 
L 107.689503 249.381879 
L 107.996145 252.655622 
L 108.302788 227.006814 
L 108.60943 245.544759 
L 108.916073 189.935803 
L 109.222715 193.85152 
L 110.142642 142.851714 
L 110.449285 151.944611 
L 110.755927 202.877549 
L 111.06257 196.548417 
L 111.369212 207.352032 
L 111.675855 274.020976 
L 111.982497 256.387303 
L 112.289139 304.56435 
L 112.595782 309.783782 
L 112.902424 360.420368 
L 113.209067 339.631762 
L 113.515709 354.914363 
L 113.822352 336.538841 
L 114.128994 364.89656 
L 114.435636 347.125066 
L 114.742279 348.349275 
L 115.048921 288.243211 
L 115.355564 286.841568 
L 115.662206 264.275388 
L 115.968848 269.732542 
L 116.275491 227.571054 
L 116.582133 230.976335 
L 116.888776 214.052165 
L 117.195418 226.117272 
L 117.502061 308.631033 
L 117.808703 289.704832 
L 118.115345 336.739343 
L 118.421988 337.960468 
L 118.72863 386.297697 
L 119.035273 361.660102 
L 119.341915 315.392602 
L 119.648558 322.422375 
L 119.9552 313.353528 
L 120.261842 277.98622 
L 120.568485 283.387252 
L 120.875127 240.650158 
L 121.18177 241.398134 
L 121.488412 222.729004 
L 121.795055 175.146639 
L 122.101697 198.207041 
L 122.408339 190.279247 
L 122.714982 210.552959 
L 123.021624 243.101456 
L 123.328267 234.050855 
L 123.634909 213.937962 
L 123.941552 209.220665 
L 124.248194 230.552535 
L 124.554836 207.22562 
L 124.861479 232.04188 
L 125.168121 212.337862 
L 125.474764 209.652298 
L 125.781406 175.049516 
L 126.088048 186.32035 
L 126.701333 174.72761 
L 127.007976 196.371735 
L 127.314618 174.723248 
L 127.621261 198.223299 
L 127.927903 204.224654 
L 128.234545 185.385274 
L 128.541188 208.571965 
L 128.84783 188.45876 
L 129.154473 214.207529 
L 129.461115 252.025412 
L 129.767758 220.029833 
L 130.0744 281.081025 
L 130.381042 281.556716 
L 130.994327 322.974691 
L 131.30097 315.766315 
L 131.607612 324.084535 
L 131.914255 275.99968 
L 132.220897 286.536475 
L 132.527539 250.164256 
L 132.834182 257.147739 
L 133.140824 246.139206 
L 133.447467 263.208364 
L 133.754109 235.832744 
L 134.060752 280.84971 
L 134.367394 236.514101 
L 134.674036 283.090082 
L 134.980679 268.259487 
L 135.287321 271.298306 
L 135.593964 301.63137 
L 135.900606 318.25498 
L 136.207248 309.734745 
L 136.820533 320.456183 
L 137.433818 331.5241 
L 137.740461 308.737396 
L 138.047103 329.43382 
L 138.353745 305.694062 
L 138.96703 287.688292 
L 139.273673 305.513448 
L 139.580315 279.618015 
L 139.886958 297.859663 
L 140.1936 268.020958 
L 140.500242 256.648868 
L 140.806885 269.329282 
L 141.113527 237.175161 
L 141.42017 248.560366 
L 141.726812 215.498761 
L 142.033455 254.834825 
L 142.340097 233.73242 
L 142.646739 258.634867 
L 142.953382 239.93303 
L 143.873309 229.690485 
L 144.179952 254.779573 
L 144.486594 206.75703 
L 144.793236 219.229606 
L 145.099879 184.977308 
L 145.406521 195.821187 
L 146.633091 169.812923 
L 146.939733 190.497371 
L 147.246376 167.824406 
L 147.553018 218.50148 
L 147.859661 208.984872 
L 148.779588 241.356455 
L 149.08623 225.8615 
L 149.392873 256.822919 
L 150.006158 288.964444 
L 150.3128 249.917036 
L 150.619442 269.874697 
L 150.926085 215.751493 
L 151.232727 250.073345 
L 151.53937 191.794284 
L 151.846012 193.293272 
L 152.152655 202.782059 
L 152.459297 170.347453 
L 152.765939 212.966751 
L 153.072582 221.659665 
L 153.992509 263.276284 
L 154.299152 251.207123 
L 154.605794 254.5996 
L 154.912436 286.910296 
L 155.219079 275.746623 
L 155.525721 283.693051 
L 156.445648 299.232834 
L 156.752291 276.0005 
L 157.058933 296.246865 
L 157.365576 300.254288 
L 157.672218 306.478947 
L 157.978861 282.882423 
L 158.285503 302.115106 
L 158.592145 334.808766 
L 158.898788 296.547434 
L 159.20543 317.882621 
L 159.512073 292.568721 
L 159.818715 313.078509 
L 160.125358 315.010863 
L 160.432 320.07207 
L 160.738642 295.96605 
L 161.045285 315.345196 
L 161.351927 288.13825 
L 161.65857 307.474784 
L 161.965212 308.169969 
L 162.271855 312.71286 
L 162.578497 285.87772 
L 162.885139 273.802364 
L 163.191782 288.250015 
L 163.498424 259.820498 
L 163.805067 274.744162 
L 164.724994 268.217273 
L 165.951564 255.390578 
L 166.258206 281.118428 
L 166.564848 292.290029 
L 166.871491 247.312353 
L 167.178133 263.422953 
L 167.791418 258.090807 
L 168.098061 226.961163 
L 168.404703 239.305986 
L 169.017988 230.201172 
L 169.32463 196.78901 
L 169.937915 155.225751 
L 170.244558 192.503468 
L 170.5512 138.73102 
L 170.857842 204.194952 
L 171.164485 133.041947 
L 171.471127 170.790844 
L 171.77777 170.107862 
L 172.084412 205.015863 
L 172.697697 245.968743 
L 173.004339 272.162289 
L 173.310982 274.041459 
L 173.617624 321.787614 
L 173.924267 298.047622 
L 174.230909 305.360784 
L 174.537552 283.755729 
L 174.844194 247.78651 
L 175.150836 254.3244 
L 175.457479 186.527693 
L 175.764121 204.707381 
L 176.377406 166.585373 
L 176.684048 179.29862 
L 176.990691 173.356481 
L 177.297333 198.014964 
L 177.603976 234.034345 
L 177.910618 229.941437 
L 178.217261 242.859829 
L 178.523903 286.312143 
L 178.830545 288.62657 
L 179.44383 330.287393 
L 179.750473 321.935419 
L 180.057115 332.041818 
L 180.363758 310.828681 
L 180.6704 307.235528 
L 180.977042 300.987595 
L 181.283685 265.707084 
L 181.590327 273.589987 
L 181.89697 290.256399 
L 182.203612 262.802828 
L 182.510255 252.053518 
L 182.816897 267.63326 
L 183.123539 267.100722 
L 183.430182 267.349855 
L 183.736824 266.819481 
L 184.043467 295.991029 
L 184.350109 281.622362 
L 184.656752 314.568556 
L 184.963394 362.344618 
L 185.270036 339.36315 
L 185.576679 347.385035 
L 185.883321 351.83848 
L 186.189964 386.972727 
L 186.496606 322.824985 
L 186.803248 333.4881 
L 187.109891 294.323281 
L 187.416533 301.64522 
L 187.723176 261.093273 
L 188.029818 265.401222 
L 188.643103 187.493033 
L 188.949745 210.417023 
L 189.256388 173.434532 
L 189.56303 208.844792 
L 190.482958 220.880872 
L 190.7896 256.192804 
L 191.096242 219.943123 
L 191.402885 245.80955 
L 191.709527 226.573208 
L 192.01617 253.340694 
L 192.322812 234.353753 
L 192.629455 203.596962 
L 192.936097 216.182456 
L 193.242739 152.535868 
L 193.549382 149.317018 
L 193.856024 185.09336 
L 194.162667 162.765365 
L 194.469309 184.809621 
L 194.775952 159.070594 
L 195.082594 210.646267 
L 195.389236 286.312171 
L 195.695879 196.312064 
L 196.309164 283.428391 
L 196.615806 284.049552 
L 196.922448 274.065302 
L 197.229091 279.413824 
L 197.535733 255.842099 
L 197.842376 217.911291 
L 198.149018 221.766737 
L 198.455661 176.684183 
L 198.762303 204.055343 
L 199.068945 169.228084 
L 199.375588 183.786557 
L 199.68223 178.715224 
L 199.988873 204.309538 
L 200.295515 241.981299 
L 200.602158 210.559894 
L 200.9088 267.827858 
L 201.215442 265.625248 
L 201.522085 283.624337 
L 201.828727 275.497884 
L 202.13537 310.912331 
L 202.442012 301.488138 
L 203.055297 314.606678 
L 203.361939 294.073023 
L 203.668582 317.54217 
L 203.975224 294.358033 
L 204.281867 289.513708 
L 204.588509 308.720731 
L 204.895152 284.526554 
L 205.201794 277.694884 
L 205.508436 294.263858 
L 205.815079 326.047672 
L 206.121721 316.381671 
L 206.428364 322.774864 
L 206.735006 326.249267 
L 207.041648 303.936471 
L 207.348291 323.417771 
L 207.654933 298.592842 
L 207.961576 290.480869 
L 208.268218 278.354894 
L 208.574861 295.875495 
L 208.881503 296.316982 
L 209.188145 299.044994 
L 209.494788 270.522794 
L 209.80143 257.474762 
L 210.108073 269.451484 
L 210.721358 262.87141 
L 211.028 230.663154 
L 211.334642 241.929267 
L 211.641285 294.071894 
L 211.947927 260.824701 
L 212.25457 262.084285 
L 212.561212 261.596505 
L 212.867855 288.013214 
L 213.174497 271.15043 
L 213.481139 271.964347 
L 214.401067 267.780289 
L 214.707709 267.167275 
L 215.934279 261.792067 
L 216.240921 231.546286 
L 216.547564 244.05816 
L 216.854206 239.67284 
L 217.160848 208.6428 
L 217.467491 220.175636 
L 217.774133 213.377845 
L 218.080776 178.627526 
L 218.387418 159.791138 
L 218.694061 166.62122 
L 219.000703 158.824445 
L 219.307345 179.157553 
L 219.613988 211.753736 
L 219.92063 232.376248 
L 220.227273 225.880385 
L 220.533915 238.01563 
L 220.840558 279.122571 
L 221.1472 279.21521 
L 221.453842 297.106032 
L 221.760485 257.99583 
L 222.067127 306.810946 
L 222.680412 231.192508 
L 223.293697 178.981135 
L 223.600339 174.774766 
L 223.906982 181.864734 
L 224.213624 179.988996 
L 224.520267 204.296733 
L 225.440194 234.982612 
L 225.746836 218.237923 
L 226.053479 275.564317 
L 226.360121 245.153711 
L 226.666764 249.436126 
L 226.973406 280.880703 
L 227.280048 269.695377 
L 229.119903 304.029356 
L 229.426545 280.719072 
L 229.733188 300.887487 
L 230.03983 248.413884 
L 230.346473 282.830653 
L 230.653115 284.050622 
L 230.959758 286.182152 
L 231.2664 289.684347 
L 231.573042 321.981336 
L 231.879685 309.377025 
L 232.186327 315.298213 
L 232.799612 322.541494 
L 233.106255 299.498963 
L 233.412897 319.030068 
L 234.026182 328.628481 
L 234.332824 275.476597 
L 234.639467 252.232529 
L 234.946109 281.247548 
L 235.252752 250.618088 
L 235.866036 218.750733 
L 236.172679 199.380047 
L 236.479321 265.857338 
L 236.785964 202.367295 
L 237.092606 242.201377 
L 237.399248 219.448987 
L 237.705891 245.042167 
L 238.012533 224.688208 
L 238.319176 250.403066 
L 238.625818 231.796826 
L 238.932461 228.063261 
L 239.239103 196.905469 
L 239.545745 179.457293 
L 239.852388 188.586256 
L 240.465673 176.748154 
L 240.772315 198.599696 
L 241.078958 175.6647 
L 241.3856 226.926408 
L 241.692242 217.931667 
L 241.998885 258.831885 
L 242.305527 227.196115 
L 242.61217 285.942948 
L 242.918812 285.810367 
L 243.225455 275.467342 
L 243.532097 308.6617 
L 243.838739 269.52335 
L 244.452024 251.102706 
L 244.758667 240.111495 
L 245.065309 199.229592 
L 245.371952 229.056202 
L 245.678594 194.672859 
L 245.985236 205.571976 
L 246.291879 201.520469 
L 246.598521 171.343978 
L 246.905164 182.231879 
L 247.211806 204.549707 
L 247.518448 244.280406 
L 247.825091 239.089692 
L 248.438376 269.885374 
L 248.745018 257.658149 
L 249.051661 290.592451 
L 249.358303 279.272877 
L 249.971588 289.124607 
L 250.584873 299.110587 
L 250.891515 276.493169 
L 251.198158 266.940006 
L 251.5048 284.750085 
L 251.811442 258.897026 
L 252.118085 305.373731 
L 252.424727 292.851704 
L 252.73137 326.210111 
L 253.038012 314.537202 
L 253.344655 319.956399 
L 253.651297 296.33389 
L 253.957939 345.110628 
L 254.264582 305.257772 
L 254.571224 328.775583 
L 254.877867 303.892578 
L 255.184509 296.047124 
L 255.491152 256.695668 
L 255.797794 288.908114 
L 256.104436 259.006616 
L 256.717721 228.986774 
L 257.024364 239.456057 
L 257.637648 229.527719 
L 257.944291 225.18066 
L 258.250933 249.751819 
L 258.557576 230.131896 
L 258.864218 255.736324 
L 259.170861 237.084613 
L 259.784145 232.328438 
L 260.090788 200.999586 
L 260.39743 242.063485 
L 260.704073 191.62447 
L 261.010715 204.084054 
L 261.317358 198.542107 
L 261.624 223.540281 
L 261.930642 202.781731 
L 262.237285 228.804356 
L 262.543927 209.005428 
L 262.85057 206.352704 
L 263.157212 231.767301 
L 263.463855 184.847639 
L 263.770497 256.194471 
L 264.077139 192.426925 
L 264.383782 207.803128 
L 264.690424 231.881894 
L 264.997067 215.010172 
L 265.303709 243.816342 
L 265.610352 226.86592 
L 265.916994 227.778417 
L 266.223636 227.060443 
L 266.530279 256.100824 
L 266.836921 242.31426 
L 267.143564 216.502342 
L 267.450206 233.320325 
L 267.756848 204.325062 
L 268.063491 190.009506 
L 268.370133 204.357193 
L 268.676776 231.313669 
L 268.983418 215.570007 
L 269.290061 244.921837 
L 269.596703 227.867511 
L 269.903345 229.457743 
L 270.209988 258.989647 
L 270.51663 215.475043 
L 270.823273 319.926858 
L 271.129915 161.129831 
L 271.436558 259.023202 
L 272.049842 210.858087 
L 272.356485 255.591399 
L 272.663127 240.672028 
L 272.96977 242.775438 
L 273.276412 215.116164 
L 273.583055 259.914435 
L 273.889697 216.79356 
L 274.196339 233.390327 
L 274.502982 232.247598 
L 274.809624 232.728845 
L 275.116267 261.99839 
L 275.422909 247.793568 
L 275.729552 221.630515 
L 276.036194 266.301033 
L 276.342836 251.383828 
L 276.649479 283.124335 
L 276.956121 269.766501 
L 277.262764 274.215286 
L 277.569406 276.325548 
L 277.876048 308.98237 
L 278.182691 269.837599 
L 278.489333 351.055496 
L 278.795976 324.473493 
L 279.409261 341.059275 
L 279.715903 347.968554 
L 280.022545 327.401703 
L 280.63583 314.188971 
L 280.942473 249.024658 
L 281.249115 297.993556 
L 281.555758 238.322812 
L 281.8624 240.656008 
L 282.169042 193.674413 
L 282.475685 189.524557 
L 282.782327 168.876741 
L 283.08897 205.094915 
L 283.395612 209.797017 
L 283.702255 245.23198 
L 284.008897 235.225988 
L 284.315539 273.752205 
L 284.622182 269.512459 
L 284.928824 283.919563 
L 285.235467 269.468619 
L 285.542109 300.247377 
L 285.848752 286.774426 
L 286.155394 290.328585 
L 286.462036 263.407678 
L 286.768679 280.809935 
L 287.075321 252.271328 
L 287.381964 239.13849 
L 287.688606 253.17296 
L 289.528461 244.609967 
L 289.835103 214.264583 
L 290.141745 227.393567 
L 290.448388 221.412422 
L 290.75503 187.543676 
L 291.061673 196.359063 
L 291.368315 190.41873 
L 291.674958 187.2716 
L 291.9816 209.916065 
L 292.288242 44.027273 
L 292.594885 286.039197 
L 292.901527 206.165465 
L 293.20817 252.07835 
L 293.514812 332.806836 
L 293.821455 306.040263 
L 294.128097 331.32427 
L 294.434739 323.922863 
L 294.741382 332.442097 
L 295.048024 311.33073 
L 295.354667 336.627711 
L 295.661309 286.160449 
L 295.967952 297.509603 
L 296.274594 258.832489 
L 296.581236 236.281242 
L 296.887879 268.008984 
L 297.194521 238.465054 
L 297.501164 195.40572 
L 297.807806 193.354186 
L 298.114448 172.064516 
L 298.421091 181.841569 
L 298.727733 204.032506 
L 299.034376 239.926439 
L 299.341018 233.375897 
L 299.647661 273.669574 
L 299.954303 213.485596 
L 300.260945 287.819725 
L 300.567588 255.183588 
L 300.87423 288.634681 
L 301.180873 275.23354 
L 301.794158 280.657945 
L 302.1008 225.925642 
L 302.407442 286.997501 
L 302.714085 243.192391 
L 303.020727 232.46257 
L 303.32737 246.563412 
L 303.634012 245.394276 
L 304.553939 243.900594 
L 304.860582 214.462763 
L 305.167224 228.499399 
L 305.780509 220.099766 
L 306.087152 187.002287 
L 306.393794 169.233906 
L 306.700436 322.501829 
L 307.007079 159.097203 
L 307.313721 209.94125 
L 307.620364 200.019648 
L 307.927006 223.093555 
L 308.233648 205.28486 
L 308.540291 232.373419 
L 308.846933 213.765096 
L 309.153576 242.65355 
L 309.460218 254.573711 
L 309.766861 212.680916 
L 310.073503 259.164146 
L 310.380145 214.79858 
L 310.686788 231.120711 
L 310.99343 200.715867 
L 311.300073 216.838431 
L 311.606715 186.820897 
L 311.913358 230.043393 
L 312.22 212.760233 
L 312.526642 213.278288 
L 312.833285 240.369545 
L 313.139927 223.458099 
L 313.44657 224.996366 
L 313.753212 253.759589 
L 314.059855 210.972555 
L 314.366497 227.119294 
L 314.673139 255.2221 
L 314.979782 213.205884 
L 315.286424 229.995719 
L 315.593067 229.825566 
L 316.206352 232.473372 
L 316.512994 204.097385 
L 316.819636 219.975272 
L 317.126279 218.828213 
L 317.432921 219.240169 
L 318.046206 218.433612 
L 318.352848 246.977784 
L 318.659491 231.328708 
L 318.966133 203.782029 
L 319.272776 219.5798 
L 319.579418 219.134299 
L 320.499345 220.006397 
L 320.805988 219.55873 
L 321.419273 220.157451 
L 321.725915 191.504085 
L 322.032558 205.611453 
L 322.3392 203.53719 
L 322.645842 202.240305 
L 322.952485 257.998073 
L 323.259127 197.946432 
L 323.56577 213.852468 
L 323.872412 210.518459 
L 324.179055 240.000205 
L 324.485697 224.24936 
L 324.792339 254.502307 
L 325.098982 239.717541 
L 326.018909 246.360133 
L 326.325552 219.612805 
L 326.632194 265.258066 
L 326.938836 222.267494 
L 327.245479 268.692229 
L 327.552121 254.554919 
L 327.858764 257.505286 
L 328.165406 288.529505 
L 328.472048 276.860927 
L 329.085333 287.848727 
L 329.391976 321.880836 
L 329.698618 342.798748 
L 330.005261 336.363392 
L 330.311903 344.687038 
L 330.618545 322.732762 
L 330.925188 347.259207 
L 331.23183 325.661674 
L 331.538473 321.627796 
L 331.845115 286.031644 
L 332.4584 238.94067 
L 332.765042 209.04721 
L 333.071685 234.597668 
L 333.378327 169.888944 
L 333.68497 165.486566 
L 333.991612 201.514195 
L 334.298255 205.373996 
L 334.604897 240.02948 
L 335.218182 282.716928 
L 335.524824 251.116077 
L 335.831467 252.653563 
L 336.138109 308.974281 
L 336.444752 308.235812 
L 336.751394 269.677576 
L 337.058036 286.939417 
L 337.364679 260.018512 
L 337.671321 247.65389 
L 337.977964 262.52558 
L 338.284606 232.29958 
L 338.591248 246.327555 
L 338.897891 214.412359 
L 339.204533 256.448734 
L 339.511176 207.56919 
L 339.817818 220.091892 
L 340.124461 184.389138 
L 340.431103 165.704577 
L 340.737745 175.48316 
L 341.35103 160.449046 
L 341.657673 209.711827 
L 341.964315 200.344233 
L 342.270958 238.593868 
L 342.5776 231.982719 
L 343.190885 259.270648 
L 343.497527 247.041254 
L 343.80417 279.12676 
L 344.110812 267.021183 
L 344.417455 242.303455 
L 345.030739 220.87994 
L 345.337382 179.792333 
L 345.644024 179.06153 
L 345.950667 155.570721 
L 346.257309 167.036786 
L 346.563952 191.303352 
L 346.870594 171.372341 
L 347.177236 195.225759 
L 347.790521 212.210541 
L 348.097164 251.73901 
L 348.403806 219.83218 
L 348.710448 280.387551 
L 349.017091 280.432317 
L 349.630376 321.642428 
L 349.937018 314.005325 
L 350.243661 293.693246 
L 350.550303 316.792842 
L 350.856945 325.084721 
L 351.163588 278.346324 
L 351.47023 316.876463 
L 351.776873 293.421667 
L 352.083515 317.224899 
L 352.390158 294.12029 
L 352.6968 287.92334 
L 353.003442 336.260491 
L 353.310085 297.596416 
L 353.616727 322.177387 
L 353.92337 325.129922 
L 354.230012 332.19006 
L 354.536655 309.305595 
L 354.843297 331.40691 
L 355.149939 277.163744 
L 355.456582 284.806121 
L 356.376509 242.903639 
L 356.683152 253.775668 
L 356.989794 220.330807 
L 357.296436 231.796764 
L 357.603079 226.176088 
L 357.909721 249.605576 
L 358.523006 310.290218 
L 358.829648 280.744206 
L 359.136291 314.566817 
L 359.442933 329.939183 
L 359.749576 288.061188 
L 360.056218 307.403554 
L 360.362861 278.531492 
L 360.669503 268.1269 
L 360.976145 225.368545 
L 361.282788 253.514922 
L 361.58943 248.525125 
L 361.896073 216.241084 
L 362.509358 177.403909 
L 362.816 180.261417 
L 363.429285 164.584813 
L 363.735927 182.888848 
L 364.04257 186.16886 
L 364.349212 191.899464 
L 364.655855 225.945678 
L 364.962497 246.522939 
L 365.269139 213.336423 
L 365.575782 213.86747 
L 365.882424 240.906788 
L 366.189067 222.509946 
L 366.495709 221.971692 
L 366.802352 219.798639 
L 367.108994 189.543172 
L 367.415636 201.971768 
L 367.722279 167.857517 
L 368.028921 152.78024 
L 368.335564 192.023869 
L 368.642206 171.017026 
L 368.948848 196.721931 
L 369.255491 232.998776 
L 369.562133 200.30995 
L 369.868776 258.453022 
L 370.175418 225.862345 
L 370.482061 288.204507 
L 370.788703 260.924972 
L 371.095345 267.754918 
L 371.401988 301.811985 
L 371.70863 293.23915 
L 372.015273 271.209697 
L 372.321915 235.532794 
L 372.628558 270.501712 
L 372.9352 215.928126 
L 373.241842 278.717881 
L 373.548485 235.067123 
L 373.855127 253.537621 
L 374.16177 284.425424 
L 374.468412 271.903718 
L 374.775055 306.693682 
L 375.081697 297.041388 
L 375.388339 331.907328 
L 375.694982 350.787233 
L 376.001624 344.002543 
L 376.614909 362.493215 
L 376.921552 343.520713 
L 377.228194 340.483893 
L 377.534836 306.732114 
L 377.841479 316.28013 
L 378.454764 302.111241 
L 378.761406 264.163425 
L 379.068048 268.865722 
L 379.374691 224.584649 
L 379.681333 221.708411 
L 380.294618 180.947864 
L 380.907903 251.005055 
L 381.214545 272.321259 
L 381.521188 266.592154 
L 381.82783 278.077724 
L 382.134473 260.836015 
L 382.441115 318.457754 
L 382.747758 287.568624 
L 383.0544 291.447222 
L 383.361042 262.508036 
L 383.667685 278.804492 
L 383.974327 249.812713 
L 384.28097 206.526022 
L 384.587612 262.148595 
L 384.894255 239.787757 
L 385.507539 234.953629 
L 385.814182 201.273263 
L 386.120824 212.689174 
L 386.427467 148.457799 
L 386.734109 202.434817 
L 387.040752 177.382909 
L 387.347394 201.451688 
L 387.654036 206.272244 
L 387.960679 243.506099 
L 388.267321 237.317742 
L 388.573964 221.626047 
L 388.880606 221.200036 
L 389.187248 220.055171 
L 389.493891 245.738981 
L 389.800533 228.132475 
L 390.107176 228.908558 
L 390.413818 199.787737 
L 390.720461 156.36332 
L 391.027103 181.493107 
L 391.333745 176.532172 
L 391.640388 174.36231 
L 391.94703 197.265192 
L 392.560315 216.257176 
L 393.1736 239.017463 
L 393.480242 281.79866 
L 393.786885 255.231185 
L 394.093527 291.306016 
L 394.40017 310.421118 
L 394.706812 301.783324 
L 395.013455 251.552301 
L 395.320097 287.490606 
L 395.626739 263.520467 
L 395.933382 285.17786 
L 396.240024 290.402569 
L 396.546667 266.778285 
L 396.853309 285.916021 
L 397.159952 288.877605 
L 397.466594 321.53908 
L 397.773236 311.380107 
L 398.079879 318.120493 
L 398.386521 379.711299 
L 398.693164 357.476909 
L 399.306448 380.633773 
L 399.613091 361.624461 
L 399.919733 330.414314 
L 400.226376 341.535684 
L 400.533018 278.340085 
L 400.839661 302.578681 
L 401.146303 233.266614 
L 401.452945 222.067187 
L 402.06623 152.462738 
L 402.679515 190.965461 
L 402.986158 223.213372 
L 403.2928 210.806044 
L 403.599442 215.08184 
L 403.906085 249.239669 
L 404.212727 240.881892 
L 404.51937 280.798555 
L 404.826012 249.033141 
L 405.132655 279.3913 
L 405.439297 235.01324 
L 405.745939 249.835127 
L 406.052582 218.777625 
L 406.359224 203.835417 
L 406.665867 214.56095 
L 406.972509 178.163133 
L 407.279152 189.784747 
L 408.505721 165.785144 
L 408.812364 187.052481 
L 409.732291 208.782632 
L 410.652218 240.02317 
L 411.572145 290.594214 
L 411.878788 280.992471 
L 412.18543 315.83554 
L 412.492073 221.164177 
L 412.798715 244.898104 
L 413.412 220.315418 
L 413.718642 178.424484 
L 414.025285 205.806474 
L 414.331927 203.753897 
L 414.63857 231.920746 
L 415.251855 256.515312 
L 415.558497 271.98915 
L 415.865139 259.450122 
L 416.171782 291.355909 
L 416.478424 280.50404 
L 416.785067 315.469613 
L 417.091709 304.684203 
L 417.398352 284.284641 
L 417.704994 304.898389 
L 418.011636 337.670514 
L 418.318279 301.75846 
L 418.624921 325.254191 
L 418.931564 300.66855 
L 419.238206 324.184487 
L 419.544848 328.932474 
L 419.851491 336.09687 
L 420.158133 313.444418 
L 420.464776 335.775615 
L 420.771418 283.912335 
L 421.078061 320.50917 
L 421.384703 294.869898 
L 421.691345 257.944074 
L 421.997988 260.413951 
L 422.30463 272.708975 
L 422.611273 240.10447 
L 422.917915 222.835759 
L 423.224558 233.455143 
L 423.5312 227.832296 
L 423.837842 251.194659 
L 424.144485 288.199362 
L 424.451127 283.480637 
L 424.75777 326.981124 
L 425.064412 299.521824 
L 425.371055 303.062636 
L 425.677697 331.948924 
L 425.984339 261.280571 
L 426.290982 266.913582 
L 426.904267 236.225379 
L 427.210909 248.117655 
L 427.517552 214.913363 
L 428.130836 175.27289 
L 428.437479 182.417629 
L 428.744121 174.681129 
L 429.050764 195.07681 
L 429.357406 140.988228 
L 429.664048 204.637641 
L 429.970691 191.067599 
L 430.277333 228.95072 
L 430.583976 219.505597 
L 430.890618 229.798664 
L 431.197261 212.589128 
L 431.503903 210.119071 
L 431.810545 235.190133 
L 432.117188 216.903721 
L 432.42383 185.929376 
L 432.730473 198.353642 
L 433.037115 224.158709 
L 433.343758 207.91201 
L 433.6504 207.055458 
L 433.957042 204.042298 
L 434.263685 203.361133 
L 434.570327 229.963389 
L 434.87697 213.92708 
L 435.183612 242.97871 
L 435.490255 227.767704 
L 436.410182 233.564739 
L 436.716824 265.580957 
L 437.023467 225.074669 
L 437.330109 215.367768 
L 437.636752 260.31409 
L 437.943394 216.098189 
L 438.250036 204.23653 
L 438.556679 219.408916 
L 438.863321 219.832053 
L 439.169964 249.823001 
L 439.476606 205.922945 
L 439.783248 280.419368 
L 440.089891 221.242078 
L 440.396533 269.999298 
L 440.703176 226.870379 
L 441.009818 302.332913 
L 441.316461 273.7567 
L 441.623103 311.013156 
L 441.929745 303.568773 
L 442.54303 317.747622 
L 442.849673 353.601565 
L 443.156315 318.437752 
L 443.462958 344.306049 
L 444.076242 361.319243 
L 444.382885 313.733704 
L 444.689527 325.567428 
L 444.99617 316.494675 
L 445.302812 282.229924 
L 445.609455 288.670559 
L 445.916097 334.446867 
L 446.222739 236.106424 
L 446.529382 230.062938 
L 446.836024 254.712634 
L 447.142667 218.800938 
L 447.755952 180.723196 
L 448.062594 216.701023 
L 448.369236 279.001244 
L 448.675879 256.879003 
L 448.982521 267.368307 
L 449.289164 306.966668 
L 449.595806 304.844683 
L 449.902448 293.819241 
L 450.209091 323.344292 
L 450.515733 280.087003 
L 450.822376 270.558922 
L 452.048945 208.074975 
L 452.355588 216.957093 
L 452.66223 180.0824 
L 452.968873 160.752854 
L 453.275515 196.592816 
L 453.582158 172.121874 
L 453.8888 194.366941 
L 454.195442 168.6351 
L 454.502085 219.506698 
L 454.808727 180.294137 
L 455.11537 204.879002 
L 455.422012 209.559525 
L 455.728655 248.147206 
L 456.035297 243.17558 
L 456.341939 230.136045 
L 456.648582 261.151599 
L 456.955224 247.975974 
L 457.261867 250.389737 
L 457.568509 223.166367 
L 457.875152 211.276555 
L 458.181794 167.995502 
L 458.488436 165.194674 
L 458.795079 172.129131 
L 459.101721 111.672414 
L 459.408364 194.043574 
L 459.715006 153.517004 
L 460.021648 208.046756 
L 460.328291 225.767721 
L 460.634933 222.867661 
L 461.248218 295.26576 
L 461.554861 300.190713 
L 462.168145 343.486247 
L 462.474788 338.387653 
L 462.78143 292.347824 
L 463.088073 304.93479 
L 463.394715 298.817356 
L 463.701358 295.510022 
L 464.314642 282.631341 
L 464.621285 303.733032 
L 464.927927 307.883333 
L 465.23457 286.116489 
L 465.541212 334.345407 
L 465.847855 323.774635 
L 466.154497 304.118924 
L 466.461139 323.267164 
L 466.767782 327.285055 
L 467.381067 340.822831 
L 467.687709 288.931403 
L 467.994352 325.500059 
L 468.300994 270.197644 
L 468.607636 334.617463 
L 468.914279 291.70138 
L 469.220921 284.218626 
L 469.834206 257.217185 
L 470.140848 241.849606 
L 470.447491 193.738189 
L 470.754133 216.591081 
L 471.060776 208.453612 
L 471.367418 229.948974 
L 471.674061 236.823129 
L 471.980703 273.587977 
L 472.287345 238.210883 
L 472.593988 264.302504 
L 472.90063 246.075191 
L 473.207273 243.439433 
L 473.513915 211.885392 
L 473.820558 223.805817 
L 474.1272 217.332792 
L 474.433842 182.192723 
L 474.740485 163.748283 
L 475.047127 170.907489 
L 475.35377 162.725262 
L 475.660412 184.171336 
L 475.967055 188.119928 
L 476.273697 222.919665 
L 476.580339 215.137491 
L 476.886982 197.071123 
L 477.193624 221.100088 
L 477.500267 228.601594 
L 477.806909 211.198626 
L 478.113552 240.119946 
L 478.420194 222.500801 
L 478.726836 223.521919 
L 479.646764 221.72637 
L 479.953406 192.952325 
L 480.260048 207.581192 
L 480.566691 177.042101 
L 480.873333 221.101974 
L 481.179976 230.581877 
L 481.486618 188.587311 
L 481.793261 231.90704 
L 482.099903 241.748937 
L 482.406545 228.967396 
L 482.713188 260.890505 
L 483.01983 248.557601 
L 483.326473 281.450982 
L 483.633115 270.801985 
L 484.553042 286.094006 
L 484.859685 263.488006 
L 485.166327 282.800409 
L 485.47297 286.715081 
L 485.779612 320.983457 
L 486.086255 312.365479 
L 486.392897 348.135007 
L 486.699539 339.719846 
L 487.619467 368.730108 
L 487.926109 322.866271 
L 488.232752 333.427257 
L 488.539394 326.201762 
L 488.846036 293.528731 
L 489.152679 243.005018 
L 489.459321 262.431671 
L 490.379248 211.282409 
L 490.685891 251.093529 
L 490.992533 229.760075 
L 491.299176 282.703238 
L 491.605818 276.116675 
L 491.912461 317.224252 
L 492.219103 316.355975 
L 492.525745 307.305285 
L 492.832388 337.313198 
L 493.13903 294.670853 
L 493.445673 285.759853 
L 493.752315 300.904374 
L 494.058958 301.564914 
L 494.3656 276.830112 
L 494.672242 293.109998 
L 494.978885 234.080182 
L 495.285527 264.346386 
L 495.59217 231.588145 
L 495.898812 243.280794 
L 496.205455 209.747159 
L 496.512097 190.120996 
L 496.818739 195.637458 
L 497.125382 156.958089 
L 497.432024 193.5275 
L 497.738667 138.332023 
L 498.045309 202.435994 
L 498.351952 215.967982 
L 498.658594 208.749178 
L 498.965236 244.986997 
L 499.271879 208.488241 
L 499.578521 234.944505 
L 500.191806 257.209235 
L 500.498448 215.076092 
L 500.805091 259.950506 
L 501.418376 173.185164 
L 501.725018 228.833481 
L 502.031661 204.465497 
L 502.338303 204.717219 
L 502.644945 174.550308 
L 502.951588 186.488048 
L 503.25823 211.222897 
L 503.564873 193.967889 
L 503.871515 220.305622 
L 504.178158 229.993361 
L 504.791442 258.82363 
L 505.098085 247.36548 
L 505.404727 136.347774 
L 505.71137 312.687614 
L 506.018012 243.180189 
L 506.324655 282.058454 
L 506.631297 271.68012 
L 506.937939 278.654754 
L 507.244582 254.435608 
L 507.551224 273.888756 
L 507.857867 277.814255 
L 508.164509 311.376714 
L 508.471152 273.195427 
L 508.777794 294.675265 
L 509.084436 327.339129 
L 509.391079 318.153904 
L 510.617648 349.852624 
L 510.924291 330.511864 
L 511.230933 324.963821 
L 511.537576 347.440415 
L 511.844218 298.000399 
L 512.150861 307.911828 
L 512.457503 268.714106 
L 512.764145 274.509225 
L 513.070788 260.045091 
L 513.37743 215.304972 
L 513.684073 242.059308 
L 513.990715 208.128863 
L 514.297358 248.091553 
L 514.604 226.779751 
L 514.910642 250.109636 
L 515.217285 286.365204 
L 515.523927 281.676787 
L 516.443855 327.669138 
L 516.750497 287.120608 
L 517.057139 305.516741 
L 517.363782 277.324583 
L 517.670424 294.957028 
L 517.977067 237.605677 
L 518.283709 240.56924 
L 518.590352 250.753127 
L 518.896994 217.659263 
L 519.203636 228.689358 
L 519.510279 192.340832 
L 519.816921 201.154328 
L 521.043491 171.586785 
L 521.350133 191.679547 
L 521.656776 197.202282 
L 521.963418 174.767472 
L 522.270061 196.049994 
L 522.576703 201.394806 
L 523.189988 217.167364 
L 523.49663 198.02205 
L 523.803273 223.896438 
L 524.109915 232.988717 
L 524.7232 260.684399 
L 525.029842 220.35783 
L 525.336485 267.820491 
L 525.643127 254.132081 
L 525.94977 258.308753 
L 526.256412 232.655617 
L 526.869697 209.551831 
L 527.176339 195.204017 
L 527.482982 205.995649 
L 527.789624 174.735261 
L 528.096267 160.697329 
L 528.402909 227.884627 
L 528.709552 193.686947 
L 529.016194 251.887702 
L 529.322836 245.9995 
L 529.629479 262.84423 
L 529.936121 309.060047 
L 530.242764 285.283965 
L 530.549406 321.35473 
L 530.856048 312.522062 
L 531.162691 320.062582 
L 531.469333 299.338833 
L 531.775976 324.178906 
L 532.082618 301.523262 
L 532.389261 297.267406 
L 532.695903 317.783686 
L 533.002545 295.551724 
L 533.309188 346.307803 
L 533.61583 308.373889 
L 533.922473 333.098063 
L 534.229115 308.055122 
L 534.535758 301.611039 
L 534.8424 292.453445 
L 535.149042 311.384376 
L 535.455685 285.879355 
L 535.762327 305.296007 
L 536.06897 278.001821 
L 536.375612 295.81904 
L 536.682255 209.804621 
L 536.988897 341.106674 
L 537.295539 262.912742 
L 537.602182 313.330957 
L 537.908824 123.251187 
L 538.215467 328.026434 
L 538.828752 241.216595 
L 539.135394 286.331769 
L 539.442036 295.905352 
L 539.748679 280.198841 
L 540.055321 311.613481 
L 540.361964 295.006526 
L 540.668606 295.749348 
L 540.975248 295.649869 
L 541.281891 296.334229 
L 541.588533 268.039647 
L 541.895176 283.223923 
L 542.201818 282.169188 
L 542.201818 282.169188 
" clip-path="url(#p161d86ca07)" style="fill: none; stroke: #1f77b4; stroke-width: 2.5; stroke-linecap: square"/>
   </g>
   <g id="line2d_36">
    <path d="M 82.238182 334.757112 
L 82.544824 294.738554 
L 82.851467 274.134049 
L 83.158109 320.616152 
L 83.464752 278.77879 
L 83.771394 270.75902 
L 84.078036 286.75947 
L 84.384679 288.282225 
L 84.691321 261.545115 
L 84.997964 278.182144 
L 85.304606 249.042699 
L 85.611248 234.470347 
L 85.917891 276.854323 
L 86.224533 231.231451 
L 86.531176 244.692564 
L 87.144461 239.857699 
L 87.451103 266.676834 
L 87.757745 221.053207 
L 88.064388 235.194311 
L 88.37103 202.727854 
L 88.677673 212.406414 
L 88.984315 205.318773 
L 89.290958 172.345292 
L 89.5976 211.288405 
L 89.904242 189.282276 
L 90.210885 214.692991 
L 90.517527 221.69165 
L 90.82417 232.079504 
L 91.130812 272.269071 
L 91.437455 269.908955 
L 91.744097 315.02863 
L 92.050739 289.314635 
L 92.357382 297.527739 
L 92.664024 331.422766 
L 92.970667 293.199994 
L 93.277309 316.88672 
L 93.583952 293.702821 
L 93.890594 316.364607 
L 94.197236 293.024425 
L 94.503879 315.350756 
L 94.810521 290.976741 
L 95.117164 312.350649 
L 95.423806 315.187264 
L 95.730448 292.184274 
L 96.037091 282.7996 
L 96.343733 300.070434 
L 96.650376 301.922464 
L 96.957018 277.025379 
L 97.263661 322.784702 
L 97.570303 280.234181 
L 97.876945 299.509888 
L 98.183588 270.501127 
L 98.49023 286.74927 
L 98.796873 256.990762 
L 99.103515 242.767516 
L 99.410158 254.111137 
L 99.7168 250.178928 
L 100.023442 217.350291 
L 100.330085 227.956633 
L 100.94337 213.390997 
L 101.250012 236.180689 
L 101.556655 187.17146 
L 101.863297 197.144516 
L 102.476582 182.67934 
L 102.783224 203.936833 
L 103.089867 181.086822 
L 103.396509 204.142486 
L 103.703152 151.954839 
L 104.009794 218.844386 
L 104.316436 179.507185 
L 104.623079 176.566447 
L 104.929721 197.142578 
L 105.543006 214.227088 
L 105.849648 194.838803 
L 106.156291 219.947502 
L 106.462933 229.822421 
L 106.769576 244.126229 
L 107.076218 229.657837 
L 107.382861 261.68409 
L 107.689503 249.367316 
L 107.996145 252.696749 
L 108.302788 226.960951 
L 108.60943 245.546118 
L 108.916073 189.940789 
L 109.222715 193.831238 
L 110.142642 142.846473 
L 110.449285 151.978072 
L 110.755927 202.857863 
L 111.06257 196.591095 
L 111.369212 207.324844 
L 111.675855 274.032619 
L 111.982497 256.381401 
L 112.289139 304.532908 
L 112.595782 309.764494 
L 112.902424 360.379566 
L 113.209067 339.588335 
L 113.515709 354.907441 
L 113.822352 336.551649 
L 114.128994 364.916618 
L 114.435636 347.109332 
L 114.742279 348.334795 
L 115.048921 288.249449 
L 115.355564 286.831254 
L 115.662206 264.251027 
L 115.968848 269.747851 
L 116.275491 227.594414 
L 116.582133 230.977428 
L 116.888776 214.071018 
L 117.195418 226.172722 
L 117.502061 308.635854 
L 117.808703 289.666827 
L 118.115345 336.778914 
L 118.421988 337.959903 
L 118.72863 386.292133 
L 119.035273 361.655034 
L 119.341915 315.427765 
L 119.648558 322.423244 
L 119.9552 313.327841 
L 120.261842 277.998081 
L 120.568485 283.400922 
L 120.875127 240.692308 
L 121.18177 241.409897 
L 121.488412 222.75314 
L 121.795055 175.221756 
L 122.101697 198.258845 
L 122.408339 190.345177 
L 122.714982 210.569453 
L 123.021624 243.139444 
L 123.328267 234.094803 
L 123.634909 213.978799 
L 123.941552 209.264075 
L 124.248194 230.541726 
L 124.554836 207.244101 
L 124.861479 232.062254 
L 125.168121 212.335028 
L 125.474764 209.670141 
L 125.781406 175.046742 
L 126.088048 186.34337 
L 126.701333 174.755236 
L 127.007976 196.415349 
L 127.314618 174.738053 
L 127.621261 198.272866 
L 127.927903 204.234989 
L 128.234545 185.39202 
L 128.541188 208.599068 
L 128.84783 188.527713 
L 129.154473 214.201556 
L 129.461115 251.982075 
L 129.767758 220.042207 
L 130.0744 281.102092 
L 130.381042 281.538191 
L 130.994327 322.99576 
L 131.30097 315.75306 
L 131.607612 324.078298 
L 131.914255 275.991837 
L 132.220897 286.556258 
L 132.527539 250.174805 
L 132.834182 257.199556 
L 133.140824 246.150399 
L 133.447467 263.208969 
L 133.754109 235.829975 
L 134.060752 280.859406 
L 134.367394 236.526419 
L 134.674036 283.113355 
L 134.980679 268.297705 
L 135.287321 271.33572 
L 135.593964 301.676629 
L 135.900606 318.272927 
L 136.207248 309.751444 
L 136.820533 320.441922 
L 137.433818 331.557431 
L 137.740461 308.793106 
L 138.047103 329.481484 
L 138.353745 305.687016 
L 138.96703 287.689181 
L 139.273673 305.537057 
L 139.580315 279.655548 
L 139.886958 297.876533 
L 140.1936 268.029204 
L 140.500242 256.646882 
L 140.806885 269.350079 
L 141.113527 237.244922 
L 141.42017 248.619634 
L 141.726812 215.531359 
L 142.033455 254.895769 
L 142.340097 233.78254 
L 142.646739 258.585895 
L 142.953382 239.944114 
L 143.873309 229.696371 
L 144.179952 254.824904 
L 144.486594 206.757487 
L 144.793236 219.26413 
L 145.099879 185.043381 
L 145.406521 195.878094 
L 146.633091 169.871309 
L 146.939733 190.504345 
L 147.246376 167.856434 
L 147.553018 218.557858 
L 147.859661 208.970534 
L 148.779588 241.394831 
L 149.08623 225.906489 
L 149.392873 256.785333 
L 150.006158 289.017936 
L 150.3128 249.909785 
L 150.619442 269.88868 
L 150.926085 215.816909 
L 151.232727 250.102406 
L 151.53937 191.838833 
L 151.846012 193.304687 
L 152.152655 202.830073 
L 152.459297 170.417219 
L 152.765939 212.989255 
L 153.072582 221.69645 
L 153.992509 263.279129 
L 154.299152 251.222321 
L 154.605794 254.644006 
L 154.912436 286.938449 
L 155.219079 275.780745 
L 155.525721 283.739696 
L 156.445648 299.247198 
L 156.752291 275.997475 
L 157.058933 296.259852 
L 157.365576 300.268964 
L 157.672218 306.486952 
L 157.978861 282.974742 
L 158.285503 302.12277 
L 158.592145 334.807977 
L 158.898788 296.554055 
L 159.20543 317.903913 
L 159.512073 292.582521 
L 159.818715 313.136298 
L 160.125358 315.007429 
L 160.432 320.117899 
L 160.738642 295.987965 
L 161.045285 315.357956 
L 161.351927 288.13086 
L 161.65857 307.468947 
L 161.965212 308.205288 
L 162.271855 312.736032 
L 162.578497 285.907486 
L 162.885139 273.824005 
L 163.191782 288.264037 
L 163.498424 259.821203 
L 163.805067 274.75458 
L 164.724994 268.264707 
L 165.951564 255.41005 
L 166.258206 281.163662 
L 166.564848 292.330024 
L 166.871491 247.285894 
L 167.178133 263.470897 
L 167.791418 258.09405 
L 168.098061 226.967153 
L 168.404703 239.326166 
L 169.017988 230.228921 
L 169.32463 196.814925 
L 169.937915 155.225464 
L 170.244558 192.542712 
L 170.5512 138.722233 
L 170.857842 204.26086 
L 171.164485 133.090532 
L 171.471127 170.861878 
L 171.77777 170.126062 
L 172.084412 205.076411 
L 172.697697 246.026082 
L 173.004339 272.165062 
L 173.310982 274.071265 
L 173.617624 321.777841 
L 173.924267 297.985695 
L 174.230909 305.359657 
L 174.537552 283.729813 
L 174.844194 247.777304 
L 175.150836 254.307588 
L 175.457479 186.546272 
L 175.764121 204.700567 
L 176.377406 166.633388 
L 176.684048 179.324524 
L 176.990691 173.366972 
L 177.297333 198.058982 
L 177.603976 234.043333 
L 177.910618 229.966187 
L 178.217261 242.889008 
L 178.523903 286.309284 
L 178.830545 288.695313 
L 179.44383 330.319518 
L 179.750473 321.927039 
L 180.057115 332.017244 
L 180.363758 310.820157 
L 180.6704 307.266657 
L 180.977042 300.970574 
L 181.283685 265.746428 
L 181.590327 273.5715 
L 181.89697 290.295162 
L 182.203612 262.808042 
L 182.510255 252.083347 
L 182.816897 267.650876 
L 183.123539 267.10711 
L 183.430182 267.363737 
L 183.736824 266.851878 
L 184.043467 296.000697 
L 184.350109 281.606599 
L 184.656752 314.593589 
L 184.963394 362.335282 
L 185.270036 339.323315 
L 185.576679 347.390249 
L 185.883321 351.793867 
L 186.189964 386.962833 
L 186.496606 322.810309 
L 186.803248 333.477818 
L 187.109891 294.280418 
L 187.416533 301.684497 
L 187.723176 261.062161 
L 188.029818 265.447336 
L 188.643103 187.536393 
L 188.949745 210.46736 
L 189.256388 173.472828 
L 189.56303 208.861652 
L 190.482958 220.930605 
L 190.7896 256.183962 
L 191.096242 219.95518 
L 191.402885 245.830146 
L 191.709527 226.622381 
L 192.01617 253.381585 
L 192.322812 234.375102 
L 192.629455 203.609234 
L 192.936097 216.157714 
L 193.242739 152.574944 
L 193.549382 149.34969 
L 193.856024 185.109931 
L 194.162667 162.797872 
L 194.469309 184.813214 
L 194.775952 159.079686 
L 195.082594 210.666273 
L 195.389236 286.306514 
L 195.695879 196.293929 
L 196.309164 283.414869 
L 196.615806 284.087189 
L 196.922448 274.052792 
L 197.229091 279.408728 
L 197.535733 255.856954 
L 197.842376 217.932481 
L 198.149018 221.755158 
L 198.455661 176.718716 
L 198.762303 204.064586 
L 199.068945 169.321411 
L 199.375588 183.809452 
L 199.68223 178.723379 
L 199.988873 204.306309 
L 200.295515 242.020558 
L 200.602158 210.560734 
L 200.9088 267.827887 
L 201.215442 265.65313 
L 201.522085 283.648829 
L 201.828727 275.497235 
L 202.13537 310.87171 
L 202.442012 301.454086 
L 203.055297 314.560661 
L 203.361939 294.100671 
L 203.668582 317.578062 
L 203.975224 294.307962 
L 204.281867 289.51046 
L 204.588509 308.728339 
L 204.895152 284.577955 
L 205.201794 277.697398 
L 205.508436 294.278924 
L 205.815079 326.09654 
L 206.121721 316.391042 
L 206.428364 322.795369 
L 206.735006 326.22743 
L 207.041648 303.953587 
L 207.348291 323.438379 
L 207.654933 298.557041 
L 207.961576 290.487158 
L 208.268218 278.385647 
L 208.574861 295.893629 
L 208.881503 296.339341 
L 209.188145 299.064882 
L 209.494788 270.556704 
L 209.80143 257.471532 
L 210.108073 269.447736 
L 210.721358 262.89021 
L 211.028 230.698354 
L 211.334642 241.961467 
L 211.641285 294.111196 
L 211.947927 260.83004 
L 212.25457 262.088463 
L 212.561212 261.63988 
L 212.867855 288.051191 
L 213.174497 271.183379 
L 213.481139 271.973637 
L 214.401067 267.812159 
L 214.707709 267.197976 
L 215.934279 261.835791 
L 216.240921 231.552237 
L 216.547564 244.09559 
L 216.854206 239.6872 
L 217.160848 208.653803 
L 217.467491 220.181031 
L 217.774133 213.38413 
L 218.080776 178.701569 
L 218.387418 159.817636 
L 218.694061 166.707615 
L 219.000703 158.862612 
L 219.307345 179.231657 
L 219.613988 211.779747 
L 219.92063 232.316977 
L 220.227273 225.909283 
L 220.533915 238.063449 
L 220.840558 279.11692 
L 221.1472 279.219514 
L 221.453842 297.159939 
L 221.760485 258.020251 
L 222.067127 306.857515 
L 222.680412 231.23304 
L 223.293697 179.064006 
L 223.600339 174.811219 
L 223.906982 181.940425 
L 224.213624 180.076388 
L 224.520267 204.331999 
L 225.440194 235.041534 
L 225.746836 218.234543 
L 226.053479 275.543332 
L 226.360121 245.179557 
L 226.666764 249.495543 
L 226.973406 280.895359 
L 227.280048 269.713498 
L 229.119903 304.0165 
L 229.426545 280.737985 
L 229.733188 300.899666 
L 230.03983 248.467111 
L 230.346473 282.882819 
L 230.653115 284.113737 
L 230.959758 286.178993 
L 231.2664 289.679358 
L 231.573042 322.032548 
L 231.879685 309.389547 
L 232.186327 315.343795 
L 232.799612 322.593414 
L 233.106255 299.520871 
L 233.412897 319.06998 
L 234.026182 328.651861 
L 234.332824 275.472905 
L 234.639467 252.266968 
L 234.946109 281.293292 
L 235.252752 250.640454 
L 235.866036 218.821401 
L 236.172679 199.403382 
L 236.479321 265.924428 
L 236.785964 202.411136 
L 237.092606 242.27391 
L 237.399248 219.500646 
L 237.705891 245.067397 
L 238.012533 224.713835 
L 238.319176 250.498816 
L 238.625818 231.824075 
L 238.932461 228.087577 
L 239.239103 196.930711 
L 239.545745 179.560273 
L 239.852388 188.639369 
L 240.465673 176.819319 
L 240.772315 198.61751 
L 241.078958 175.696804 
L 241.3856 227.009193 
L 241.692242 217.955406 
L 241.998885 258.888199 
L 242.305527 227.267696 
L 242.61217 285.932894 
L 242.918812 285.867936 
L 243.225455 275.513555 
L 243.532097 308.693654 
L 243.838739 269.525372 
L 244.452024 251.143325 
L 244.758667 240.143607 
L 245.065309 199.23345 
L 245.371952 229.048554 
L 245.678594 194.756748 
L 245.985236 205.618046 
L 246.291879 201.567949 
L 246.598521 171.40374 
L 246.905164 182.269473 
L 247.211806 204.603012 
L 247.518448 244.275926 
L 247.825091 239.161941 
L 248.438376 269.875541 
L 248.745018 257.69445 
L 249.051661 290.616127 
L 249.358303 279.328711 
L 249.971588 289.135672 
L 250.584873 299.160528 
L 250.891515 276.493934 
L 251.198158 266.989703 
L 251.5048 284.80504 
L 251.811442 258.929593 
L 252.118085 305.450657 
L 252.424727 292.870698 
L 252.73137 326.228373 
L 253.038012 314.57236 
L 253.344655 319.990956 
L 253.651297 296.411016 
L 253.957939 345.12409 
L 254.264582 305.315114 
L 254.571224 328.838718 
L 254.877867 303.933407 
L 255.184509 296.05961 
L 255.491152 256.808867 
L 255.797794 288.983892 
L 256.104436 259.080556 
L 256.717721 229.083918 
L 257.024364 239.531034 
L 257.637648 229.611274 
L 257.944291 225.274772 
L 258.250933 249.797742 
L 258.557576 230.174208 
L 258.864218 255.820749 
L 259.170861 237.128596 
L 259.784145 232.36851 
L 260.090788 201.050586 
L 260.39743 242.114085 
L 260.704073 191.68969 
L 261.010715 204.132477 
L 261.317358 198.586054 
L 261.624 223.646326 
L 261.930642 202.803228 
L 262.237285 228.858679 
L 262.543927 209.075254 
L 262.85057 206.40418 
L 263.157212 231.77775 
L 263.463855 184.94687 
L 263.770497 256.207924 
L 264.077139 192.460604 
L 264.383782 207.836819 
L 264.690424 231.933892 
L 264.997067 215.023553 
L 265.303709 243.888637 
L 265.610352 226.920646 
L 265.916994 227.831086 
L 266.223636 227.145521 
L 266.530279 256.174732 
L 266.836921 242.37326 
L 267.143564 216.5197 
L 267.450206 233.384356 
L 267.756848 204.347006 
L 268.063491 190.094968 
L 268.370133 204.398918 
L 268.676776 231.368868 
L 268.983418 215.608457 
L 269.290061 245.017164 
L 269.596703 227.940144 
L 269.903345 229.553492 
L 270.209988 259.045051 
L 270.51663 215.531082 
L 270.823273 319.935651 
L 271.129915 161.215326 
L 271.436558 259.093286 
L 272.049842 210.905424 
L 272.356485 255.70616 
L 272.663127 240.691581 
L 272.96977 242.856948 
L 273.276412 215.174902 
L 273.583055 259.979592 
L 273.889697 216.835613 
L 274.196339 233.433238 
L 274.502982 232.335994 
L 274.809624 232.771637 
L 275.116267 262.069314 
L 275.422909 247.857254 
L 275.729552 221.645505 
L 276.036194 266.351245 
L 276.342836 251.489765 
L 276.649479 283.186496 
L 276.956121 269.862794 
L 277.262764 274.279701 
L 277.569406 276.387905 
L 277.876048 308.976753 
L 278.182691 269.925938 
L 278.489333 351.051775 
L 278.795976 324.541359 
L 279.409261 341.122878 
L 279.715903 348.018859 
L 280.022545 327.45682 
L 280.63583 314.233341 
L 280.942473 249.098114 
L 281.249115 298.062741 
L 281.555758 238.359171 
L 281.8624 240.761412 
L 282.169042 193.724194 
L 282.475685 189.582854 
L 282.782327 169.016677 
L 283.08897 205.115667 
L 283.395612 209.892364 
L 283.702255 245.341952 
L 284.008897 235.258714 
L 284.315539 273.838358 
L 284.622182 269.536216 
L 284.928824 283.964977 
L 285.235467 269.525497 
L 285.542109 300.320952 
L 285.848752 286.824874 
L 286.155394 290.395917 
L 286.462036 263.442801 
L 286.768679 280.830556 
L 287.075321 252.301169 
L 287.381964 239.219006 
L 287.688606 253.192912 
L 289.528461 244.695021 
L 289.835103 214.291892 
L 290.141745 227.451498 
L 290.448388 221.476958 
L 290.75503 187.587963 
L 291.061673 196.435944 
L 291.368315 190.476284 
L 291.674958 187.34208 
L 291.9816 209.969979 
L 292.288242 44.089215 
L 292.594885 286.117764 
L 292.901527 206.172305 
L 293.20817 252.15822 
L 293.514812 332.861624 
L 293.821455 306.026827 
L 294.128097 331.370734 
L 294.434739 323.947498 
L 294.741382 332.450405 
L 295.048024 311.313855 
L 295.354667 336.645785 
L 295.661309 286.243052 
L 295.967952 297.535687 
L 296.274594 258.907757 
L 296.581236 236.317013 
L 296.887879 268.043765 
L 297.194521 238.565855 
L 297.501164 195.441319 
L 297.807806 193.478028 
L 298.114448 172.137054 
L 298.421091 181.91257 
L 298.727733 204.108341 
L 299.034376 239.980364 
L 299.341018 233.475954 
L 299.647661 273.674516 
L 299.954303 213.543787 
L 300.260945 287.925573 
L 300.567588 255.232883 
L 300.87423 288.729849 
L 301.180873 275.262416 
L 301.794158 280.734331 
L 302.1008 225.970853 
L 302.407442 287.054926 
L 302.714085 243.211363 
L 303.020727 232.503925 
L 303.32737 246.615493 
L 303.634012 245.451389 
L 304.247297 244.476967 
L 304.553939 243.954072 
L 304.860582 214.549844 
L 305.167224 228.604094 
L 305.780509 220.153781 
L 306.087152 187.079124 
L 306.393794 169.29117 
L 306.700436 322.56848 
L 307.007079 159.19719 
L 307.313721 210.001785 
L 307.620364 200.086459 
L 307.927006 223.116116 
L 308.233648 205.327536 
L 308.540291 232.451591 
L 308.846933 213.810697 
L 309.153576 242.726642 
L 309.460218 254.63169 
L 309.766861 212.740467 
L 310.073503 259.232084 
L 310.380145 214.859354 
L 310.686788 231.174657 
L 310.99343 200.771331 
L 311.300073 216.961004 
L 311.606715 186.867857 
L 311.913358 230.119519 
L 312.22 212.825531 
L 312.526642 213.350973 
L 312.833285 240.442884 
L 313.139927 223.535621 
L 313.44657 225.054021 
L 313.753212 253.819252 
L 314.059855 211.035326 
L 314.366497 227.193667 
L 314.673139 255.320871 
L 314.979782 213.304993 
L 315.286424 230.070589 
L 315.593067 229.931442 
L 316.206352 232.567211 
L 316.512994 204.181974 
L 316.819636 220.022893 
L 317.126279 218.947633 
L 317.432921 219.319502 
L 318.046206 218.501283 
L 318.352848 247.070446 
L 318.659491 231.383862 
L 318.966133 203.812647 
L 319.272776 219.651144 
L 319.579418 219.184029 
L 320.499345 220.09596 
L 320.805988 219.634777 
L 321.419273 220.200747 
L 321.725915 191.579483 
L 322.032558 205.672591 
L 322.3392 203.543163 
L 322.645842 202.331128 
L 322.952485 258.063324 
L 323.259127 197.989419 
L 323.56577 213.929289 
L 323.872412 210.625099 
L 324.179055 240.084471 
L 324.485697 224.324557 
L 324.792339 254.613564 
L 325.098982 239.781152 
L 326.018909 246.437451 
L 326.325552 219.69524 
L 326.632194 265.345457 
L 326.938836 222.348212 
L 327.245479 268.797766 
L 327.552121 254.628508 
L 327.858764 257.587067 
L 328.165406 288.578184 
L 328.472048 276.924502 
L 329.085333 287.908372 
L 329.391976 321.942965 
L 329.698618 342.869795 
L 330.005261 336.404664 
L 330.311903 344.765037 
L 330.618545 322.741251 
L 330.925188 347.345539 
L 331.23183 325.698234 
L 331.538473 321.752668 
L 331.845115 286.046453 
L 332.4584 238.964644 
L 332.765042 209.182219 
L 333.071685 234.699973 
L 333.378327 169.927245 
L 333.68497 165.652535 
L 333.991612 201.612212 
L 334.298255 205.480019 
L 334.604897 240.151511 
L 335.218182 282.782922 
L 335.524824 251.186109 
L 335.831467 252.713891 
L 336.138109 309.056804 
L 336.444752 308.309202 
L 336.751394 269.751255 
L 337.058036 287.0034 
L 337.364679 260.083639 
L 337.671321 247.705404 
L 337.977964 262.545723 
L 338.284606 232.428484 
L 338.591248 246.40483 
L 338.897891 214.485529 
L 339.204533 256.58125 
L 339.511176 207.630775 
L 339.817818 220.172921 
L 340.124461 184.433132 
L 340.431103 165.837424 
L 340.737745 175.58876 
L 341.35103 160.59194 
L 341.657673 209.799211 
L 341.964315 200.437638 
L 342.270958 238.690395 
L 342.5776 232.040552 
L 343.190885 259.31124 
L 343.497527 247.126537 
L 343.80417 279.192969 
L 344.110812 267.082369 
L 344.417455 242.35662 
L 345.030739 220.901266 
L 345.337382 179.837404 
L 345.644024 179.205593 
L 345.950667 155.641941 
L 346.257309 167.133995 
L 346.563952 191.427421 
L 346.870594 171.461539 
L 347.177236 195.304743 
L 347.790521 212.277543 
L 348.097164 251.757017 
L 348.403806 219.87953 
L 348.710448 280.462075 
L 349.017091 280.45314 
L 349.630376 321.718679 
L 349.937018 314.065647 
L 350.243661 293.741856 
L 350.550303 316.85614 
L 350.856945 325.150257 
L 351.163588 278.467455 
L 351.47023 316.951372 
L 351.776873 293.452393 
L 352.083515 317.313364 
L 352.390158 294.161674 
L 352.6968 288.024926 
L 353.003442 336.30349 
L 353.310085 297.740622 
L 353.616727 322.281779 
L 353.92337 325.227995 
L 354.230012 332.260125 
L 354.536655 309.388375 
L 354.843297 331.488971 
L 355.149939 277.243011 
L 355.456582 284.928451 
L 356.376509 243.061317 
L 356.683152 253.878838 
L 356.989794 220.406995 
L 357.296436 231.8856 
L 357.603079 226.258302 
L 357.909721 249.721713 
L 358.523006 310.32984 
L 358.829648 280.830625 
L 359.136291 314.622812 
L 359.442933 330.041394 
L 359.749576 288.088162 
L 360.056218 307.485707 
L 360.362861 278.603073 
L 360.669503 268.230947 
L 360.976145 225.412287 
L 361.282788 253.620077 
L 361.58943 248.611825 
L 361.896073 216.334709 
L 362.509358 177.495811 
L 362.816 180.382526 
L 363.429285 164.664095 
L 363.735927 183.014553 
L 364.04257 186.255148 
L 364.349212 191.95879 
L 364.655855 226.041355 
L 364.962497 246.563038 
L 365.269139 213.382188 
L 365.575782 213.932976 
L 365.882424 240.990638 
L 366.189067 222.588391 
L 366.495709 222.060344 
L 366.802352 219.907741 
L 367.108994 189.628529 
L 367.415636 202.039244 
L 367.722279 167.948343 
L 368.028921 152.89119 
L 368.335564 192.070404 
L 368.642206 171.085362 
L 368.948848 196.825459 
L 369.255491 233.117945 
L 369.562133 200.394568 
L 369.868776 258.546803 
L 370.175418 225.952214 
L 370.482061 288.258152 
L 370.788703 261.000231 
L 371.095345 267.820245 
L 371.401988 301.893603 
L 371.70863 293.317851 
L 372.015273 271.275364 
L 372.321915 235.591293 
L 372.628558 270.567082 
L 372.9352 216.029699 
L 373.241842 278.776476 
L 373.548485 235.187821 
L 373.855127 253.606267 
L 374.16177 284.490869 
L 374.468412 271.98242 
L 374.775055 306.804869 
L 375.081697 297.093602 
L 375.388339 331.972449 
L 375.694982 350.801919 
L 376.001624 344.061414 
L 376.614909 362.528333 
L 376.921552 343.613585 
L 377.228194 340.541779 
L 377.534836 306.808965 
L 377.841479 316.368449 
L 378.454764 302.160163 
L 378.761406 264.277311 
L 379.068048 268.920889 
L 379.374691 224.752146 
L 379.681333 221.778454 
L 380.294618 181.10429 
L 380.907903 251.148303 
L 381.214545 272.363455 
L 381.521188 266.713789 
L 381.82783 278.16636 
L 382.134473 260.882251 
L 382.441115 318.504103 
L 382.747758 287.578184 
L 383.0544 291.514976 
L 383.361042 262.552 
L 383.667685 278.876386 
L 383.974327 249.932906 
L 384.28097 206.598715 
L 384.587612 262.272139 
L 384.894255 239.873915 
L 385.507539 235.019955 
L 385.814182 201.334861 
L 386.120824 212.760943 
L 386.427467 148.553581 
L 386.734109 202.560133 
L 387.040752 177.516933 
L 387.347394 201.499918 
L 387.654036 206.341724 
L 387.960679 243.558461 
L 388.267321 237.419065 
L 388.573964 221.677837 
L 388.880606 221.255859 
L 389.187248 220.121173 
L 389.493891 245.797035 
L 389.800533 228.224537 
L 390.107176 228.977816 
L 390.413818 199.853228 
L 390.720461 156.460414 
L 391.027103 181.623501 
L 391.333745 176.604455 
L 391.640388 174.470509 
L 391.94703 197.297571 
L 392.560315 216.329569 
L 393.1736 239.071875 
L 393.480242 281.893837 
L 393.786885 255.34913 
L 394.093527 291.336124 
L 394.40017 310.511332 
L 394.706812 301.871909 
L 395.013455 251.628519 
L 395.320097 287.537416 
L 395.626739 263.573056 
L 395.933382 285.229467 
L 396.240024 290.469648 
L 396.546667 266.846892 
L 396.853309 285.972188 
L 397.159952 288.93003 
L 397.466594 321.588844 
L 397.773236 311.442797 
L 398.079879 318.203075 
L 398.386521 379.730474 
L 398.693164 357.493826 
L 399.306448 380.632154 
L 399.613091 361.678828 
L 399.919733 330.45504 
L 400.226376 341.676235 
L 400.533018 278.369976 
L 400.839661 302.664876 
L 401.146303 233.375689 
L 401.452945 222.133519 
L 402.06623 152.523832 
L 402.679515 191.067137 
L 402.986158 223.286527 
L 403.2928 210.921256 
L 403.599442 215.17729 
L 403.906085 249.258441 
L 404.212727 240.978686 
L 404.51937 280.870219 
L 404.826012 249.074696 
L 405.132655 279.485532 
L 405.439297 235.083759 
L 405.745939 249.922563 
L 406.052582 218.836004 
L 406.359224 203.896398 
L 406.665867 214.634694 
L 406.972509 178.213834 
L 407.279152 189.839442 
L 408.505721 165.836531 
L 408.812364 187.123197 
L 409.732291 208.869504 
L 410.652218 240.085374 
L 411.572145 290.616744 
L 411.878788 281.040841 
L 412.18543 315.931174 
L 412.492073 221.187926 
L 412.798715 244.932244 
L 413.412 220.390539 
L 413.718642 178.467685 
L 414.025285 205.852683 
L 414.331927 203.790033 
L 414.63857 231.979134 
L 415.251855 256.59445 
L 415.558497 271.987646 
L 415.865139 259.505675 
L 416.171782 291.406219 
L 416.478424 280.531807 
L 416.785067 315.531723 
L 417.091709 304.723906 
L 417.398352 284.335535 
L 417.704994 304.95791 
L 418.011636 337.722345 
L 418.318279 301.829395 
L 418.624921 325.275395 
L 418.931564 300.691632 
L 419.238206 324.216524 
L 419.544848 328.939367 
L 419.851491 336.133582 
L 420.158133 313.505967 
L 420.464776 335.835858 
L 420.771418 283.940522 
L 421.078061 320.536911 
L 421.384703 294.883545 
L 421.691345 257.987936 
L 421.997988 260.495225 
L 422.30463 272.740579 
L 422.611273 240.181551 
L 422.917915 222.87482 
L 423.224558 233.542412 
L 423.5312 227.899731 
L 423.837842 251.30045 
L 424.144485 288.220703 
L 424.451127 283.522122 
L 424.75777 326.979775 
L 425.064412 299.554888 
L 425.371055 303.084337 
L 425.677697 331.988424 
L 425.984339 261.309514 
L 426.290982 267.009256 
L 426.904267 236.264676 
L 427.210909 248.19032 
L 427.517552 215.023204 
L 428.130836 175.311171 
L 428.437479 182.484098 
L 428.744121 174.779398 
L 429.050764 195.139511 
L 429.357406 141.045675 
L 429.664048 204.734053 
L 429.970691 191.120331 
L 430.277333 229.035158 
L 430.583976 219.516828 
L 430.890618 229.829479 
L 431.197261 212.624902 
L 431.503903 210.12342 
L 431.810545 235.232194 
L 432.117188 216.956396 
L 432.42383 185.98729 
L 432.730473 198.402505 
L 433.037115 224.246119 
L 433.343758 207.971871 
L 433.6504 207.093514 
L 433.957042 204.119712 
L 434.263685 203.441825 
L 434.570327 230.067512 
L 434.87697 214.007981 
L 435.183612 242.971936 
L 435.490255 227.792746 
L 436.410182 233.599544 
L 436.716824 265.639297 
L 437.023467 225.109459 
L 437.330109 215.476886 
L 437.636752 260.32999 
L 437.943394 216.17533 
L 438.250036 204.275453 
L 438.556679 219.483241 
L 438.863321 219.891688 
L 439.169964 249.89897 
L 439.476606 205.97012 
L 439.783248 280.43182 
L 440.089891 221.321962 
L 440.396533 270.014055 
L 440.703176 226.980167 
L 441.009818 302.341367 
L 441.316461 273.817955 
L 441.623103 311.066573 
L 441.929745 303.635224 
L 442.54303 317.800865 
L 442.849673 353.601558 
L 443.156315 318.515931 
L 443.462958 344.362507 
L 444.076242 361.32489 
L 444.382885 313.72602 
L 444.689527 325.66965 
L 444.99617 316.521436 
L 445.302812 282.244673 
L 445.609455 288.757552 
L 445.916097 334.465817 
L 446.222739 236.174763 
L 446.529382 230.116972 
L 446.836024 254.786644 
L 447.142667 218.885385 
L 447.755952 180.797368 
L 448.062594 216.74261 
L 448.369236 279.12765 
L 448.675879 256.926535 
L 448.982521 267.453274 
L 449.289164 306.976452 
L 449.595806 304.893753 
L 449.902448 293.872693 
L 450.209091 323.405193 
L 450.515733 280.11874 
L 450.822376 270.565531 
L 452.048945 208.188555 
L 452.355588 217.054842 
L 452.66223 180.119398 
L 452.968873 160.818734 
L 453.275515 196.680275 
L 453.582158 172.190395 
L 453.8888 194.438192 
L 454.195442 168.680308 
L 454.502085 219.566 
L 454.808727 180.330874 
L 455.11537 204.981254 
L 455.422012 209.606387 
L 455.728655 248.208333 
L 456.035297 243.27363 
L 456.341939 230.210514 
L 456.648582 261.171574 
L 456.955224 248.05442 
L 457.261867 250.386477 
L 457.568509 223.234358 
L 457.875152 211.325345 
L 458.181794 168.033527 
L 458.488436 165.27527 
L 458.795079 172.177231 
L 459.101721 111.716126 
L 459.408364 194.140326 
L 459.715006 153.592724 
L 460.021648 208.073672 
L 460.328291 225.850815 
L 460.634933 222.885925 
L 461.248218 295.290882 
L 461.554861 300.255188 
L 462.168145 343.495641 
L 462.474788 338.402211 
L 462.78143 292.427694 
L 463.088073 304.93067 
L 463.394715 298.857048 
L 463.701358 295.599516 
L 464.314642 282.684504 
L 464.621285 303.809418 
L 464.927927 307.928337 
L 465.23457 286.204013 
L 465.541212 334.342402 
L 465.847855 323.797598 
L 466.154497 304.212924 
L 466.461139 323.312536 
L 466.767782 327.355754 
L 467.381067 340.873781 
L 467.687709 288.935898 
L 467.994352 325.559762 
L 468.300994 270.28401 
L 468.607636 334.626904 
L 468.914279 291.797446 
L 469.220921 284.286809 
L 469.834206 257.304174 
L 470.140848 241.903153 
L 470.447491 193.809253 
L 470.754133 216.65011 
L 471.060776 208.504109 
L 471.367418 230.039642 
L 471.674061 236.921034 
L 471.980703 273.631645 
L 472.287345 238.228927 
L 472.593988 264.38577 
L 472.90063 246.137986 
L 473.207273 243.504246 
L 473.513915 211.91753 
L 473.820558 223.876131 
L 474.1272 217.347623 
L 474.433842 182.318656 
L 474.740485 163.796444 
L 475.047127 170.974249 
L 475.35377 162.817708 
L 475.660412 184.273416 
L 475.967055 188.145272 
L 476.273697 223.031054 
L 476.580339 215.15147 
L 476.886982 197.135922 
L 477.193624 221.16956 
L 477.500267 228.651517 
L 477.806909 211.250143 
L 478.113552 240.212385 
L 478.420194 222.557733 
L 478.726836 223.613461 
L 479.340121 222.402324 
L 479.646764 221.799172 
L 479.953406 192.979269 
L 480.260048 207.659031 
L 480.566691 177.134638 
L 480.873333 221.168925 
L 481.179976 230.663712 
L 481.486618 188.616303 
L 481.793261 232.013134 
L 482.099903 241.781721 
L 482.406545 229.014377 
L 482.713188 261.00524 
L 483.01983 248.631794 
L 483.326473 281.499358 
L 483.633115 270.87664 
L 484.553042 286.173165 
L 484.859685 263.521839 
L 485.166327 282.862993 
L 485.47297 286.778479 
L 485.779612 321.058042 
L 486.086255 312.421554 
L 486.392897 348.15638 
L 486.699539 339.740824 
L 487.619467 368.783008 
L 487.926109 322.913889 
L 488.232752 333.482523 
L 488.539394 326.313091 
L 488.846036 293.577478 
L 489.152679 243.085591 
L 489.459321 262.479171 
L 490.379248 211.353302 
L 490.685891 251.218056 
L 490.992533 229.860417 
L 491.299176 282.726647 
L 491.605818 276.217304 
L 491.912461 317.25037 
L 492.219103 316.437294 
L 492.525745 307.335841 
L 492.832388 337.378854 
L 493.13903 294.696557 
L 493.445673 285.786405 
L 493.752315 300.939058 
L 494.058958 301.609494 
L 494.3656 276.976136 
L 494.672242 293.146572 
L 494.978885 234.098638 
L 495.285527 264.38941 
L 495.59217 231.710716 
L 495.898812 243.35367 
L 496.205455 209.826502 
L 496.512097 190.163159 
L 496.818739 195.671783 
L 497.125382 157.061016 
L 497.432024 193.550924 
L 497.738667 138.394301 
L 498.045309 202.529871 
L 498.351952 216.051209 
L 498.658594 208.82332 
L 498.965236 245.002466 
L 499.271879 208.512601 
L 499.578521 235.011305 
L 500.191806 257.237744 
L 500.498448 215.1361 
L 500.805091 260.018716 
L 501.418376 173.177448 
L 501.725018 228.911728 
L 502.031661 204.494082 
L 502.338303 204.758947 
L 502.644945 174.579237 
L 502.951588 186.531028 
L 503.25823 211.324724 
L 503.564873 193.995204 
L 503.871515 220.397966 
L 504.178158 230.043207 
L 504.791442 258.907515 
L 505.098085 247.394127 
L 505.404727 136.416829 
L 505.71137 312.686688 
L 506.018012 243.234302 
L 506.324655 282.129652 
L 506.631297 271.708831 
L 506.937939 278.697483 
L 507.244582 254.467767 
L 507.551224 273.937807 
L 507.857867 277.846188 
L 508.164509 311.42119 
L 508.471152 273.249723 
L 508.777794 294.689619 
L 509.084436 327.424359 
L 509.391079 318.178554 
L 510.617648 349.907669 
L 510.924291 330.539401 
L 511.230933 324.963849 
L 511.537576 347.501547 
L 511.844218 298.037544 
L 512.150861 307.968006 
L 512.457503 268.787826 
L 512.764145 274.535933 
L 513.070788 260.101525 
L 513.37743 215.395158 
L 513.684073 242.139784 
L 513.990715 208.186588 
L 514.297358 248.18852 
L 514.604 226.875677 
L 514.910642 250.164929 
L 515.217285 286.421799 
L 515.523927 281.767482 
L 516.443855 327.702769 
L 516.750497 287.170913 
L 517.057139 305.537584 
L 517.363782 277.335676 
L 517.670424 294.983987 
L 517.977067 237.664943 
L 518.283709 240.604844 
L 518.590352 250.807103 
L 518.896994 217.734806 
L 519.203636 228.75137 
L 519.510279 192.421496 
L 519.816921 201.208049 
L 521.043491 171.661292 
L 521.350133 191.764853 
L 521.656776 197.20662 
L 521.963418 174.831778 
L 522.270061 196.126768 
L 522.576703 201.469772 
L 523.189988 217.220178 
L 523.49663 198.074923 
L 523.803273 223.957439 
L 524.416558 245.403503 
L 524.7232 260.732039 
L 525.029842 220.394326 
L 525.336485 267.861312 
L 525.643127 254.166056 
L 525.94977 258.345181 
L 526.256412 232.655599 
L 526.869697 209.609258 
L 527.176339 195.239191 
L 527.482982 206.070041 
L 527.789624 174.767495 
L 528.096267 160.819374 
L 528.402909 227.960082 
L 528.709552 193.714936 
L 529.016194 251.976095 
L 529.322836 245.99796 
L 529.629479 262.91112 
L 529.936121 309.059824 
L 530.242764 285.294555 
L 530.549406 321.370052 
L 530.856048 312.566906 
L 531.162691 320.11017 
L 531.469333 299.318197 
L 531.775976 324.208974 
L 532.082618 301.5854 
L 532.389261 297.332305 
L 532.695903 317.813057 
L 533.002545 295.54809 
L 533.309188 346.388315 
L 533.61583 308.435677 
L 533.922473 333.093841 
L 534.229115 308.166907 
L 534.535758 301.658434 
L 534.8424 292.475765 
L 535.149042 311.430545 
L 535.455685 285.910225 
L 535.762327 305.334345 
L 536.06897 278.084719 
L 536.375612 295.907833 
L 536.682255 209.860544 
L 536.988897 341.156561 
L 537.295539 262.926467 
L 537.602182 313.422021 
L 537.908824 123.300945 
L 538.215467 328.054409 
L 538.828752 241.256045 
L 539.135394 286.367089 
L 539.442036 295.950903 
L 539.748679 280.252379 
L 540.055321 311.613105 
L 540.361964 295.029354 
L 540.668606 295.757477 
L 540.975248 295.696819 
L 541.281891 296.320059 
L 541.588533 268.091725 
L 541.895176 283.282782 
L 542.201818 282.180495 
L 542.201818 282.180495 
" clip-path="url(#p161d86ca07)" style="fill: none; stroke-dasharray: 12,9; stroke-dashoffset: 0; stroke: #ff7f0e; stroke-width: 1.5"/>
   </g>
   <g id="patch_3">
    <path d="M 59.24 404.12 
L 59.24 26.88 
" style="fill: none; stroke: #000000; stroke-width: 0.8; stroke-linejoin: miter; stroke-linecap: square"/>
   </g>
   <g id="patch_4">
    <path d="M 565.2 404.12 
L 565.2 26.88 
" style="fill: none; stroke: #000000; stroke-width: 0.8; stroke-linejoin: miter; stroke-linecap: square"/>
   </g>
   <g id="patch_5">
    <path d="M 59.24 404.12 
L 565.2 404.12 
" style="fill: none; stroke: #000000; stroke-width: 0.8; stroke-linejoin: miter; stroke-linecap: square"/>
   </g>
   <g id="patch_6">
    <path d="M 59.24 26.88 
L 565.2 26.88 
" style="fill: none; stroke: #000000; stroke-width: 0.8; stroke-linejoin: miter; stroke-linecap: square"/>
   </g>
   <g id="text_19">
    <!-- Control Input Comparison -->
    <g transform="translate(235.260625 20.88) scale(0.12 -0.12)">
     <defs>
      <path id="DejaVuSans-6d" d="M 3328 2828 
Q 3544 3216 3844 3400 
Q 4144 3584 4550 3584 
Q 5097 3584 5394 3201 
Q 5691 2819 5691 2113 
L 5691 0 
L 5113 0 
L 5113 2094 
Q 5113 2597 4934 2840 
Q 4756 3084 4391 3084 
Q 3944 3084 3684 2787 
Q 3425 2491 3425 1978 
L 3425 0 
L 2847 0 
L 2847 2094 
Q 2847 2600 2669 2842 
Q 2491 3084 2119 3084 
Q 1678 3084 1418 2786 
Q 1159 2488 1159 1978 
L 1159 0 
L 581 0 
L 581 3500 
L 1159 3500 
L 1159 2956 
Q 1356 3278 1631 3431 
Q 1906 3584 2284 3584 
Q 2666 3584 2933 3390 
Q 3200 3197 3328 2828 
z
" transform="scale(0.015625)"/>
      <path id="DejaVuSans-61" d="M 2194 1759 
Q 1497 1759 1228 1600 
Q 959 1441 959 1056 
Q 959 750 1161 570 
Q 1363 391 1709 391 
Q 2188 391 2477 730 
Q 2766 1069 2766 1631 
L 2766 1759 
L 2194 1759 
z
M 3341 1997 
L 3341 0 
L 2766 0 
L 2766 531 
Q 2569 213 2275 61 
Q 1981 -91 1556 -91 
Q 1019 -91 701 211 
Q 384 513 384 1019 
Q 384 1609 779 1909 
Q 1175 2209 1959 2209 
L 2766 2209 
L 2766 2266 
Q 2766 2663 2505 2880 
Q 2244 3097 1772 3097 
Q 1472 3097 1187 3025 
Q 903 2953 641 2809 
L 641 3341 
Q 956 3463 1253 3523 
Q 1550 3584 1831 3584 
Q 2591 3584 2966 3190 
Q 3341 2797 3341 1997 
z
" transform="scale(0.015625)"/>
      <path id="DejaVuSans-69" d="M 603 3500 
L 1178 3500 
L 1178 0 
L 603 0 
L 603 3500 
z
M 603 4863 
L 1178 4863 
L 1178 4134 
L 603 4134 
L 603 4863 
z
" transform="scale(0.015625)"/>
      <path id="DejaVuSans-73" d="M 2834 3397 
L 2834 2853 
Q 2591 2978 2328 3040 
Q 2066 3103 1784 3103 
Q 1356 3103 1142 2972 
Q 928 2841 928 2578 
Q 928 2378 1081 2264 
Q 1234 2150 1697 2047 
L 1894 2003 
Q 2506 1872 2764 1633 
Q 3022 1394 3022 966 
Q 3022 478 2636 193 
Q 2250 -91 1575 -91 
Q 1294 -91 989 -36 
Q 684 19 347 128 
L 347 722 
Q 666 556 975 473 
Q 1284 391 1588 391 
Q 1994 391 2212 530 
Q 2431 669 2431 922 
Q 2431 1156 2273 1281 
Q 2116 1406 1581 1522 
L 1381 1569 
Q 847 1681 609 1914 
Q 372 2147 372 2553 
Q 372 3047 722 3315 
Q 1072 3584 1716 3584 
Q 2034 3584 2315 3537 
Q 2597 3491 2834 3397 
z
" transform="scale(0.015625)"/>
     </defs>
     <use xlink:href="#DejaVuSans-43"/>
     <use xlink:href="#DejaVuSans-6f" transform="translate(69.824219 0)"/>
     <use xlink:href="#DejaVuSans-6e" transform="translate(131.005859 0)"/>
     <use xlink:href="#DejaVuSans-74" transform="translate(194.384766 0)"/>
     <use xlink:href="#DejaVuSans-72" transform="translate(233.59375 0)"/>
     <use xlink:href="#DejaVuSans-6f" transform="translate(272.457031 0)"/>
     <use xlink:href="#DejaVuSans-6c" transform="translate(333.638672 0)"/>
     <use xlink:href="#DejaVuSans-20" transform="translate(361.421875 0)"/>
     <use xlink:href="#DejaVuSans-49" transform="translate(393.208984 0)"/>
     <use xlink:href="#DejaVuSans-6e" transform="translate(422.701172 0)"/>
     <use xlink:href="#DejaVuSans-70" transform="translate(486.080078 0)"/>
     <use xlink:href="#DejaVuSans-75" transform="translate(549.556641 0)"/>
     <use xlink:href="#DejaVuSans-74" transform="translate(612.935547 0)"/>
     <use xlink:href="#DejaVuSans-20" transform="translate(652.144531 0)"/>
     <use xlink:href="#DejaVuSans-43" transform="translate(683.931641 0)"/>
     <use xlink:href="#DejaVuSans-6f" transform="translate(753.755859 0)"/>
     <use xlink:href="#DejaVuSans-6d" transform="translate(814.9375 0)"/>
     <use xlink:href="#DejaVuSans-70" transform="translate(912.349609 0)"/>
     <use xlink:href="#DejaVuSans-61" transform="translate(975.826172 0)"/>
     <use xlink:href="#DejaVuSans-72" transform="translate(1037.105469 0)"/>
     <use xlink:href="#DejaVuSans-69" transform="translate(1078.21875 0)"/>
     <use xlink:href="#DejaVuSans-73" transform="translate(1106.001953 0)"/>
     <use xlink:href="#DejaVuSans-6f" transform="translate(1158.101562 0)"/>
     <use xlink:href="#DejaVuSans-6e" transform="translate(1219.283203 0)"/>
    </g>
   </g>
   <g id="legend_1">
    <g id="patch_7">
     <path d="M 463.907812 64.7925 
L 558.2 64.7925 
Q 560.2 64.7925 560.2 62.7925 
L 560.2 33.88 
Q 560.2 31.88 558.2 31.88 
L 463.907812 31.88 
Q 461.907812 31.88 461.907812 33.88 
L 461.907812 62.7925 
Q 461.907812 64.7925 463.907812 64.7925 
z
" style="fill: #ffffff; opacity: 0.8; stroke: #cccccc; stroke-linejoin: miter"/>
    </g>
    <g id="line2d_37">
     <path d="M 465.907812 39.978438 
L 475.907812 39.978438 
L 485.907812 39.978438 
" style="fill: none; stroke: #1f77b4; stroke-width: 2.5; stroke-linecap: square"/>
    </g>
    <g id="text_20">
     <!-- u_Original -->
     <g transform="translate(493.907812 43.478438) scale(0.1 -0.1)">
      <defs>
       <path id="DejaVuSans-5f" d="M 3263 -1063 
L 3263 -1509 
L -63 -1509 
L -63 -1063 
L 3263 -1063 
z
" transform="scale(0.015625)"/>
       <path id="DejaVuSans-4f" d="M 2522 4238 
Q 1834 4238 1429 3725 
Q 1025 3213 1025 2328 
Q 1025 1447 1429 934 
Q 1834 422 2522 422 
Q 3209 422 3611 934 
Q 4013 1447 4013 2328 
Q 4013 3213 3611 3725 
Q 3209 4238 2522 4238 
z
M 2522 4750 
Q 3503 4750 4090 4092 
Q 4678 3434 4678 2328 
Q 4678 1225 4090 567 
Q 3503 -91 2522 -91 
Q 1538 -91 948 565 
Q 359 1222 359 2328 
Q 359 3434 948 4092 
Q 1538 4750 2522 4750 
z
" transform="scale(0.015625)"/>
       <path id="DejaVuSans-67" d="M 2906 1791 
Q 2906 2416 2648 2759 
Q 2391 3103 1925 3103 
Q 1463 3103 1205 2759 
Q 947 2416 947 1791 
Q 947 1169 1205 825 
Q 1463 481 1925 481 
Q 2391 481 2648 825 
Q 2906 1169 2906 1791 
z
M 3481 434 
Q 3481 -459 3084 -895 
Q 2688 -1331 1869 -1331 
Q 1566 -1331 1297 -1286 
Q 1028 -1241 775 -1147 
L 775 -588 
Q 1028 -725 1275 -790 
Q 1522 -856 1778 -856 
Q 2344 -856 2625 -561 
Q 2906 -266 2906 331 
L 2906 616 
Q 2728 306 2450 153 
Q 2172 0 1784 0 
Q 1141 0 747 490 
Q 353 981 353 1791 
Q 353 2603 747 3093 
Q 1141 3584 1784 3584 
Q 2172 3584 2450 3431 
Q 2728 3278 2906 2969 
L 2906 3500 
L 3481 3500 
L 3481 434 
z
" transform="scale(0.015625)"/>
      </defs>
      <use xlink:href="#DejaVuSans-75"/>
      <use xlink:href="#DejaVuSans-5f" transform="translate(63.378906 0)"/>
      <use xlink:href="#DejaVuSans-4f" transform="translate(113.378906 0)"/>
      <use xlink:href="#DejaVuSans-72" transform="translate(192.089844 0)"/>
      <use xlink:href="#DejaVuSans-69" transform="translate(233.203125 0)"/>
      <use xlink:href="#DejaVuSans-67" transform="translate(260.986328 0)"/>
      <use xlink:href="#DejaVuSans-69" transform="translate(324.462891 0)"/>
      <use xlink:href="#DejaVuSans-6e" transform="translate(352.246094 0)"/>
      <use xlink:href="#DejaVuSans-61" transform="translate(415.625 0)"/>
      <use xlink:href="#DejaVuSans-6c" transform="translate(476.904297 0)"/>
     </g>
    </g>
    <g id="line2d_38">
     <path d="M 465.907812 54.934688 
L 475.907812 54.934688 
L 485.907812 54.934688 
" style="fill: none; stroke-dasharray: 12,9; stroke-dashoffset: 0; stroke: #ff7f0e; stroke-width: 1.5"/>
    </g>
    <g id="text_21">
     <!-- u_Encrypted -->
     <g transform="translate(493.907812 58.434688) scale(0.1 -0.1)">
      <defs>
       <path id="DejaVuSans-45" d="M 628 4666 
L 3578 4666 
L 3578 4134 
L 1259 4134 
L 1259 2753 
L 3481 2753 
L 3481 2222 
L 1259 2222 
L 1259 531 
L 3634 531 
L 3634 0 
L 628 0 
L 628 4666 
z
" transform="scale(0.015625)"/>
       <path id="DejaVuSans-63" d="M 3122 3366 
L 3122 2828 
Q 2878 2963 2633 3030 
Q 2388 3097 2138 3097 
Q 1578 3097 1268 2742 
Q 959 2388 959 1747 
Q 959 1106 1268 751 
Q 1578 397 2138 397 
Q 2388 397 2633 464 
Q 2878 531 3122 666 
L 3122 134 
Q 2881 22 2623 -34 
Q 2366 -91 2075 -91 
Q 1284 -91 818 406 
Q 353 903 353 1747 
Q 353 2603 823 3093 
Q 1294 3584 2113 3584 
Q 2378 3584 2631 3529 
Q 2884 3475 3122 3366 
z
" transform="scale(0.015625)"/>
       <path id="DejaVuSans-79" d="M 2059 -325 
Q 1816 -950 1584 -1140 
Q 1353 -1331 966 -1331 
L 506 -1331 
L 506 -850 
L 844 -850 
Q 1081 -850 1212 -737 
Q 1344 -625 1503 -206 
L 1606 56 
L 191 3500 
L 800 3500 
L 1894 763 
L 2988 3500 
L 3597 3500 
L 2059 -325 
z
" transform="scale(0.015625)"/>
       <path id="DejaVuSans-65" d="M 3597 1894 
L 3597 1613 
L 953 1613 
Q 991 1019 1311 708 
Q 1631 397 2203 397 
Q 2534 397 2845 478 
Q 3156 559 3463 722 
L 3463 178 
Q 3153 47 2828 -22 
Q 2503 -91 2169 -91 
Q 1331 -91 842 396 
Q 353 884 353 1716 
Q 353 2575 817 3079 
Q 1281 3584 2069 3584 
Q 2775 3584 3186 3129 
Q 3597 2675 3597 1894 
z
M 3022 2063 
Q 3016 2534 2758 2815 
Q 2500 3097 2075 3097 
Q 1594 3097 1305 2825 
Q 1016 2553 972 2059 
L 3022 2063 
z
" transform="scale(0.015625)"/>
       <path id="DejaVuSans-64" d="M 2906 2969 
L 2906 4863 
L 3481 4863 
L 3481 0 
L 2906 0 
L 2906 525 
Q 2725 213 2448 61 
Q 2172 -91 1784 -91 
Q 1150 -91 751 415 
Q 353 922 353 1747 
Q 353 2572 751 3078 
Q 1150 3584 1784 3584 
Q 2172 3584 2448 3432 
Q 2725 3281 2906 2969 
z
M 947 1747 
Q 947 1113 1208 752 
Q 1469 391 1925 391 
Q 2381 391 2643 752 
Q 2906 1113 2906 1747 
Q 2906 2381 2643 2742 
Q 2381 3103 1925 3103 
Q 1469 3103 1208 2742 
Q 947 2381 947 1747 
z
" transform="scale(0.015625)"/>
      </defs>
      <use xlink:href="#DejaVuSans-75"/>
      <use xlink:href="#DejaVuSans-5f" transform="translate(63.378906 0)"/>
      <use xlink:href="#DejaVuSans-45" transform="translate(113.378906 0)"/>
      <use xlink:href="#DejaVuSans-6e" transform="translate(176.5625 0)"/>
      <use xlink:href="#DejaVuSans-63" transform="translate(239.941406 0)"/>
      <use xlink:href="#DejaVuSans-72" transform="translate(294.921875 0)"/>
      <use xlink:href="#DejaVuSans-79" transform="translate(336.035156 0)"/>
      <use xlink:href="#DejaVuSans-70" transform="translate(395.214844 0)"/>
      <use xlink:href="#DejaVuSans-74" transform="translate(458.691406 0)"/>
      <use xlink:href="#DejaVuSans-65" transform="translate(497.900391 0)"/>
      <use xlink:href="#DejaVuSans-64" transform="translate(559.423828 0)"/>
     </g>
    </g>
   </g>
  </g>
 </g>
 <defs>
  <clipPath id="p161d86ca07">
   <rect x="59.24" y="26.88" width="505.96" height="377.24"/>
  </clipPath>
 </defs>
</svg>
