<?xml version="1.0" encoding="utf-8" standalone="no"?>
<!DOCTYPE svg PUBLIC "-//W3C//DTD SVG 1.1//EN"
  "http://www.w3.org/Graphics/SVG/1.1/DTD/svg11.dtd">
<svg xmlns:xlink="http://www.w3.org/1999/xlink" width="576pt" height="432pt" viewBox="0 0 576 432" xmlns="http://www.w3.org/2000/svg" version="1.1">
 <metadata>
  <rdf:RDF xmlns:dc="http://purl.org/dc/elements/1.1/" xmlns:cc="http://creativecommons.org/ns#" xmlns:rdf="http://www.w3.org/1999/02/22-rdf-syntax-ns#">
   <cc:Work>
    <dc:type rdf:resource="http://purl.org/dc/dcmitype/StillImage"/>
    <dc:date>2025-10-16T09:55:15.960263</dc:date>
    <dc:format>image/svg+xml</dc:format>
    <dc:creator>
     <cc:Agent>
      <dc:title>Matplotlib v3.7.5, https://matplotlib.org/</dc:title>
     </cc:Agent>
    </dc:creator>
   </cc:Work>
  </rdf:RDF>
 </metadata>
 <defs>
  <style type="text/css">*{stroke-linejoin: round; stroke-linecap: butt}</style>
 </defs>
 <g id="figure_1">
  <g id="patch_1">
   <path d="M 0 432 
L 576 432 
L 576 0 
L 0 0 
z
" style="fill: #ffffff"/>
  </g>
  <g id="axes_1">
   <g id="patch_2">
    <path d="M 46.55 390.04 
L 565.2 390.04 
L 565.2 26.88 
L 46.55 26.88 
z
" style="fill: #ffffff"/>
   </g>
   <g id="matplotlib.axis_1">
    <g id="xtick_1">
     <g id="line2d_1">
      <path d="M 70.125 390.04 
L 70.125 26.88 
" clip-path="url(#pfa24395a4f)" style="fill: none; stroke: #b0b0b0; stroke-width: 0.8; stroke-linecap: square"/>
     </g>
     <g id="line2d_2">
      <defs>
       <path id="mb96200bd8f" d="M 0 0 
L 0 3.5 
" style="stroke: #000000; stroke-width: 0.8"/>
      </defs>
      <g>
       <use xlink:href="#mb96200bd8f" x="70.125" y="390.04" style="stroke: #000000; stroke-width: 0.8"/>
      </g>
     </g>
     <g id="text_1">
      <!-- 0 -->
      <g transform="translate(66.94375 404.638438) scale(0.1 -0.1)">
       <defs>
        <path id="DejaVuSans-30" d="M 2034 4250 
Q 1547 4250 1301 3770 
Q 1056 3291 1056 2328 
Q 1056 1369 1301 889 
Q 1547 409 2034 409 
Q 2525 409 2770 889 
Q 3016 1369 3016 2328 
Q 3016 3291 2770 3770 
Q 2525 4250 2034 4250 
z
M 2034 4750 
Q 2819 4750 3233 4129 
Q 3647 3509 3647 2328 
Q 3647 1150 3233 529 
Q 2819 -91 2034 -91 
Q 1250 -91 836 529 
Q 422 1150 422 2328 
Q 422 3509 836 4129 
Q 1250 4750 2034 4750 
z
" transform="scale(0.015625)"/>
       </defs>
       <use xlink:href="#DejaVuSans-30"/>
      </g>
     </g>
    </g>
    <g id="xtick_2">
     <g id="line2d_3">
      <path d="M 132.991667 390.04 
L 132.991667 26.88 
" clip-path="url(#pfa24395a4f)" style="fill: none; stroke: #b0b0b0; stroke-width: 0.8; stroke-linecap: square"/>
     </g>
     <g id="line2d_4">
      <g>
       <use xlink:href="#mb96200bd8f" x="132.991667" y="390.04" style="stroke: #000000; stroke-width: 0.8"/>
      </g>
     </g>
     <g id="text_2">
      <!-- 200 -->
      <g transform="translate(123.447917 404.638438) scale(0.1 -0.1)">
       <defs>
        <path id="DejaVuSans-32" d="M 1228 531 
L 3431 531 
L 3431 0 
L 469 0 
L 469 531 
Q 828 903 1448 1529 
Q 2069 2156 2228 2338 
Q 2531 2678 2651 2914 
Q 2772 3150 2772 3378 
Q 2772 3750 2511 3984 
Q 2250 4219 1831 4219 
Q 1534 4219 1204 4116 
Q 875 4013 500 3803 
L 500 4441 
Q 881 4594 1212 4672 
Q 1544 4750 1819 4750 
Q 2544 4750 2975 4387 
Q 3406 4025 3406 3419 
Q 3406 3131 3298 2873 
Q 3191 2616 2906 2266 
Q 2828 2175 2409 1742 
Q 1991 1309 1228 531 
z
" transform="scale(0.015625)"/>
       </defs>
       <use xlink:href="#DejaVuSans-32"/>
       <use xlink:href="#DejaVuSans-30" x="63.623047"/>
       <use xlink:href="#DejaVuSans-30" x="127.246094"/>
      </g>
     </g>
    </g>
    <g id="xtick_3">
     <g id="line2d_5">
      <path d="M 195.858333 390.04 
L 195.858333 26.88 
" clip-path="url(#pfa24395a4f)" style="fill: none; stroke: #b0b0b0; stroke-width: 0.8; stroke-linecap: square"/>
     </g>
     <g id="line2d_6">
      <g>
       <use xlink:href="#mb96200bd8f" x="195.858333" y="390.04" style="stroke: #000000; stroke-width: 0.8"/>
      </g>
     </g>
     <g id="text_3">
      <!-- 400 -->
      <g transform="translate(186.314583 404.638438) scale(0.1 -0.1)">
       <defs>
        <path id="DejaVuSans-34" d="M 2419 4116 
L 825 1625 
L 2419 1625 
L 2419 4116 
z
M 2253 4666 
L 3047 4666 
L 3047 1625 
L 3713 1625 
L 3713 1100 
L 3047 1100 
L 3047 0 
L 2419 0 
L 2419 1100 
L 313 1100 
L 313 1709 
L 2253 4666 
z
" transform="scale(0.015625)"/>
       </defs>
       <use xlink:href="#DejaVuSans-34"/>
       <use xlink:href="#DejaVuSans-30" x="63.623047"/>
       <use xlink:href="#DejaVuSans-30" x="127.246094"/>
      </g>
     </g>
    </g>
    <g id="xtick_4">
     <g id="line2d_7">
      <path d="M 258.725 390.04 
L 258.725 26.88 
" clip-path="url(#pfa24395a4f)" style="fill: none; stroke: #b0b0b0; stroke-width: 0.8; stroke-linecap: square"/>
     </g>
     <g id="line2d_8">
      <g>
       <use xlink:href="#mb96200bd8f" x="258.725" y="390.04" style="stroke: #000000; stroke-width: 0.8"/>
      </g>
     </g>
     <g id="text_4">
      <!-- 600 -->
      <g transform="translate(249.18125 404.638438) scale(0.1 -0.1)">
       <defs>
        <path id="DejaVuSans-36" d="M 2113 2584 
Q 1688 2584 1439 2293 
Q 1191 2003 1191 1497 
Q 1191 994 1439 701 
Q 1688 409 2113 409 
Q 2538 409 2786 701 
Q 3034 994 3034 1497 
Q 3034 2003 2786 2293 
Q 2538 2584 2113 2584 
z
M 3366 4563 
L 3366 3988 
Q 3128 4100 2886 4159 
Q 2644 4219 2406 4219 
Q 1781 4219 1451 3797 
Q 1122 3375 1075 2522 
Q 1259 2794 1537 2939 
Q 1816 3084 2150 3084 
Q 2853 3084 3261 2657 
Q 3669 2231 3669 1497 
Q 3669 778 3244 343 
Q 2819 -91 2113 -91 
Q 1303 -91 875 529 
Q 447 1150 447 2328 
Q 447 3434 972 4092 
Q 1497 4750 2381 4750 
Q 2619 4750 2861 4703 
Q 3103 4656 3366 4563 
z
" transform="scale(0.015625)"/>
       </defs>
       <use xlink:href="#DejaVuSans-36"/>
       <use xlink:href="#DejaVuSans-30" x="63.623047"/>
       <use xlink:href="#DejaVuSans-30" x="127.246094"/>
      </g>
     </g>
    </g>
    <g id="xtick_5">
     <g id="line2d_9">
      <path d="M 321.591667 390.04 
L 321.591667 26.88 
" clip-path="url(#pfa24395a4f)" style="fill: none; stroke: #b0b0b0; stroke-width: 0.8; stroke-linecap: square"/>
     </g>
     <g id="line2d_10">
      <g>
       <use xlink:href="#mb96200bd8f" x="321.591667" y="390.04" style="stroke: #000000; stroke-width: 0.8"/>
      </g>
     </g>
     <g id="text_5">
      <!-- 800 -->
      <g transform="translate(312.047917 404.638438) scale(0.1 -0.1)">
       <defs>
        <path id="DejaVuSans-38" d="M 2034 2216 
Q 1584 2216 1326 1975 
Q 1069 1734 1069 1313 
Q 1069 891 1326 650 
Q 1584 409 2034 409 
Q 2484 409 2743 651 
Q 3003 894 3003 1313 
Q 3003 1734 2745 1975 
Q 2488 2216 2034 2216 
z
M 1403 2484 
Q 997 2584 770 2862 
Q 544 3141 544 3541 
Q 544 4100 942 4425 
Q 1341 4750 2034 4750 
Q 2731 4750 3128 4425 
Q 3525 4100 3525 3541 
Q 3525 3141 3298 2862 
Q 3072 2584 2669 2484 
Q 3125 2378 3379 2068 
Q 3634 1759 3634 1313 
Q 3634 634 3220 271 
Q 2806 -91 2034 -91 
Q 1263 -91 848 271 
Q 434 634 434 1313 
Q 434 1759 690 2068 
Q 947 2378 1403 2484 
z
M 1172 3481 
Q 1172 3119 1398 2916 
Q 1625 2713 2034 2713 
Q 2441 2713 2670 2916 
Q 2900 3119 2900 3481 
Q 2900 3844 2670 4047 
Q 2441 4250 2034 4250 
Q 1625 4250 1398 4047 
Q 1172 3844 1172 3481 
z
" transform="scale(0.015625)"/>
       </defs>
       <use xlink:href="#DejaVuSans-38"/>
       <use xlink:href="#DejaVuSans-30" x="63.623047"/>
       <use xlink:href="#DejaVuSans-30" x="127.246094"/>
      </g>
     </g>
    </g>
    <g id="xtick_6">
     <g id="line2d_11">
      <path d="M 384.458333 390.04 
L 384.458333 26.88 
" clip-path="url(#pfa24395a4f)" style="fill: none; stroke: #b0b0b0; stroke-width: 0.8; stroke-linecap: square"/>
     </g>
     <g id="line2d_12">
      <g>
       <use xlink:href="#mb96200bd8f" x="384.458333" y="390.04" style="stroke: #000000; stroke-width: 0.8"/>
      </g>
     </g>
     <g id="text_6">
      <!-- 1000 -->
      <g transform="translate(371.733333 404.638438) scale(0.1 -0.1)">
       <defs>
        <path id="DejaVuSans-31" d="M 794 531 
L 1825 531 
L 1825 4091 
L 703 3866 
L 703 4441 
L 1819 4666 
L 2450 4666 
L 2450 531 
L 3481 531 
L 3481 0 
L 794 0 
L 794 531 
z
" transform="scale(0.015625)"/>
       </defs>
       <use xlink:href="#DejaVuSans-31"/>
       <use xlink:href="#DejaVuSans-30" x="63.623047"/>
       <use xlink:href="#DejaVuSans-30" x="127.246094"/>
       <use xlink:href="#DejaVuSans-30" x="190.869141"/>
      </g>
     </g>
    </g>
    <g id="xtick_7">
     <g id="line2d_13">
      <path d="M 447.325 390.04 
L 447.325 26.88 
" clip-path="url(#pfa24395a4f)" style="fill: none; stroke: #b0b0b0; stroke-width: 0.8; stroke-linecap: square"/>
     </g>
     <g id="line2d_14">
      <g>
       <use xlink:href="#mb96200bd8f" x="447.325" y="390.04" style="stroke: #000000; stroke-width: 0.8"/>
      </g>
     </g>
     <g id="text_7">
      <!-- 1200 -->
      <g transform="translate(434.6 404.638438) scale(0.1 -0.1)">
       <use xlink:href="#DejaVuSans-31"/>
       <use xlink:href="#DejaVuSans-32" x="63.623047"/>
       <use xlink:href="#DejaVuSans-30" x="127.246094"/>
       <use xlink:href="#DejaVuSans-30" x="190.869141"/>
      </g>
     </g>
    </g>
    <g id="xtick_8">
     <g id="line2d_15">
      <path d="M 510.191667 390.04 
L 510.191667 26.88 
" clip-path="url(#pfa24395a4f)" style="fill: none; stroke: #b0b0b0; stroke-width: 0.8; stroke-linecap: square"/>
     </g>
     <g id="line2d_16">
      <g>
       <use xlink:href="#mb96200bd8f" x="510.191667" y="390.04" style="stroke: #000000; stroke-width: 0.8"/>
      </g>
     </g>
     <g id="text_8">
      <!-- 1400 -->
      <g transform="translate(497.466667 404.638438) scale(0.1 -0.1)">
       <use xlink:href="#DejaVuSans-31"/>
       <use xlink:href="#DejaVuSans-34" x="63.623047"/>
       <use xlink:href="#DejaVuSans-30" x="127.246094"/>
       <use xlink:href="#DejaVuSans-30" x="190.869141"/>
      </g>
     </g>
    </g>
    <g id="text_9">
     <!-- Iteration -->
     <g transform="translate(284.666406 418.316562) scale(0.1 -0.1)">
      <defs>
       <path id="DejaVuSans-49" d="M 628 4666 
L 1259 4666 
L 1259 0 
L 628 0 
L 628 4666 
z
" transform="scale(0.015625)"/>
       <path id="DejaVuSans-74" d="M 1172 4494 
L 1172 3500 
L 2356 3500 
L 2356 3053 
L 1172 3053 
L 1172 1153 
Q 1172 725 1289 603 
Q 1406 481 1766 481 
L 2356 481 
L 2356 0 
L 1766 0 
Q 1100 0 847 248 
Q 594 497 594 1153 
L 594 3053 
L 172 3053 
L 172 3500 
L 594 3500 
L 594 4494 
L 1172 4494 
z
" transform="scale(0.015625)"/>
       <path id="DejaVuSans-65" d="M 3597 1894 
L 3597 1613 
L 953 1613 
Q 991 1019 1311 708 
Q 1631 397 2203 397 
Q 2534 397 2845 478 
Q 3156 559 3463 722 
L 3463 178 
Q 3153 47 2828 -22 
Q 2503 -91 2169 -91 
Q 1331 -91 842 396 
Q 353 884 353 1716 
Q 353 2575 817 3079 
Q 1281 3584 2069 3584 
Q 2775 3584 3186 3129 
Q 3597 2675 3597 1894 
z
M 3022 2063 
Q 3016 2534 2758 2815 
Q 2500 3097 2075 3097 
Q 1594 3097 1305 2825 
Q 1016 2553 972 2059 
L 3022 2063 
z
" transform="scale(0.015625)"/>
       <path id="DejaVuSans-72" d="M 2631 2963 
Q 2534 3019 2420 3045 
Q 2306 3072 2169 3072 
Q 1681 3072 1420 2755 
Q 1159 2438 1159 1844 
L 1159 0 
L 581 0 
L 581 3500 
L 1159 3500 
L 1159 2956 
Q 1341 3275 1631 3429 
Q 1922 3584 2338 3584 
Q 2397 3584 2469 3576 
Q 2541 3569 2628 3553 
L 2631 2963 
z
" transform="scale(0.015625)"/>
       <path id="DejaVuSans-61" d="M 2194 1759 
Q 1497 1759 1228 1600 
Q 959 1441 959 1056 
Q 959 750 1161 570 
Q 1363 391 1709 391 
Q 2188 391 2477 730 
Q 2766 1069 2766 1631 
L 2766 1759 
L 2194 1759 
z
M 3341 1997 
L 3341 0 
L 2766 0 
L 2766 531 
Q 2569 213 2275 61 
Q 1981 -91 1556 -91 
Q 1019 -91 701 211 
Q 384 513 384 1019 
Q 384 1609 779 1909 
Q 1175 2209 1959 2209 
L 2766 2209 
L 2766 2266 
Q 2766 2663 2505 2880 
Q 2244 3097 1772 3097 
Q 1472 3097 1187 3025 
Q 903 2953 641 2809 
L 641 3341 
Q 956 3463 1253 3523 
Q 1550 3584 1831 3584 
Q 2591 3584 2966 3190 
Q 3341 2797 3341 1997 
z
" transform="scale(0.015625)"/>
       <path id="DejaVuSans-69" d="M 603 3500 
L 1178 3500 
L 1178 0 
L 603 0 
L 603 3500 
z
M 603 4863 
L 1178 4863 
L 1178 4134 
L 603 4134 
L 603 4863 
z
" transform="scale(0.015625)"/>
       <path id="DejaVuSans-6f" d="M 1959 3097 
Q 1497 3097 1228 2736 
Q 959 2375 959 1747 
Q 959 1119 1226 758 
Q 1494 397 1959 397 
Q 2419 397 2687 759 
Q 2956 1122 2956 1747 
Q 2956 2369 2687 2733 
Q 2419 3097 1959 3097 
z
M 1959 3584 
Q 2709 3584 3137 3096 
Q 3566 2609 3566 1747 
Q 3566 888 3137 398 
Q 2709 -91 1959 -91 
Q 1206 -91 779 398 
Q 353 888 353 1747 
Q 353 2609 779 3096 
Q 1206 3584 1959 3584 
z
" transform="scale(0.015625)"/>
       <path id="DejaVuSans-6e" d="M 3513 2113 
L 3513 0 
L 2938 0 
L 2938 2094 
Q 2938 2591 2744 2837 
Q 2550 3084 2163 3084 
Q 1697 3084 1428 2787 
Q 1159 2491 1159 1978 
L 1159 0 
L 581 0 
L 581 3500 
L 1159 3500 
L 1159 2956 
Q 1366 3272 1645 3428 
Q 1925 3584 2291 3584 
Q 2894 3584 3203 3211 
Q 3513 2838 3513 2113 
z
" transform="scale(0.015625)"/>
      </defs>
      <use xlink:href="#DejaVuSans-49"/>
      <use xlink:href="#DejaVuSans-74" x="29.492188"/>
      <use xlink:href="#DejaVuSans-65" x="68.701172"/>
      <use xlink:href="#DejaVuSans-72" x="130.224609"/>
      <use xlink:href="#DejaVuSans-61" x="171.337891"/>
      <use xlink:href="#DejaVuSans-74" x="232.617188"/>
      <use xlink:href="#DejaVuSans-69" x="271.826172"/>
      <use xlink:href="#DejaVuSans-6f" x="299.609375"/>
      <use xlink:href="#DejaVuSans-6e" x="360.791016"/>
     </g>
    </g>
   </g>
   <g id="matplotlib.axis_2">
    <g id="ytick_1">
     <g id="line2d_17">
      <path d="M 46.55 354.673214 
L 565.2 354.673214 
" clip-path="url(#pfa24395a4f)" style="fill: none; stroke: #b0b0b0; stroke-width: 0.8; stroke-linecap: square"/>
     </g>
     <g id="line2d_18">
      <defs>
       <path id="m2e42e25e6a" d="M 0 0 
L -3.5 0 
" style="stroke: #000000; stroke-width: 0.8"/>
      </defs>
      <g>
       <use xlink:href="#m2e42e25e6a" x="46.55" y="354.673214" style="stroke: #000000; stroke-width: 0.8"/>
      </g>
     </g>
     <g id="text_10">
      <!-- −4 -->
      <g transform="translate(24.807813 358.472432) scale(0.1 -0.1)">
       <defs>
        <path id="DejaVuSans-2212" d="M 678 2272 
L 4684 2272 
L 4684 1741 
L 678 1741 
L 678 2272 
z
" transform="scale(0.015625)"/>
       </defs>
       <use xlink:href="#DejaVuSans-2212"/>
       <use xlink:href="#DejaVuSans-34" x="83.789062"/>
      </g>
     </g>
    </g>
    <g id="ytick_2">
     <g id="line2d_19">
      <path d="M 46.55 305.452676 
L 565.2 305.452676 
" clip-path="url(#pfa24395a4f)" style="fill: none; stroke: #b0b0b0; stroke-width: 0.8; stroke-linecap: square"/>
     </g>
     <g id="line2d_20">
      <g>
       <use xlink:href="#m2e42e25e6a" x="46.55" y="305.452676" style="stroke: #000000; stroke-width: 0.8"/>
      </g>
     </g>
     <g id="text_11">
      <!-- −2 -->
      <g transform="translate(24.807813 309.251894) scale(0.1 -0.1)">
       <use xlink:href="#DejaVuSans-2212"/>
       <use xlink:href="#DejaVuSans-32" x="83.789062"/>
      </g>
     </g>
    </g>
    <g id="ytick_3">
     <g id="line2d_21">
      <path d="M 46.55 256.232138 
L 565.2 256.232138 
" clip-path="url(#pfa24395a4f)" style="fill: none; stroke: #b0b0b0; stroke-width: 0.8; stroke-linecap: square"/>
     </g>
     <g id="line2d_22">
      <g>
       <use xlink:href="#m2e42e25e6a" x="46.55" y="256.232138" style="stroke: #000000; stroke-width: 0.8"/>
      </g>
     </g>
     <g id="text_12">
      <!-- 0 -->
      <g transform="translate(33.1875 260.031356) scale(0.1 -0.1)">
       <use xlink:href="#DejaVuSans-30"/>
      </g>
     </g>
    </g>
    <g id="ytick_4">
     <g id="line2d_23">
      <path d="M 46.55 207.0116 
L 565.2 207.0116 
" clip-path="url(#pfa24395a4f)" style="fill: none; stroke: #b0b0b0; stroke-width: 0.8; stroke-linecap: square"/>
     </g>
     <g id="line2d_24">
      <g>
       <use xlink:href="#m2e42e25e6a" x="46.55" y="207.0116" style="stroke: #000000; stroke-width: 0.8"/>
      </g>
     </g>
     <g id="text_13">
      <!-- 2 -->
      <g transform="translate(33.1875 210.810818) scale(0.1 -0.1)">
       <use xlink:href="#DejaVuSans-32"/>
      </g>
     </g>
    </g>
    <g id="ytick_5">
     <g id="line2d_25">
      <path d="M 46.55 157.791061 
L 565.2 157.791061 
" clip-path="url(#pfa24395a4f)" style="fill: none; stroke: #b0b0b0; stroke-width: 0.8; stroke-linecap: square"/>
     </g>
     <g id="line2d_26">
      <g>
       <use xlink:href="#m2e42e25e6a" x="46.55" y="157.791061" style="stroke: #000000; stroke-width: 0.8"/>
      </g>
     </g>
     <g id="text_14">
      <!-- 4 -->
      <g transform="translate(33.1875 161.59028) scale(0.1 -0.1)">
       <use xlink:href="#DejaVuSans-34"/>
      </g>
     </g>
    </g>
    <g id="ytick_6">
     <g id="line2d_27">
      <path d="M 46.55 108.570523 
L 565.2 108.570523 
" clip-path="url(#pfa24395a4f)" style="fill: none; stroke: #b0b0b0; stroke-width: 0.8; stroke-linecap: square"/>
     </g>
     <g id="line2d_28">
      <g>
       <use xlink:href="#m2e42e25e6a" x="46.55" y="108.570523" style="stroke: #000000; stroke-width: 0.8"/>
      </g>
     </g>
     <g id="text_15">
      <!-- 6 -->
      <g transform="translate(33.1875 112.369742) scale(0.1 -0.1)">
       <use xlink:href="#DejaVuSans-36"/>
      </g>
     </g>
    </g>
    <g id="ytick_7">
     <g id="line2d_29">
      <path d="M 46.55 59.349985 
L 565.2 59.349985 
" clip-path="url(#pfa24395a4f)" style="fill: none; stroke: #b0b0b0; stroke-width: 0.8; stroke-linecap: square"/>
     </g>
     <g id="line2d_30">
      <g>
       <use xlink:href="#m2e42e25e6a" x="46.55" y="59.349985" style="stroke: #000000; stroke-width: 0.8"/>
      </g>
     </g>
     <g id="text_16">
      <!-- 8 -->
      <g transform="translate(33.1875 63.149204) scale(0.1 -0.1)">
       <use xlink:href="#DejaVuSans-38"/>
      </g>
     </g>
    </g>
    <g id="text_17">
     <!-- Output -->
     <g transform="translate(18.728125 225.827969) rotate(-90) scale(0.1 -0.1)">
      <defs>
       <path id="DejaVuSans-4f" d="M 2522 4238 
Q 1834 4238 1429 3725 
Q 1025 3213 1025 2328 
Q 1025 1447 1429 934 
Q 1834 422 2522 422 
Q 3209 422 3611 934 
Q 4013 1447 4013 2328 
Q 4013 3213 3611 3725 
Q 3209 4238 2522 4238 
z
M 2522 4750 
Q 3503 4750 4090 4092 
Q 4678 3434 4678 2328 
Q 4678 1225 4090 567 
Q 3503 -91 2522 -91 
Q 1538 -91 948 565 
Q 359 1222 359 2328 
Q 359 3434 948 4092 
Q 1538 4750 2522 4750 
z
" transform="scale(0.015625)"/>
       <path id="DejaVuSans-75" d="M 544 1381 
L 544 3500 
L 1119 3500 
L 1119 1403 
Q 1119 906 1312 657 
Q 1506 409 1894 409 
Q 2359 409 2629 706 
Q 2900 1003 2900 1516 
L 2900 3500 
L 3475 3500 
L 3475 0 
L 2900 0 
L 2900 538 
Q 2691 219 2414 64 
Q 2138 -91 1772 -91 
Q 1169 -91 856 284 
Q 544 659 544 1381 
z
M 1991 3584 
L 1991 3584 
z
" transform="scale(0.015625)"/>
       <path id="DejaVuSans-70" d="M 1159 525 
L 1159 -1331 
L 581 -1331 
L 581 3500 
L 1159 3500 
L 1159 2969 
Q 1341 3281 1617 3432 
Q 1894 3584 2278 3584 
Q 2916 3584 3314 3078 
Q 3713 2572 3713 1747 
Q 3713 922 3314 415 
Q 2916 -91 2278 -91 
Q 1894 -91 1617 61 
Q 1341 213 1159 525 
z
M 3116 1747 
Q 3116 2381 2855 2742 
Q 2594 3103 2138 3103 
Q 1681 3103 1420 2742 
Q 1159 2381 1159 1747 
Q 1159 1113 1420 752 
Q 1681 391 2138 391 
Q 2594 391 2855 752 
Q 3116 1113 3116 1747 
z
" transform="scale(0.015625)"/>
      </defs>
      <use xlink:href="#DejaVuSans-4f"/>
      <use xlink:href="#DejaVuSans-75" x="78.710938"/>
      <use xlink:href="#DejaVuSans-74" x="142.089844"/>
      <use xlink:href="#DejaVuSans-70" x="181.298828"/>
      <use xlink:href="#DejaVuSans-75" x="244.775391"/>
      <use xlink:href="#DejaVuSans-74" x="308.154297"/>
     </g>
    </g>
   </g>
   <g id="line2d_31">
    <path d="M 70.125 286.566115 
L 70.439333 286.566115 
L 70.753667 275.695489 
L 71.068 286.566115 
L 71.696667 264.824862 
L 72.325333 264.824862 
L 72.639667 253.953473 
L 72.954 253.953473 
L 73.582667 232.212195 
L 73.897 243.082822 
L 74.211333 232.212195 
L 75.154333 232.212195 
L 75.468667 243.082822 
L 75.783 232.212195 
L 76.097333 232.212195 
L 76.411667 221.341544 
L 77.040333 221.341544 
L 77.354667 210.470917 
L 77.669 221.341544 
L 77.983333 221.341544 
L 78.926333 253.953473 
L 79.240667 275.695489 
L 79.555 286.566115 
L 79.869333 308.307393 
L 80.498 308.307393 
L 80.812333 319.178782 
L 81.126667 308.307393 
L 81.441 308.307393 
L 81.755333 297.436766 
L 82.069667 297.436766 
L 82.384 286.566115 
L 82.698333 286.566115 
L 83.012667 275.695489 
L 83.641333 275.695489 
L 84.27 253.953473 
L 84.898667 253.953473 
L 85.213 243.082822 
L 85.527333 253.953473 
L 85.841667 243.082822 
L 86.156 243.082822 
L 86.470333 232.212195 
L 86.784667 232.212195 
L 87.413333 210.470917 
L 88.042 210.470917 
L 88.356333 199.599528 
L 89.299333 199.599528 
L 89.613667 210.470917 
L 89.928 199.599528 
L 90.871 199.599528 
L 91.185333 210.470917 
L 91.499667 210.470917 
L 91.814 221.341544 
L 92.128333 210.470917 
L 92.442667 232.212195 
L 93.071333 232.212195 
L 94.014333 264.824862 
L 94.328667 264.824862 
L 95.271667 297.436766 
L 95.586 297.436766 
L 95.900333 308.307393 
L 96.529 308.307393 
L 96.843333 297.436766 
L 97.157667 297.436766 
L 97.472 275.695489 
L 98.729333 232.212195 
L 99.043667 232.212195 
L 99.358 253.953473 
L 99.986667 275.695489 
L 100.301 308.307393 
L 100.615333 319.178782 
L 100.929667 340.92006 
L 101.244 351.790711 
L 101.558333 373.532727 
L 102.187 373.532727 
L 102.501333 362.662076 
L 102.815667 362.662076 
L 103.444333 340.92006 
L 104.073 286.566115 
L 104.387333 264.824862 
L 104.701667 253.953473 
L 105.016 232.212195 
L 105.644667 210.470917 
L 105.959 210.470917 
L 106.273333 243.082822 
L 106.587667 253.953473 
L 106.902 275.695489 
L 107.216333 286.566115 
L 107.530667 308.307393 
L 107.845 308.307393 
L 108.159333 286.566115 
L 108.788 264.824862 
L 109.102333 243.082822 
L 109.416667 232.212195 
L 109.731 210.470917 
L 110.359667 188.728901 
L 110.674 166.987624 
L 111.302667 166.987624 
L 111.617 177.85825 
L 111.931333 199.599528 
L 112.245667 210.470917 
L 112.874333 210.470917 
L 113.188667 221.341544 
L 113.503 221.341544 
L 113.817333 232.212195 
L 114.446 232.212195 
L 114.760333 221.341544 
L 115.703333 221.341544 
L 116.017667 232.212195 
L 116.332 232.212195 
L 116.960667 253.953473 
L 117.275 253.953473 
L 117.589333 264.824862 
L 117.903667 264.824862 
L 118.218 275.695489 
L 118.532333 297.436766 
L 118.846667 297.436766 
L 119.161 319.178782 
L 120.104 351.790711 
L 120.732667 351.790711 
L 121.047 330.049434 
L 121.361333 319.178782 
L 121.675667 297.436766 
L 122.304333 275.695489 
L 122.618667 275.695489 
L 122.933 264.824862 
L 123.247333 275.695489 
L 123.561667 264.824862 
L 123.876 275.695489 
L 124.504667 275.695489 
L 125.133333 297.436766 
L 126.705 297.436766 
L 127.019333 286.566115 
L 127.333667 286.566115 
L 128.276667 253.953473 
L 128.591 253.953473 
L 128.905333 243.082822 
L 129.219667 243.082822 
L 129.848333 221.341544 
L 130.162667 221.341544 
L 130.477 210.470917 
L 130.791333 210.470917 
L 131.105667 199.599528 
L 131.42 210.470917 
L 131.734333 210.470917 
L 132.048667 221.341544 
L 133.306 221.341544 
L 133.620333 232.212195 
L 133.934667 221.341544 
L 134.249 221.341544 
L 134.563333 210.470917 
L 136.135 210.470917 
L 136.449333 221.341544 
L 136.763667 221.341544 
L 137.078 243.082822 
L 138.335333 286.566115 
L 138.649667 286.566115 
L 139.592667 319.178782 
L 139.907 308.307393 
L 140.221333 308.307393 
L 140.535667 286.566115 
L 140.85 286.566115 
L 141.164333 264.824862 
L 141.478667 253.953473 
L 141.793 253.953473 
L 142.107333 243.082822 
L 143.679 297.436766 
L 144.307667 297.436766 
L 144.622 308.307393 
L 146.193667 308.307393 
L 146.508 297.436766 
L 147.451 297.436766 
L 147.765333 286.566115 
L 148.079667 286.566115 
L 148.394 297.436766 
L 148.708333 286.566115 
L 149.022667 286.566115 
L 149.337 275.695489 
L 150.28 275.695489 
L 150.594333 264.824862 
L 150.908667 264.824862 
L 151.223 253.953473 
L 152.166 253.953473 
L 152.794667 232.212195 
L 153.109 232.212195 
L 153.423333 221.341544 
L 155.938 221.341544 
L 156.566667 243.082822 
L 156.881 232.212195 
L 157.824 232.212195 
L 158.138333 221.341544 
L 159.081333 221.341544 
L 160.024333 188.728901 
L 160.338667 199.599528 
L 160.653 188.728901 
L 160.967333 210.470917 
L 161.281667 199.599528 
L 161.910333 221.341544 
L 163.167667 308.307393 
L 163.482 319.178782 
L 163.796333 340.92006 
L 164.425 340.92006 
L 164.739333 330.049434 
L 165.053667 308.307393 
L 165.368 297.436766 
L 165.682333 264.824862 
L 166.625333 232.212195 
L 167.254 232.212195 
L 167.568333 243.082822 
L 167.882667 264.824862 
L 168.511333 286.566115 
L 168.825667 308.307393 
L 169.768667 340.92006 
L 170.397333 340.92006 
L 171.340333 308.307393 
L 171.654667 286.566115 
L 171.969 275.695489 
L 172.283333 275.695489 
L 172.912 253.953473 
L 174.169333 253.953473 
L 174.483667 264.824862 
L 174.798 264.824862 
L 175.112333 275.695489 
L 175.426667 297.436766 
L 176.369667 297.436766 
L 176.684 308.307393 
L 176.998333 286.566115 
L 177.312667 275.695489 
L 177.627 253.953473 
L 177.941333 243.082822 
L 178.255667 221.341544 
L 178.57 210.470917 
L 179.198667 166.987624 
L 179.513 166.987624 
L 179.827333 156.116973 
L 181.084667 199.599528 
L 181.399 221.341544 
L 181.713333 221.341544 
L 182.027667 232.212195 
L 182.342 232.212195 
L 182.656333 243.082822 
L 182.970667 243.082822 
L 183.285 232.212195 
L 183.599333 232.212195 
L 183.913667 210.470917 
L 184.228 199.599528 
L 184.542333 210.470917 
L 184.856667 210.470917 
L 185.171 221.341544 
L 185.485333 221.341544 
L 185.799667 243.082822 
L 186.114 286.566115 
L 186.428333 275.695489 
L 186.742667 286.566115 
L 187.057 308.307393 
L 187.371333 319.178782 
L 188 319.178782 
L 188.314333 308.307393 
L 188.628667 286.566115 
L 188.943 275.695489 
L 189.257333 253.953473 
L 189.571667 253.953473 
L 189.886 243.082822 
L 190.514667 243.082822 
L 190.829 253.953473 
L 191.143333 275.695489 
L 191.457667 275.695489 
L 191.772 297.436766 
L 192.400667 319.178782 
L 192.715 319.178782 
L 193.029333 330.049434 
L 193.972333 330.049434 
L 194.286667 319.178782 
L 194.601 319.178782 
L 195.229667 297.436766 
L 195.544 297.436766 
L 196.172667 275.695489 
L 196.487 275.695489 
L 196.801333 286.566115 
L 197.744333 286.566115 
L 198.058667 275.695489 
L 198.373 275.695489 
L 199.316 243.082822 
L 200.259 243.082822 
L 200.887667 221.341544 
L 201.830667 221.341544 
L 202.145 210.470917 
L 202.459333 210.470917 
L 202.773667 232.212195 
L 203.716667 232.212195 
L 204.031 243.082822 
L 207.174333 243.082822 
L 207.488667 232.212195 
L 208.117333 232.212195 
L 208.431667 221.341544 
L 209.060333 221.341544 
L 209.689 199.599528 
L 210.317667 199.599528 
L 210.632 210.470917 
L 211.260667 253.953473 
L 211.889333 275.695489 
L 212.203667 297.436766 
L 212.832333 319.178782 
L 213.146667 308.307393 
L 213.461 319.178782 
L 213.775333 308.307393 
L 214.718333 243.082822 
L 215.032667 232.212195 
L 215.661333 232.212195 
L 216.918667 275.695489 
L 217.233 275.695489 
L 217.547333 297.436766 
L 218.176 297.436766 
L 218.490333 308.307393 
L 220.690667 308.307393 
L 221.005 297.436766 
L 221.319333 297.436766 
L 221.633667 275.695489 
L 222.891 275.695489 
L 223.205333 286.566115 
L 224.462667 286.566115 
L 224.777 275.695489 
L 225.72 275.695489 
L 226.348667 232.212195 
L 226.663 232.212195 
L 227.920333 188.728901 
L 228.234667 210.470917 
L 228.549 199.599528 
L 228.863333 210.470917 
L 229.177667 210.470917 
L 229.492 221.341544 
L 229.806333 221.341544 
L 230.120667 232.212195 
L 230.749333 232.212195 
L 231.378 210.470917 
L 232.321 210.470917 
L 232.635333 221.341544 
L 232.949667 221.341544 
L 233.264 243.082822 
L 233.578333 253.953473 
L 233.892667 275.695489 
L 234.207 275.695489 
L 234.521333 297.436766 
L 234.835667 308.307393 
L 235.15 308.307393 
L 235.464333 319.178782 
L 236.721667 275.695489 
L 237.036 253.953473 
L 237.350333 253.953473 
L 237.664667 243.082822 
L 238.293333 243.082822 
L 238.607667 232.212195 
L 238.922 232.212195 
L 239.236333 243.082822 
L 239.550667 264.824862 
L 240.493667 297.436766 
L 240.808 297.436766 
L 241.122333 308.307393 
L 242.694 308.307393 
L 243.322667 286.566115 
L 243.637 286.566115 
L 243.951333 275.695489 
L 244.265667 286.566115 
L 244.58 286.566115 
L 244.894333 297.436766 
L 245.523 297.436766 
L 245.837333 286.566115 
L 246.151667 297.436766 
L 246.466 286.566115 
L 246.780333 286.566115 
L 247.409 264.824862 
L 247.723333 243.082822 
L 248.037667 243.082822 
L 248.980667 210.470917 
L 250.238 210.470917 
L 250.552333 221.341544 
L 250.866667 221.341544 
L 251.181 232.212195 
L 252.124 232.212195 
L 252.438333 221.341544 
L 252.752667 232.212195 
L 253.067 221.341544 
L 253.695667 221.341544 
L 254.01 232.212195 
L 254.324333 232.212195 
L 254.638667 243.082822 
L 255.267333 243.082822 
L 255.581667 253.953473 
L 255.896 243.082822 
L 256.210333 264.824862 
L 256.524667 253.953473 
L 256.839 253.953473 
L 257.153333 264.824862 
L 257.467667 264.824862 
L 257.782 275.695489 
L 258.725 275.695489 
L 259.039333 286.566115 
L 259.353667 286.566115 
L 259.668 275.695489 
L 259.982333 275.695489 
L 260.611 253.953473 
L 260.925333 253.953473 
L 261.239667 264.824862 
L 261.554 264.824862 
L 261.868333 275.695489 
L 262.497 275.695489 
L 262.811333 286.566115 
L 263.125667 275.695489 
L 263.44 308.307393 
L 263.754333 264.824862 
L 264.068667 275.695489 
L 264.383 275.695489 
L 264.697333 264.824862 
L 265.011667 275.695489 
L 265.640333 275.695489 
L 265.954667 264.824862 
L 266.269 275.695489 
L 266.583333 264.824862 
L 267.526333 264.824862 
L 267.840667 275.695489 
L 268.155 275.695489 
L 268.469333 264.824862 
L 268.783667 275.695489 
L 269.098 275.695489 
L 269.412333 286.566115 
L 270.355333 286.566115 
L 270.669667 297.436766 
L 270.984 286.566115 
L 271.298333 308.307393 
L 272.555667 308.307393 
L 273.498667 275.695489 
L 273.813 243.082822 
L 274.127333 243.082822 
L 274.441667 221.341544 
L 274.756 210.470917 
L 275.070333 188.728901 
L 275.699 166.987624 
L 276.327667 188.728901 
L 276.642 210.470917 
L 276.956333 221.341544 
L 277.270667 243.082822 
L 277.899333 264.824862 
L 278.213667 264.824862 
L 278.528 275.695489 
L 279.156667 275.695489 
L 279.471 264.824862 
L 279.785333 264.824862 
L 280.414 243.082822 
L 282.614333 243.082822 
L 282.928667 232.212195 
L 283.557333 232.212195 
L 283.871667 221.341544 
L 284.814667 221.341544 
L 285.129 232.212195 
L 285.443333 177.85825 
L 285.757667 243.082822 
L 286.072 253.953473 
L 286.386333 275.695489 
L 286.700667 319.178782 
L 287.329333 340.92006 
L 287.958 340.92006 
L 288.272333 330.049434 
L 288.586667 330.049434 
L 288.901 308.307393 
L 289.215333 297.436766 
L 289.844 253.953473 
L 290.158333 253.953473 
L 290.472667 243.082822 
L 290.787 221.341544 
L 291.415667 199.599528 
L 291.73 199.599528 
L 292.044333 210.470917 
L 292.358667 232.212195 
L 292.673 243.082822 
L 292.987333 264.824862 
L 293.301667 253.953473 
L 293.616 275.695489 
L 293.930333 275.695489 
L 294.244667 286.566115 
L 295.187667 286.566115 
L 295.502 264.824862 
L 295.816333 275.695489 
L 296.445 253.953473 
L 298.016667 253.953473 
L 298.331 243.082822 
L 299.274 243.082822 
L 299.902667 221.341544 
L 300.217 275.695489 
L 300.531333 243.082822 
L 301.16 243.082822 
L 301.474333 253.953473 
L 301.788667 253.953473 
L 302.103 264.824862 
L 302.417333 264.824862 
L 303.046 286.566115 
L 303.360333 275.695489 
L 303.674667 286.566115 
L 303.989 275.695489 
L 304.303333 275.695489 
L 304.617667 264.824862 
L 304.932 264.824862 
L 305.246333 253.953473 
L 305.560667 264.824862 
L 306.189333 264.824862 
L 306.503667 275.695489 
L 307.132333 275.695489 
L 307.446667 286.566115 
L 307.761 275.695489 
L 308.075333 275.695489 
L 308.389667 286.566115 
L 308.704 275.695489 
L 309.961333 275.695489 
L 310.275667 264.824862 
L 311.847333 264.824862 
L 312.161667 275.695489 
L 312.476 275.695489 
L 312.790333 264.824862 
L 315.305 264.824862 
L 315.619333 253.953473 
L 316.562333 253.953473 
L 316.876667 275.695489 
L 317.191 264.824862 
L 317.819667 264.824862 
L 318.134 275.695489 
L 318.448333 275.695489 
L 318.762667 286.566115 
L 320.02 286.566115 
L 320.334333 275.695489 
L 320.648667 286.566115 
L 320.963 275.695489 
L 321.277333 286.566115 
L 321.906 286.566115 
L 322.220333 297.436766 
L 323.163333 297.436766 
L 323.792 319.178782 
L 324.420667 319.178782 
L 324.735 308.307393 
L 325.049333 308.307393 
L 325.678 286.566115 
L 326.935333 199.599528 
L 327.249667 199.599528 
L 327.564 177.85825 
L 327.878333 166.987624 
L 328.507 188.728901 
L 329.45 253.953473 
L 330.078667 253.953473 
L 330.393 275.695489 
L 330.707333 286.566115 
L 331.021667 275.695489 
L 331.336 275.695489 
L 331.964667 253.953473 
L 332.279 253.953473 
L 332.593333 243.082822 
L 332.907667 243.082822 
L 333.222 232.212195 
L 333.536333 243.082822 
L 333.850667 232.212195 
L 334.165 232.212195 
L 334.793667 210.470917 
L 335.736667 210.470917 
L 336.051 232.212195 
L 336.365333 243.082822 
L 336.679667 264.824862 
L 337.622667 297.436766 
L 337.937 297.436766 
L 338.251333 308.307393 
L 338.565667 308.307393 
L 339.508667 275.695489 
L 339.823 253.953473 
L 340.451667 232.212195 
L 340.766 232.212195 
L 341.080333 243.082822 
L 341.394667 243.082822 
L 342.337667 275.695489 
L 342.652 297.436766 
L 342.966333 297.436766 
L 343.280667 319.178782 
L 344.223667 351.790711 
L 344.538 351.790711 
L 344.852333 340.92006 
L 345.481 340.92006 
L 345.795333 319.178782 
L 346.109667 319.178782 
L 346.424 308.307393 
L 346.738333 308.307393 
L 347.367 286.566115 
L 347.681333 297.436766 
L 347.995667 286.566115 
L 348.938667 286.566115 
L 349.253 275.695489 
L 349.567333 275.695489 
L 349.881667 253.953473 
L 351.139 210.470917 
L 351.453333 210.470917 
L 351.767667 199.599528 
L 352.396333 199.599528 
L 352.710667 210.470917 
L 353.339333 253.953473 
L 353.653667 253.953473 
L 354.282333 275.695489 
L 354.596667 264.824862 
L 354.911 264.824862 
L 355.539667 243.082822 
L 355.854 221.341544 
L 356.482667 221.341544 
L 357.425667 188.728901 
L 358.368667 188.728901 
L 359.311667 221.341544 
L 359.940333 264.824862 
L 360.569 264.824862 
L 360.883333 275.695489 
L 361.826333 275.695489 
L 362.140667 264.824862 
L 362.455 264.824862 
L 363.083667 243.082822 
L 363.398 253.953473 
L 363.712333 253.953473 
L 364.026667 264.824862 
L 364.341 286.566115 
L 364.655333 286.566115 
L 364.969667 308.307393 
L 365.284 308.307393 
L 365.598333 330.049434 
L 366.227 330.049434 
L 366.541333 340.92006 
L 366.855667 340.92006 
L 367.17 330.049434 
L 367.484333 308.307393 
L 367.798667 308.307393 
L 368.113 286.566115 
L 368.427333 297.436766 
L 368.741667 286.566115 
L 369.056 286.566115 
L 369.370333 297.436766 
L 369.684667 297.436766 
L 369.999 308.307393 
L 370.313333 308.307393 
L 370.942 330.049434 
L 371.885 330.049434 
L 372.513667 308.307393 
L 372.828 286.566115 
L 373.771 253.953473 
L 374.085333 232.212195 
L 374.399667 221.341544 
L 374.714 199.599528 
L 375.657 166.987624 
L 375.971333 177.85825 
L 376.6 221.341544 
L 377.228667 243.082822 
L 377.543 243.082822 
L 377.857333 264.824862 
L 378.486 264.824862 
L 378.800333 253.953473 
L 379.114667 253.953473 
L 379.429 243.082822 
L 379.743333 221.341544 
L 380.057667 232.212195 
L 381.000667 232.212195 
L 381.315 221.341544 
L 381.629333 221.341544 
L 381.943667 199.599528 
L 382.258 210.470917 
L 382.572333 210.470917 
L 383.201 232.212195 
L 383.515333 253.953473 
L 383.829667 264.824862 
L 384.772667 264.824862 
L 385.087 275.695489 
L 385.715667 275.695489 
L 386.03 264.824862 
L 386.344333 243.082822 
L 387.287333 243.082822 
L 388.859 297.436766 
L 389.173333 319.178782 
L 389.487667 319.178782 
L 390.116333 340.92006 
L 390.430667 340.92006 
L 390.745 319.178782 
L 391.059333 319.178782 
L 391.373667 308.307393 
L 392.002333 308.307393 
L 392.316667 297.436766 
L 392.945333 297.436766 
L 393.259667 308.307393 
L 393.888333 308.307393 
L 394.202667 330.049434 
L 395.145667 330.049434 
L 395.46 319.178782 
L 395.774333 297.436766 
L 396.088667 286.566115 
L 396.403 253.953473 
L 396.717333 243.082822 
L 397.346 188.728901 
L 397.974667 145.245583 
L 398.289 145.245583 
L 398.603333 156.116973 
L 398.917667 177.85825 
L 399.546333 199.599528 
L 399.860667 221.341544 
L 400.175 232.212195 
L 400.489333 253.953473 
L 400.803667 253.953473 
L 401.118 264.824862 
L 401.432333 253.953473 
L 401.746667 253.953473 
L 402.375333 232.212195 
L 402.689667 232.212195 
L 403.004 221.341544 
L 404.575667 221.341544 
L 407.719 330.049434 
L 408.033333 330.049434 
L 408.347667 340.92006 
L 408.662 308.307393 
L 409.605 275.695489 
L 409.919333 253.953473 
L 410.548 253.953473 
L 411.805333 297.436766 
L 412.119667 297.436766 
L 412.434 308.307393 
L 412.748333 308.307393 
L 413.062667 319.178782 
L 413.377 319.178782 
L 413.691333 308.307393 
L 414.005667 308.307393 
L 414.32 319.178782 
L 414.634333 308.307393 
L 414.948667 308.307393 
L 415.263 297.436766 
L 416.206 297.436766 
L 416.520333 286.566115 
L 416.834667 286.566115 
L 417.149 264.824862 
L 417.463333 264.824862 
L 417.777667 253.953473 
L 418.092 232.212195 
L 418.406333 221.341544 
L 418.720667 221.341544 
L 419.349333 199.599528 
L 419.978 199.599528 
L 420.292333 210.470917 
L 420.606667 232.212195 
L 420.921 243.082822 
L 421.235333 264.824862 
L 421.864 264.824862 
L 422.178333 275.695489 
L 422.492667 253.953473 
L 423.435667 221.341544 
L 423.75 221.341544 
L 424.693 188.728901 
L 425.321667 188.728901 
L 425.636 199.599528 
L 425.950333 188.728901 
L 426.264667 210.470917 
L 426.579 221.341544 
L 426.893333 243.082822 
L 427.522 264.824862 
L 428.150667 264.824862 
L 428.465 275.695489 
L 428.779333 275.695489 
L 429.093667 264.824862 
L 429.408 264.824862 
L 429.722333 275.695489 
L 430.979667 275.695489 
L 431.294 286.566115 
L 431.608333 286.566115 
L 431.922667 297.436766 
L 433.18 297.436766 
L 433.494333 308.307393 
L 434.123 286.566115 
L 434.437333 297.436766 
L 435.066 275.695489 
L 435.694667 275.695489 
L 436.009 286.566115 
L 436.323333 275.695489 
L 436.637667 297.436766 
L 436.952 286.566115 
L 437.266333 297.436766 
L 437.580667 286.566115 
L 437.895 308.307393 
L 438.209333 308.307393 
L 438.523667 319.178782 
L 439.466667 319.178782 
L 439.781 330.049434 
L 440.095333 319.178782 
L 441.038333 319.178782 
L 441.352667 297.436766 
L 441.981333 275.695489 
L 442.295667 253.953473 
L 442.61 243.082822 
L 442.924333 253.953473 
L 443.553 199.599528 
L 443.867333 199.599528 
L 444.810333 166.987624 
L 445.124667 177.85825 
L 445.439 210.470917 
L 446.067667 232.212195 
L 446.382 253.953473 
L 446.696333 264.824862 
L 447.010667 264.824862 
L 447.325 275.695489 
L 449.211 210.470917 
L 449.525333 210.470917 
L 450.154 188.728901 
L 450.468333 199.599528 
L 450.782667 199.599528 
L 451.097 210.470917 
L 451.411333 210.470917 
L 451.725667 232.212195 
L 452.04 232.212195 
L 452.668667 253.953473 
L 452.983 275.695489 
L 453.297333 286.566115 
L 453.611667 286.566115 
L 453.926 297.436766 
L 454.554667 297.436766 
L 455.183333 275.695489 
L 455.497667 253.953473 
L 455.812 243.082822 
L 456.126333 243.082822 
L 456.440667 221.341544 
L 456.755 243.082822 
L 457.069333 243.082822 
L 457.698 286.566115 
L 458.012333 297.436766 
L 458.641 340.92006 
L 459.584 373.532727 
L 459.898333 373.532727 
L 460.212667 351.790711 
L 461.784333 297.436766 
L 462.413 297.436766 
L 462.727333 286.566115 
L 463.041667 297.436766 
L 463.356 297.436766 
L 463.670333 286.566115 
L 464.927667 286.566115 
L 465.242 264.824862 
L 465.556333 264.824862 
L 465.870667 243.082822 
L 466.185 253.953473 
L 467.756667 199.599528 
L 468.071 177.85825 
L 468.699667 177.85825 
L 469.328333 199.599528 
L 469.642667 221.341544 
L 469.957 221.341544 
L 470.271333 232.212195 
L 470.9 232.212195 
L 471.214333 221.341544 
L 471.843 221.341544 
L 472.471667 199.599528 
L 473.100333 199.599528 
L 473.729 221.341544 
L 474.043333 243.082822 
L 474.357667 253.953473 
L 474.672 253.953473 
L 475.300667 275.695489 
L 475.615 275.695489 
L 475.929333 286.566115 
L 477.501 286.566115 
L 477.815333 275.695489 
L 478.129667 275.695489 
L 478.444 264.824862 
L 479.072667 286.566115 
L 479.387 275.695489 
L 480.015667 297.436766 
L 480.33 297.436766 
L 480.644333 308.307393 
L 480.958667 308.307393 
L 481.273 319.178782 
L 482.530333 319.178782 
L 482.844667 308.307393 
L 483.473333 308.307393 
L 483.787667 319.178782 
L 484.102 319.178782 
L 484.416333 330.049434 
L 485.673667 330.049434 
L 485.988 308.307393 
L 486.616667 286.566115 
L 486.931 264.824862 
L 487.245333 232.212195 
L 488.502667 188.728901 
L 488.817 199.599528 
L 489.131333 199.599528 
L 489.445667 221.341544 
L 489.76 232.212195 
L 490.074333 253.953473 
L 490.388667 264.824862 
L 490.703 264.824862 
L 491.017333 275.695489 
L 491.646 253.953473 
L 492.274667 253.953473 
L 492.589 243.082822 
L 492.903333 243.082822 
L 493.217667 221.341544 
L 493.532 221.341544 
L 493.846333 210.470917 
L 494.160667 210.470917 
L 494.789333 188.728901 
L 495.103667 188.728901 
L 495.418 177.85825 
L 495.732333 188.728901 
L 496.046667 177.85825 
L 496.675333 221.341544 
L 496.989667 232.212195 
L 497.304 253.953473 
L 497.618333 253.953473 
L 498.561333 286.566115 
L 498.875667 275.695489 
L 499.19 286.566115 
L 499.504333 275.695489 
L 499.818667 253.953473 
L 500.133 264.824862 
L 500.761667 264.824862 
L 501.076 253.953473 
L 501.390333 253.953473 
L 501.704667 264.824862 
L 502.019 264.824862 
L 503.276333 308.307393 
L 503.590667 308.307393 
L 503.905 264.824862 
L 504.219333 308.307393 
L 504.533667 308.307393 
L 504.848 319.178782 
L 505.476667 319.178782 
L 505.791 308.307393 
L 506.419667 308.307393 
L 506.734 319.178782 
L 507.048333 308.307393 
L 507.362667 308.307393 
L 507.677 319.178782 
L 509.248667 319.178782 
L 509.877333 297.436766 
L 510.191667 297.436766 
L 510.506 275.695489 
L 510.820333 264.824862 
L 511.134667 243.082822 
L 511.763333 221.341544 
L 512.077667 199.599528 
L 512.392 199.599528 
L 512.706333 188.728901 
L 513.020667 199.599528 
L 513.335 199.599528 
L 513.649333 210.470917 
L 513.963667 232.212195 
L 515.221 275.695489 
L 515.535333 264.824862 
L 515.849667 264.824862 
L 516.164 253.953473 
L 516.478333 253.953473 
L 516.792667 232.212195 
L 517.107 221.341544 
L 517.421333 221.341544 
L 517.735667 210.470917 
L 518.05 210.470917 
L 518.364333 199.599528 
L 519.936 199.599528 
L 520.564667 221.341544 
L 520.879 221.341544 
L 522.136333 264.824862 
L 522.450667 264.824862 
L 523.708 308.307393 
L 524.022333 297.436766 
L 524.336667 308.307393 
L 524.965333 308.307393 
L 526.222667 264.824862 
L 526.537 264.824862 
L 527.165667 243.082822 
L 527.48 264.824862 
L 527.794333 264.824862 
L 528.108667 286.566115 
L 528.737333 308.307393 
L 529.051667 330.049434 
L 529.366 330.049434 
L 529.680333 340.92006 
L 530.309 340.92006 
L 530.623333 330.049434 
L 530.937667 330.049434 
L 531.566333 308.307393 
L 531.880667 308.307393 
L 532.195 297.436766 
L 532.509333 308.307393 
L 532.823667 297.436766 
L 533.138 297.436766 
L 534.081 264.824862 
L 534.395333 264.824862 
L 534.709667 253.953473 
L 535.024 253.953473 
L 535.338333 243.082822 
L 535.652667 243.082822 
L 535.967 210.470917 
L 536.281333 243.082822 
L 536.595667 232.212195 
L 536.91 243.082822 
L 537.224333 177.85825 
L 537.538667 221.341544 
L 537.853 232.212195 
L 538.167333 221.341544 
L 538.796 243.082822 
L 539.110333 243.082822 
L 539.424667 253.953473 
L 540.682 253.953473 
L 540.996333 243.082822 
L 541.625 243.082822 
L 541.625 243.082822 
" clip-path="url(#pfa24395a4f)" style="fill: none; stroke: #1f77b4; stroke-width: 1.5; stroke-linecap: square"/>
   </g>
   <g id="line2d_32">
    <path d="M 70.125 257.444932 
L 70.439333 258.051329 
L 70.753667 262.90248 
L 71.068 263.508877 
L 71.382333 263.508877 
L 71.696667 266.540862 
L 72.011 266.540862 
L 72.325333 267.147259 
L 72.954 269.572848 
L 74.525667 269.572848 
L 74.84 268.966451 
L 75.783 268.966451 
L 76.097333 269.572848 
L 76.411667 268.360054 
L 76.726 265.934465 
L 77.040333 262.296083 
L 77.669 259.87052 
L 77.983333 256.838535 
L 78.297667 256.232138 
L 78.612 252.593755 
L 79.555 247.136207 
L 79.869333 247.136207 
L 80.183667 247.742604 
L 80.498 250.774589 
L 81.126667 251.987358 
L 81.441 255.019344 
L 81.755333 256.232138 
L 82.069667 259.264123 
L 82.384 261.083314 
L 82.698333 264.721671 
L 83.012667 266.540862 
L 83.327 270.179245 
L 83.641333 271.392039 
L 84.27 278.062381 
L 84.898667 281.700764 
L 85.527333 287.764709 
L 85.841667 289.5839 
L 86.156 293.828655 
L 86.470333 295.041449 
L 86.784667 297.467037 
L 87.099 298.679831 
L 87.413333 300.499022 
L 88.670667 300.499022 
L 89.299333 296.254243 
L 89.613667 295.041449 
L 90.242333 293.828655 
L 90.556667 290.796694 
L 90.871 289.5839 
L 91.814 282.307161 
L 92.128333 278.062381 
L 92.442667 275.636793 
L 92.757 270.179245 
L 93.071333 268.966451 
L 93.7 259.264123 
L 94.643 247.136207 
L 94.957333 242.285031 
L 95.900333 237.433879 
L 96.843333 233.795497 
L 97.157667 233.1891 
L 97.472 231.976306 
L 97.786333 231.976306 
L 98.100667 226.518757 
L 98.415 224.093169 
L 98.729333 222.880375 
L 99.986667 208.326895 
L 100.615333 198.624543 
L 101.872667 198.624543 
L 102.187 202.869322 
L 102.501333 203.475719 
L 102.815667 206.507704 
L 103.13 208.326895 
L 103.758667 217.422826 
L 104.073 222.273978 
L 105.330333 230.157115 
L 105.644667 230.157115 
L 105.959 230.763512 
L 106.587667 230.763512 
L 106.902 235.008291 
L 107.216333 236.827482 
L 107.530667 239.859467 
L 107.845 241.678633 
L 108.159333 247.742604 
L 108.788 252.593755 
L 109.416667 262.296083 
L 110.045333 266.540862 
L 110.359667 266.540862 
L 110.674 267.147259 
L 111.302667 267.147259 
L 111.617 266.540862 
L 112.245667 262.296083 
L 112.874333 261.083314 
L 113.188667 258.051329 
L 113.503 253.806549 
L 113.817333 252.593755 
L 114.131667 250.774589 
L 114.446 250.168192 
L 114.760333 247.136207 
L 115.074667 245.923413 
L 115.389 242.891428 
L 115.703333 241.072236 
L 117.275 222.273978 
L 118.846667 199.230965 
L 119.161 198.624543 
L 119.475333 196.198979 
L 119.789667 196.805376 
L 120.732667 196.805376 
L 121.047 198.01817 
L 121.361333 199.837337 
L 121.675667 200.443734 
L 121.99 201.656528 
L 123.247333 201.656528 
L 123.561667 200.443734 
L 123.876 201.656528 
L 124.190333 201.050131 
L 124.504667 202.262925 
L 124.819 202.262925 
L 125.133333 202.869322 
L 125.762 208.326895 
L 126.390667 210.752459 
L 127.648 220.454787 
L 128.276667 226.518757 
L 128.905333 231.976306 
L 129.219667 235.614688 
L 129.534 236.221085 
L 129.848333 239.859467 
L 130.162667 240.465839 
L 131.42 240.465839 
L 131.734333 239.25307 
L 132.991667 239.25307 
L 133.620333 238.040276 
L 133.934667 236.827482 
L 134.249 236.827482 
L 134.563333 235.008291 
L 134.877667 234.401894 
L 135.192 232.582703 
L 135.506333 231.976306 
L 137.392333 209.539665 
L 137.706667 208.326895 
L 138.335333 200.443734 
L 138.649667 198.01817 
L 138.964 197.411773 
L 139.278333 194.986185 
L 140.221333 194.986185 
L 140.535667 194.379788 
L 140.85 194.986185 
L 141.164333 192.560597 
L 141.478667 191.347803 
L 141.793 186.496652 
L 142.107333 183.464666 
L 142.421667 182.858269 
L 142.736 179.219887 
L 143.050333 178.61349 
L 143.364667 176.794299 
L 143.679 176.187927 
L 144.936333 176.187927 
L 145.250667 179.219887 
L 145.879333 180.432681 
L 146.822333 184.071063 
L 147.136667 184.67746 
L 147.765333 188.922215 
L 148.394 191.347803 
L 149.651333 201.050131 
L 149.965667 201.656528 
L 150.908667 210.752459 
L 151.223 211.965253 
L 151.537333 215.603635 
L 151.851667 216.816429 
L 152.166 221.061184 
L 152.794667 225.91236 
L 153.109 227.125154 
L 153.737667 231.976306 
L 154.366333 234.401894 
L 154.680667 235.008291 
L 156.566667 235.008291 
L 156.881 235.614688 
L 157.195333 238.040276 
L 157.509667 237.433879 
L 158.452667 237.433879 
L 159.71 232.582703 
L 160.024333 228.944345 
L 160.338667 227.731551 
L 160.653 224.093169 
L 160.967333 222.273978 
L 161.281667 216.210032 
L 161.596 214.390841 
L 161.910333 205.901307 
L 162.224667 201.656528 
L 162.853333 190.741406 
L 163.167667 187.709446 
L 163.482 187.103024 
L 165.996667 187.103024 
L 166.311 181.645475 
L 166.625333 178.61349 
L 166.939667 178.007093 
L 167.254 174.975133 
L 167.568333 173.155942 
L 167.882667 168.911162 
L 168.511333 164.666408 
L 168.825667 163.453614 
L 169.14 163.453614 
L 169.454333 165.879202 
L 169.768667 166.485574 
L 170.083 166.485574 
L 170.397333 168.911162 
L 170.711667 169.517559 
L 171.026 172.549545 
L 171.654667 176.794299 
L 171.969 179.826284 
L 172.597667 179.826284 
L 172.912 181.645475 
L 173.226333 182.251872 
L 173.540667 182.251872 
L 173.855 182.858269 
L 174.169333 182.858269 
L 174.798 184.071063 
L 175.426667 190.741406 
L 176.055333 199.230965 
L 176.369667 200.443734 
L 176.684 202.869322 
L 177.941333 219.242017 
L 178.255667 222.273978 
L 178.57 227.125154 
L 178.884333 228.337948 
L 179.198667 228.944345 
L 180.141667 228.944345 
L 180.456 227.731551 
L 180.770333 225.91236 
L 181.084667 222.880375 
L 181.713333 219.242017 
L 182.027667 219.242017 
L 182.342 218.029223 
L 182.656333 218.029223 
L 182.970667 216.210032 
L 183.599333 214.997238 
L 183.913667 211.965253 
L 184.228 210.752459 
L 184.856667 205.29491 
L 185.171 202.869322 
L 185.485333 196.805376 
L 185.799667 193.773391 
L 186.114 187.103024 
L 186.428333 185.283857 
L 186.742667 187.103024 
L 187.057 182.251872 
L 187.371333 180.432681 
L 188.628667 180.432681 
L 188.943 179.826284 
L 189.886 168.304765 
L 190.200333 168.304765 
L 190.514667 165.272805 
L 190.829 163.453614 
L 191.143333 159.815232 
L 191.772 156.176874 
L 192.086333 153.144889 
L 192.400667 153.144889 
L 193.029333 156.176874 
L 193.343667 156.176874 
L 193.658 156.783246 
L 193.972333 156.783246 
L 194.915333 161.634423 
L 195.229667 165.272805 
L 195.544 165.879202 
L 195.858333 167.091971 
L 196.172667 170.730353 
L 196.487 170.730353 
L 196.801333 171.943147 
L 197.43 178.61349 
L 197.744333 179.826284 
L 198.373 185.890255 
L 198.687333 188.315818 
L 199.001667 192.560597 
L 199.316 194.379788 
L 199.630333 197.411773 
L 199.944667 199.230965 
L 200.259 202.869322 
L 200.887667 207.114101 
L 202.459333 207.114101 
L 202.773667 205.901307 
L 203.088 205.901307 
L 203.402333 208.933268 
L 203.716667 210.752459 
L 204.345333 210.752459 
L 204.659667 212.57165 
L 205.602667 212.57165 
L 205.917 213.178047 
L 207.488667 213.178047 
L 207.803 212.57165 
L 208.117333 210.752459 
L 208.431667 210.752459 
L 208.746 210.146062 
L 209.374667 204.688513 
L 209.689 203.475719 
L 210.632 194.986185 
L 211.260667 186.496652 
L 211.575 182.858269 
L 212.518 177.400721 
L 213.775333 177.400721 
L 214.089667 178.61349 
L 214.404 178.61349 
L 214.718333 177.400721 
L 215.347 167.698368 
L 215.661333 167.698368 
L 216.29 163.453614 
L 217.861667 151.932095 
L 218.176 152.538492 
L 218.490333 151.932095 
L 218.804667 151.932095 
L 219.119 153.144889 
L 219.747667 156.176874 
L 221.319333 162.24082 
L 221.948 165.879202 
L 222.262333 165.879202 
L 222.576667 166.485574 
L 223.205333 170.123956 
L 223.519667 170.730353 
L 223.834 173.762339 
L 224.462667 176.187927 
L 225.091333 181.645475 
L 225.405667 184.071063 
L 226.348667 194.379788 
L 226.977333 195.592582 
L 227.291667 198.01817 
L 227.606 198.01817 
L 228.234667 196.805376 
L 228.863333 198.01817 
L 229.177667 195.592582 
L 229.492 196.198979 
L 229.806333 194.986185 
L 230.120667 194.986185 
L 230.435 194.379788 
L 230.749333 193.166994 
L 231.063667 193.166994 
L 231.378 192.560597 
L 232.635333 185.283857 
L 233.578333 173.762339 
L 233.892667 172.549545 
L 234.207 170.730353 
L 234.521333 170.123956 
L 234.835667 168.911162 
L 235.15 169.517559 
L 235.778667 169.517559 
L 236.093 170.123956 
L 237.036 170.123956 
L 237.350333 169.517559 
L 237.979 162.24082 
L 238.293333 159.815232 
L 238.607667 159.815232 
L 238.922 157.99604 
L 239.236333 154.357683 
L 239.550667 153.144889 
L 239.865 150.112904 
L 240.808 150.112904 
L 241.122333 150.719301 
L 241.436667 150.719301 
L 241.751 151.932095 
L 242.379667 151.932095 
L 242.694 153.144889 
L 243.008333 154.964055 
L 243.322667 155.570477 
L 243.637 155.570477 
L 244.58 157.389643 
L 244.894333 159.208834 
L 245.208667 159.815232 
L 246.466 166.485574 
L 246.780333 171.33675 
L 247.094667 173.155942 
L 247.723333 179.219887 
L 248.037667 181.645475 
L 248.352 182.251872 
L 248.666333 184.67746 
L 248.980667 184.67746 
L 249.295 184.071063 
L 249.609333 182.858269 
L 250.552333 182.858269 
L 250.866667 182.251872 
L 251.181 182.251872 
L 251.495333 181.645475 
L 252.752667 181.645475 
L 253.067 178.61349 
L 253.381333 178.61349 
L 253.695667 176.794299 
L 254.01 176.187927 
L 254.324333 173.762339 
L 254.638667 173.155942 
L 254.953 170.730353 
L 255.267333 169.517559 
L 255.896 165.879202 
L 256.210333 165.272805 
L 256.524667 161.634423 
L 256.839 161.634423 
L 257.153333 157.99604 
L 257.467667 156.176874 
L 257.782 155.570477 
L 258.096333 153.144889 
L 258.410667 152.538492 
L 259.039333 149.506507 
L 259.353667 148.90011 
L 259.668 149.506507 
L 259.982333 149.506507 
L 260.611 147.080919 
L 260.925333 146.474521 
L 261.239667 145.261752 
L 261.554 144.65533 
L 261.868333 144.65533 
L 262.182667 142.229767 
L 262.497 142.229767 
L 262.811333 141.62337 
L 263.125667 140.410576 
L 263.44 141.016973 
L 263.754333 140.410576 
L 264.068667 145.868149 
L 264.383 139.804179 
L 264.697333 140.410576 
L 265.011667 140.410576 
L 265.326 139.804179 
L 265.640333 140.410576 
L 266.583333 140.410576 
L 266.897667 141.016973 
L 267.212 139.804179 
L 268.155 139.804179 
L 268.469333 141.016973 
L 268.783667 141.016973 
L 269.098 140.410576 
L 269.412333 141.62337 
L 269.726667 141.62337 
L 270.041 143.442561 
L 270.355333 143.442561 
L 270.669667 144.65533 
L 270.984 146.474521 
L 271.298333 151.325698 
L 271.612667 151.932095 
L 271.927 156.783246 
L 272.555667 161.634423 
L 274.127333 180.432681 
L 274.441667 180.432681 
L 274.756 183.464666 
L 276.013333 183.464666 
L 276.327667 182.251872 
L 276.642 181.645475 
L 276.956333 178.61349 
L 277.585 177.400721 
L 277.899333 178.61349 
L 278.213667 179.219887 
L 278.528 180.432681 
L 278.842333 181.039078 
L 279.156667 182.858269 
L 279.471 183.464666 
L 279.785333 184.67746 
L 280.099667 184.67746 
L 280.414 185.283857 
L 283.243 185.283857 
L 284.186 176.794299 
L 284.500333 174.368736 
L 284.814667 174.368736 
L 285.757667 167.091971 
L 286.072 154.964055 
L 286.386333 157.389643 
L 286.700667 153.144889 
L 287.015 153.751286 
L 287.329333 158.602437 
L 287.958 161.028026 
L 288.272333 161.634423 
L 288.586667 164.666408 
L 288.901 165.879202 
L 289.215333 170.123956 
L 289.529667 170.730353 
L 289.844 173.155942 
L 290.158333 174.368736 
L 290.472667 174.368736 
L 290.787 174.975133 
L 291.101333 174.368736 
L 291.415667 171.33675 
L 291.73 170.730353 
L 292.044333 169.517559 
L 292.673 165.879202 
L 293.301667 164.666408 
L 293.616 165.879202 
L 293.930333 163.453614 
L 294.244667 165.879202 
L 294.559 165.879202 
L 294.873333 166.485574 
L 295.187667 166.485574 
L 295.816333 167.698368 
L 296.130667 167.091971 
L 296.445 168.911162 
L 297.073667 167.698368 
L 298.645333 167.698368 
L 298.959667 164.666408 
L 299.902667 158.602437 
L 300.217 155.570477 
L 300.531333 154.964055 
L 300.845667 159.815232 
L 301.16 153.144889 
L 301.474333 148.90011 
L 303.046 139.804179 
L 303.360333 139.804179 
L 303.674667 140.410576 
L 303.989 138.591385 
L 304.303333 137.984988 
L 304.617667 135.559424 
L 304.932 135.559424 
L 305.246333 134.346606 
L 305.560667 133.740233 
L 305.875 131.921042 
L 306.189333 131.921042 
L 306.818 127.676263 
L 307.132333 127.676263 
L 307.446667 126.463469 
L 308.075333 125.250699 
L 308.389667 123.431508 
L 309.018333 123.431508 
L 309.332667 122.218714 
L 309.961333 122.218714 
L 310.275667 121.612317 
L 310.59 121.612317 
L 310.904333 120.399523 
L 311.218667 120.399523 
L 312.161667 118.580332 
L 312.476 117.367538 
L 313.104667 117.367538 
L 313.419 116.761141 
L 314.362 116.761141 
L 314.676333 116.154744 
L 315.619333 116.154744 
L 315.933667 115.548371 
L 316.248 114.335553 
L 316.562333 113.729156 
L 317.191 111.303592 
L 317.505333 111.303592 
L 317.819667 108.271607 
L 318.134 108.271607 
L 318.448333 107.058813 
L 318.762667 107.058813 
L 319.077 105.846019 
L 320.648667 105.846019 
L 320.963 105.239647 
L 321.277333 105.846019 
L 321.591667 105.239647 
L 321.906 105.846019 
L 322.220333 105.846019 
L 322.534667 106.452416 
L 323.163333 110.697195 
L 323.477667 112.516386 
L 325.363667 131.314645 
L 325.992333 141.016973 
L 326.621 148.293713 
L 326.935333 148.90011 
L 327.249667 148.90011 
L 327.564 147.687316 
L 327.878333 148.293713 
L 328.192667 148.293713 
L 329.45 141.62337 
L 329.764333 141.62337 
L 330.078667 143.442561 
L 330.393 142.836164 
L 330.707333 142.836164 
L 331.021667 145.868149 
L 331.964667 147.687316 
L 332.279 147.687316 
L 332.593333 147.080919 
L 332.907667 147.080919 
L 333.222 145.868149 
L 333.536333 145.868149 
L 333.850667 143.442561 
L 334.165 142.836164 
L 334.479333 139.197782 
L 335.422333 133.133836 
L 335.736667 130.708248 
L 336.994 116.154744 
L 337.622667 113.122783 
L 338.251333 113.122783 
L 338.565667 112.516386 
L 339.823 112.516386 
L 340.137333 110.697195 
L 340.451667 103.420431 
L 341.394667 97.356485 
L 341.709 94.3245 
L 342.337667 85.834966 
L 342.966333 78.558227 
L 343.280667 77.95183 
L 343.595 75.526241 
L 343.909333 76.739035 
L 344.538 76.739035 
L 345.166667 77.95183 
L 345.481 79.164624 
L 346.109667 85.228569 
L 346.424 85.834966 
L 346.738333 89.473348 
L 347.052667 91.292515 
L 347.367 94.930922 
L 347.995667 99.175676 
L 348.31 105.239647 
L 348.624333 106.452416 
L 349.567333 119.186729 
L 349.881667 121.612317 
L 350.196 127.069866 
L 350.824667 131.921042 
L 351.139 133.133836 
L 351.767667 133.133836 
L 352.082 134.346606 
L 352.710667 134.346606 
L 353.025 133.133836 
L 353.339333 133.133836 
L 353.653667 134.953003 
L 353.968 139.804179 
L 354.911 145.868149 
L 355.225333 145.868149 
L 355.539667 148.90011 
L 355.854 150.112904 
L 356.168333 150.719301 
L 356.482667 149.506507 
L 357.111333 149.506507 
L 357.425667 147.687316 
L 357.74 142.229767 
L 358.368667 139.197782 
L 360.254667 117.367538 
L 360.569 117.367538 
L 360.883333 115.548371 
L 361.197667 111.909989 
L 361.512 110.090798 
L 362.455 101.601264 
L 362.769333 96.750088 
L 363.083667 95.537294 
L 363.398 92.505334 
L 363.712333 88.260554 
L 364.026667 85.834966 
L 364.655333 76.739035 
L 364.969667 74.919844 
L 365.284 70.068693 
L 365.598333 70.068693 
L 365.912667 68.249502 
L 366.227 68.855899 
L 366.541333 68.249502 
L 367.17 68.249502 
L 367.484333 68.855899 
L 367.798667 68.855899 
L 368.113 68.249502 
L 368.427333 68.855899 
L 368.741667 67.036708 
L 369.056 67.643105 
L 369.684667 67.643105 
L 370.313333 71.887884 
L 370.627667 73.70705 
L 370.942 74.313447 
L 371.570667 79.771021 
L 372.199333 86.441363 
L 374.399667 120.399523 
L 374.714 122.218714 
L 375.028333 122.825111 
L 375.342667 122.218714 
L 375.657 122.825111 
L 375.971333 122.825111 
L 376.285667 122.218714 
L 376.914333 122.218714 
L 377.228667 122.825111 
L 377.543 122.825111 
L 377.857333 124.037881 
L 378.171667 124.037881 
L 378.486 127.069866 
L 378.800333 127.069866 
L 379.114667 128.28266 
L 379.743333 129.495454 
L 380.057667 128.889057 
L 380.372 125.250699 
L 381.000667 125.250699 
L 381.315 123.431508 
L 381.629333 122.825111 
L 381.943667 120.399523 
L 382.258 119.793126 
L 382.572333 115.548371 
L 382.886667 114.94195 
L 383.201 110.697195 
L 383.829667 105.239647 
L 384.458333 104.026828 
L 384.772667 102.814058 
L 385.401333 96.750088 
L 385.715667 96.143691 
L 386.344333 93.718103 
L 386.973 87.04776 
L 387.287333 86.441363 
L 388.859 69.462296 
L 389.173333 67.036708 
L 389.487667 66.430311 
L 389.802 68.249502 
L 390.430667 68.249502 
L 390.745 68.855899 
L 391.373667 68.855899 
L 392.002333 71.887884 
L 392.316667 73.100653 
L 392.631 73.70705 
L 392.945333 73.70705 
L 393.259667 74.313447 
L 393.574 75.526241 
L 393.888333 77.95183 
L 394.202667 77.95183 
L 394.517 80.377418 
L 394.831333 87.04776 
L 395.46 94.3245 
L 397.346 125.250699 
L 397.660333 124.644278 
L 398.289 124.644278 
L 398.917667 123.431508 
L 400.175 113.729156 
L 400.803667 113.729156 
L 401.118 115.548371 
L 401.746667 115.548371 
L 402.061 114.335553 
L 402.375333 114.335553 
L 402.689667 112.516386 
L 403.004 108.271607 
L 403.318333 107.66521 
L 403.632667 105.846019 
L 403.947 105.239647 
L 404.89 95.537294 
L 406.147333 79.771021 
L 406.776 71.887884 
L 407.090333 70.675065 
L 407.404667 70.068693 
L 408.347667 70.068693 
L 408.662 70.675065 
L 408.976333 72.494281 
L 409.290667 70.675065 
L 409.919333 69.462296 
L 410.233667 67.036708 
L 410.548 65.823914 
L 410.862333 65.823914 
L 411.176667 63.398325 
L 411.491 62.791928 
L 412.434 62.791928 
L 412.748333 63.398325 
L 413.062667 65.217517 
L 413.377 65.217517 
L 413.691333 68.249502 
L 414.005667 69.462296 
L 414.32 69.462296 
L 414.948667 76.132638 
L 415.263 76.739035 
L 415.577333 80.98379 
L 415.891667 82.803006 
L 417.777667 105.239647 
L 418.092 110.697195 
L 418.406333 113.729156 
L 418.720667 114.335553 
L 419.035 114.335553 
L 419.663667 115.548371 
L 420.292333 115.548371 
L 420.606667 114.94195 
L 420.921 114.94195 
L 421.549667 120.399523 
L 421.864 123.431508 
L 422.178333 123.431508 
L 422.492667 124.644278 
L 422.807 128.28266 
L 423.121333 128.28266 
L 423.435667 128.889057 
L 423.75 128.889057 
L 424.064333 128.28266 
L 424.378667 128.28266 
L 425.007333 124.037881 
L 425.321667 122.825111 
L 425.636 121.00592 
L 426.264667 114.335553 
L 426.579 108.271607 
L 426.893333 107.058813 
L 427.207667 102.207661 
L 428.465 91.898937 
L 429.408 82.196609 
L 429.722333 79.164624 
L 430.351 75.526241 
L 430.665333 71.887884 
L 430.979667 70.068693 
L 431.608333 64.61112 
L 432.551333 59.153571 
L 432.865667 58.547174 
L 433.18 57.334355 
L 433.808667 57.334355 
L 434.123 57.940777 
L 434.437333 56.727983 
L 434.751667 54.302395 
L 435.066 53.695998 
L 435.380333 52.483228 
L 435.694667 51.876831 
L 436.009 51.876831 
L 436.323333 50.664012 
L 436.637667 50.664012 
L 436.952 48.844846 
L 437.266333 50.664012 
L 437.580667 49.451218 
L 437.895 49.451218 
L 438.209333 48.238449 
L 439.152333 57.940777 
L 439.466667 59.153571 
L 439.781 60.972737 
L 440.095333 64.004722 
L 440.409667 68.855899 
L 440.724 71.281487 
L 441.352667 80.377418 
L 441.667 86.441363 
L 441.981333 88.866951 
L 442.61 99.782073 
L 442.924333 102.814058 
L 443.238667 107.058813 
L 443.553 114.94195 
L 443.867333 114.94195 
L 444.181667 113.729156 
L 444.496 116.154744 
L 445.124667 116.154744 
L 445.439 114.94195 
L 445.753333 114.94195 
L 446.067667 115.548371 
L 446.382 115.548371 
L 446.696333 116.154744 
L 447.010667 119.793126 
L 447.325 120.399523 
L 447.639333 120.399523 
L 447.953667 123.431508 
L 448.268 123.431508 
L 448.582333 124.037881 
L 448.896667 124.037881 
L 449.211 123.431508 
L 449.525333 121.612317 
L 449.839667 118.580332 
L 450.154 117.973935 
L 450.468333 116.154744 
L 450.782667 113.122783 
L 451.097 111.909989 
L 451.411333 107.058813 
L 451.725667 104.633225 
L 452.04 99.782073 
L 452.354333 97.962882 
L 452.668667 91.898937 
L 453.297333 85.228569 
L 453.926 85.228569 
L 454.554667 84.015775 
L 454.869 82.803006 
L 455.183333 82.196609 
L 455.497667 80.377418 
L 455.812 76.739035 
L 456.126333 70.675065 
L 456.440667 69.462296 
L 456.755 67.036708 
L 457.069333 60.36634 
L 457.383667 58.547174 
L 457.698 50.664012 
L 458.012333 47.632052 
L 458.641 43.387273 
L 459.584 43.387273 
L 459.898333 43.99367 
L 460.841333 48.844846 
L 461.47 54.908792 
L 462.098667 59.759968 
L 462.413 60.972737 
L 462.727333 64.61112 
L 463.356 68.249502 
L 463.670333 73.70705 
L 464.299 77.345432 
L 465.556333 94.3245 
L 465.870667 96.750088 
L 466.185 102.207661 
L 466.499333 104.633225 
L 466.813667 111.303592 
L 467.442333 117.367538 
L 467.756667 119.793126 
L 468.071 119.793126 
L 468.699667 118.580332 
L 469.642667 118.580332 
L 469.957 117.973935 
L 470.271333 118.580332 
L 471.528667 118.580332 
L 472.157333 113.729156 
L 472.471667 113.122783 
L 473.414667 106.452416 
L 474.357667 94.930922 
L 474.672 93.111731 
L 474.986333 89.473348 
L 475.300667 84.015775 
L 475.615 80.98379 
L 475.929333 79.771021 
L 476.243667 76.132638 
L 476.558 74.919844 
L 477.815333 65.823914 
L 478.758333 60.972737 
L 479.072667 56.727983 
L 479.387 56.727983 
L 479.701333 54.908792 
L 480.015667 50.057615 
L 480.33 49.451218 
L 480.644333 49.451218 
L 480.958667 48.844846 
L 481.587333 48.844846 
L 481.901667 49.451218 
L 482.530333 49.451218 
L 482.844667 50.664012 
L 483.473333 50.664012 
L 483.787667 51.876831 
L 484.730667 56.727983 
L 485.045 60.972737 
L 485.359333 63.398325 
L 485.673667 67.036708 
L 486.302333 76.739035 
L 486.616667 79.771021 
L 487.245333 91.292515 
L 487.559667 95.537294 
L 487.874 95.537294 
L 488.188333 96.750088 
L 488.817 100.38847 
L 489.131333 100.38847 
L 489.445667 100.994867 
L 489.76 100.38847 
L 490.074333 101.601264 
L 490.388667 103.420431 
L 490.703 108.878004 
L 491.017333 110.090798 
L 491.331667 110.697195 
L 491.646 114.335553 
L 491.960333 114.94195 
L 492.274667 116.154744 
L 492.589 120.399523 
L 492.903333 122.825111 
L 493.217667 123.431508 
L 493.532 125.857096 
L 493.846333 125.857096 
L 494.160667 126.463469 
L 494.475 126.463469 
L 494.789333 125.857096 
L 495.418 119.793126 
L 495.732333 119.186729 
L 496.046667 115.548371 
L 496.361 113.729156 
L 496.675333 107.058813 
L 496.989667 105.239647 
L 497.304 102.207661 
L 497.618333 97.962882 
L 497.932667 96.143691 
L 498.247 92.505334 
L 498.561333 90.686143 
L 498.875667 90.686143 
L 499.19 90.079745 
L 499.504333 87.654157 
L 499.818667 87.04776 
L 500.133 84.015775 
L 500.447333 76.132638 
L 500.761667 75.526241 
L 501.076 74.313447 
L 502.333333 64.61112 
L 502.647667 60.36634 
L 503.276333 57.334355 
L 503.590667 57.334355 
L 503.905 57.940777 
L 504.219333 56.727983 
L 504.533667 47.025655 
L 504.848 51.270434 
L 505.162333 51.876831 
L 505.476667 53.695998 
L 506.419667 53.695998 
L 506.734 54.302395 
L 507.048333 55.515189 
L 507.362667 57.334355 
L 507.677 57.334355 
L 507.991333 58.547174 
L 508.305667 61.579159 
L 508.934333 65.823914 
L 510.191667 80.98379 
L 511.449 99.782073 
L 512.077667 102.814058 
L 512.392 104.026828 
L 512.706333 104.633225 
L 513.020667 106.452416 
L 513.649333 106.452416 
L 513.963667 105.239647 
L 514.278 105.239647 
L 515.849667 117.367538 
L 516.164 117.973935 
L 516.478333 120.399523 
L 516.792667 121.612317 
L 517.107 124.644278 
L 517.421333 123.431508 
L 517.735667 122.825111 
L 518.05 122.825111 
L 518.364333 120.399523 
L 518.993 117.973935 
L 519.307333 117.367538 
L 519.621667 115.548371 
L 521.193333 99.782073 
L 521.507667 94.930922 
L 521.822 91.898937 
L 522.450667 83.409378 
L 522.765 80.377418 
L 523.079333 75.526241 
L 523.393667 72.494281 
L 523.708 71.281487 
L 524.336667 71.281487 
L 524.651 69.462296 
L 524.965333 69.462296 
L 525.279667 68.855899 
L 525.594 68.855899 
L 525.908333 67.643105 
L 526.222667 65.823914 
L 526.537 61.579159 
L 526.851333 59.153571 
L 527.165667 59.153571 
L 527.794333 52.483228 
L 528.108667 52.483228 
L 528.423 47.632052 
L 529.051667 47.632052 
L 529.680333 50.057615 
L 529.994667 50.057615 
L 530.309 50.664012 
L 530.623333 51.876831 
L 530.937667 54.908792 
L 531.252 55.515189 
L 531.566333 59.153571 
L 531.880667 60.36634 
L 532.823667 68.249502 
L 533.138 73.70705 
L 533.452333 74.919844 
L 534.081 82.196609 
L 534.709667 88.260554 
L 535.024 92.505334 
L 535.338333 94.930922 
L 535.967 100.994867 
L 536.281333 103.420431 
L 536.595667 102.814058 
L 536.91 110.090798 
L 537.224333 111.303592 
L 537.538667 114.335553 
L 537.853 104.633225 
L 538.167333 111.303592 
L 538.481667 115.548371 
L 538.796 114.94195 
L 539.110333 116.154744 
L 539.424667 119.793126 
L 539.739 119.793126 
L 540.053333 121.00592 
L 540.367667 121.612317 
L 541.310667 125.250699 
L 541.625 125.857096 
L 541.625 125.857096 
" clip-path="url(#pfa24395a4f)" style="fill: none; stroke: #ff7f0e; stroke-width: 1.5; stroke-linecap: square"/>
   </g>
   <g id="patch_3">
    <path d="M 46.55 390.04 
L 46.55 26.88 
" style="fill: none; stroke: #000000; stroke-width: 0.8; stroke-linejoin: miter; stroke-linecap: square"/>
   </g>
   <g id="patch_4">
    <path d="M 565.2 390.04 
L 565.2 26.88 
" style="fill: none; stroke: #000000; stroke-width: 0.8; stroke-linejoin: miter; stroke-linecap: square"/>
   </g>
   <g id="patch_5">
    <path d="M 46.55 390.04 
L 565.2 390.04 
" style="fill: none; stroke: #000000; stroke-width: 0.8; stroke-linejoin: miter; stroke-linecap: square"/>
   </g>
   <g id="patch_6">
    <path d="M 46.55 26.88 
L 565.2 26.88 
" style="fill: none; stroke: #000000; stroke-width: 0.8; stroke-linejoin: miter; stroke-linecap: square"/>
   </g>
   <g id="text_18">
    <!-- Plant Outputs -->
    <g transform="translate(264.884687 20.88) scale(0.12 -0.12)">
     <defs>
      <path id="DejaVuSans-50" d="M 1259 4147 
L 1259 2394 
L 2053 2394 
Q 2494 2394 2734 2622 
Q 2975 2850 2975 3272 
Q 2975 3691 2734 3919 
Q 2494 4147 2053 4147 
L 1259 4147 
z
M 628 4666 
L 2053 4666 
Q 2838 4666 3239 4311 
Q 3641 3956 3641 3272 
Q 3641 2581 3239 2228 
Q 2838 1875 2053 1875 
L 1259 1875 
L 1259 0 
L 628 0 
L 628 4666 
z
" transform="scale(0.015625)"/>
      <path id="DejaVuSans-6c" d="M 603 4863 
L 1178 4863 
L 1178 0 
L 603 0 
L 603 4863 
z
" transform="scale(0.015625)"/>
      <path id="DejaVuSans-20" transform="scale(0.015625)"/>
      <path id="DejaVuSans-73" d="M 2834 3397 
L 2834 2853 
Q 2591 2978 2328 3040 
Q 2066 3103 1784 3103 
Q 1356 3103 1142 2972 
Q 928 2841 928 2578 
Q 928 2378 1081 2264 
Q 1234 2150 1697 2047 
L 1894 2003 
Q 2506 1872 2764 1633 
Q 3022 1394 3022 966 
Q 3022 478 2636 193 
Q 2250 -91 1575 -91 
Q 1294 -91 989 -36 
Q 684 19 347 128 
L 347 722 
Q 666 556 975 473 
Q 1284 391 1588 391 
Q 1994 391 2212 530 
Q 2431 669 2431 922 
Q 2431 1156 2273 1281 
Q 2116 1406 1581 1522 
L 1381 1569 
Q 847 1681 609 1914 
Q 372 2147 372 2553 
Q 372 3047 722 3315 
Q 1072 3584 1716 3584 
Q 2034 3584 2315 3537 
Q 2597 3491 2834 3397 
z
" transform="scale(0.015625)"/>
     </defs>
     <use xlink:href="#DejaVuSans-50"/>
     <use xlink:href="#DejaVuSans-6c" x="60.302734"/>
     <use xlink:href="#DejaVuSans-61" x="88.085938"/>
     <use xlink:href="#DejaVuSans-6e" x="149.365234"/>
     <use xlink:href="#DejaVuSans-74" x="212.744141"/>
     <use xlink:href="#DejaVuSans-20" x="251.953125"/>
     <use xlink:href="#DejaVuSans-4f" x="283.740234"/>
     <use xlink:href="#DejaVuSans-75" x="362.451172"/>
     <use xlink:href="#DejaVuSans-74" x="425.830078"/>
     <use xlink:href="#DejaVuSans-70" x="465.039062"/>
     <use xlink:href="#DejaVuSans-75" x="528.515625"/>
     <use xlink:href="#DejaVuSans-74" x="591.894531"/>
     <use xlink:href="#DejaVuSans-73" x="631.103516"/>
    </g>
   </g>
   <g id="legend_1">
    <g id="patch_7">
     <path d="M 53.55 64.23625 
L 152.046875 64.23625 
Q 154.046875 64.23625 154.046875 62.23625 
L 154.046875 33.88 
Q 154.046875 31.88 152.046875 31.88 
L 53.55 31.88 
Q 51.55 31.88 51.55 33.88 
L 51.55 62.23625 
Q 51.55 64.23625 53.55 64.23625 
z
" style="fill: #ffffff; opacity: 0.8; stroke: #cccccc; stroke-linejoin: miter"/>
    </g>
    <g id="line2d_33">
     <path d="M 55.55 39.978437 
L 65.55 39.978437 
L 75.55 39.978437 
" style="fill: none; stroke: #1f77b4; stroke-width: 1.5; stroke-linecap: square"/>
    </g>
    <g id="text_19">
     <!-- Angle (deg) -->
     <g transform="translate(83.55 43.478437) scale(0.1 -0.1)">
      <defs>
       <path id="DejaVuSans-41" d="M 2188 4044 
L 1331 1722 
L 3047 1722 
L 2188 4044 
z
M 1831 4666 
L 2547 4666 
L 4325 0 
L 3669 0 
L 3244 1197 
L 1141 1197 
L 716 0 
L 50 0 
L 1831 4666 
z
" transform="scale(0.015625)"/>
       <path id="DejaVuSans-67" d="M 2906 1791 
Q 2906 2416 2648 2759 
Q 2391 3103 1925 3103 
Q 1463 3103 1205 2759 
Q 947 2416 947 1791 
Q 947 1169 1205 825 
Q 1463 481 1925 481 
Q 2391 481 2648 825 
Q 2906 1169 2906 1791 
z
M 3481 434 
Q 3481 -459 3084 -895 
Q 2688 -1331 1869 -1331 
Q 1566 -1331 1297 -1286 
Q 1028 -1241 775 -1147 
L 775 -588 
Q 1028 -725 1275 -790 
Q 1522 -856 1778 -856 
Q 2344 -856 2625 -561 
Q 2906 -266 2906 331 
L 2906 616 
Q 2728 306 2450 153 
Q 2172 0 1784 0 
Q 1141 0 747 490 
Q 353 981 353 1791 
Q 353 2603 747 3093 
Q 1141 3584 1784 3584 
Q 2172 3584 2450 3431 
Q 2728 3278 2906 2969 
L 2906 3500 
L 3481 3500 
L 3481 434 
z
" transform="scale(0.015625)"/>
       <path id="DejaVuSans-28" d="M 1984 4856 
Q 1566 4138 1362 3434 
Q 1159 2731 1159 2009 
Q 1159 1288 1364 580 
Q 1569 -128 1984 -844 
L 1484 -844 
Q 1016 -109 783 600 
Q 550 1309 550 2009 
Q 550 2706 781 3412 
Q 1013 4119 1484 4856 
L 1984 4856 
z
" transform="scale(0.015625)"/>
       <path id="DejaVuSans-64" d="M 2906 2969 
L 2906 4863 
L 3481 4863 
L 3481 0 
L 2906 0 
L 2906 525 
Q 2725 213 2448 61 
Q 2172 -91 1784 -91 
Q 1150 -91 751 415 
Q 353 922 353 1747 
Q 353 2572 751 3078 
Q 1150 3584 1784 3584 
Q 2172 3584 2448 3432 
Q 2725 3281 2906 2969 
z
M 947 1747 
Q 947 1113 1208 752 
Q 1469 391 1925 391 
Q 2381 391 2643 752 
Q 2906 1113 2906 1747 
Q 2906 2381 2643 2742 
Q 2381 3103 1925 3103 
Q 1469 3103 1208 2742 
Q 947 2381 947 1747 
z
" transform="scale(0.015625)"/>
       <path id="DejaVuSans-29" d="M 513 4856 
L 1013 4856 
Q 1481 4119 1714 3412 
Q 1947 2706 1947 2009 
Q 1947 1309 1714 600 
Q 1481 -109 1013 -844 
L 513 -844 
Q 928 -128 1133 580 
Q 1338 1288 1338 2009 
Q 1338 2731 1133 3434 
Q 928 4138 513 4856 
z
" transform="scale(0.015625)"/>
      </defs>
      <use xlink:href="#DejaVuSans-41"/>
      <use xlink:href="#DejaVuSans-6e" x="68.408203"/>
      <use xlink:href="#DejaVuSans-67" x="131.787109"/>
      <use xlink:href="#DejaVuSans-6c" x="195.263672"/>
      <use xlink:href="#DejaVuSans-65" x="223.046875"/>
      <use xlink:href="#DejaVuSans-20" x="284.570312"/>
      <use xlink:href="#DejaVuSans-28" x="316.357422"/>
      <use xlink:href="#DejaVuSans-64" x="355.371094"/>
      <use xlink:href="#DejaVuSans-65" x="418.847656"/>
      <use xlink:href="#DejaVuSans-67" x="480.371094"/>
      <use xlink:href="#DejaVuSans-29" x="543.847656"/>
     </g>
    </g>
    <g id="line2d_34">
     <path d="M 55.55 54.656563 
L 65.55 54.656563 
L 75.55 54.656563 
" style="fill: none; stroke: #ff7f0e; stroke-width: 1.5; stroke-linecap: square"/>
    </g>
    <g id="text_20">
     <!-- Position (rad) -->
     <g transform="translate(83.55 58.156563) scale(0.1 -0.1)">
      <use xlink:href="#DejaVuSans-50"/>
      <use xlink:href="#DejaVuSans-6f" x="56.677734"/>
      <use xlink:href="#DejaVuSans-73" x="117.859375"/>
      <use xlink:href="#DejaVuSans-69" x="169.958984"/>
      <use xlink:href="#DejaVuSans-74" x="197.742188"/>
      <use xlink:href="#DejaVuSans-69" x="236.951172"/>
      <use xlink:href="#DejaVuSans-6f" x="264.734375"/>
      <use xlink:href="#DejaVuSans-6e" x="325.916016"/>
      <use xlink:href="#DejaVuSans-20" x="389.294922"/>
      <use xlink:href="#DejaVuSans-28" x="421.082031"/>
      <use xlink:href="#DejaVuSans-72" x="460.095703"/>
      <use xlink:href="#DejaVuSans-61" x="501.208984"/>
      <use xlink:href="#DejaVuSans-64" x="562.488281"/>
      <use xlink:href="#DejaVuSans-29" x="625.964844"/>
     </g>
    </g>
   </g>
  </g>
 </g>
 <defs>
  <clipPath id="pfa24395a4f">
   <rect x="46.55" y="26.88" width="518.65" height="363.16"/>
  </clipPath>
 </defs>
</svg>
