<?xml version="1.0" encoding="utf-8" standalone="no"?>
<!DOCTYPE svg PUBLIC "-//W3C//DTD SVG 1.1//EN"
  "http://www.w3.org/Graphics/SVG/1.1/DTD/svg11.dtd">
<svg xmlns:xlink="http://www.w3.org/1999/xlink" width="576pt" height="432pt" viewBox="0 0 576 432" xmlns="http://www.w3.org/2000/svg" version="1.1">
 <metadata>
  <rdf:RDF xmlns:dc="http://purl.org/dc/elements/1.1/" xmlns:cc="http://creativecommons.org/ns#" xmlns:rdf="http://www.w3.org/1999/02/22-rdf-syntax-ns#">
   <cc:Work>
    <dc:type rdf:resource="http://purl.org/dc/dcmitype/StillImage"/>
    <dc:date>2025-10-15T12:14:09.953133</dc:date>
    <dc:format>image/svg+xml</dc:format>
    <dc:creator>
     <cc:Agent>
      <dc:title>Matplotlib v3.10.7, https://matplotlib.org/</dc:title>
     </cc:Agent>
    </dc:creator>
   </cc:Work>
  </rdf:RDF>
 </metadata>
 <defs>
  <style type="text/css">*{stroke-linejoin: round; stroke-linecap: butt}</style>
 </defs>
 <g id="figure_1">
  <g id="patch_1">
   <path d="M 0 432 
L 576 432 
L 576 0 
L 0 0 
z
" style="fill: #ffffff"/>
  </g>
  <g id="axes_1">
   <g id="patch_2">
    <path d="M 62.3 390.04 
L 565.2 390.04 
L 565.2 26.88 
L 62.3 26.88 
z
" style="fill: #ffffff"/>
   </g>
   <g id="matplotlib.axis_1">
    <g id="xtick_1">
     <g id="line2d_1">
      <path d="M 85.159091 390.04 
L 85.159091 26.88 
" clip-path="url(#p6d09da97bd)" style="fill: none; stroke: #b0b0b0; stroke-width: 0.8; stroke-linecap: square"/>
     </g>
     <g id="line2d_2">
      <defs>
       <path id="mab3fa62957" d="M 0 0 
L 0 3.5 
" style="stroke: #000000; stroke-width: 0.8"/>
      </defs>
      <g>
       <use xlink:href="#mab3fa62957" x="85.159091" y="390.04" style="stroke: #000000; stroke-width: 0.8"/>
      </g>
     </g>
     <g id="text_1">
      <!-- 0 -->
      <g transform="translate(81.977841 404.638438) scale(0.1 -0.1)">
       <defs>
        <path id="DejaVuSans-30" d="M 2034 4250 
Q 1547 4250 1301 3770 
Q 1056 3291 1056 2328 
Q 1056 1369 1301 889 
Q 1547 409 2034 409 
Q 2525 409 2770 889 
Q 3016 1369 3016 2328 
Q 3016 3291 2770 3770 
Q 2525 4250 2034 4250 
z
M 2034 4750 
Q 2819 4750 3233 4129 
Q 3647 3509 3647 2328 
Q 3647 1150 3233 529 
Q 2819 -91 2034 -91 
Q 1250 -91 836 529 
Q 422 1150 422 2328 
Q 422 3509 836 4129 
Q 1250 4750 2034 4750 
z
" transform="scale(0.015625)"/>
       </defs>
       <use xlink:href="#DejaVuSans-30"/>
      </g>
     </g>
    </g>
    <g id="xtick_2">
     <g id="line2d_3">
      <path d="M 146.116667 390.04 
L 146.116667 26.88 
" clip-path="url(#p6d09da97bd)" style="fill: none; stroke: #b0b0b0; stroke-width: 0.8; stroke-linecap: square"/>
     </g>
     <g id="line2d_4">
      <g>
       <use xlink:href="#mab3fa62957" x="146.116667" y="390.04" style="stroke: #000000; stroke-width: 0.8"/>
      </g>
     </g>
     <g id="text_2">
      <!-- 200 -->
      <g transform="translate(136.572917 404.638438) scale(0.1 -0.1)">
       <defs>
        <path id="DejaVuSans-32" d="M 1228 531 
L 3431 531 
L 3431 0 
L 469 0 
L 469 531 
Q 828 903 1448 1529 
Q 2069 2156 2228 2338 
Q 2531 2678 2651 2914 
Q 2772 3150 2772 3378 
Q 2772 3750 2511 3984 
Q 2250 4219 1831 4219 
Q 1534 4219 1204 4116 
Q 875 4013 500 3803 
L 500 4441 
Q 881 4594 1212 4672 
Q 1544 4750 1819 4750 
Q 2544 4750 2975 4387 
Q 3406 4025 3406 3419 
Q 3406 3131 3298 2873 
Q 3191 2616 2906 2266 
Q 2828 2175 2409 1742 
Q 1991 1309 1228 531 
z
" transform="scale(0.015625)"/>
       </defs>
       <use xlink:href="#DejaVuSans-32"/>
       <use xlink:href="#DejaVuSans-30" transform="translate(63.623047 0)"/>
       <use xlink:href="#DejaVuSans-30" transform="translate(127.246094 0)"/>
      </g>
     </g>
    </g>
    <g id="xtick_3">
     <g id="line2d_5">
      <path d="M 207.074242 390.04 
L 207.074242 26.88 
" clip-path="url(#p6d09da97bd)" style="fill: none; stroke: #b0b0b0; stroke-width: 0.8; stroke-linecap: square"/>
     </g>
     <g id="line2d_6">
      <g>
       <use xlink:href="#mab3fa62957" x="207.074242" y="390.04" style="stroke: #000000; stroke-width: 0.8"/>
      </g>
     </g>
     <g id="text_3">
      <!-- 400 -->
      <g transform="translate(197.530492 404.638438) scale(0.1 -0.1)">
       <defs>
        <path id="DejaVuSans-34" d="M 2419 4116 
L 825 1625 
L 2419 1625 
L 2419 4116 
z
M 2253 4666 
L 3047 4666 
L 3047 1625 
L 3713 1625 
L 3713 1100 
L 3047 1100 
L 3047 0 
L 2419 0 
L 2419 1100 
L 313 1100 
L 313 1709 
L 2253 4666 
z
" transform="scale(0.015625)"/>
       </defs>
       <use xlink:href="#DejaVuSans-34"/>
       <use xlink:href="#DejaVuSans-30" transform="translate(63.623047 0)"/>
       <use xlink:href="#DejaVuSans-30" transform="translate(127.246094 0)"/>
      </g>
     </g>
    </g>
    <g id="xtick_4">
     <g id="line2d_7">
      <path d="M 268.031818 390.04 
L 268.031818 26.88 
" clip-path="url(#p6d09da97bd)" style="fill: none; stroke: #b0b0b0; stroke-width: 0.8; stroke-linecap: square"/>
     </g>
     <g id="line2d_8">
      <g>
       <use xlink:href="#mab3fa62957" x="268.031818" y="390.04" style="stroke: #000000; stroke-width: 0.8"/>
      </g>
     </g>
     <g id="text_4">
      <!-- 600 -->
      <g transform="translate(258.488068 404.638438) scale(0.1 -0.1)">
       <defs>
        <path id="DejaVuSans-36" d="M 2113 2584 
Q 1688 2584 1439 2293 
Q 1191 2003 1191 1497 
Q 1191 994 1439 701 
Q 1688 409 2113 409 
Q 2538 409 2786 701 
Q 3034 994 3034 1497 
Q 3034 2003 2786 2293 
Q 2538 2584 2113 2584 
z
M 3366 4563 
L 3366 3988 
Q 3128 4100 2886 4159 
Q 2644 4219 2406 4219 
Q 1781 4219 1451 3797 
Q 1122 3375 1075 2522 
Q 1259 2794 1537 2939 
Q 1816 3084 2150 3084 
Q 2853 3084 3261 2657 
Q 3669 2231 3669 1497 
Q 3669 778 3244 343 
Q 2819 -91 2113 -91 
Q 1303 -91 875 529 
Q 447 1150 447 2328 
Q 447 3434 972 4092 
Q 1497 4750 2381 4750 
Q 2619 4750 2861 4703 
Q 3103 4656 3366 4563 
z
" transform="scale(0.015625)"/>
       </defs>
       <use xlink:href="#DejaVuSans-36"/>
       <use xlink:href="#DejaVuSans-30" transform="translate(63.623047 0)"/>
       <use xlink:href="#DejaVuSans-30" transform="translate(127.246094 0)"/>
      </g>
     </g>
    </g>
    <g id="xtick_5">
     <g id="line2d_9">
      <path d="M 328.989394 390.04 
L 328.989394 26.88 
" clip-path="url(#p6d09da97bd)" style="fill: none; stroke: #b0b0b0; stroke-width: 0.8; stroke-linecap: square"/>
     </g>
     <g id="line2d_10">
      <g>
       <use xlink:href="#mab3fa62957" x="328.989394" y="390.04" style="stroke: #000000; stroke-width: 0.8"/>
      </g>
     </g>
     <g id="text_5">
      <!-- 800 -->
      <g transform="translate(319.445644 404.638438) scale(0.1 -0.1)">
       <defs>
        <path id="DejaVuSans-38" d="M 2034 2216 
Q 1584 2216 1326 1975 
Q 1069 1734 1069 1313 
Q 1069 891 1326 650 
Q 1584 409 2034 409 
Q 2484 409 2743 651 
Q 3003 894 3003 1313 
Q 3003 1734 2745 1975 
Q 2488 2216 2034 2216 
z
M 1403 2484 
Q 997 2584 770 2862 
Q 544 3141 544 3541 
Q 544 4100 942 4425 
Q 1341 4750 2034 4750 
Q 2731 4750 3128 4425 
Q 3525 4100 3525 3541 
Q 3525 3141 3298 2862 
Q 3072 2584 2669 2484 
Q 3125 2378 3379 2068 
Q 3634 1759 3634 1313 
Q 3634 634 3220 271 
Q 2806 -91 2034 -91 
Q 1263 -91 848 271 
Q 434 634 434 1313 
Q 434 1759 690 2068 
Q 947 2378 1403 2484 
z
M 1172 3481 
Q 1172 3119 1398 2916 
Q 1625 2713 2034 2713 
Q 2441 2713 2670 2916 
Q 2900 3119 2900 3481 
Q 2900 3844 2670 4047 
Q 2441 4250 2034 4250 
Q 1625 4250 1398 4047 
Q 1172 3844 1172 3481 
z
" transform="scale(0.015625)"/>
       </defs>
       <use xlink:href="#DejaVuSans-38"/>
       <use xlink:href="#DejaVuSans-30" transform="translate(63.623047 0)"/>
       <use xlink:href="#DejaVuSans-30" transform="translate(127.246094 0)"/>
      </g>
     </g>
    </g>
    <g id="xtick_6">
     <g id="line2d_11">
      <path d="M 389.94697 390.04 
L 389.94697 26.88 
" clip-path="url(#p6d09da97bd)" style="fill: none; stroke: #b0b0b0; stroke-width: 0.8; stroke-linecap: square"/>
     </g>
     <g id="line2d_12">
      <g>
       <use xlink:href="#mab3fa62957" x="389.94697" y="390.04" style="stroke: #000000; stroke-width: 0.8"/>
      </g>
     </g>
     <g id="text_6">
      <!-- 1000 -->
      <g transform="translate(377.22197 404.638438) scale(0.1 -0.1)">
       <defs>
        <path id="DejaVuSans-31" d="M 794 531 
L 1825 531 
L 1825 4091 
L 703 3866 
L 703 4441 
L 1819 4666 
L 2450 4666 
L 2450 531 
L 3481 531 
L 3481 0 
L 794 0 
L 794 531 
z
" transform="scale(0.015625)"/>
       </defs>
       <use xlink:href="#DejaVuSans-31"/>
       <use xlink:href="#DejaVuSans-30" transform="translate(63.623047 0)"/>
       <use xlink:href="#DejaVuSans-30" transform="translate(127.246094 0)"/>
       <use xlink:href="#DejaVuSans-30" transform="translate(190.869141 0)"/>
      </g>
     </g>
    </g>
    <g id="xtick_7">
     <g id="line2d_13">
      <path d="M 450.904545 390.04 
L 450.904545 26.88 
" clip-path="url(#p6d09da97bd)" style="fill: none; stroke: #b0b0b0; stroke-width: 0.8; stroke-linecap: square"/>
     </g>
     <g id="line2d_14">
      <g>
       <use xlink:href="#mab3fa62957" x="450.904545" y="390.04" style="stroke: #000000; stroke-width: 0.8"/>
      </g>
     </g>
     <g id="text_7">
      <!-- 1200 -->
      <g transform="translate(438.179545 404.638438) scale(0.1 -0.1)">
       <use xlink:href="#DejaVuSans-31"/>
       <use xlink:href="#DejaVuSans-32" transform="translate(63.623047 0)"/>
       <use xlink:href="#DejaVuSans-30" transform="translate(127.246094 0)"/>
       <use xlink:href="#DejaVuSans-30" transform="translate(190.869141 0)"/>
      </g>
     </g>
    </g>
    <g id="xtick_8">
     <g id="line2d_15">
      <path d="M 511.862121 390.04 
L 511.862121 26.88 
" clip-path="url(#p6d09da97bd)" style="fill: none; stroke: #b0b0b0; stroke-width: 0.8; stroke-linecap: square"/>
     </g>
     <g id="line2d_16">
      <g>
       <use xlink:href="#mab3fa62957" x="511.862121" y="390.04" style="stroke: #000000; stroke-width: 0.8"/>
      </g>
     </g>
     <g id="text_8">
      <!-- 1400 -->
      <g transform="translate(499.137121 404.638438) scale(0.1 -0.1)">
       <use xlink:href="#DejaVuSans-31"/>
       <use xlink:href="#DejaVuSans-34" transform="translate(63.623047 0)"/>
       <use xlink:href="#DejaVuSans-30" transform="translate(127.246094 0)"/>
       <use xlink:href="#DejaVuSans-30" transform="translate(190.869141 0)"/>
      </g>
     </g>
    </g>
    <g id="text_9">
     <!-- Iteration -->
     <g transform="translate(292.541406 418.316562) scale(0.1 -0.1)">
      <defs>
       <path id="DejaVuSans-49" d="M 628 4666 
L 1259 4666 
L 1259 0 
L 628 0 
L 628 4666 
z
" transform="scale(0.015625)"/>
       <path id="DejaVuSans-74" d="M 1172 4494 
L 1172 3500 
L 2356 3500 
L 2356 3053 
L 1172 3053 
L 1172 1153 
Q 1172 725 1289 603 
Q 1406 481 1766 481 
L 2356 481 
L 2356 0 
L 1766 0 
Q 1100 0 847 248 
Q 594 497 594 1153 
L 594 3053 
L 172 3053 
L 172 3500 
L 594 3500 
L 594 4494 
L 1172 4494 
z
" transform="scale(0.015625)"/>
       <path id="DejaVuSans-65" d="M 3597 1894 
L 3597 1613 
L 953 1613 
Q 991 1019 1311 708 
Q 1631 397 2203 397 
Q 2534 397 2845 478 
Q 3156 559 3463 722 
L 3463 178 
Q 3153 47 2828 -22 
Q 2503 -91 2169 -91 
Q 1331 -91 842 396 
Q 353 884 353 1716 
Q 353 2575 817 3079 
Q 1281 3584 2069 3584 
Q 2775 3584 3186 3129 
Q 3597 2675 3597 1894 
z
M 3022 2063 
Q 3016 2534 2758 2815 
Q 2500 3097 2075 3097 
Q 1594 3097 1305 2825 
Q 1016 2553 972 2059 
L 3022 2063 
z
" transform="scale(0.015625)"/>
       <path id="DejaVuSans-72" d="M 2631 2963 
Q 2534 3019 2420 3045 
Q 2306 3072 2169 3072 
Q 1681 3072 1420 2755 
Q 1159 2438 1159 1844 
L 1159 0 
L 581 0 
L 581 3500 
L 1159 3500 
L 1159 2956 
Q 1341 3275 1631 3429 
Q 1922 3584 2338 3584 
Q 2397 3584 2469 3576 
Q 2541 3569 2628 3553 
L 2631 2963 
z
" transform="scale(0.015625)"/>
       <path id="DejaVuSans-61" d="M 2194 1759 
Q 1497 1759 1228 1600 
Q 959 1441 959 1056 
Q 959 750 1161 570 
Q 1363 391 1709 391 
Q 2188 391 2477 730 
Q 2766 1069 2766 1631 
L 2766 1759 
L 2194 1759 
z
M 3341 1997 
L 3341 0 
L 2766 0 
L 2766 531 
Q 2569 213 2275 61 
Q 1981 -91 1556 -91 
Q 1019 -91 701 211 
Q 384 513 384 1019 
Q 384 1609 779 1909 
Q 1175 2209 1959 2209 
L 2766 2209 
L 2766 2266 
Q 2766 2663 2505 2880 
Q 2244 3097 1772 3097 
Q 1472 3097 1187 3025 
Q 903 2953 641 2809 
L 641 3341 
Q 956 3463 1253 3523 
Q 1550 3584 1831 3584 
Q 2591 3584 2966 3190 
Q 3341 2797 3341 1997 
z
" transform="scale(0.015625)"/>
       <path id="DejaVuSans-69" d="M 603 3500 
L 1178 3500 
L 1178 0 
L 603 0 
L 603 3500 
z
M 603 4863 
L 1178 4863 
L 1178 4134 
L 603 4134 
L 603 4863 
z
" transform="scale(0.015625)"/>
       <path id="DejaVuSans-6f" d="M 1959 3097 
Q 1497 3097 1228 2736 
Q 959 2375 959 1747 
Q 959 1119 1226 758 
Q 1494 397 1959 397 
Q 2419 397 2687 759 
Q 2956 1122 2956 1747 
Q 2956 2369 2687 2733 
Q 2419 3097 1959 3097 
z
M 1959 3584 
Q 2709 3584 3137 3096 
Q 3566 2609 3566 1747 
Q 3566 888 3137 398 
Q 2709 -91 1959 -91 
Q 1206 -91 779 398 
Q 353 888 353 1747 
Q 353 2609 779 3096 
Q 1206 3584 1959 3584 
z
" transform="scale(0.015625)"/>
       <path id="DejaVuSans-6e" d="M 3513 2113 
L 3513 0 
L 2938 0 
L 2938 2094 
Q 2938 2591 2744 2837 
Q 2550 3084 2163 3084 
Q 1697 3084 1428 2787 
Q 1159 2491 1159 1978 
L 1159 0 
L 581 0 
L 581 3500 
L 1159 3500 
L 1159 2956 
Q 1366 3272 1645 3428 
Q 1925 3584 2291 3584 
Q 2894 3584 3203 3211 
Q 3513 2838 3513 2113 
z
" transform="scale(0.015625)"/>
      </defs>
      <use xlink:href="#DejaVuSans-49"/>
      <use xlink:href="#DejaVuSans-74" transform="translate(29.492188 0)"/>
      <use xlink:href="#DejaVuSans-65" transform="translate(68.701172 0)"/>
      <use xlink:href="#DejaVuSans-72" transform="translate(130.224609 0)"/>
      <use xlink:href="#DejaVuSans-61" transform="translate(171.337891 0)"/>
      <use xlink:href="#DejaVuSans-74" transform="translate(232.617188 0)"/>
      <use xlink:href="#DejaVuSans-69" transform="translate(271.826172 0)"/>
      <use xlink:href="#DejaVuSans-6f" transform="translate(299.609375 0)"/>
      <use xlink:href="#DejaVuSans-6e" transform="translate(360.791016 0)"/>
     </g>
    </g>
   </g>
   <g id="matplotlib.axis_2">
    <g id="ytick_1">
     <g id="line2d_17">
      <path d="M 62.3 336.111538 
L 565.2 336.111538 
" clip-path="url(#p6d09da97bd)" style="fill: none; stroke: #b0b0b0; stroke-width: 0.8; stroke-linecap: square"/>
     </g>
     <g id="line2d_18">
      <defs>
       <path id="mb443961c69" d="M 0 0 
L -3.5 0 
" style="stroke: #000000; stroke-width: 0.8"/>
      </defs>
      <g>
       <use xlink:href="#mb443961c69" x="62.3" y="336.111538" style="stroke: #000000; stroke-width: 0.8"/>
      </g>
     </g>
     <g id="text_10">
      <!-- −0.05 -->
      <g transform="translate(24.654688 339.910757) scale(0.1 -0.1)">
       <defs>
        <path id="DejaVuSans-2212" d="M 678 2272 
L 4684 2272 
L 4684 1741 
L 678 1741 
L 678 2272 
z
" transform="scale(0.015625)"/>
        <path id="DejaVuSans-2e" d="M 684 794 
L 1344 794 
L 1344 0 
L 684 0 
L 684 794 
z
" transform="scale(0.015625)"/>
        <path id="DejaVuSans-35" d="M 691 4666 
L 3169 4666 
L 3169 4134 
L 1269 4134 
L 1269 2991 
Q 1406 3038 1543 3061 
Q 1681 3084 1819 3084 
Q 2600 3084 3056 2656 
Q 3513 2228 3513 1497 
Q 3513 744 3044 326 
Q 2575 -91 1722 -91 
Q 1428 -91 1123 -41 
Q 819 9 494 109 
L 494 744 
Q 775 591 1075 516 
Q 1375 441 1709 441 
Q 2250 441 2565 725 
Q 2881 1009 2881 1497 
Q 2881 1984 2565 2268 
Q 2250 2553 1709 2553 
Q 1456 2553 1204 2497 
Q 953 2441 691 2322 
L 691 4666 
z
" transform="scale(0.015625)"/>
       </defs>
       <use xlink:href="#DejaVuSans-2212"/>
       <use xlink:href="#DejaVuSans-30" transform="translate(83.789062 0)"/>
       <use xlink:href="#DejaVuSans-2e" transform="translate(147.412109 0)"/>
       <use xlink:href="#DejaVuSans-30" transform="translate(179.199219 0)"/>
       <use xlink:href="#DejaVuSans-35" transform="translate(242.822266 0)"/>
      </g>
     </g>
    </g>
    <g id="ytick_2">
     <g id="line2d_19">
      <path d="M 62.3 275.279902 
L 565.2 275.279902 
" clip-path="url(#p6d09da97bd)" style="fill: none; stroke: #b0b0b0; stroke-width: 0.8; stroke-linecap: square"/>
     </g>
     <g id="line2d_20">
      <g>
       <use xlink:href="#mb443961c69" x="62.3" y="275.279902" style="stroke: #000000; stroke-width: 0.8"/>
      </g>
     </g>
     <g id="text_11">
      <!-- 0.00 -->
      <g transform="translate(33.034375 279.079121) scale(0.1 -0.1)">
       <use xlink:href="#DejaVuSans-30"/>
       <use xlink:href="#DejaVuSans-2e" transform="translate(63.623047 0)"/>
       <use xlink:href="#DejaVuSans-30" transform="translate(95.410156 0)"/>
       <use xlink:href="#DejaVuSans-30" transform="translate(159.033203 0)"/>
      </g>
     </g>
    </g>
    <g id="ytick_3">
     <g id="line2d_21">
      <path d="M 62.3 214.448266 
L 565.2 214.448266 
" clip-path="url(#p6d09da97bd)" style="fill: none; stroke: #b0b0b0; stroke-width: 0.8; stroke-linecap: square"/>
     </g>
     <g id="line2d_22">
      <g>
       <use xlink:href="#mb443961c69" x="62.3" y="214.448266" style="stroke: #000000; stroke-width: 0.8"/>
      </g>
     </g>
     <g id="text_12">
      <!-- 0.05 -->
      <g transform="translate(33.034375 218.247485) scale(0.1 -0.1)">
       <use xlink:href="#DejaVuSans-30"/>
       <use xlink:href="#DejaVuSans-2e" transform="translate(63.623047 0)"/>
       <use xlink:href="#DejaVuSans-30" transform="translate(95.410156 0)"/>
       <use xlink:href="#DejaVuSans-35" transform="translate(159.033203 0)"/>
      </g>
     </g>
    </g>
    <g id="ytick_4">
     <g id="line2d_23">
      <path d="M 62.3 153.61663 
L 565.2 153.61663 
" clip-path="url(#p6d09da97bd)" style="fill: none; stroke: #b0b0b0; stroke-width: 0.8; stroke-linecap: square"/>
     </g>
     <g id="line2d_24">
      <g>
       <use xlink:href="#mb443961c69" x="62.3" y="153.61663" style="stroke: #000000; stroke-width: 0.8"/>
      </g>
     </g>
     <g id="text_13">
      <!-- 0.10 -->
      <g transform="translate(33.034375 157.415849) scale(0.1 -0.1)">
       <use xlink:href="#DejaVuSans-30"/>
       <use xlink:href="#DejaVuSans-2e" transform="translate(63.623047 0)"/>
       <use xlink:href="#DejaVuSans-31" transform="translate(95.410156 0)"/>
       <use xlink:href="#DejaVuSans-30" transform="translate(159.033203 0)"/>
      </g>
     </g>
    </g>
    <g id="ytick_5">
     <g id="line2d_25">
      <path d="M 62.3 92.784994 
L 565.2 92.784994 
" clip-path="url(#p6d09da97bd)" style="fill: none; stroke: #b0b0b0; stroke-width: 0.8; stroke-linecap: square"/>
     </g>
     <g id="line2d_26">
      <g>
       <use xlink:href="#mb443961c69" x="62.3" y="92.784994" style="stroke: #000000; stroke-width: 0.8"/>
      </g>
     </g>
     <g id="text_14">
      <!-- 0.15 -->
      <g transform="translate(33.034375 96.584213) scale(0.1 -0.1)">
       <use xlink:href="#DejaVuSans-30"/>
       <use xlink:href="#DejaVuSans-2e" transform="translate(63.623047 0)"/>
       <use xlink:href="#DejaVuSans-31" transform="translate(95.410156 0)"/>
       <use xlink:href="#DejaVuSans-35" transform="translate(159.033203 0)"/>
      </g>
     </g>
    </g>
    <g id="ytick_6">
     <g id="line2d_27">
      <path d="M 62.3 31.953358 
L 565.2 31.953358 
" clip-path="url(#p6d09da97bd)" style="fill: none; stroke: #b0b0b0; stroke-width: 0.8; stroke-linecap: square"/>
     </g>
     <g id="line2d_28">
      <g>
       <use xlink:href="#mb443961c69" x="62.3" y="31.953358" style="stroke: #000000; stroke-width: 0.8"/>
      </g>
     </g>
     <g id="text_15">
      <!-- 0.20 -->
      <g transform="translate(33.034375 35.752577) scale(0.1 -0.1)">
       <use xlink:href="#DejaVuSans-30"/>
       <use xlink:href="#DejaVuSans-2e" transform="translate(63.623047 0)"/>
       <use xlink:href="#DejaVuSans-32" transform="translate(95.410156 0)"/>
       <use xlink:href="#DejaVuSans-30" transform="translate(159.033203 0)"/>
      </g>
     </g>
    </g>
    <g id="text_16">
     <!-- uDiff -->
     <g transform="translate(18.575 220.388125) rotate(-90) scale(0.1 -0.1)">
      <defs>
       <path id="DejaVuSans-75" d="M 544 1381 
L 544 3500 
L 1119 3500 
L 1119 1403 
Q 1119 906 1312 657 
Q 1506 409 1894 409 
Q 2359 409 2629 706 
Q 2900 1003 2900 1516 
L 2900 3500 
L 3475 3500 
L 3475 0 
L 2900 0 
L 2900 538 
Q 2691 219 2414 64 
Q 2138 -91 1772 -91 
Q 1169 -91 856 284 
Q 544 659 544 1381 
z
M 1991 3584 
L 1991 3584 
z
" transform="scale(0.015625)"/>
       <path id="DejaVuSans-44" d="M 1259 4147 
L 1259 519 
L 2022 519 
Q 2988 519 3436 956 
Q 3884 1394 3884 2338 
Q 3884 3275 3436 3711 
Q 2988 4147 2022 4147 
L 1259 4147 
z
M 628 4666 
L 1925 4666 
Q 3281 4666 3915 4102 
Q 4550 3538 4550 2338 
Q 4550 1131 3912 565 
Q 3275 0 1925 0 
L 628 0 
L 628 4666 
z
" transform="scale(0.015625)"/>
       <path id="DejaVuSans-66" d="M 2375 4863 
L 2375 4384 
L 1825 4384 
Q 1516 4384 1395 4259 
Q 1275 4134 1275 3809 
L 1275 3500 
L 2222 3500 
L 2222 3053 
L 1275 3053 
L 1275 0 
L 697 0 
L 697 3053 
L 147 3053 
L 147 3500 
L 697 3500 
L 697 3744 
Q 697 4328 969 4595 
Q 1241 4863 1831 4863 
L 2375 4863 
z
" transform="scale(0.015625)"/>
      </defs>
      <use xlink:href="#DejaVuSans-75"/>
      <use xlink:href="#DejaVuSans-44" transform="translate(63.378906 0)"/>
      <use xlink:href="#DejaVuSans-69" transform="translate(140.380859 0)"/>
      <use xlink:href="#DejaVuSans-66" transform="translate(168.164062 0)"/>
      <use xlink:href="#DejaVuSans-66" transform="translate(203.369141 0)"/>
     </g>
    </g>
   </g>
   <g id="line2d_29">
    <path d="M 85.159091 249.007935 
L 85.463879 237.134817 
L 85.768667 333.200136 
L 86.073455 223.846754 
L 86.378242 308.979412 
L 86.68303 274.557222 
L 86.987818 281.743872 
L 87.292606 278.742439 
L 87.597394 266.795106 
L 87.902182 313.897041 
L 88.20697 224.551184 
L 88.511758 300.059061 
L 88.816545 250.49831 
L 89.121333 322.357505 
L 89.426121 279.227875 
L 89.730909 293.945481 
L 90.035697 262.260715 
L 90.340485 262.702353 
L 90.645273 332.608853 
L 90.950061 337.322088 
L 91.254848 272.509629 
L 91.559636 327.55131 
L 91.864424 282.127111 
L 92.169212 169.462055 
L 92.474 350.018867 
L 92.778788 245.162159 
L 93.083576 249.545687 
L 93.388364 268.104202 
L 93.693152 346.592829 
L 93.997939 269.25027 
L 94.302727 242.046363 
L 94.607515 325.873574 
L 94.912303 317.262247 
L 95.217091 211.900637 
L 95.521879 276.042731 
L 95.826667 315.49083 
L 96.131455 305.914714 
L 96.436242 331.790059 
L 96.74103 327.250802 
L 97.045818 239.151994 
L 97.350606 281.860669 
L 97.655394 218.707697 
L 97.960182 263.484648 
L 98.26497 255.638584 
L 98.569758 320.312346 
L 98.874545 346.607429 
L 99.179333 286.657851 
L 99.484121 264.876476 
L 99.788909 225.704552 
L 100.093697 354.138385 
L 100.398485 222.791933 
L 100.703273 248.049229 
L 101.008061 289.143432 
L 101.312848 302.567757 
L 101.617636 325.854108 
L 101.922424 171.857605 
L 102.227212 256.406279 
L 102.532 263.629427 
L 102.836788 237.874529 
L 103.141576 270.875692 
L 103.446364 256.406279 
L 103.751152 277.623137 
L 104.055939 249.073633 
L 104.360727 287.914633 
L 104.665515 265.370429 
L 104.970303 287.380531 
L 105.275091 243.988109 
L 105.579879 229.274153 
L 105.884667 262.500392 
L 106.189455 334.191692 
L 106.494242 194.645135 
L 106.79903 269.772206 
L 107.103818 295.439506 
L 107.408606 291.984269 
L 107.713394 185.126201 
L 108.018182 308.541424 
L 108.32297 299.381396 
L 108.627758 297.013829 
L 108.932545 292.869978 
L 109.237333 213.58689 
L 109.542121 373.532727 
L 109.846909 223.795655 
L 110.151697 290.835768 
L 110.456485 295.44194 
L 110.761273 218.339058 
L 111.066061 338.775964 
L 111.370848 273.398988 
L 111.675636 268.376728 
L 111.980424 303.359785 
L 112.59 200.947293 
L 112.894788 282.5359 
L 113.199576 228.954178 
L 113.504364 302.534908 
L 113.809152 216.194134 
L 114.113939 312.921302 
L 114.418727 259.160735 
L 114.723515 283.450808 
L 115.028303 318.809804 
L 115.333091 301.982557 
L 115.637879 331.769376 
L 115.942667 335.403458 
L 116.247455 284.862101 
L 116.552242 257.54748 
L 116.85703 247.511477 
L 117.161818 297.061278 
L 117.466606 295.326359 
L 117.771394 266.643027 
L 118.38097 309.006178 
L 118.685758 254.083727 
L 118.990545 242.936938 
L 119.295333 273.766411 
L 119.600121 249.177047 
L 119.904909 198.511594 
L 120.514485 327.896834 
L 120.819273 220.494931 
L 121.124061 276.063414 
L 121.428848 282.983621 
L 121.733636 282.296223 
L 122.038424 226.597561 
L 122.648 310.843293 
L 122.952788 258.857794 
L 123.257576 256.353964 
L 123.562364 216.926547 
L 123.867152 258.994057 
L 124.171939 241.862651 
L 124.476727 171.282137 
L 124.781515 203.56062 
L 125.086303 184.002032 
L 125.391091 252.444923 
L 125.695879 222.687303 
L 126.000667 214.434883 
L 126.305455 218.741763 
L 126.610242 215.181896 
L 126.91503 290.244485 
L 127.219818 249.695333 
L 127.524606 247.072273 
L 127.829394 279.203543 
L 128.134182 250.577391 
L 128.43897 279.120812 
L 128.743758 243.408991 
L 129.048545 337.4693 
L 129.353333 237.031403 
L 129.658121 214.89842 
L 129.962909 254.783291 
L 130.267697 206.655734 
L 130.572485 260.971085 
L 130.877273 265.941029 
L 131.182061 237.756516 
L 131.486848 179.814383 
L 131.791636 283.550571 
L 132.096424 335.278145 
L 132.401212 258.148497 
L 132.706 246.113566 
L 133.010788 300.92652 
L 133.315576 333.548093 
L 133.620364 246.109916 
L 133.925152 293.63159 
L 134.229939 283.914345 
L 134.534727 286.138349 
L 134.839515 247.891066 
L 135.144303 260.675443 
L 135.449091 203.541154 
L 135.753879 259.783651 
L 136.058667 274.444075 
L 136.363455 279.113512 
L 136.668242 261.85436 
L 136.97303 258.226361 
L 137.582606 222.369762 
L 137.887394 223.481764 
L 138.192182 212.618451 
L 138.49697 250.432612 
L 138.801758 252.160231 
L 139.106545 235.938867 
L 139.411333 295.023418 
L 139.716121 294.21679 
L 140.020909 229.135456 
L 140.325697 198.151471 
L 140.630485 209.289744 
L 140.935273 285.034863 
L 141.240061 243.276379 
L 141.544848 274.049886 
L 141.849636 242.593848 
L 142.154424 223.317519 
L 142.459212 251.925421 
L 143.068788 278.029492 
L 143.373576 246.487072 
L 143.678364 178.697514 
L 143.983152 193.225325 
L 144.287939 230.147695 
L 144.592727 190.902773 
L 144.897515 205.890472 
L 145.202303 343.08041 
L 145.507091 259.933297 
L 145.811879 265.249982 
L 146.116667 274.281047 
L 146.421455 267.132113 
L 146.726242 212.519903 
L 147.03103 274.647253 
L 147.640606 183.803721 
L 147.945394 196.493201 
L 148.55497 225.189917 
L 148.859758 194.344627 
L 149.164545 194.445608 
L 149.469333 265.623488 
L 150.078909 197.22683 
L 150.383697 295.130482 
L 150.688485 221.559484 
L 150.993273 195.738888 
L 151.298061 222.150768 
L 151.602848 212.99439 
L 151.907636 327.3165 
L 152.517212 201.222252 
L 152.822 285.318339 
L 153.126788 255.920842 
L 153.431576 184.712546 
L 153.736364 235.047075 
L 154.041152 213.603923 
L 154.345939 259.478276 
L 154.650727 208.805524 
L 154.955515 178.688997 
L 155.260303 244.123155 
L 155.565091 224.352873 
L 155.869879 182.436226 
L 156.174667 202.015496 
L 156.479455 271.341662 
L 156.784242 254.239456 
L 157.08903 213.801018 
L 157.393818 236.303856 
L 157.698606 228.03927 
L 158.003394 210.702254 
L 158.308182 245.477267 
L 158.61297 295.337309 
L 158.917758 255.392824 
L 159.222545 279.468769 
L 159.527333 257.300504 
L 159.832121 254.960919 
L 160.136909 264.196378 
L 160.441697 147.468985 
L 160.746485 264.668432 
L 161.051273 276.373655 
L 161.356061 266.113791 
L 161.660848 245.800891 
L 161.965636 256.173902 
L 162.270424 195.272918 
L 162.575212 280.034503 
L 162.88 211.831289 
L 163.184788 244.938299 
L 163.489576 257.614395 
L 163.794364 285.510567 
L 164.099152 283.361993 
L 164.403939 226.382217 
L 164.708727 243.199731 
L 165.013515 234.070119 
L 165.623091 255.867311 
L 165.927879 274.302946 
L 166.232667 260.856721 
L 166.537455 267.947257 
L 166.842242 265.282831 
L 167.14703 209.608501 
L 167.756606 249.380225 
L 168.061394 186.504646 
L 168.366182 248.322971 
L 168.67097 212.656166 
L 168.975758 219.908514 
L 169.280545 311.911497 
L 169.585333 208.904071 
L 169.890121 255.622767 
L 170.194909 270.789311 
L 170.499697 266.9849 
L 170.804485 247.339932 
L 171.109273 279.321556 
L 171.414061 236.861074 
L 171.718848 239.40262 
L 172.023636 238.901367 
L 172.328424 275.678958 
L 172.633212 220.948735 
L 172.938 287.445013 
L 173.242788 184.032448 
L 173.547576 208.015929 
L 173.852364 176.93583 
L 174.157152 250.082222 
L 174.461939 191.452691 
L 174.766727 291.405152 
L 175.071515 195.895834 
L 175.376303 271.441426 
L 175.681091 234.014154 
L 176.290667 361.01601 
L 176.595455 276.840842 
L 176.900242 311.159618 
L 177.20503 288.025347 
L 177.509818 298.555303 
L 177.814606 249.557853 
L 178.119394 284.713672 
L 178.424182 209.610935 
L 178.72897 208.805524 
L 179.338545 260.754524 
L 179.643333 214.338769 
L 179.948121 262.836183 
L 180.252909 241.014658 
L 180.557697 234.884046 
L 180.862485 279.238825 
L 181.167273 180.106374 
L 181.472061 282.88629 
L 181.776848 230.80346 
L 182.081636 286.881712 
L 182.386424 309.30182 
L 182.691212 287.08124 
L 182.996 232.181905 
L 183.300788 298.843645 
L 183.605576 220.808822 
L 183.910364 300.875421 
L 184.215152 221.614233 
L 184.519939 268.06162 
L 184.824727 233.982521 
L 185.434303 266.434982 
L 185.739091 256.060755 
L 186.043879 230.42752 
L 186.653455 297.102643 
L 186.958242 240.621686 
L 187.567818 330.428647 
L 187.872606 268.06162 
L 188.177394 337.044695 
L 188.482182 288.97797 
L 188.78697 295.598885 
L 189.091758 289.515722 
L 189.396545 334.621163 
L 189.701333 220.903719 
L 190.006121 318.351134 
L 190.310909 211.4371 
L 190.615697 303.246638 
L 190.920485 215.251244 
L 191.225273 205.589963 
L 191.530061 222.260265 
L 191.834848 251.937587 
L 192.139636 316.123479 
L 192.444424 238.458513 
L 192.749212 206.427007 
L 193.054 287.521661 
L 193.358788 258.587701 
L 193.663576 246.765681 
L 193.968364 207.202002 
L 194.273152 218.667549 
L 194.577939 245.723027 
L 194.882727 258.289626 
L 195.187515 309.534196 
L 195.492303 221.179895 
L 195.797091 230.046714 
L 196.101879 252.337859 
L 196.406667 230.275441 
L 196.711455 270.306308 
L 197.016242 262.691403 
L 197.32103 247.582042 
L 197.625818 283.112584 
L 197.930606 300.387552 
L 198.235394 229.224271 
L 198.540182 294.00023 
L 198.84497 223.172739 
L 199.149758 292.598669 
L 199.454545 282.335155 
L 199.759333 254.713943 
L 200.064121 245.943237 
L 200.368909 291.310255 
L 200.673697 227.469886 
L 200.978485 262.483359 
L 201.283273 146.071074 
L 201.588061 243.58297 
L 202.197636 279.749811 
L 202.502424 220.928052 
L 202.807212 274.116801 
L 203.112 275.238537 
L 203.416788 236.678579 
L 203.721576 241.371132 
L 204.026364 276.178994 
L 204.331152 331.517533 
L 204.635939 322.423203 
L 204.940727 289.811363 
L 205.245515 338.988874 
L 205.550303 237.004637 
L 205.855091 225.587755 
L 206.159879 344.601201 
L 206.464667 279.776577 
L 206.769455 264.746296 
L 207.074242 204.116621 
L 207.37903 271.799116 
L 207.683818 254.421951 
L 207.988606 207.622957 
L 208.293394 262.305731 
L 208.598182 246.892211 
L 208.90297 305.513225 
L 209.207758 251.581113 
L 209.512545 246.747432 
L 209.817333 324.846736 
L 210.122121 266.573678 
L 210.426909 232.702624 
L 210.731697 250.173469 
L 211.036485 244.323899 
L 211.341273 247.74507 
L 211.646061 228.332479 
L 211.950848 279.751027 
L 212.255636 280.470057 
L 212.865212 249.251262 
L 213.17 226.547679 
L 213.474788 230.700046 
L 213.779576 220.868437 
L 214.084364 267.887642 
L 214.389152 269.49603 
L 214.693939 215.229344 
L 215.303515 229.662258 
L 215.608303 262.420094 
L 215.913091 273.263942 
L 216.217879 222.300414 
L 216.522667 231.155067 
L 216.827455 232.774405 
L 217.132242 250.795169 
L 217.43703 185.006971 
L 217.741818 213.60149 
L 218.046606 214.745125 
L 218.351394 267.042082 
L 218.656182 223.459865 
L 218.96097 255.400124 
L 219.265758 260.046444 
L 219.570545 267.810994 
L 219.875333 266.578545 
L 220.180121 172.770079 
L 220.484909 238.594776 
L 220.789697 155.66909 
L 221.094485 222.43911 
L 221.399273 172.684915 
L 221.704061 239.26879 
L 222.008848 357.339346 
L 222.313636 235.272152 
L 222.618424 209.076833 
L 222.923212 283.104067 
L 223.228 269.320835 
L 223.532788 200.645568 
L 223.837576 241.469679 
L 224.142364 210.805668 
L 224.447152 273.777361 
L 224.751939 219.165151 
L 225.056727 271.363561 
L 225.361515 160.547787 
L 225.666303 224.813977 
L 225.971091 170.488893 
L 226.275879 154.288212 
L 226.885455 294.175425 
L 227.49503 193.703462 
L 227.799818 279.959072 
L 228.104606 304.333091 
L 228.714182 193.018498 
L 229.01897 254.987685 
L 229.323758 250.192936 
L 229.628545 247.198802 
L 229.933333 268.07622 
L 230.238121 267.902241 
L 230.542909 262.364129 
L 230.847697 207.984297 
L 231.152485 293.079239 
L 231.457273 249.095533 
L 231.762061 258.418589 
L 232.066848 201.589675 
L 232.371636 203.059367 
L 232.676424 187.898907 
L 232.981212 279.653697 
L 233.286 282.186726 
L 233.590788 204.379414 
L 233.895576 257.944103 
L 234.200364 212.173163 
L 234.505152 228.954178 
L 234.809939 203.398808 
L 235.114727 244.949248 
L 235.419515 220.021661 
L 235.724303 247.807119 
L 236.029091 242.910172 
L 236.333879 280.390976 
L 236.638667 227.600066 
L 236.943455 211.949303 
L 237.248242 244.315383 
L 237.55303 179.933613 
L 237.857818 177.441949 
L 238.162606 242.971004 
L 238.467394 182.397294 
L 238.772182 214.584529 
L 239.07697 174.861471 
L 239.686545 240.350377 
L 239.991333 239.799242 
L 240.296121 142.716818 
L 240.600909 237.555771 
L 240.905697 241.615675 
L 241.210485 240.333344 
L 241.515273 132.70758 
L 241.820061 201.747837 
L 242.124848 167.037306 
L 242.429636 176.754551 
L 242.734424 250.61754 
L 243.039212 230.833876 
L 243.344 160.667017 
L 243.648788 242.413786 
L 243.953576 197.314428 
L 244.258364 176.177867 
L 244.563152 289.19818 
L 244.867939 195.577076 
L 245.477515 231.040703 
L 245.782303 272.48043 
L 246.087091 265.786517 
L 246.391879 219.045921 
L 246.696667 230.821709 
L 247.001455 269.938885 
L 247.306242 285.868257 
L 247.61103 159.13771 
L 247.915818 211.496715 
L 248.220606 209.545236 
L 248.525394 192.540361 
L 248.830182 223.232354 
L 249.13497 201.480178 
L 249.439758 281.482296 
L 249.744545 175.254443 
L 250.049333 159.799558 
L 250.354121 288.894022 
L 250.658909 225.022021 
L 250.963697 242.501383 
L 251.268485 197.979926 
L 251.878061 259.96128 
L 252.182848 210.331181 
L 252.487636 206.137448 
L 252.792424 274.220215 
L 253.097212 206.475672 
L 253.402 199.196558 
L 253.706788 230.191494 
L 254.011576 168.778307 
L 254.316364 248.982386 
L 254.621152 249.997058 
L 254.925939 226.60486 
L 255.230727 227.437037 
L 255.535515 168.502132 
L 255.840303 256.642306 
L 256.145091 195.893401 
L 256.449879 187.870925 
L 257.059455 257.995201 
L 257.364242 118.559359 
L 257.66903 170.366013 
L 257.973818 172.912425 
L 258.278606 255.232228 
L 258.583394 140.787238 
L 258.888182 171.476799 
L 259.19297 158.464912 
L 259.497758 159.601247 
L 259.802545 144.985838 
L 260.107333 211.699893 
L 260.412121 216.700253 
L 260.716909 158.39678 
L 261.021697 214.388651 
L 261.326485 208.090144 
L 261.631273 219.800234 
L 261.936061 204.672622 
L 262.240848 205.227407 
L 262.545636 184.985072 
L 262.850424 208.239789 
L 263.155212 214.4361 
L 263.46 128.463965 
L 263.764788 245.519849 
L 264.069576 200.071317 
L 264.374364 178.607483 
L 264.679152 204.013207 
L 264.983939 260.812923 
L 265.288727 137.897736 
L 265.593515 256.655689 
L 265.898303 228.65367 
L 266.203091 228.636637 
L 266.507879 203.290528 
L 266.812667 256.754236 
L 267.117455 175.188745 
L 267.422242 199.5141 
L 267.72703 202.36102 
L 268.031818 157.492822 
L 268.641394 193.596398 
L 268.946182 251.248973 
L 269.25097 186.631176 
L 269.555758 244.89815 
L 269.860545 156.961154 
L 270.165333 217.512964 
L 270.470121 198.858335 
L 270.774909 222.048571 
L 271.079697 143.302018 
L 271.384485 174.722775 
L 271.689273 142.719251 
L 271.994061 198.574859 
L 272.298848 197.695234 
L 272.603636 263.106275 
L 272.908424 156.916138 
L 273.518 201.929116 
L 273.822788 209.741114 
L 274.127576 116.397402 
L 274.432364 248.208608 
L 274.737152 162.432351 
L 275.041939 193.958955 
L 275.346727 185.072669 
L 275.651515 217.057943 
L 275.956303 215.87051 
L 276.261091 152.898817 
L 276.565879 216.034755 
L 276.870667 177.087909 
L 277.175455 187.108096 
L 277.480242 254.526581 
L 277.78503 205.763942 
L 278.089818 128.613611 
L 278.394606 189.22017 
L 278.699394 141.964939 
L 279.004182 186.099507 
L 279.30897 188.950078 
L 279.613758 283.057835 
L 279.918545 152.977898 
L 280.223333 280.431125 
L 280.528121 181.323007 
L 280.832909 213.297332 
L 281.137697 187.224893 
L 281.442485 205.633762 
L 281.747273 198.972698 
L 282.052061 181.92524 
L 282.356848 213.8509 
L 282.661636 173.58279 
L 282.966424 179.495625 
L 283.271212 224.941723 
L 283.576 129.352107 
L 283.880788 206.360092 
L 284.185576 194.570921 
L 284.490364 81.542091 
L 284.795152 246.550337 
L 285.099939 143.275252 
L 285.404727 123.026834 
L 285.709515 229.9725 
L 286.014303 156.00488 
L 286.319091 242.38702 
L 286.623879 212.406757 
L 286.928667 196.533349 
L 287.233455 173.418544 
L 287.538242 205.435451 
L 287.84303 182.061503 
L 288.147818 226.651092 
L 288.452606 246.731615 
L 288.757394 233.966705 
L 289.062182 163.807146 
L 289.36697 247.65869 
L 289.671758 205.923321 
L 289.976545 201.603058 
L 290.281333 224.090081 
L 290.586121 235.663908 
L 290.890909 186.37325 
L 291.195697 157.524455 
L 291.500485 237.470607 
L 291.805273 195.075823 
L 292.110061 185.932829 
L 292.414848 213.967696 
L 292.719636 168.840356 
L 293.024424 195.597759 
L 293.329212 177.702308 
L 293.634 200.638268 
L 293.938788 189.523112 
L 294.243576 166.506854 
L 294.548364 265.81085 
L 294.853152 164.702588 
L 295.157939 199.427719 
L 295.462727 293.881 
L 295.767515 210.951664 
L 296.681879 298.6429 
L 296.986667 250.257417 
L 297.291455 160.917643 
L 297.596242 239.166593 
L 297.90103 171.072877 
L 298.205818 225.756867 
L 298.510606 227.128012 
L 298.815394 135.723613 
L 299.120182 225.995327 
L 299.42497 103.825936 
L 299.729758 174.852954 
L 300.034545 176.982062 
L 300.339333 170.286932 
L 300.644121 200.622452 
L 300.948909 136.754101 
L 301.253697 268.438776 
L 301.863273 128.737708 
L 302.168061 207.031673 
L 302.472848 143.523445 
L 302.777636 235.302568 
L 303.387212 169.52532 
L 303.692 212.686582 
L 303.996788 195.777821 
L 304.301576 249.012802 
L 304.606364 218.025166 
L 304.911152 203.176164 
L 305.215939 196.208509 
L 305.520727 167.510576 
L 305.825515 196.605131 
L 306.130303 201.240501 
L 306.435091 154.7189 
L 306.739879 130.335147 
L 307.044667 211.479682 
L 307.349455 200.497139 
L 307.654242 168.901187 
L 307.95903 195.999248 
L 308.263818 183.004394 
L 308.568606 136.851431 
L 308.873394 191.470941 
L 309.178182 182.782966 
L 309.48297 244.04529 
L 309.787758 216.196567 
L 310.092545 167.055555 
L 310.397333 212.147614 
L 310.702121 174.086476 
L 311.006909 195.010125 
L 311.311697 192.833569 
L 311.616485 181.22081 
L 312.226061 200.593253 
L 312.530848 198.492128 
L 312.835636 105.581537 
L 313.140424 210.265483 
L 313.445212 169.885443 
L 313.75 184.876791 
L 314.054788 174.650993 
L 314.359576 173.742169 
L 314.664364 167.952214 
L 314.969152 195.459063 
L 315.273939 192.67784 
L 315.578727 188.375827 
L 315.883515 172.312625 
L 316.188303 138.535251 
L 316.493091 138.065631 
L 316.797879 171.622795 
L 317.102667 128.698776 
L 317.407455 199.540866 
L 317.712242 145.362994 
L 318.01703 158.168053 
L 318.321818 209.350575 
L 318.626606 109.948032 
L 319.236182 210.351864 
L 319.845758 146.992065 
L 320.455333 232.889985 
L 320.760121 176.507575 
L 321.064909 206.42944 
L 321.369697 171.485315 
L 321.674485 170.943913 
L 321.979273 151.284345 
L 322.284061 169.99494 
L 322.588848 209.029384 
L 322.893636 215.338841 
L 323.198424 170.894032 
L 323.503212 190.636331 
L 323.808 267.01045 
L 324.112788 149.537261 
L 324.722364 215.765879 
L 325.331939 127.640305 
L 325.636727 158.615774 
L 325.941515 171.170207 
L 326.246303 121.248117 
L 326.551091 187.212726 
L 326.855879 184.975339 
L 327.160667 172.285859 
L 327.465455 168.235689 
L 328.07503 154.289428 
L 328.379818 163.528537 
L 328.684606 129.167179 
L 328.989394 173.399078 
L 329.294182 162.056411 
L 329.59897 207.884533 
L 329.903758 187.262608 
L 330.208545 224.775045 
L 330.513333 192.704606 
L 330.818121 189.265186 
L 331.122909 176.916364 
L 331.427697 218.140747 
L 331.732485 167.292799 
L 332.037273 263.526013 
L 332.342061 155.756687 
L 332.646848 224.663115 
L 332.951636 102.398826 
L 333.256424 254.777208 
L 333.561212 141.730129 
L 333.866 242.088945 
L 334.170788 88.364968 
L 334.475576 133.640738 
L 334.780364 222.252965 
L 335.085152 45.50178 
L 335.389939 139.579122 
L 335.694727 128.494381 
L 335.999515 106.3322 
L 336.609091 183.913218 
L 336.913879 178.322791 
L 337.218667 191.758066 
L 337.523455 161.028357 
L 337.828242 173.674037 
L 338.13303 173.273765 
L 338.437818 186.698091 
L 338.742606 185.114035 
L 339.047394 203.960892 
L 339.352182 247.39103 
L 339.65697 96.816915 
L 339.961758 168.295304 
L 340.266545 173.979412 
L 340.571333 91.815338 
L 340.876121 190.017065 
L 341.180909 163.097849 
L 341.485697 214.370402 
L 341.790485 91.357884 
L 342.400061 169.281993 
L 342.704848 77.448122 
L 343.009636 154.300378 
L 343.314424 145.962794 
L 343.619212 141.641314 
L 343.924 195.212086 
L 344.228788 138.257859 
L 344.533576 219.081204 
L 344.838364 157.20813 
L 345.143152 183.615143 
L 345.447939 190.569416 
L 345.752727 201.676056 
L 346.057515 173.885731 
L 346.362303 245.754659 
L 346.667091 212.880027 
L 346.971879 75.827568 
L 347.276667 176.67912 
L 347.886242 103.510828 
L 348.19103 151.788031 
L 348.495818 165.928953 
L 348.800606 140.506196 
L 349.105394 182.518957 
L 349.410182 250.349881 
L 350.019758 172.104581 
L 350.324545 246.45179 
L 350.629333 121.182419 
L 350.934121 169.713898 
L 351.543697 207.981863 
L 351.848485 187.645847 
L 352.153273 184.547084 
L 352.458061 107.578032 
L 353.067636 232.740339 
L 353.372424 152.80392 
L 353.677212 217.985018 
L 353.982 134.63716 
L 354.286788 215.750063 
L 354.591576 75.63169 
L 354.896364 130.751235 
L 355.201152 139.501258 
L 355.505939 178.276559 
L 355.810727 160.674317 
L 356.115515 161.669522 
L 356.420303 165.538414 
L 356.725091 105.918545 
L 357.029879 160.856812 
L 357.334667 131.482431 
L 357.639455 56.979493 
L 357.944242 132.443571 
L 358.24903 169.800279 
L 358.553818 152.289284 
L 358.858606 161.457828 
L 359.163394 114.490939 
L 359.468182 116.830523 
L 359.77297 220.42315 
L 360.077758 155.635024 
L 360.382545 197.756065 
L 360.687333 133.772134 
L 360.992121 237.935361 
L 361.296909 161.541776 
L 361.601697 176.176651 
L 361.906485 131.230588 
L 362.211273 214.720792 
L 362.516061 129.695198 
L 362.820848 155.248135 
L 363.125636 145.659852 
L 363.430424 199.236707 
L 364.04 107.608447 
L 364.344788 176.905414 
L 364.649576 165.517732 
L 364.954364 101.245458 
L 365.563939 193.143811 
L 365.868727 142.819015 
L 366.173515 219.766168 
L 366.478303 211.918887 
L 367.087879 159.192458 
L 367.392667 166.674749 
L 367.697455 152.544777 
L 368.002242 124.230084 
L 368.611818 181.863192 
L 369.221394 121.675155 
L 369.526182 210.853117 
L 369.83097 180.672109 
L 370.135758 131.949618 
L 370.440545 110.293556 
L 370.745333 158.129121 
L 371.050121 145.442075 
L 371.354909 150.859741 
L 371.659697 201.009341 
L 371.964485 171.08626 
L 372.269273 184.837859 
L 372.574061 162.282705 
L 372.878848 166.320709 
L 373.183636 184.365806 
L 373.488424 194.289879 
L 373.793212 184.777027 
L 374.098 134.655409 
L 374.402788 194.158482 
L 374.707576 108.176615 
L 375.012364 180.241421 
L 375.317152 184.672397 
L 375.621939 166.319493 
L 375.926727 121.345447 
L 376.231515 202.991236 
L 376.536303 185.122551 
L 376.841091 254.947536 
L 377.450667 145.765699 
L 377.755455 226.660825 
L 378.060242 146.70129 
L 378.36503 195.137872 
L 378.669818 168.881721 
L 378.974606 153.004664 
L 379.584182 207.549959 
L 379.88897 117.609168 
L 380.193758 198.902133 
L 380.498545 43.387273 
L 380.803333 178.306975 
L 381.108121 176.539207 
L 381.412909 58.713195 
L 381.717697 195.215736 
L 382.022485 76.957819 
L 382.327273 216.859632 
L 382.632061 106.880901 
L 383.241636 211.266772 
L 383.546424 211.111043 
L 383.851212 262.044155 
L 384.156 181.47752 
L 384.460788 214.412984 
L 384.765576 175.745963 
L 385.070364 108.877395 
L 385.375152 174.640044 
L 385.679939 104.238375 
L 385.984727 155.996364 
L 386.594303 183.452114 
L 386.899091 190.000032 
L 387.203879 175.918725 
L 387.813455 101.784427 
L 388.118242 89.727596 
L 388.42303 208.507449 
L 388.727818 179.08562 
L 389.032606 202.785625 
L 389.337394 135.00215 
L 389.642182 203.57887 
L 389.94697 197.994525 
L 390.251758 183.902269 
L 390.556545 194.905495 
L 390.861333 147.823025 
L 391.166121 179.394644 
L 391.470909 184.609132 
L 392.080485 94.753506 
L 392.385273 175.208211 
L 392.690061 125.483215 
L 392.994848 230.450636 
L 393.299636 133.173551 
L 393.604424 175.054915 
L 393.909212 89.997689 
L 394.214 199.948437 
L 394.518788 143.510062 
L 394.823576 111.989542 
L 395.128364 233.596849 
L 395.433152 150.380387 
L 395.737939 152.636024 
L 396.042727 169.758913 
L 396.347515 210.473527 
L 396.652303 202.471734 
L 396.957091 203.831929 
L 397.261879 182.410677 
L 397.566667 180.296169 
L 397.871455 197.520039 
L 398.48103 206.384425 
L 398.785818 188.487757 
L 399.090606 160.948059 
L 399.395394 248.732976 
L 399.700182 251.858506 
L 400.00497 211.303271 
L 400.309758 277.522156 
L 400.614545 200.010486 
L 400.919333 218.896275 
L 401.224121 80.692882 
L 401.528909 233.897357 
L 401.833697 155.945265 
L 402.138485 124.270232 
L 402.443273 183.444815 
L 402.748061 110.871456 
L 403.052848 190.697162 
L 403.357636 150.104212 
L 403.662424 134.513063 
L 403.967212 174.000095 
L 404.272 115.772053 
L 404.576788 143.132906 
L 404.881576 249.288977 
L 405.186364 141.272675 
L 405.795939 217.747774 
L 406.100727 144.819159 
L 406.405515 177.648776 
L 406.710303 154.22738 
L 407.015091 194.455341 
L 407.319879 190.855325 
L 407.624667 173.184951 
L 407.929455 205.086277 
L 408.234242 199.556682 
L 408.53903 200.366959 
L 408.843818 178.630599 
L 409.148606 206.54502 
L 409.453394 204.137304 
L 409.758182 177.376251 
L 410.06297 129.751163 
L 410.367758 248.290122 
L 410.672545 155.009675 
L 410.977333 147.231742 
L 411.282121 195.270485 
L 411.586909 189.160555 
L 411.891697 207.206868 
L 412.196485 186.73459 
L 412.501273 244.087873 
L 412.806061 208.311571 
L 413.110848 142.87863 
L 413.415636 242.399186 
L 413.720424 228.013721 
L 414.025212 140.955134 
L 414.33 171.278487 
L 414.634788 215.469021 
L 414.939576 211.304487 
L 415.244364 225.249532 
L 415.853939 156.798125 
L 416.158727 165.716043 
L 416.463515 277.362777 
L 416.768303 198.369248 
L 417.073091 205.626462 
L 417.377879 236.835525 
L 417.682667 189.290735 
L 417.987455 220.312436 
L 418.59703 192.874935 
L 418.901818 203.521688 
L 419.206606 177.072092 
L 419.511394 245.923771 
L 419.816182 243.322611 
L 420.12097 230.925123 
L 420.425758 265.736635 
L 421.035333 190.066947 
L 421.340121 191.874863 
L 421.644909 236.256408 
L 421.949697 236.872024 
L 422.254485 256.386813 
L 422.864061 162.757192 
L 423.168848 231.524923 
L 423.473636 168.56418 
L 423.778424 221.201794 
L 424.083212 154.459757 
L 424.388 181.919157 
L 424.692788 128.818006 
L 424.997576 245.733977 
L 425.302364 217.845105 
L 425.607152 277.14865 
L 425.911939 229.504096 
L 426.216727 245.235157 
L 426.521515 220.593478 
L 426.826303 235.208887 
L 427.131091 142.821448 
L 427.435879 282.638097 
L 428.045455 174.677759 
L 428.350242 123.208112 
L 428.65503 187.011982 
L 428.959818 222.282164 
L 429.569394 139.228732 
L 429.874182 188.473158 
L 430.17897 195.747405 
L 430.483758 141.800693 
L 430.788545 202.273423 
L 431.093333 158.377314 
L 431.398121 259.730119 
L 431.702909 232.617459 
L 432.007697 225.750784 
L 432.312485 269.260003 
L 432.617273 217.04821 
L 432.922061 202.35372 
L 433.226848 195.098939 
L 433.531636 207.631473 
L 433.836424 154.263879 
L 434.446 222.592406 
L 434.750788 168.101859 
L 435.055576 163.565036 
L 435.360364 131.124741 
L 435.665152 163.275477 
L 435.969939 284.657707 
L 436.579515 206.6533 
L 436.884303 256.437911 
L 437.493879 194.510089 
L 437.798667 227.113413 
L 438.103455 124.208184 
L 438.408242 253.268583 
L 438.71303 168.481449 
L 439.017818 221.391589 
L 439.322606 172.37954 
L 439.627394 192.717989 
L 439.932182 170.10322 
L 440.541758 258.040217 
L 440.846545 164.683122 
L 441.151333 254.848989 
L 441.456121 123.279893 
L 441.760909 263.575895 
L 442.065697 190.474519 
L 442.370485 201.325666 
L 442.675273 183.281786 
L 442.980061 184.113963 
L 443.284848 201.567776 
L 443.589636 275.288419 
L 443.894424 167.044606 
L 444.199212 197.116117 
L 444.504 201.044624 
L 444.808788 267.46182 
L 445.113576 285.916922 
L 445.418364 133.757534 
L 445.723152 238.229786 
L 446.027939 254.859939 
L 446.332727 154.841779 
L 446.637515 249.043218 
L 446.942303 180.666026 
L 447.247091 200.47159 
L 447.551879 172.816311 
L 447.856667 158.366364 
L 448.161455 188.1617 
L 448.466242 172.591234 
L 448.77103 217.703975 
L 449.075818 100.274585 
L 449.380606 209.473455 
L 449.685394 157.646118 
L 449.990182 261.733913 
L 450.29497 207.344348 
L 450.599758 201.277 
L 450.904545 190.963605 
L 451.514121 266.129607 
L 451.818909 138.082664 
L 452.123697 188.070452 
L 452.428485 261.356757 
L 452.733273 118.032557 
L 453.038061 139.950195 
L 453.342848 224.057231 
L 453.952424 154.195747 
L 454.257212 180.415399 
L 454.562 176.634105 
L 454.866788 212.690232 
L 455.171576 193.179093 
L 455.476364 224.419788 
L 455.781152 133.714952 
L 456.085939 210.401746 
L 456.390727 190.65093 
L 456.695515 139.53289 
L 457.000303 172.180012 
L 457.305091 247.62584 
L 457.609879 166.674749 
L 457.914667 279.79361 
L 458.219455 181.147812 
L 458.524242 207.732454 
L 458.82903 222.634988 
L 459.133818 163.696432 
L 459.438606 208.68751 
L 459.743394 214.762157 
L 460.048182 141.329856 
L 460.35297 170.448744 
L 460.657758 238.015659 
L 460.962545 160.239979 
L 461.267333 249.993408 
L 461.572121 153.711528 
L 461.876909 240.498806 
L 462.181697 186.016776 
L 462.791273 262.272882 
L 463.096061 255.125165 
L 463.400848 164.702588 
L 463.705636 280.983476 
L 464.315212 151.379243 
L 464.62 207.655806 
L 464.924788 201.677273 
L 465.229576 169.526536 
L 465.534364 212.973707 
L 465.839152 154.105717 
L 466.143939 279.439569 
L 466.448727 243.489289 
L 466.753515 145.14035 
L 467.058303 212.463938 
L 467.363091 177.399367 
L 467.667879 160.592802 
L 467.972667 204.740754 
L 468.277455 269.056826 
L 468.582242 192.624309 
L 468.88703 155.709239 
L 469.191818 262.209617 
L 469.496606 142.280047 
L 470.106182 215.224478 
L 470.41097 154.846646 
L 470.715758 201.145604 
L 471.020545 176.894464 
L 471.630121 205.368536 
L 471.934909 149.753821 
L 472.239697 139.732418 
L 472.544485 214.821772 
L 472.849273 250.297566 
L 473.154061 160.000302 
L 473.458848 188.341761 
L 473.763636 185.548373 
L 474.068424 230.78521 
L 474.373212 177.931035 
L 474.678 254.746792 
L 474.982788 100.929134 
L 475.287576 208.604779 
L 475.592364 182.853531 
L 475.897152 147.292573 
L 476.201939 133.953412 
L 476.506727 240.192215 
L 476.811515 121.065622 
L 477.116303 255.926926 
L 477.421091 185.569055 
L 477.725879 179.097786 
L 478.030667 206.162997 
L 478.335455 203.957242 
L 478.640242 147.30109 
L 478.94503 196.459135 
L 479.249818 148.543272 
L 479.554606 188.774883 
L 479.859394 120.119082 
L 480.46897 237.976726 
L 480.773758 167.515442 
L 481.078545 147.164827 
L 481.383333 182.589522 
L 481.688121 161.98098 
L 481.992909 235.140756 
L 482.297697 128.395834 
L 482.602485 229.892202 
L 482.907273 210.236284 
L 483.212061 116.432685 
L 483.821636 208.304271 
L 484.126424 171.923303 
L 484.431212 226.887119 
L 484.736 172.534052 
L 485.040788 165.68806 
L 485.345576 228.438326 
L 485.650364 188.63497 
L 485.955152 187.507151 
L 486.259939 172.019417 
L 486.564727 197.646568 
L 486.869515 245.687745 
L 487.174303 246.236446 
L 487.479091 203.730949 
L 487.783879 225.985594 
L 488.088667 202.041046 
L 488.393455 209.354225 
L 488.698242 198.76587 
L 489.00303 121.148353 
L 489.307818 207.792069 
L 489.612606 163.730498 
L 489.917394 209.519687 
L 490.222182 102.656752 
L 490.52697 178.306975 
L 490.831758 177.131707 
L 491.136545 102.876963 
L 491.441333 136.359912 
L 491.746121 242.87124 
L 492.050909 135.962073 
L 492.355697 239.120361 
L 492.660485 162.69636 
L 492.965273 232.976366 
L 493.270061 184.381622 
L 493.574848 239.693395 
L 493.879636 238.520561 
L 494.489212 213.561341 
L 494.794 73.115693 
L 495.098788 224.644865 
L 495.403576 249.729398 
L 495.708364 215.714781 
L 496.013152 105.586404 
L 496.317939 174.384551 
L 496.622727 165.431351 
L 496.927515 216.905864 
L 497.232303 227.758228 
L 497.537091 132.781795 
L 497.841879 242.850557 
L 498.451455 145.310679 
L 499.06103 172.6326 
L 499.365818 253.863516 
L 499.670606 241.553627 
L 499.975394 182.797566 
L 500.280182 180.954367 
L 500.58497 235.809904 
L 500.889758 192.202137 
L 501.194545 180.846087 
L 501.499333 173.862615 
L 501.804121 285.961937 
L 502.108909 166.948492 
L 502.413697 235.704056 
L 502.718485 217.506881 
L 503.023273 235.230786 
L 503.328061 215.775613 
L 503.632848 134.303803 
L 503.937636 237.463307 
L 504.242424 147.432486 
L 504.852 261.204678 
L 505.156788 159.143793 
L 505.461576 235.620109 
L 505.766364 179.675687 
L 506.071152 276.561016 
L 506.375939 200.362093 
L 506.680727 176.708319 
L 506.985515 235.530078 
L 507.290303 216.123569 
L 507.595091 230.757228 
L 507.899879 207.371114 
L 508.204667 231.069902 
L 508.814242 200.109033 
L 509.11903 255.407423 
L 509.423818 157.281128 
L 509.728606 241.153354 
L 510.033394 197.370393 
L 510.338182 225.641287 
L 510.64297 221.740763 
L 510.947758 199.072462 
L 511.557333 275.24097 
L 511.862121 190.644847 
L 512.166909 223.854054 
L 512.776485 173.2178 
L 513.081273 238.302784 
L 513.690848 150.421753 
L 513.995636 163.861894 
L 514.300424 195.360516 
L 514.605212 141.031781 
L 514.91 142.474708 
L 515.214788 198.728155 
L 515.519576 196.923889 
L 515.824364 149.716106 
L 516.129152 289.064351 
L 517.043515 205.633762 
L 517.348303 246.422591 
L 517.653091 259.922347 
L 517.957879 237.956044 
L 518.262667 193.228975 
L 518.567455 225.986811 
L 519.17703 170.692071 
L 519.481818 189.426998 
L 519.786606 163.602752 
L 520.091394 200.905927 
L 520.396182 147.080879 
L 520.70097 207.62539 
L 521.005758 205.198208 
L 521.310545 172.12648 
L 521.615333 157.176498 
L 521.920121 269.273386 
L 522.224909 186.251586 
L 522.529697 168.988785 
L 522.834485 171.491398 
L 523.139273 236.395104 
L 523.444061 202.160276 
L 523.748848 202.079978 
L 524.053636 190.826125 
L 524.358424 167.253866 
L 524.663212 241.632708 
L 524.968 209.323809 
L 525.272788 224.751929 
L 525.577576 218.763662 
L 525.882364 228.242448 
L 526.187152 224.846826 
L 526.491939 275.305451 
L 526.796727 167.444878 
L 527.406303 226.582961 
L 527.711091 172.287076 
L 528.015879 230.652597 
L 528.320667 106.311517 
L 528.930242 236.528933 
L 529.23503 152.90125 
L 529.539818 277.412659 
L 529.844606 182.67347 
L 530.149394 275.58771 
L 530.454182 260.618261 
L 530.75897 254.066694 
L 531.063758 213.193918 
L 531.368545 209.396807 
L 531.673333 303.850088 
L 531.978121 233.651597 
L 532.282909 189.253019 
L 532.587697 185.430359 
L 533.197273 280.311895 
L 533.502061 163.814446 
L 533.806848 189.737239 
L 534.111636 281.127039 
L 534.416424 120.516921 
L 534.721212 209.662033 
L 535.026 244.378648 
L 535.330788 211.360452 
L 535.635576 232.542028 
L 535.940364 222.201867 
L 536.245152 160.512505 
L 536.549939 152.350116 
L 536.854727 197.855829 
L 537.159515 206.212879 
L 537.464303 256.277316 
L 537.769091 149.20512 
L 538.073879 206.391724 
L 538.378667 236.549616 
L 538.683455 188.513307 
L 538.988242 220.66161 
L 539.29303 226.379783 
L 539.902606 201.15777 
L 540.207394 275.799404 
L 540.512182 243.675434 
L 540.81697 264.02605 
L 541.121758 210.280083 
L 541.426545 294.898105 
L 541.731333 203.179814 
L 542.036121 193.792276 
L 542.340909 259.624272 
L 542.340909 259.624272 
" clip-path="url(#p6d09da97bd)" style="fill: none; stroke: #2ca02c; stroke-width: 1.5; stroke-linecap: square"/>
   </g>
   <g id="patch_3">
    <path d="M 62.3 390.04 
L 62.3 26.88 
" style="fill: none; stroke: #000000; stroke-width: 0.8; stroke-linejoin: miter; stroke-linecap: square"/>
   </g>
   <g id="patch_4">
    <path d="M 565.2 390.04 
L 565.2 26.88 
" style="fill: none; stroke: #000000; stroke-width: 0.8; stroke-linejoin: miter; stroke-linecap: square"/>
   </g>
   <g id="patch_5">
    <path d="M 62.3 390.04 
L 565.2 390.04 
" style="fill: none; stroke: #000000; stroke-width: 0.8; stroke-linejoin: miter; stroke-linecap: square"/>
   </g>
   <g id="patch_6">
    <path d="M 62.3 26.88 
L 565.2 26.88 
" style="fill: none; stroke: #000000; stroke-width: 0.8; stroke-linejoin: miter; stroke-linecap: square"/>
   </g>
   <g id="text_17">
    <!-- Control Difference -->
    <g transform="translate(259.137812 20.88) scale(0.12 -0.12)">
     <defs>
      <path id="DejaVuSans-43" d="M 4122 4306 
L 4122 3641 
Q 3803 3938 3442 4084 
Q 3081 4231 2675 4231 
Q 1875 4231 1450 3742 
Q 1025 3253 1025 2328 
Q 1025 1406 1450 917 
Q 1875 428 2675 428 
Q 3081 428 3442 575 
Q 3803 722 4122 1019 
L 4122 359 
Q 3791 134 3420 21 
Q 3050 -91 2638 -91 
Q 1578 -91 968 557 
Q 359 1206 359 2328 
Q 359 3453 968 4101 
Q 1578 4750 2638 4750 
Q 3056 4750 3426 4639 
Q 3797 4528 4122 4306 
z
" transform="scale(0.015625)"/>
      <path id="DejaVuSans-6c" d="M 603 4863 
L 1178 4863 
L 1178 0 
L 603 0 
L 603 4863 
z
" transform="scale(0.015625)"/>
      <path id="DejaVuSans-20" transform="scale(0.015625)"/>
      <path id="DejaVuSans-63" d="M 3122 3366 
L 3122 2828 
Q 2878 2963 2633 3030 
Q 2388 3097 2138 3097 
Q 1578 3097 1268 2742 
Q 959 2388 959 1747 
Q 959 1106 1268 751 
Q 1578 397 2138 397 
Q 2388 397 2633 464 
Q 2878 531 3122 666 
L 3122 134 
Q 2881 22 2623 -34 
Q 2366 -91 2075 -91 
Q 1284 -91 818 406 
Q 353 903 353 1747 
Q 353 2603 823 3093 
Q 1294 3584 2113 3584 
Q 2378 3584 2631 3529 
Q 2884 3475 3122 3366 
z
" transform="scale(0.015625)"/>
     </defs>
     <use xlink:href="#DejaVuSans-43"/>
     <use xlink:href="#DejaVuSans-6f" transform="translate(69.824219 0)"/>
     <use xlink:href="#DejaVuSans-6e" transform="translate(131.005859 0)"/>
     <use xlink:href="#DejaVuSans-74" transform="translate(194.384766 0)"/>
     <use xlink:href="#DejaVuSans-72" transform="translate(233.59375 0)"/>
     <use xlink:href="#DejaVuSans-6f" transform="translate(272.457031 0)"/>
     <use xlink:href="#DejaVuSans-6c" transform="translate(333.638672 0)"/>
     <use xlink:href="#DejaVuSans-20" transform="translate(361.421875 0)"/>
     <use xlink:href="#DejaVuSans-44" transform="translate(393.208984 0)"/>
     <use xlink:href="#DejaVuSans-69" transform="translate(470.210938 0)"/>
     <use xlink:href="#DejaVuSans-66" transform="translate(497.994141 0)"/>
     <use xlink:href="#DejaVuSans-66" transform="translate(533.199219 0)"/>
     <use xlink:href="#DejaVuSans-65" transform="translate(568.404297 0)"/>
     <use xlink:href="#DejaVuSans-72" transform="translate(629.927734 0)"/>
     <use xlink:href="#DejaVuSans-65" transform="translate(668.791016 0)"/>
     <use xlink:href="#DejaVuSans-6e" transform="translate(730.314453 0)"/>
     <use xlink:href="#DejaVuSans-63" transform="translate(793.693359 0)"/>
     <use xlink:href="#DejaVuSans-65" transform="translate(848.673828 0)"/>
    </g>
   </g>
   <g id="legend_1">
    <g id="patch_7">
     <path d="M 400.464062 49.558125 
L 558.2 49.558125 
Q 560.2 49.558125 560.2 47.558125 
L 560.2 33.88 
Q 560.2 31.88 558.2 31.88 
L 400.464062 31.88 
Q 398.464062 31.88 398.464062 33.88 
L 398.464062 47.558125 
Q 398.464062 49.558125 400.464062 49.558125 
z
" style="fill: #ffffff; opacity: 0.8; stroke: #cccccc; stroke-linejoin: miter"/>
    </g>
    <g id="line2d_30">
     <path d="M 402.464062 39.978438 
L 412.464062 39.978438 
L 422.464062 39.978438 
" style="fill: none; stroke: #2ca02c; stroke-width: 1.5; stroke-linecap: square"/>
    </g>
    <g id="text_18">
     <!-- uDiff = uLocal - uRemote -->
     <g transform="translate(430.464062 43.478438) scale(0.1 -0.1)">
      <defs>
       <path id="DejaVuSans-3d" d="M 678 2906 
L 4684 2906 
L 4684 2381 
L 678 2381 
L 678 2906 
z
M 678 1631 
L 4684 1631 
L 4684 1100 
L 678 1100 
L 678 1631 
z
" transform="scale(0.015625)"/>
       <path id="DejaVuSans-4c" d="M 628 4666 
L 1259 4666 
L 1259 531 
L 3531 531 
L 3531 0 
L 628 0 
L 628 4666 
z
" transform="scale(0.015625)"/>
       <path id="DejaVuSans-2d" d="M 313 2009 
L 1997 2009 
L 1997 1497 
L 313 1497 
L 313 2009 
z
" transform="scale(0.015625)"/>
       <path id="DejaVuSans-52" d="M 2841 2188 
Q 3044 2119 3236 1894 
Q 3428 1669 3622 1275 
L 4263 0 
L 3584 0 
L 2988 1197 
Q 2756 1666 2539 1819 
Q 2322 1972 1947 1972 
L 1259 1972 
L 1259 0 
L 628 0 
L 628 4666 
L 2053 4666 
Q 2853 4666 3247 4331 
Q 3641 3997 3641 3322 
Q 3641 2881 3436 2590 
Q 3231 2300 2841 2188 
z
M 1259 4147 
L 1259 2491 
L 2053 2491 
Q 2509 2491 2742 2702 
Q 2975 2913 2975 3322 
Q 2975 3731 2742 3939 
Q 2509 4147 2053 4147 
L 1259 4147 
z
" transform="scale(0.015625)"/>
       <path id="DejaVuSans-6d" d="M 3328 2828 
Q 3544 3216 3844 3400 
Q 4144 3584 4550 3584 
Q 5097 3584 5394 3201 
Q 5691 2819 5691 2113 
L 5691 0 
L 5113 0 
L 5113 2094 
Q 5113 2597 4934 2840 
Q 4756 3084 4391 3084 
Q 3944 3084 3684 2787 
Q 3425 2491 3425 1978 
L 3425 0 
L 2847 0 
L 2847 2094 
Q 2847 2600 2669 2842 
Q 2491 3084 2119 3084 
Q 1678 3084 1418 2786 
Q 1159 2488 1159 1978 
L 1159 0 
L 581 0 
L 581 3500 
L 1159 3500 
L 1159 2956 
Q 1356 3278 1631 3431 
Q 1906 3584 2284 3584 
Q 2666 3584 2933 3390 
Q 3200 3197 3328 2828 
z
" transform="scale(0.015625)"/>
      </defs>
      <use xlink:href="#DejaVuSans-75"/>
      <use xlink:href="#DejaVuSans-44" transform="translate(63.378906 0)"/>
      <use xlink:href="#DejaVuSans-69" transform="translate(140.380859 0)"/>
      <use xlink:href="#DejaVuSans-66" transform="translate(168.164062 0)"/>
      <use xlink:href="#DejaVuSans-66" transform="translate(203.369141 0)"/>
      <use xlink:href="#DejaVuSans-20" transform="translate(238.574219 0)"/>
      <use xlink:href="#DejaVuSans-3d" transform="translate(270.361328 0)"/>
      <use xlink:href="#DejaVuSans-20" transform="translate(354.150391 0)"/>
      <use xlink:href="#DejaVuSans-75" transform="translate(385.9375 0)"/>
      <use xlink:href="#DejaVuSans-4c" transform="translate(449.316406 0)"/>
      <use xlink:href="#DejaVuSans-6f" transform="translate(503.279297 0)"/>
      <use xlink:href="#DejaVuSans-63" transform="translate(564.460938 0)"/>
      <use xlink:href="#DejaVuSans-61" transform="translate(619.441406 0)"/>
      <use xlink:href="#DejaVuSans-6c" transform="translate(680.720703 0)"/>
      <use xlink:href="#DejaVuSans-20" transform="translate(708.503906 0)"/>
      <use xlink:href="#DejaVuSans-2d" transform="translate(740.291016 0)"/>
      <use xlink:href="#DejaVuSans-20" transform="translate(776.375 0)"/>
      <use xlink:href="#DejaVuSans-75" transform="translate(808.162109 0)"/>
      <use xlink:href="#DejaVuSans-52" transform="translate(871.541016 0)"/>
      <use xlink:href="#DejaVuSans-65" transform="translate(936.523438 0)"/>
      <use xlink:href="#DejaVuSans-6d" transform="translate(998.046875 0)"/>
      <use xlink:href="#DejaVuSans-6f" transform="translate(1095.458984 0)"/>
      <use xlink:href="#DejaVuSans-74" transform="translate(1156.640625 0)"/>
      <use xlink:href="#DejaVuSans-65" transform="translate(1195.849609 0)"/>
     </g>
    </g>
   </g>
  </g>
 </g>
 <defs>
  <clipPath id="p6d09da97bd">
   <rect x="62.3" y="26.88" width="502.9" height="363.16"/>
  </clipPath>
 </defs>
</svg>
