<?xml version="1.0" encoding="utf-8" standalone="no"?>
<!DOCTYPE svg PUBLIC "-//W3C//DTD SVG 1.1//EN"
  "http://www.w3.org/Graphics/SVG/1.1/DTD/svg11.dtd">
<svg xmlns:xlink="http://www.w3.org/1999/xlink" width="576pt" height="432pt" viewBox="0 0 576 432" xmlns="http://www.w3.org/2000/svg" version="1.1">
 <metadata>
  <rdf:RDF xmlns:dc="http://purl.org/dc/elements/1.1/" xmlns:cc="http://creativecommons.org/ns#" xmlns:rdf="http://www.w3.org/1999/02/22-rdf-syntax-ns#">
   <cc:Work>
    <dc:type rdf:resource="http://purl.org/dc/dcmitype/StillImage"/>
    <dc:date>2025-08-03T18:06:22.975695</dc:date>
    <dc:format>image/svg+xml</dc:format>
    <dc:creator>
     <cc:Agent>
      <dc:title>Matplotlib v3.6.3, https://matplotlib.org/</dc:title>
     </cc:Agent>
    </dc:creator>
   </cc:Work>
  </rdf:RDF>
 </metadata>
 <defs>
  <style type="text/css">*{stroke-linejoin: round; stroke-linecap: butt}</style>
 </defs>
 <g id="figure_1">
  <g id="patch_1">
   <path d="M 0 432 
L 576 432 
L 576 0 
L 0 0 
z
" style="fill: #ffffff"/>
  </g>
  <g id="axes_1">
   <g id="patch_2">
    <path d="M 62.57 390.04 
L 565.2 390.04 
L 565.2 25.44 
L 62.57 25.44 
z
" style="fill: #ffffff"/>
   </g>
   <g id="matplotlib.axis_1">
    <g id="xtick_1">
     <g id="line2d_1">
      <path d="M 85.416818 390.04 
L 85.416818 25.44 
" clip-path="url(#pb65de92fd5)" style="fill: none; stroke: #b0b0b0; stroke-width: 0.8; stroke-linecap: square"/>
     </g>
     <g id="line2d_2">
      <defs>
       <path id="m831b8ea24e" d="M 0 0 
L 0 3.5 
" style="stroke: #000000; stroke-width: 0.8"/>
      </defs>
      <g>
       <use xlink:href="#m831b8ea24e" x="85.416818" y="390.04" style="stroke: #000000; stroke-width: 0.8"/>
      </g>
     </g>
     <g id="text_1">
      <!-- 0 -->
      <g transform="translate(82.235568 404.638438) scale(0.1 -0.1)">
       <defs>
        <path id="DejaVuSans-30" d="M 2034 4250 
Q 1547 4250 1301 3770 
Q 1056 3291 1056 2328 
Q 1056 1369 1301 889 
Q 1547 409 2034 409 
Q 2525 409 2770 889 
Q 3016 1369 3016 2328 
Q 3016 3291 2770 3770 
Q 2525 4250 2034 4250 
z
M 2034 4750 
Q 2819 4750 3233 4129 
Q 3647 3509 3647 2328 
Q 3647 1150 3233 529 
Q 2819 -91 2034 -91 
Q 1250 -91 836 529 
Q 422 1150 422 2328 
Q 422 3509 836 4129 
Q 1250 4750 2034 4750 
z
" transform="scale(0.015625)"/>
       </defs>
       <use xlink:href="#DejaVuSans-30"/>
      </g>
     </g>
    </g>
    <g id="xtick_2">
     <g id="line2d_3">
      <path d="M 176.89557 390.04 
L 176.89557 25.44 
" clip-path="url(#pb65de92fd5)" style="fill: none; stroke: #b0b0b0; stroke-width: 0.8; stroke-linecap: square"/>
     </g>
     <g id="line2d_4">
      <g>
       <use xlink:href="#m831b8ea24e" x="176.89557" y="390.04" style="stroke: #000000; stroke-width: 0.8"/>
      </g>
     </g>
     <g id="text_2">
      <!-- 200 -->
      <g transform="translate(167.35182 404.638438) scale(0.1 -0.1)">
       <defs>
        <path id="DejaVuSans-32" d="M 1228 531 
L 3431 531 
L 3431 0 
L 469 0 
L 469 531 
Q 828 903 1448 1529 
Q 2069 2156 2228 2338 
Q 2531 2678 2651 2914 
Q 2772 3150 2772 3378 
Q 2772 3750 2511 3984 
Q 2250 4219 1831 4219 
Q 1534 4219 1204 4116 
Q 875 4013 500 3803 
L 500 4441 
Q 881 4594 1212 4672 
Q 1544 4750 1819 4750 
Q 2544 4750 2975 4387 
Q 3406 4025 3406 3419 
Q 3406 3131 3298 2873 
Q 3191 2616 2906 2266 
Q 2828 2175 2409 1742 
Q 1991 1309 1228 531 
z
" transform="scale(0.015625)"/>
       </defs>
       <use xlink:href="#DejaVuSans-32"/>
       <use xlink:href="#DejaVuSans-30" x="63.623047"/>
       <use xlink:href="#DejaVuSans-30" x="127.246094"/>
      </g>
     </g>
    </g>
    <g id="xtick_3">
     <g id="line2d_5">
      <path d="M 268.374321 390.04 
L 268.374321 25.44 
" clip-path="url(#pb65de92fd5)" style="fill: none; stroke: #b0b0b0; stroke-width: 0.8; stroke-linecap: square"/>
     </g>
     <g id="line2d_6">
      <g>
       <use xlink:href="#m831b8ea24e" x="268.374321" y="390.04" style="stroke: #000000; stroke-width: 0.8"/>
      </g>
     </g>
     <g id="text_3">
      <!-- 400 -->
      <g transform="translate(258.830571 404.638438) scale(0.1 -0.1)">
       <defs>
        <path id="DejaVuSans-34" d="M 2419 4116 
L 825 1625 
L 2419 1625 
L 2419 4116 
z
M 2253 4666 
L 3047 4666 
L 3047 1625 
L 3713 1625 
L 3713 1100 
L 3047 1100 
L 3047 0 
L 2419 0 
L 2419 1100 
L 313 1100 
L 313 1709 
L 2253 4666 
z
" transform="scale(0.015625)"/>
       </defs>
       <use xlink:href="#DejaVuSans-34"/>
       <use xlink:href="#DejaVuSans-30" x="63.623047"/>
       <use xlink:href="#DejaVuSans-30" x="127.246094"/>
      </g>
     </g>
    </g>
    <g id="xtick_4">
     <g id="line2d_7">
      <path d="M 359.853073 390.04 
L 359.853073 25.44 
" clip-path="url(#pb65de92fd5)" style="fill: none; stroke: #b0b0b0; stroke-width: 0.8; stroke-linecap: square"/>
     </g>
     <g id="line2d_8">
      <g>
       <use xlink:href="#m831b8ea24e" x="359.853073" y="390.04" style="stroke: #000000; stroke-width: 0.8"/>
      </g>
     </g>
     <g id="text_4">
      <!-- 600 -->
      <g transform="translate(350.309323 404.638438) scale(0.1 -0.1)">
       <defs>
        <path id="DejaVuSans-36" d="M 2113 2584 
Q 1688 2584 1439 2293 
Q 1191 2003 1191 1497 
Q 1191 994 1439 701 
Q 1688 409 2113 409 
Q 2538 409 2786 701 
Q 3034 994 3034 1497 
Q 3034 2003 2786 2293 
Q 2538 2584 2113 2584 
z
M 3366 4563 
L 3366 3988 
Q 3128 4100 2886 4159 
Q 2644 4219 2406 4219 
Q 1781 4219 1451 3797 
Q 1122 3375 1075 2522 
Q 1259 2794 1537 2939 
Q 1816 3084 2150 3084 
Q 2853 3084 3261 2657 
Q 3669 2231 3669 1497 
Q 3669 778 3244 343 
Q 2819 -91 2113 -91 
Q 1303 -91 875 529 
Q 447 1150 447 2328 
Q 447 3434 972 4092 
Q 1497 4750 2381 4750 
Q 2619 4750 2861 4703 
Q 3103 4656 3366 4563 
z
" transform="scale(0.015625)"/>
       </defs>
       <use xlink:href="#DejaVuSans-36"/>
       <use xlink:href="#DejaVuSans-30" x="63.623047"/>
       <use xlink:href="#DejaVuSans-30" x="127.246094"/>
      </g>
     </g>
    </g>
    <g id="xtick_5">
     <g id="line2d_9">
      <path d="M 451.331824 390.04 
L 451.331824 25.44 
" clip-path="url(#pb65de92fd5)" style="fill: none; stroke: #b0b0b0; stroke-width: 0.8; stroke-linecap: square"/>
     </g>
     <g id="line2d_10">
      <g>
       <use xlink:href="#m831b8ea24e" x="451.331824" y="390.04" style="stroke: #000000; stroke-width: 0.8"/>
      </g>
     </g>
     <g id="text_5">
      <!-- 800 -->
      <g transform="translate(441.788074 404.638438) scale(0.1 -0.1)">
       <defs>
        <path id="DejaVuSans-38" d="M 2034 2216 
Q 1584 2216 1326 1975 
Q 1069 1734 1069 1313 
Q 1069 891 1326 650 
Q 1584 409 2034 409 
Q 2484 409 2743 651 
Q 3003 894 3003 1313 
Q 3003 1734 2745 1975 
Q 2488 2216 2034 2216 
z
M 1403 2484 
Q 997 2584 770 2862 
Q 544 3141 544 3541 
Q 544 4100 942 4425 
Q 1341 4750 2034 4750 
Q 2731 4750 3128 4425 
Q 3525 4100 3525 3541 
Q 3525 3141 3298 2862 
Q 3072 2584 2669 2484 
Q 3125 2378 3379 2068 
Q 3634 1759 3634 1313 
Q 3634 634 3220 271 
Q 2806 -91 2034 -91 
Q 1263 -91 848 271 
Q 434 634 434 1313 
Q 434 1759 690 2068 
Q 947 2378 1403 2484 
z
M 1172 3481 
Q 1172 3119 1398 2916 
Q 1625 2713 2034 2713 
Q 2441 2713 2670 2916 
Q 2900 3119 2900 3481 
Q 2900 3844 2670 4047 
Q 2441 4250 2034 4250 
Q 1625 4250 1398 4047 
Q 1172 3844 1172 3481 
z
" transform="scale(0.015625)"/>
       </defs>
       <use xlink:href="#DejaVuSans-38"/>
       <use xlink:href="#DejaVuSans-30" x="63.623047"/>
       <use xlink:href="#DejaVuSans-30" x="127.246094"/>
      </g>
     </g>
    </g>
    <g id="xtick_6">
     <g id="line2d_11">
      <path d="M 542.810576 390.04 
L 542.810576 25.44 
" clip-path="url(#pb65de92fd5)" style="fill: none; stroke: #b0b0b0; stroke-width: 0.8; stroke-linecap: square"/>
     </g>
     <g id="line2d_12">
      <g>
       <use xlink:href="#m831b8ea24e" x="542.810576" y="390.04" style="stroke: #000000; stroke-width: 0.8"/>
      </g>
     </g>
     <g id="text_6">
      <!-- 1000 -->
      <g transform="translate(530.085576 404.638438) scale(0.1 -0.1)">
       <defs>
        <path id="DejaVuSans-31" d="M 794 531 
L 1825 531 
L 1825 4091 
L 703 3866 
L 703 4441 
L 1819 4666 
L 2450 4666 
L 2450 531 
L 3481 531 
L 3481 0 
L 794 0 
L 794 531 
z
" transform="scale(0.015625)"/>
       </defs>
       <use xlink:href="#DejaVuSans-31"/>
       <use xlink:href="#DejaVuSans-30" x="63.623047"/>
       <use xlink:href="#DejaVuSans-30" x="127.246094"/>
       <use xlink:href="#DejaVuSans-30" x="190.869141"/>
      </g>
     </g>
    </g>
    <g id="text_7">
     <!-- Iteration -->
     <g transform="translate(292.676406 418.316562) scale(0.1 -0.1)">
      <defs>
       <path id="DejaVuSans-49" d="M 628 4666 
L 1259 4666 
L 1259 0 
L 628 0 
L 628 4666 
z
" transform="scale(0.015625)"/>
       <path id="DejaVuSans-74" d="M 1172 4494 
L 1172 3500 
L 2356 3500 
L 2356 3053 
L 1172 3053 
L 1172 1153 
Q 1172 725 1289 603 
Q 1406 481 1766 481 
L 2356 481 
L 2356 0 
L 1766 0 
Q 1100 0 847 248 
Q 594 497 594 1153 
L 594 3053 
L 172 3053 
L 172 3500 
L 594 3500 
L 594 4494 
L 1172 4494 
z
" transform="scale(0.015625)"/>
       <path id="DejaVuSans-65" d="M 3597 1894 
L 3597 1613 
L 953 1613 
Q 991 1019 1311 708 
Q 1631 397 2203 397 
Q 2534 397 2845 478 
Q 3156 559 3463 722 
L 3463 178 
Q 3153 47 2828 -22 
Q 2503 -91 2169 -91 
Q 1331 -91 842 396 
Q 353 884 353 1716 
Q 353 2575 817 3079 
Q 1281 3584 2069 3584 
Q 2775 3584 3186 3129 
Q 3597 2675 3597 1894 
z
M 3022 2063 
Q 3016 2534 2758 2815 
Q 2500 3097 2075 3097 
Q 1594 3097 1305 2825 
Q 1016 2553 972 2059 
L 3022 2063 
z
" transform="scale(0.015625)"/>
       <path id="DejaVuSans-72" d="M 2631 2963 
Q 2534 3019 2420 3045 
Q 2306 3072 2169 3072 
Q 1681 3072 1420 2755 
Q 1159 2438 1159 1844 
L 1159 0 
L 581 0 
L 581 3500 
L 1159 3500 
L 1159 2956 
Q 1341 3275 1631 3429 
Q 1922 3584 2338 3584 
Q 2397 3584 2469 3576 
Q 2541 3569 2628 3553 
L 2631 2963 
z
" transform="scale(0.015625)"/>
       <path id="DejaVuSans-61" d="M 2194 1759 
Q 1497 1759 1228 1600 
Q 959 1441 959 1056 
Q 959 750 1161 570 
Q 1363 391 1709 391 
Q 2188 391 2477 730 
Q 2766 1069 2766 1631 
L 2766 1759 
L 2194 1759 
z
M 3341 1997 
L 3341 0 
L 2766 0 
L 2766 531 
Q 2569 213 2275 61 
Q 1981 -91 1556 -91 
Q 1019 -91 701 211 
Q 384 513 384 1019 
Q 384 1609 779 1909 
Q 1175 2209 1959 2209 
L 2766 2209 
L 2766 2266 
Q 2766 2663 2505 2880 
Q 2244 3097 1772 3097 
Q 1472 3097 1187 3025 
Q 903 2953 641 2809 
L 641 3341 
Q 956 3463 1253 3523 
Q 1550 3584 1831 3584 
Q 2591 3584 2966 3190 
Q 3341 2797 3341 1997 
z
" transform="scale(0.015625)"/>
       <path id="DejaVuSans-69" d="M 603 3500 
L 1178 3500 
L 1178 0 
L 603 0 
L 603 3500 
z
M 603 4863 
L 1178 4863 
L 1178 4134 
L 603 4134 
L 603 4863 
z
" transform="scale(0.015625)"/>
       <path id="DejaVuSans-6f" d="M 1959 3097 
Q 1497 3097 1228 2736 
Q 959 2375 959 1747 
Q 959 1119 1226 758 
Q 1494 397 1959 397 
Q 2419 397 2687 759 
Q 2956 1122 2956 1747 
Q 2956 2369 2687 2733 
Q 2419 3097 1959 3097 
z
M 1959 3584 
Q 2709 3584 3137 3096 
Q 3566 2609 3566 1747 
Q 3566 888 3137 398 
Q 2709 -91 1959 -91 
Q 1206 -91 779 398 
Q 353 888 353 1747 
Q 353 2609 779 3096 
Q 1206 3584 1959 3584 
z
" transform="scale(0.015625)"/>
       <path id="DejaVuSans-6e" d="M 3513 2113 
L 3513 0 
L 2938 0 
L 2938 2094 
Q 2938 2591 2744 2837 
Q 2550 3084 2163 3084 
Q 1697 3084 1428 2787 
Q 1159 2491 1159 1978 
L 1159 0 
L 581 0 
L 581 3500 
L 1159 3500 
L 1159 2956 
Q 1366 3272 1645 3428 
Q 1925 3584 2291 3584 
Q 2894 3584 3203 3211 
Q 3513 2838 3513 2113 
z
" transform="scale(0.015625)"/>
      </defs>
      <use xlink:href="#DejaVuSans-49"/>
      <use xlink:href="#DejaVuSans-74" x="29.492188"/>
      <use xlink:href="#DejaVuSans-65" x="68.701172"/>
      <use xlink:href="#DejaVuSans-72" x="130.224609"/>
      <use xlink:href="#DejaVuSans-61" x="171.337891"/>
      <use xlink:href="#DejaVuSans-74" x="232.617188"/>
      <use xlink:href="#DejaVuSans-69" x="271.826172"/>
      <use xlink:href="#DejaVuSans-6f" x="299.609375"/>
      <use xlink:href="#DejaVuSans-6e" x="360.791016"/>
     </g>
    </g>
   </g>
   <g id="matplotlib.axis_2">
    <g id="ytick_1">
     <g id="line2d_13">
      <path d="M 62.57 370.435676 
L 565.2 370.435676 
" clip-path="url(#pb65de92fd5)" style="fill: none; stroke: #b0b0b0; stroke-width: 0.8; stroke-linecap: square"/>
     </g>
     <g id="line2d_14">
      <defs>
       <path id="m4d06f9c568" d="M 0 0 
L -3.5 0 
" style="stroke: #000000; stroke-width: 0.8"/>
      </defs>
      <g>
       <use xlink:href="#m4d06f9c568" x="62.57" y="370.435676" style="stroke: #000000; stroke-width: 0.8"/>
      </g>
     </g>
     <g id="text_8">
      <!-- −0.10 -->
      <g transform="translate(24.924688 374.234895) scale(0.1 -0.1)">
       <defs>
        <path id="DejaVuSans-2212" d="M 678 2272 
L 4684 2272 
L 4684 1741 
L 678 1741 
L 678 2272 
z
" transform="scale(0.015625)"/>
        <path id="DejaVuSans-2e" d="M 684 794 
L 1344 794 
L 1344 0 
L 684 0 
L 684 794 
z
" transform="scale(0.015625)"/>
       </defs>
       <use xlink:href="#DejaVuSans-2212"/>
       <use xlink:href="#DejaVuSans-30" x="83.789062"/>
       <use xlink:href="#DejaVuSans-2e" x="147.412109"/>
       <use xlink:href="#DejaVuSans-31" x="179.199219"/>
       <use xlink:href="#DejaVuSans-30" x="242.822266"/>
      </g>
     </g>
    </g>
    <g id="ytick_2">
     <g id="line2d_15">
      <path d="M 62.57 319.909069 
L 565.2 319.909069 
" clip-path="url(#pb65de92fd5)" style="fill: none; stroke: #b0b0b0; stroke-width: 0.8; stroke-linecap: square"/>
     </g>
     <g id="line2d_16">
      <g>
       <use xlink:href="#m4d06f9c568" x="62.57" y="319.909069" style="stroke: #000000; stroke-width: 0.8"/>
      </g>
     </g>
     <g id="text_9">
      <!-- −0.05 -->
      <g transform="translate(24.924688 323.708287) scale(0.1 -0.1)">
       <defs>
        <path id="DejaVuSans-35" d="M 691 4666 
L 3169 4666 
L 3169 4134 
L 1269 4134 
L 1269 2991 
Q 1406 3038 1543 3061 
Q 1681 3084 1819 3084 
Q 2600 3084 3056 2656 
Q 3513 2228 3513 1497 
Q 3513 744 3044 326 
Q 2575 -91 1722 -91 
Q 1428 -91 1123 -41 
Q 819 9 494 109 
L 494 744 
Q 775 591 1075 516 
Q 1375 441 1709 441 
Q 2250 441 2565 725 
Q 2881 1009 2881 1497 
Q 2881 1984 2565 2268 
Q 2250 2553 1709 2553 
Q 1456 2553 1204 2497 
Q 953 2441 691 2322 
L 691 4666 
z
" transform="scale(0.015625)"/>
       </defs>
       <use xlink:href="#DejaVuSans-2212"/>
       <use xlink:href="#DejaVuSans-30" x="83.789062"/>
       <use xlink:href="#DejaVuSans-2e" x="147.412109"/>
       <use xlink:href="#DejaVuSans-30" x="179.199219"/>
       <use xlink:href="#DejaVuSans-35" x="242.822266"/>
      </g>
     </g>
    </g>
    <g id="ytick_3">
     <g id="line2d_17">
      <path d="M 62.57 269.382461 
L 565.2 269.382461 
" clip-path="url(#pb65de92fd5)" style="fill: none; stroke: #b0b0b0; stroke-width: 0.8; stroke-linecap: square"/>
     </g>
     <g id="line2d_18">
      <g>
       <use xlink:href="#m4d06f9c568" x="62.57" y="269.382461" style="stroke: #000000; stroke-width: 0.8"/>
      </g>
     </g>
     <g id="text_10">
      <!-- 0.00 -->
      <g transform="translate(33.304375 273.18168) scale(0.1 -0.1)">
       <use xlink:href="#DejaVuSans-30"/>
       <use xlink:href="#DejaVuSans-2e" x="63.623047"/>
       <use xlink:href="#DejaVuSans-30" x="95.410156"/>
       <use xlink:href="#DejaVuSans-30" x="159.033203"/>
      </g>
     </g>
    </g>
    <g id="ytick_4">
     <g id="line2d_19">
      <path d="M 62.57 218.855854 
L 565.2 218.855854 
" clip-path="url(#pb65de92fd5)" style="fill: none; stroke: #b0b0b0; stroke-width: 0.8; stroke-linecap: square"/>
     </g>
     <g id="line2d_20">
      <g>
       <use xlink:href="#m4d06f9c568" x="62.57" y="218.855854" style="stroke: #000000; stroke-width: 0.8"/>
      </g>
     </g>
     <g id="text_11">
      <!-- 0.05 -->
      <g transform="translate(33.304375 222.655072) scale(0.1 -0.1)">
       <use xlink:href="#DejaVuSans-30"/>
       <use xlink:href="#DejaVuSans-2e" x="63.623047"/>
       <use xlink:href="#DejaVuSans-30" x="95.410156"/>
       <use xlink:href="#DejaVuSans-35" x="159.033203"/>
      </g>
     </g>
    </g>
    <g id="ytick_5">
     <g id="line2d_21">
      <path d="M 62.57 168.329246 
L 565.2 168.329246 
" clip-path="url(#pb65de92fd5)" style="fill: none; stroke: #b0b0b0; stroke-width: 0.8; stroke-linecap: square"/>
     </g>
     <g id="line2d_22">
      <g>
       <use xlink:href="#m4d06f9c568" x="62.57" y="168.329246" style="stroke: #000000; stroke-width: 0.8"/>
      </g>
     </g>
     <g id="text_12">
      <!-- 0.10 -->
      <g transform="translate(33.304375 172.128465) scale(0.1 -0.1)">
       <use xlink:href="#DejaVuSans-30"/>
       <use xlink:href="#DejaVuSans-2e" x="63.623047"/>
       <use xlink:href="#DejaVuSans-31" x="95.410156"/>
       <use xlink:href="#DejaVuSans-30" x="159.033203"/>
      </g>
     </g>
    </g>
    <g id="ytick_6">
     <g id="line2d_23">
      <path d="M 62.57 117.802639 
L 565.2 117.802639 
" clip-path="url(#pb65de92fd5)" style="fill: none; stroke: #b0b0b0; stroke-width: 0.8; stroke-linecap: square"/>
     </g>
     <g id="line2d_24">
      <g>
       <use xlink:href="#m4d06f9c568" x="62.57" y="117.802639" style="stroke: #000000; stroke-width: 0.8"/>
      </g>
     </g>
     <g id="text_13">
      <!-- 0.15 -->
      <g transform="translate(33.304375 121.601857) scale(0.1 -0.1)">
       <use xlink:href="#DejaVuSans-30"/>
       <use xlink:href="#DejaVuSans-2e" x="63.623047"/>
       <use xlink:href="#DejaVuSans-31" x="95.410156"/>
       <use xlink:href="#DejaVuSans-35" x="159.033203"/>
      </g>
     </g>
    </g>
    <g id="ytick_7">
     <g id="line2d_25">
      <path d="M 62.57 67.276031 
L 565.2 67.276031 
" clip-path="url(#pb65de92fd5)" style="fill: none; stroke: #b0b0b0; stroke-width: 0.8; stroke-linecap: square"/>
     </g>
     <g id="line2d_26">
      <g>
       <use xlink:href="#m4d06f9c568" x="62.57" y="67.276031" style="stroke: #000000; stroke-width: 0.8"/>
      </g>
     </g>
     <g id="text_14">
      <!-- 0.20 -->
      <g transform="translate(33.304375 71.07525) scale(0.1 -0.1)">
       <use xlink:href="#DejaVuSans-30"/>
       <use xlink:href="#DejaVuSans-2e" x="63.623047"/>
       <use xlink:href="#DejaVuSans-32" x="95.410156"/>
       <use xlink:href="#DejaVuSans-30" x="159.033203"/>
      </g>
     </g>
    </g>
    <g id="text_15">
     <!-- uDiff -->
     <g transform="translate(18.845 219.668125) rotate(-90) scale(0.1 -0.1)">
      <defs>
       <path id="DejaVuSans-75" d="M 544 1381 
L 544 3500 
L 1119 3500 
L 1119 1403 
Q 1119 906 1312 657 
Q 1506 409 1894 409 
Q 2359 409 2629 706 
Q 2900 1003 2900 1516 
L 2900 3500 
L 3475 3500 
L 3475 0 
L 2900 0 
L 2900 538 
Q 2691 219 2414 64 
Q 2138 -91 1772 -91 
Q 1169 -91 856 284 
Q 544 659 544 1381 
z
M 1991 3584 
L 1991 3584 
z
" transform="scale(0.015625)"/>
       <path id="DejaVuSans-44" d="M 1259 4147 
L 1259 519 
L 2022 519 
Q 2988 519 3436 956 
Q 3884 1394 3884 2338 
Q 3884 3275 3436 3711 
Q 2988 4147 2022 4147 
L 1259 4147 
z
M 628 4666 
L 1925 4666 
Q 3281 4666 3915 4102 
Q 4550 3538 4550 2338 
Q 4550 1131 3912 565 
Q 3275 0 1925 0 
L 628 0 
L 628 4666 
z
" transform="scale(0.015625)"/>
       <path id="DejaVuSans-66" d="M 2375 4863 
L 2375 4384 
L 1825 4384 
Q 1516 4384 1395 4259 
Q 1275 4134 1275 3809 
L 1275 3500 
L 2222 3500 
L 2222 3053 
L 1275 3053 
L 1275 0 
L 697 0 
L 697 3053 
L 147 3053 
L 147 3500 
L 697 3500 
L 697 3744 
Q 697 4328 969 4595 
Q 1241 4863 1831 4863 
L 2375 4863 
z
" transform="scale(0.015625)"/>
      </defs>
      <use xlink:href="#DejaVuSans-75"/>
      <use xlink:href="#DejaVuSans-44" x="63.378906"/>
      <use xlink:href="#DejaVuSans-69" x="140.380859"/>
      <use xlink:href="#DejaVuSans-66" x="168.164062"/>
      <use xlink:href="#DejaVuSans-66" x="203.369141"/>
     </g>
    </g>
   </g>
   <g id="line2d_27">
    <path d="M 85.416818 282.519379 
L 85.874212 346.182905 
L 86.331606 312.835344 
L 86.788999 267.361397 
L 87.246393 236.0349 
L 88.161181 315.86694 
L 88.618574 307.782683 
L 89.075968 266.350865 
L 89.533362 302.730022 
L 89.990756 253.213947 
L 90.44815 252.203415 
L 90.905543 334.056519 
L 91.362937 307.782683 
L 91.820331 268.371929 
L 92.277725 245.12969 
L 92.735118 231.992772 
L 93.192512 283.529911 
L 93.649906 257.256075 
L 94.1073 206.729468 
L 94.564693 228.961175 
L 95.022087 302.730022 
L 95.479481 249.171818 
L 95.936875 335.067051 
L 96.394268 230.982239 
L 96.851662 185.508293 
L 97.309056 255.235011 
L 97.76645 248.161286 
L 98.223843 234.013836 
L 98.681237 233.003304 
L 99.596025 262.308736 
L 100.053418 263.319268 
L 100.510812 244.119157 
L 100.968206 234.013836 
L 101.4256 208.750532 
L 101.882993 312.835344 
L 102.340387 293.635233 
L 102.797781 206.729468 
L 103.255175 201.676807 
L 103.712568 145.087007 
L 104.169962 277.466718 
L 104.627356 217.845322 
L 105.08475 207.74 
L 105.542144 201.676807 
L 105.999537 189.550421 
L 106.456931 218.855854 
L 106.914325 220.876918 
L 107.371719 322.940665 
L 107.829112 215.824257 
L 108.286506 225.929579 
L 108.7439 161.255521 
L 109.201294 308.793215 
L 109.658687 154.181796 
L 110.116081 249.171818 
L 110.573475 253.213947 
L 111.030869 210.771596 
L 111.488262 261.298204 
L 111.945656 198.645211 
L 112.40305 265.340333 
L 112.860444 224.919047 
L 113.317837 241.087561 
L 113.775231 253.213947 
L 114.232625 249.171818 
L 115.147412 373.467273 
L 115.604806 260.287672 
L 116.0622 182.476696 
L 116.519594 248.161286 
L 116.976987 230.982239 
L 117.434381 238.055965 
L 117.891775 256.245543 
L 118.349169 236.0349 
L 118.806562 208.750532 
L 119.263956 237.045432 
L 119.72135 289.593104 
L 120.178744 172.371375 
L 121.093531 282.519379 
L 121.550925 210.771596 
L 122.008319 246.140222 
L 122.465713 227.950643 
L 122.923106 260.287672 
L 123.3805 247.150754 
L 123.837894 150.139667 
L 124.295288 245.12969 
L 124.752681 241.087561 
L 125.210075 194.603082 
L 125.667469 235.024368 
L 126.124863 172.371375 
L 126.582256 161.255521 
L 127.497044 335.067051 
L 127.954438 231.992772 
L 128.411831 203.697871 
L 128.869225 261.298204 
L 129.326619 280.498315 
L 130.241406 256.245543 
L 130.6988 262.308736 
L 131.156194 197.634678 
L 131.613588 301.71949 
L 132.528375 233.003304 
L 132.985769 242.098093 
L 133.443163 265.340333 
L 133.900556 192.582018 
L 134.35795 273.42459 
L 134.815344 230.982239 
L 135.272738 217.845322 
L 135.730131 241.087561 
L 136.187525 208.750532 
L 136.644919 237.045432 
L 137.102313 169.339778 
L 137.559707 227.950643 
L 138.0171 254.224479 
L 138.474494 182.476696 
L 138.931888 200.666275 
L 139.389282 243.108625 
L 139.846675 248.161286 
L 140.304069 258.266608 
L 140.761463 224.919047 
L 141.218857 208.750532 
L 141.67625 180.455632 
L 142.133644 185.508293 
L 142.591038 195.613614 
L 143.048432 210.771596 
L 143.505825 194.603082 
L 143.963219 236.0349 
L 144.420613 178.434568 
L 144.878007 147.108071 
L 145.3354 223.908514 
L 145.792794 198.645211 
L 146.250188 234.013836 
L 146.707582 283.529911 
L 147.164975 212.792661 
L 147.622369 234.013836 
L 148.079763 147.108071 
L 148.537157 252.203415 
L 148.99455 222.897982 
L 149.451944 280.498315 
L 149.909338 271.403525 
L 150.366732 304.751086 
L 150.824125 241.087561 
L 151.281519 262.308736 
L 151.738913 187.529357 
L 152.196307 223.908514 
L 152.653701 219.866386 
L 153.111094 216.834789 
L 153.568488 268.371929 
L 154.025882 187.529357 
L 154.483276 237.045432 
L 154.940669 261.298204 
L 155.398063 211.782129 
L 155.855457 219.866386 
L 156.312851 149.129135 
L 156.770244 202.687339 
L 157.227638 173.381907 
L 157.685032 242.098093 
L 158.142426 184.497761 
L 158.599819 225.929579 
L 159.057213 244.119157 
L 159.514607 198.645211 
L 159.972001 199.655743 
L 160.429394 257.256075 
L 161.344182 184.497761 
L 161.801576 281.508847 
L 162.258969 134.981685 
L 162.716363 143.065942 
L 163.173757 235.024368 
L 163.631151 243.108625 
L 164.088544 256.245543 
L 164.545938 282.519379 
L 165.460726 160.244989 
L 165.918119 228.961175 
L 166.375513 200.666275 
L 166.832907 209.761064 
L 167.290301 125.886896 
L 167.747695 173.381907 
L 168.205088 236.0349 
L 168.662482 159.234457 
L 169.119876 178.434568 
L 169.57727 239.066497 
L 170.034663 319.909069 
L 170.492057 211.782129 
L 170.949451 183.487228 
L 171.406845 196.624146 
L 171.864238 140.034346 
L 172.321632 208.750532 
L 172.779026 188.539889 
L 173.23642 202.687339 
L 173.693813 234.013836 
L 174.151207 174.392439 
L 174.608601 186.518825 
L 175.065995 120.834235 
L 175.523388 172.371375 
L 175.980782 189.550421 
L 176.438176 224.919047 
L 176.89557 150.139667 
L 177.352963 293.635233 
L 177.810357 119.823703 
L 178.267751 227.950643 
L 178.725145 220.876918 
L 179.182538 211.782129 
L 179.639932 138.013282 
L 180.097326 252.203415 
L 180.55472 236.0349 
L 181.012113 288.582572 
L 181.469507 179.4451 
L 182.384295 330.01439 
L 182.841689 195.613614 
L 183.299082 200.666275 
L 183.756476 284.540443 
L 184.21387 207.74 
L 184.671264 206.729468 
L 185.128657 213.803193 
L 185.586051 233.003304 
L 186.043445 265.340333 
L 186.500839 154.181796 
L 186.958232 196.624146 
L 187.415626 167.318714 
L 187.87302 206.729468 
L 188.330414 225.929579 
L 188.787807 174.392439 
L 189.245201 216.834789 
L 189.702595 184.497761 
L 190.159989 230.982239 
L 190.617382 191.571486 
L 191.074776 255.235011 
L 191.53217 297.677361 
L 191.989564 286.561508 
L 192.446957 120.834235 
L 192.904351 308.793215 
L 193.361745 271.403525 
L 193.819139 207.74 
L 194.276532 237.045432 
L 194.733926 203.697871 
L 195.19132 261.298204 
L 195.648714 235.024368 
L 196.106107 238.055965 
L 196.563501 262.308736 
L 197.020895 224.919047 
L 197.478289 148.118603 
L 198.393076 237.045432 
L 198.85047 217.845322 
L 199.307864 208.750532 
L 199.765258 176.413503 
L 200.222651 220.876918 
L 200.680045 125.886896 
L 201.137439 188.539889 
L 201.594833 201.676807 
L 202.052226 236.0349 
L 202.50962 241.087561 
L 202.967014 164.287118 
L 203.424408 271.403525 
L 203.881801 204.708404 
L 204.339195 171.360843 
L 204.796589 275.445654 
L 205.253983 148.118603 
L 205.711376 235.024368 
L 206.16877 227.950643 
L 206.626164 140.034346 
L 207.083558 203.697871 
L 207.540951 152.160732 
L 207.998345 192.582018 
L 208.455739 159.234457 
L 209.370526 309.803747 
L 209.82792 193.59255 
L 210.285314 318.898537 
L 210.742708 204.708404 
L 211.200101 319.909069 
L 211.657495 231.992772 
L 212.114889 343.151308 
L 212.572283 250.18235 
L 213.029676 182.476696 
L 213.48707 182.476696 
L 213.944464 273.42459 
L 214.401858 251.192882 
L 214.859252 149.129135 
L 215.316645 196.624146 
L 215.774039 211.782129 
L 216.231433 237.045432 
L 216.688827 169.339778 
L 217.14622 230.982239 
L 217.603614 141.044878 
L 218.061008 245.12969 
L 218.518402 251.192882 
L 218.975795 187.529357 
L 219.433189 227.950643 
L 219.890583 199.655743 
L 220.347977 274.435122 
L 220.80537 208.750532 
L 221.262764 315.86694 
L 221.720158 253.213947 
L 222.177552 173.381907 
L 222.634945 201.676807 
L 223.092339 188.539889 
L 223.549733 224.919047 
L 224.007127 273.42459 
L 224.46452 200.666275 
L 224.921914 237.045432 
L 225.379308 226.940111 
L 225.836702 220.876918 
L 226.294095 289.593104 
L 226.751489 235.024368 
L 227.208883 270.392993 
L 227.666277 145.087007 
L 228.12367 198.645211 
L 228.581064 238.055965 
L 229.038458 149.129135 
L 229.495852 240.077029 
L 229.953246 247.150754 
L 230.410639 216.834789 
L 230.868033 198.645211 
L 231.325427 230.982239 
L 231.782821 214.813725 
L 232.240214 221.88745 
L 232.697608 237.045432 
L 233.155002 187.529357 
L 233.612396 228.961175 
L 234.069789 236.0349 
L 234.527183 204.708404 
L 234.984577 236.0349 
L 235.441971 194.603082 
L 235.899364 169.339778 
L 236.356758 209.761064 
L 236.814152 169.339778 
L 237.271546 238.055965 
L 237.728939 185.508293 
L 238.186333 284.540443 
L 239.101121 177.424035 
L 239.558514 224.919047 
L 240.015908 209.761064 
L 240.473302 149.129135 
L 240.930696 235.024368 
L 241.388089 196.624146 
L 241.845483 280.498315 
L 242.302877 251.192882 
L 242.760271 237.045432 
L 243.217664 213.803193 
L 243.675058 269.382461 
L 244.132452 275.445654 
L 244.589846 239.066497 
L 245.04724 212.792661 
L 245.504633 245.12969 
L 245.962027 256.245543 
L 246.419421 253.213947 
L 246.876815 306.772151 
L 247.334208 281.508847 
L 247.791602 224.919047 
L 248.248996 119.823703 
L 248.70639 200.666275 
L 249.163783 132.960621 
L 249.621177 202.687339 
L 250.078571 193.59255 
L 250.535965 181.466164 
L 250.993358 175.402971 
L 251.450752 213.803193 
L 251.908146 228.961175 
L 252.36554 190.560953 
L 252.822933 107.697317 
L 253.737721 211.782129 
L 254.195115 227.950643 
L 254.652508 228.961175 
L 255.567296 267.361397 
L 256.02469 251.192882 
L 256.482083 180.455632 
L 257.396871 248.161286 
L 257.854265 264.3298 
L 258.311658 208.750532 
L 258.769052 254.224479 
L 259.226446 238.055965 
L 259.68384 196.624146 
L 260.141234 195.613614 
L 260.598627 240.077029 
L 261.056021 212.792661 
L 261.513415 286.561508 
L 261.970809 185.508293 
L 262.428202 176.413503 
L 262.885596 101.634124 
L 263.34299 238.055965 
L 263.800384 209.761064 
L 264.257777 293.635233 
L 264.715171 214.813725 
L 265.172565 239.066497 
L 265.629959 189.550421 
L 266.087352 171.360843 
L 266.544746 166.308182 
L 267.00214 169.339778 
L 267.916927 116.792106 
L 268.374321 211.782129 
L 268.831715 161.255521 
L 269.289109 179.4451 
L 269.746502 189.550421 
L 270.203896 196.624146 
L 270.66129 167.318714 
L 271.118684 262.308736 
L 271.576077 116.792106 
L 272.033471 263.319268 
L 272.490865 187.529357 
L 272.948259 261.298204 
L 273.405652 226.940111 
L 273.863046 222.897982 
L 274.32044 227.950643 
L 274.777834 267.361397 
L 275.235228 217.845322 
L 275.692621 234.013836 
L 276.150015 229.971707 
L 276.607409 266.350865 
L 277.064803 213.803193 
L 277.522196 199.655743 
L 277.97959 266.350865 
L 278.436984 192.582018 
L 278.894378 163.276585 
L 279.351771 231.992772 
L 279.809165 262.308736 
L 280.266559 230.982239 
L 280.723953 156.20286 
L 281.181346 208.750532 
L 281.63874 223.908514 
L 282.096134 188.539889 
L 282.553528 209.761064 
L 283.010921 157.213392 
L 283.468315 160.244989 
L 283.925709 241.087561 
L 284.383103 245.12969 
L 284.840496 167.318714 
L 285.29789 234.013836 
L 285.755284 154.181796 
L 286.212678 294.645765 
L 286.670071 201.676807 
L 287.127465 243.108625 
L 287.584859 206.729468 
L 288.042253 188.539889 
L 288.499646 230.982239 
L 288.95704 152.160732 
L 289.414434 218.855854 
L 289.871828 200.666275 
L 290.329221 248.161286 
L 290.786615 162.266053 
L 291.244009 113.76051 
L 291.701403 261.298204 
L 292.158797 152.160732 
L 292.61619 223.908514 
L 293.073584 260.287672 
L 293.530978 156.20286 
L 293.988372 282.519379 
L 294.445765 237.045432 
L 294.903159 140.034346 
L 295.360553 206.729468 
L 295.817947 89.507738 
L 296.27534 182.476696 
L 296.732734 204.708404 
L 297.190128 187.529357 
L 297.647522 231.992772 
L 298.104915 194.603082 
L 298.562309 185.508293 
L 299.019703 161.255521 
L 299.477097 228.961175 
L 299.93449 123.865831 
L 300.391884 152.160732 
L 300.849278 229.971707 
L 301.306672 194.603082 
L 301.764065 176.413503 
L 302.221459 142.05541 
L 302.678853 162.266053 
L 303.136247 203.697871 
L 303.59364 143.065942 
L 304.051034 191.571486 
L 304.508428 226.940111 
L 304.965822 213.803193 
L 305.423215 166.308182 
L 305.880609 186.518825 
L 306.338003 231.992772 
L 306.795397 174.392439 
L 307.252791 292.624701 
L 307.710184 256.245543 
L 308.167578 156.20286 
L 308.624972 272.414058 
L 309.082366 227.950643 
L 309.539759 209.761064 
L 309.997153 319.909069 
L 310.454547 155.192328 
L 310.911941 174.392439 
L 311.369334 198.645211 
L 311.826728 208.750532 
L 312.284122 154.181796 
L 312.741516 221.88745 
L 313.198909 212.792661 
L 313.656303 120.834235 
L 314.113697 107.697317 
L 314.571091 249.171818 
L 315.028484 221.88745 
L 315.485878 228.961175 
L 315.943272 137.002749 
L 316.400666 140.034346 
L 316.858059 146.097539 
L 317.315453 174.392439 
L 317.772847 228.961175 
L 318.230241 157.213392 
L 318.687634 255.235011 
L 319.145028 193.59255 
L 319.602422 197.634678 
L 320.059816 214.813725 
L 320.517209 295.656297 
L 320.974603 233.003304 
L 321.431997 247.150754 
L 321.889391 237.045432 
L 322.346785 253.213947 
L 322.804178 129.929024 
L 323.261572 134.981685 
L 323.718966 176.413503 
L 324.17636 166.308182 
L 324.633753 150.139667 
L 325.091147 127.90796 
L 325.548541 193.59255 
L 326.005935 223.908514 
L 326.463328 199.655743 
L 326.920722 163.276585 
L 327.378116 221.88745 
L 328.292903 179.4451 
L 328.750297 170.35031 
L 329.207691 144.076475 
L 329.665085 190.560953 
L 330.122478 268.371929 
L 330.579872 162.266053 
L 331.037266 198.645211 
L 331.49466 254.224479 
L 331.952053 145.087007 
L 332.409447 204.708404 
L 332.866841 111.739446 
L 333.324235 237.045432 
L 333.781628 260.287672 
L 334.239022 174.392439 
L 334.696416 114.771042 
L 335.15381 254.224479 
L 335.611203 123.865831 
L 336.068597 271.403525 
L 336.525991 250.18235 
L 336.983385 170.35031 
L 337.440779 188.539889 
L 337.898172 253.213947 
L 338.355566 151.1502 
L 338.81296 224.919047 
L 339.270354 261.298204 
L 339.727747 193.59255 
L 340.185141 275.445654 
L 340.642535 227.950643 
L 341.099929 206.729468 
L 341.557322 198.645211 
L 342.014716 266.350865 
L 342.47211 260.287672 
L 342.929504 189.550421 
L 343.386897 246.140222 
L 343.844291 214.813725 
L 344.301685 174.392439 
L 344.759079 230.982239 
L 345.216472 203.697871 
L 345.673866 194.603082 
L 346.13126 208.750532 
L 346.588654 181.466164 
L 347.046047 212.792661 
L 347.503441 192.582018 
L 347.960835 252.203415 
L 348.418229 148.118603 
L 348.875622 259.27714 
L 349.333016 188.539889 
L 349.79041 257.256075 
L 350.247804 127.90796 
L 350.705197 225.929579 
L 351.162591 352.246098 
L 351.619985 224.919047 
L 352.077379 194.603082 
L 352.534772 172.371375 
L 352.992166 263.319268 
L 353.44956 217.845322 
L 353.906954 277.466718 
L 354.364348 251.192882 
L 354.821741 173.381907 
L 355.279135 144.076475 
L 355.736529 227.950643 
L 356.193923 162.266053 
L 356.651316 130.939557 
L 357.10871 227.950643 
L 357.566104 237.045432 
L 358.023498 160.244989 
L 358.938285 242.098093 
L 359.395679 195.613614 
L 359.853073 179.4451 
L 360.76786 259.27714 
L 361.225254 229.971707 
L 361.682648 223.908514 
L 362.140041 243.108625 
L 362.597435 157.213392 
L 363.054829 171.360843 
L 363.512223 214.813725 
L 363.969616 167.318714 
L 364.42701 217.845322 
L 364.884404 207.74 
L 365.799191 228.961175 
L 366.256585 200.666275 
L 366.713979 279.487783 
L 367.171373 219.866386 
L 367.628766 187.529357 
L 368.08616 182.476696 
L 368.543554 204.708404 
L 369.000948 211.782129 
L 369.458342 289.593104 
L 369.915735 217.845322 
L 370.373129 191.571486 
L 370.830523 294.645765 
L 371.287917 165.29765 
L 371.74531 277.466718 
L 372.202704 280.498315 
L 372.660098 268.371929 
L 373.117492 189.550421 
L 373.574885 164.287118 
L 374.032279 254.224479 
L 374.489673 272.414058 
L 374.947067 218.855854 
L 375.40446 212.792661 
L 375.861854 195.613614 
L 376.319248 248.161286 
L 376.776642 250.18235 
L 377.234035 237.045432 
L 377.691429 233.003304 
L 378.148823 133.971153 
L 378.606217 258.266608 
L 379.06361 150.139667 
L 379.521004 193.59255 
L 379.978398 205.718936 
L 380.435792 240.077029 
L 380.893185 209.761064 
L 381.350579 94.560399 
L 381.807973 245.12969 
L 382.265367 181.466164 
L 382.72276 241.087561 
L 383.180154 238.055965 
L 383.637548 190.560953 
L 384.094942 156.20286 
L 384.552336 224.919047 
L 385.009729 184.497761 
L 385.467123 234.013836 
L 385.924517 171.360843 
L 386.381911 133.971153 
L 386.839304 200.666275 
L 387.296698 247.150754 
L 387.754092 222.897982 
L 388.211486 160.244989 
L 388.668879 238.055965 
L 389.126273 171.360843 
L 389.583667 199.655743 
L 390.041061 214.813725 
L 390.498454 180.455632 
L 390.955848 228.961175 
L 391.413242 213.803193 
L 391.870636 176.413503 
L 392.328029 165.29765 
L 392.785423 212.792661 
L 393.242817 175.402971 
L 393.700211 186.518825 
L 394.157604 222.897982 
L 394.614998 149.129135 
L 395.072392 117.802639 
L 395.529786 251.192882 
L 395.987179 157.213392 
L 396.444573 199.655743 
L 396.901967 130.939557 
L 397.359361 191.571486 
L 397.816754 184.497761 
L 398.274148 180.455632 
L 398.731542 181.466164 
L 399.188936 117.802639 
L 399.64633 168.329246 
L 400.103723 184.497761 
L 400.561117 180.455632 
L 401.018511 217.845322 
L 401.475905 125.886896 
L 402.390692 274.435122 
L 402.848086 234.013836 
L 403.30548 250.18235 
L 403.762873 195.613614 
L 404.220267 173.381907 
L 404.677661 319.909069 
L 405.135055 281.508847 
L 405.592448 265.340333 
L 406.049842 263.319268 
L 406.507236 187.529357 
L 406.96463 239.066497 
L 407.422023 173.381907 
L 407.879417 210.771596 
L 408.336811 264.3298 
L 408.794205 157.213392 
L 409.251598 152.160732 
L 409.708992 302.730022 
L 410.166386 171.360843 
L 410.62378 185.508293 
L 411.081173 144.076475 
L 411.538567 179.4451 
L 411.995961 249.171818 
L 412.453355 196.624146 
L 412.910748 130.939557 
L 413.368142 188.539889 
L 413.825536 264.3298 
L 414.28293 184.497761 
L 414.740324 165.29765 
L 415.197717 181.466164 
L 415.655111 206.729468 
L 416.112505 217.845322 
L 416.569899 207.74 
L 417.027292 228.961175 
L 417.484686 218.855854 
L 417.94208 249.171818 
L 418.399474 203.697871 
L 418.856867 245.12969 
L 419.314261 210.771596 
L 419.771655 329.003858 
L 420.229049 238.055965 
L 420.686442 176.413503 
L 421.143836 246.140222 
L 421.60123 180.455632 
L 422.058624 148.118603 
L 422.516017 181.466164 
L 422.973411 285.550976 
L 423.430805 195.613614 
L 423.888199 216.834789 
L 424.345592 255.235011 
L 424.802986 187.529357 
L 425.26038 200.666275 
L 425.717774 129.929024 
L 426.175167 203.697871 
L 426.632561 175.402971 
L 427.089955 118.813171 
L 427.547349 205.718936 
L 428.004742 235.024368 
L 428.462136 169.339778 
L 428.91953 42.012727 
L 429.376924 218.855854 
L 429.834317 205.718936 
L 430.291711 140.034346 
L 430.749105 226.940111 
L 431.206499 262.308736 
L 431.663893 131.950089 
L 432.121286 191.571486 
L 432.57868 196.624146 
L 433.036074 269.382461 
L 433.493468 203.697871 
L 433.950861 195.613614 
L 434.408255 221.88745 
L 434.865649 229.971707 
L 435.323043 204.708404 
L 435.780436 308.793215 
L 436.23783 253.213947 
L 436.695224 240.077029 
L 437.152618 241.087561 
L 437.610011 209.761064 
L 438.067405 293.635233 
L 438.524799 245.12969 
L 438.982193 182.476696 
L 439.89698 214.813725 
L 440.354374 184.497761 
L 440.811768 207.74 
L 441.269161 155.192328 
L 441.726555 215.824257 
L 442.641343 92.539335 
L 443.098736 223.908514 
L 443.55613 246.140222 
L 444.013524 208.750532 
L 444.470918 147.108071 
L 444.928311 193.59255 
L 445.385705 192.582018 
L 445.843099 198.645211 
L 446.300493 166.308182 
L 446.757887 230.982239 
L 447.21528 206.729468 
L 447.672674 197.634678 
L 448.130068 283.529911 
L 448.587462 188.539889 
L 449.044855 265.340333 
L 449.502249 189.550421 
L 449.959643 251.192882 
L 450.417037 187.529357 
L 450.87443 267.361397 
L 451.331824 152.160732 
L 451.789218 218.855854 
L 452.246612 208.750532 
L 452.704005 233.003304 
L 453.161399 150.139667 
L 453.618793 161.255521 
L 454.076187 246.140222 
L 454.990974 184.497761 
L 455.448368 147.108071 
L 455.905762 247.150754 
L 456.363155 138.013282 
L 456.820549 183.487228 
L 457.277943 212.792661 
L 457.735337 154.181796 
L 458.19273 179.4451 
L 458.650124 230.982239 
L 459.107518 250.18235 
L 459.564912 114.771042 
L 460.022305 175.402971 
L 460.479699 183.487228 
L 460.937093 65.254967 
L 461.394487 195.613614 
L 461.851881 182.476696 
L 462.309274 233.003304 
L 462.766668 179.4451 
L 463.224062 206.729468 
L 463.681456 201.676807 
L 464.138849 212.792661 
L 464.596243 220.876918 
L 465.053637 214.813725 
L 465.511031 225.929579 
L 465.968424 277.466718 
L 466.425818 234.013836 
L 466.883212 283.529911 
L 467.340606 269.382461 
L 467.797999 259.27714 
L 468.255393 200.666275 
L 468.712787 302.730022 
L 469.170181 228.961175 
L 469.627574 268.371929 
L 470.084968 221.88745 
L 470.542362 203.697871 
L 470.999756 229.971707 
L 471.457149 228.961175 
L 471.914543 217.845322 
L 472.371937 133.971153 
L 472.829331 241.087561 
L 473.286724 131.950089 
L 473.744118 259.27714 
L 474.658906 191.571486 
L 475.116299 177.424035 
L 475.573693 244.119157 
L 476.031087 187.529357 
L 476.488481 255.235011 
L 476.945875 115.781574 
L 477.403268 308.793215 
L 477.860662 158.223925 
L 478.318056 205.718936 
L 478.77545 190.560953 
L 479.232843 159.234457 
L 479.690237 218.855854 
L 480.147631 297.677361 
L 480.605025 201.676807 
L 481.062418 193.59255 
L 481.519812 192.582018 
L 482.4346 299.698426 
L 482.891993 170.35031 
L 483.349387 202.687339 
L 483.806781 253.213947 
L 484.264175 189.550421 
L 484.721568 276.456186 
L 485.178962 176.413503 
L 485.636356 252.203415 
L 486.09375 205.718936 
L 486.551143 229.971707 
L 487.008537 185.508293 
L 487.465931 218.855854 
L 487.923325 176.413503 
L 488.380718 145.087007 
L 488.838112 159.234457 
L 489.295506 247.150754 
L 489.7529 208.750532 
L 490.210293 152.160732 
L 490.667687 231.992772 
L 491.125081 167.318714 
L 491.582475 202.687339 
L 492.039869 252.203415 
L 492.497262 160.244989 
L 492.954656 163.276585 
L 493.41205 181.466164 
L 493.869444 215.824257 
L 494.326837 205.718936 
L 494.784231 148.118603 
L 495.241625 268.371929 
L 495.699019 79.402417 
L 496.613806 172.371375 
L 497.0712 296.666829 
L 497.528594 108.707849 
L 497.985987 194.603082 
L 498.443381 207.74 
L 498.900775 151.1502 
L 499.358169 225.929579 
L 499.815562 172.371375 
L 500.272956 203.697871 
L 500.73035 253.213947 
L 501.187744 212.792661 
L 501.645137 256.245543 
L 502.102531 288.582572 
L 502.559925 201.676807 
L 503.017319 258.266608 
L 503.474712 244.119157 
L 503.932106 183.487228 
L 504.3895 210.771596 
L 504.846894 201.676807 
L 505.304287 173.381907 
L 505.761681 205.718936 
L 506.219075 269.382461 
L 506.676469 249.171818 
L 507.133862 210.771596 
L 507.591256 235.024368 
L 508.04865 117.802639 
L 508.506044 165.29765 
L 508.963438 192.582018 
L 509.420831 185.508293 
L 509.878225 170.35031 
L 510.335619 196.624146 
L 510.793013 125.886896 
L 511.250406 215.824257 
L 511.7078 213.803193 
L 512.165194 159.234457 
L 512.622588 283.529911 
L 513.079981 235.024368 
L 513.537375 247.150754 
L 513.994769 236.0349 
L 514.452163 253.213947 
L 514.909556 216.834789 
L 515.36695 192.582018 
L 515.824344 222.897982 
L 516.281738 245.12969 
L 516.739131 228.961175 
L 517.196525 279.487783 
L 518.111313 147.108071 
L 518.568706 277.466718 
L 519.0261 245.12969 
L 519.483494 221.88745 
L 519.940888 247.150754 
L 520.398281 190.560953 
L 520.855675 284.540443 
L 521.313069 156.20286 
L 521.770463 141.044878 
L 522.227856 173.381907 
L 522.68525 143.065942 
L 523.142644 205.718936 
L 523.600038 197.634678 
L 524.057432 147.108071 
L 524.514825 253.213947 
L 524.972219 217.845322 
L 525.429613 229.971707 
L 525.887007 153.171264 
L 526.3444 155.192328 
L 526.801794 106.686785 
L 527.259188 139.023814 
L 527.716582 132.960621 
L 528.173975 141.044878 
L 528.631369 155.192328 
L 529.088763 146.097539 
L 529.546157 202.687339 
L 530.00355 163.276585 
L 530.460944 181.466164 
L 530.918338 222.897982 
L 531.375732 155.192328 
L 531.833125 185.508293 
L 532.290519 196.624146 
L 532.747913 283.529911 
L 533.205307 290.603636 
L 533.6627 239.066497 
L 534.120094 280.498315 
L 534.577488 218.855854 
L 535.034882 257.256075 
L 535.492275 162.266053 
L 535.949669 271.403525 
L 536.407063 213.803193 
L 536.864457 233.003304 
L 537.32185 242.098093 
L 537.779244 183.487228 
L 538.236638 196.624146 
L 538.694032 192.582018 
L 539.151426 267.361397 
L 539.608819 180.455632 
L 540.066213 163.276585 
L 540.523607 172.371375 
L 540.981001 262.308736 
L 541.438394 152.160732 
L 541.895788 129.929024 
L 542.353182 169.339778 
L 542.353182 169.339778 
" clip-path="url(#pb65de92fd5)" style="fill: none; stroke: #2ca02c; stroke-width: 1.5; stroke-linecap: square"/>
   </g>
   <g id="patch_3">
    <path d="M 62.57 390.04 
L 62.57 25.44 
" style="fill: none; stroke: #000000; stroke-width: 0.8; stroke-linejoin: miter; stroke-linecap: square"/>
   </g>
   <g id="patch_4">
    <path d="M 565.2 390.04 
L 565.2 25.44 
" style="fill: none; stroke: #000000; stroke-width: 0.8; stroke-linejoin: miter; stroke-linecap: square"/>
   </g>
   <g id="patch_5">
    <path d="M 62.57 390.04 
L 565.2 390.04 
" style="fill: none; stroke: #000000; stroke-width: 0.8; stroke-linejoin: miter; stroke-linecap: square"/>
   </g>
   <g id="patch_6">
    <path d="M 62.57 25.44 
L 565.2 25.44 
" style="fill: none; stroke: #000000; stroke-width: 0.8; stroke-linejoin: miter; stroke-linecap: square"/>
   </g>
   <g id="text_16">
    <!-- Control Difference -->
    <g transform="translate(259.272812 19.44) scale(0.12 -0.12)">
     <defs>
      <path id="DejaVuSans-43" d="M 4122 4306 
L 4122 3641 
Q 3803 3938 3442 4084 
Q 3081 4231 2675 4231 
Q 1875 4231 1450 3742 
Q 1025 3253 1025 2328 
Q 1025 1406 1450 917 
Q 1875 428 2675 428 
Q 3081 428 3442 575 
Q 3803 722 4122 1019 
L 4122 359 
Q 3791 134 3420 21 
Q 3050 -91 2638 -91 
Q 1578 -91 968 557 
Q 359 1206 359 2328 
Q 359 3453 968 4101 
Q 1578 4750 2638 4750 
Q 3056 4750 3426 4639 
Q 3797 4528 4122 4306 
z
" transform="scale(0.015625)"/>
      <path id="DejaVuSans-6c" d="M 603 4863 
L 1178 4863 
L 1178 0 
L 603 0 
L 603 4863 
z
" transform="scale(0.015625)"/>
      <path id="DejaVuSans-20" transform="scale(0.015625)"/>
      <path id="DejaVuSans-63" d="M 3122 3366 
L 3122 2828 
Q 2878 2963 2633 3030 
Q 2388 3097 2138 3097 
Q 1578 3097 1268 2742 
Q 959 2388 959 1747 
Q 959 1106 1268 751 
Q 1578 397 2138 397 
Q 2388 397 2633 464 
Q 2878 531 3122 666 
L 3122 134 
Q 2881 22 2623 -34 
Q 2366 -91 2075 -91 
Q 1284 -91 818 406 
Q 353 903 353 1747 
Q 353 2603 823 3093 
Q 1294 3584 2113 3584 
Q 2378 3584 2631 3529 
Q 2884 3475 3122 3366 
z
" transform="scale(0.015625)"/>
     </defs>
     <use xlink:href="#DejaVuSans-43"/>
     <use xlink:href="#DejaVuSans-6f" x="69.824219"/>
     <use xlink:href="#DejaVuSans-6e" x="131.005859"/>
     <use xlink:href="#DejaVuSans-74" x="194.384766"/>
     <use xlink:href="#DejaVuSans-72" x="233.59375"/>
     <use xlink:href="#DejaVuSans-6f" x="272.457031"/>
     <use xlink:href="#DejaVuSans-6c" x="333.638672"/>
     <use xlink:href="#DejaVuSans-20" x="361.421875"/>
     <use xlink:href="#DejaVuSans-44" x="393.208984"/>
     <use xlink:href="#DejaVuSans-69" x="470.210938"/>
     <use xlink:href="#DejaVuSans-66" x="497.994141"/>
     <use xlink:href="#DejaVuSans-66" x="533.199219"/>
     <use xlink:href="#DejaVuSans-65" x="568.404297"/>
     <use xlink:href="#DejaVuSans-72" x="629.927734"/>
     <use xlink:href="#DejaVuSans-65" x="668.791016"/>
     <use xlink:href="#DejaVuSans-6e" x="730.314453"/>
     <use xlink:href="#DejaVuSans-63" x="793.693359"/>
     <use xlink:href="#DejaVuSans-65" x="848.673828"/>
    </g>
   </g>
   <g id="legend_1">
    <g id="patch_7">
     <path d="M 69.57 48.118125 
L 227.305938 48.118125 
Q 229.305938 48.118125 229.305938 46.118125 
L 229.305938 32.44 
Q 229.305938 30.44 227.305938 30.44 
L 69.57 30.44 
Q 67.57 30.44 67.57 32.44 
L 67.57 46.118125 
Q 67.57 48.118125 69.57 48.118125 
z
" style="fill: #ffffff; opacity: 0.8; stroke: #cccccc; stroke-linejoin: miter"/>
    </g>
    <g id="line2d_28">
     <path d="M 71.57 38.538438 
L 81.57 38.538438 
L 91.57 38.538438 
" style="fill: none; stroke: #2ca02c; stroke-width: 1.5; stroke-linecap: square"/>
    </g>
    <g id="text_17">
     <!-- uDiff = uLocal - uRemote -->
     <g transform="translate(99.57 42.038438) scale(0.1 -0.1)">
      <defs>
       <path id="DejaVuSans-3d" d="M 678 2906 
L 4684 2906 
L 4684 2381 
L 678 2381 
L 678 2906 
z
M 678 1631 
L 4684 1631 
L 4684 1100 
L 678 1100 
L 678 1631 
z
" transform="scale(0.015625)"/>
       <path id="DejaVuSans-4c" d="M 628 4666 
L 1259 4666 
L 1259 531 
L 3531 531 
L 3531 0 
L 628 0 
L 628 4666 
z
" transform="scale(0.015625)"/>
       <path id="DejaVuSans-2d" d="M 313 2009 
L 1997 2009 
L 1997 1497 
L 313 1497 
L 313 2009 
z
" transform="scale(0.015625)"/>
       <path id="DejaVuSans-52" d="M 2841 2188 
Q 3044 2119 3236 1894 
Q 3428 1669 3622 1275 
L 4263 0 
L 3584 0 
L 2988 1197 
Q 2756 1666 2539 1819 
Q 2322 1972 1947 1972 
L 1259 1972 
L 1259 0 
L 628 0 
L 628 4666 
L 2053 4666 
Q 2853 4666 3247 4331 
Q 3641 3997 3641 3322 
Q 3641 2881 3436 2590 
Q 3231 2300 2841 2188 
z
M 1259 4147 
L 1259 2491 
L 2053 2491 
Q 2509 2491 2742 2702 
Q 2975 2913 2975 3322 
Q 2975 3731 2742 3939 
Q 2509 4147 2053 4147 
L 1259 4147 
z
" transform="scale(0.015625)"/>
       <path id="DejaVuSans-6d" d="M 3328 2828 
Q 3544 3216 3844 3400 
Q 4144 3584 4550 3584 
Q 5097 3584 5394 3201 
Q 5691 2819 5691 2113 
L 5691 0 
L 5113 0 
L 5113 2094 
Q 5113 2597 4934 2840 
Q 4756 3084 4391 3084 
Q 3944 3084 3684 2787 
Q 3425 2491 3425 1978 
L 3425 0 
L 2847 0 
L 2847 2094 
Q 2847 2600 2669 2842 
Q 2491 3084 2119 3084 
Q 1678 3084 1418 2786 
Q 1159 2488 1159 1978 
L 1159 0 
L 581 0 
L 581 3500 
L 1159 3500 
L 1159 2956 
Q 1356 3278 1631 3431 
Q 1906 3584 2284 3584 
Q 2666 3584 2933 3390 
Q 3200 3197 3328 2828 
z
" transform="scale(0.015625)"/>
      </defs>
      <use xlink:href="#DejaVuSans-75"/>
      <use xlink:href="#DejaVuSans-44" x="63.378906"/>
      <use xlink:href="#DejaVuSans-69" x="140.380859"/>
      <use xlink:href="#DejaVuSans-66" x="168.164062"/>
      <use xlink:href="#DejaVuSans-66" x="203.369141"/>
      <use xlink:href="#DejaVuSans-20" x="238.574219"/>
      <use xlink:href="#DejaVuSans-3d" x="270.361328"/>
      <use xlink:href="#DejaVuSans-20" x="354.150391"/>
      <use xlink:href="#DejaVuSans-75" x="385.9375"/>
      <use xlink:href="#DejaVuSans-4c" x="449.316406"/>
      <use xlink:href="#DejaVuSans-6f" x="503.279297"/>
      <use xlink:href="#DejaVuSans-63" x="564.460938"/>
      <use xlink:href="#DejaVuSans-61" x="619.441406"/>
      <use xlink:href="#DejaVuSans-6c" x="680.720703"/>
      <use xlink:href="#DejaVuSans-20" x="708.503906"/>
      <use xlink:href="#DejaVuSans-2d" x="740.291016"/>
      <use xlink:href="#DejaVuSans-20" x="776.375"/>
      <use xlink:href="#DejaVuSans-75" x="808.162109"/>
      <use xlink:href="#DejaVuSans-52" x="871.541016"/>
      <use xlink:href="#DejaVuSans-65" x="936.523438"/>
      <use xlink:href="#DejaVuSans-6d" x="998.046875"/>
      <use xlink:href="#DejaVuSans-6f" x="1095.458984"/>
      <use xlink:href="#DejaVuSans-74" x="1156.640625"/>
      <use xlink:href="#DejaVuSans-65" x="1195.849609"/>
     </g>
    </g>
   </g>
  </g>
 </g>
 <defs>
  <clipPath id="pb65de92fd5">
   <rect x="62.57" y="25.44" width="502.63" height="364.6"/>
  </clipPath>
 </defs>
</svg>
