<?xml version="1.0" encoding="utf-8" standalone="no"?>
<!DOCTYPE svg PUBLIC "-//W3C//DTD SVG 1.1//EN"
  "http://www.w3.org/Graphics/SVG/1.1/DTD/svg11.dtd">
<svg xmlns:xlink="http://www.w3.org/1999/xlink" width="576pt" height="432pt" viewBox="0 0 576 432" xmlns="http://www.w3.org/2000/svg" version="1.1">
 <metadata>
  <rdf:RDF xmlns:dc="http://purl.org/dc/elements/1.1/" xmlns:cc="http://creativecommons.org/ns#" xmlns:rdf="http://www.w3.org/1999/02/22-rdf-syntax-ns#">
   <cc:Work>
    <dc:type rdf:resource="http://purl.org/dc/dcmitype/StillImage"/>
    <dc:date>2025-08-03T18:06:22.686430</dc:date>
    <dc:format>image/svg+xml</dc:format>
    <dc:creator>
     <cc:Agent>
      <dc:title>Matplotlib v3.6.3, https://matplotlib.org/</dc:title>
     </cc:Agent>
    </dc:creator>
   </cc:Work>
  </rdf:RDF>
 </metadata>
 <defs>
  <style type="text/css">*{stroke-linejoin: round; stroke-linecap: butt}</style>
 </defs>
 <g id="figure_1">
  <g id="patch_1">
   <path d="M 0 432 
L 576 432 
L 576 0 
L 0 0 
z
" style="fill: #ffffff"/>
  </g>
  <g id="axes_1">
   <g id="patch_2">
    <path d="M 46.64 390.04 
L 565.2 390.04 
L 565.2 25.44 
L 46.64 25.44 
z
" style="fill: #ffffff"/>
   </g>
   <g id="matplotlib.axis_1">
    <g id="xtick_1">
     <g id="line2d_1">
      <path d="M 70.210909 390.04 
L 70.210909 25.44 
" clip-path="url(#p9c6dcb5dd8)" style="fill: none; stroke: #b0b0b0; stroke-width: 0.8; stroke-linecap: square"/>
     </g>
     <g id="line2d_2">
      <defs>
       <path id="mf834cad97b" d="M 0 0 
L 0 3.5 
" style="stroke: #000000; stroke-width: 0.8"/>
      </defs>
      <g>
       <use xlink:href="#mf834cad97b" x="70.210909" y="390.04" style="stroke: #000000; stroke-width: 0.8"/>
      </g>
     </g>
     <g id="text_1">
      <!-- 0 -->
      <g transform="translate(67.029659 404.638438) scale(0.1 -0.1)">
       <defs>
        <path id="DejaVuSans-30" d="M 2034 4250 
Q 1547 4250 1301 3770 
Q 1056 3291 1056 2328 
Q 1056 1369 1301 889 
Q 1547 409 2034 409 
Q 2525 409 2770 889 
Q 3016 1369 3016 2328 
Q 3016 3291 2770 3770 
Q 2525 4250 2034 4250 
z
M 2034 4750 
Q 2819 4750 3233 4129 
Q 3647 3509 3647 2328 
Q 3647 1150 3233 529 
Q 2819 -91 2034 -91 
Q 1250 -91 836 529 
Q 422 1150 422 2328 
Q 422 3509 836 4129 
Q 1250 4750 2034 4750 
z
" transform="scale(0.015625)"/>
       </defs>
       <use xlink:href="#DejaVuSans-30"/>
      </g>
     </g>
    </g>
    <g id="xtick_2">
     <g id="line2d_3">
      <path d="M 164.588923 390.04 
L 164.588923 25.44 
" clip-path="url(#p9c6dcb5dd8)" style="fill: none; stroke: #b0b0b0; stroke-width: 0.8; stroke-linecap: square"/>
     </g>
     <g id="line2d_4">
      <g>
       <use xlink:href="#mf834cad97b" x="164.588923" y="390.04" style="stroke: #000000; stroke-width: 0.8"/>
      </g>
     </g>
     <g id="text_2">
      <!-- 200 -->
      <g transform="translate(155.045173 404.638438) scale(0.1 -0.1)">
       <defs>
        <path id="DejaVuSans-32" d="M 1228 531 
L 3431 531 
L 3431 0 
L 469 0 
L 469 531 
Q 828 903 1448 1529 
Q 2069 2156 2228 2338 
Q 2531 2678 2651 2914 
Q 2772 3150 2772 3378 
Q 2772 3750 2511 3984 
Q 2250 4219 1831 4219 
Q 1534 4219 1204 4116 
Q 875 4013 500 3803 
L 500 4441 
Q 881 4594 1212 4672 
Q 1544 4750 1819 4750 
Q 2544 4750 2975 4387 
Q 3406 4025 3406 3419 
Q 3406 3131 3298 2873 
Q 3191 2616 2906 2266 
Q 2828 2175 2409 1742 
Q 1991 1309 1228 531 
z
" transform="scale(0.015625)"/>
       </defs>
       <use xlink:href="#DejaVuSans-32"/>
       <use xlink:href="#DejaVuSans-30" x="63.623047"/>
       <use xlink:href="#DejaVuSans-30" x="127.246094"/>
      </g>
     </g>
    </g>
    <g id="xtick_3">
     <g id="line2d_5">
      <path d="M 258.966938 390.04 
L 258.966938 25.44 
" clip-path="url(#p9c6dcb5dd8)" style="fill: none; stroke: #b0b0b0; stroke-width: 0.8; stroke-linecap: square"/>
     </g>
     <g id="line2d_6">
      <g>
       <use xlink:href="#mf834cad97b" x="258.966938" y="390.04" style="stroke: #000000; stroke-width: 0.8"/>
      </g>
     </g>
     <g id="text_3">
      <!-- 400 -->
      <g transform="translate(249.423188 404.638438) scale(0.1 -0.1)">
       <defs>
        <path id="DejaVuSans-34" d="M 2419 4116 
L 825 1625 
L 2419 1625 
L 2419 4116 
z
M 2253 4666 
L 3047 4666 
L 3047 1625 
L 3713 1625 
L 3713 1100 
L 3047 1100 
L 3047 0 
L 2419 0 
L 2419 1100 
L 313 1100 
L 313 1709 
L 2253 4666 
z
" transform="scale(0.015625)"/>
       </defs>
       <use xlink:href="#DejaVuSans-34"/>
       <use xlink:href="#DejaVuSans-30" x="63.623047"/>
       <use xlink:href="#DejaVuSans-30" x="127.246094"/>
      </g>
     </g>
    </g>
    <g id="xtick_4">
     <g id="line2d_7">
      <path d="M 353.344952 390.04 
L 353.344952 25.44 
" clip-path="url(#p9c6dcb5dd8)" style="fill: none; stroke: #b0b0b0; stroke-width: 0.8; stroke-linecap: square"/>
     </g>
     <g id="line2d_8">
      <g>
       <use xlink:href="#mf834cad97b" x="353.344952" y="390.04" style="stroke: #000000; stroke-width: 0.8"/>
      </g>
     </g>
     <g id="text_4">
      <!-- 600 -->
      <g transform="translate(343.801202 404.638438) scale(0.1 -0.1)">
       <defs>
        <path id="DejaVuSans-36" d="M 2113 2584 
Q 1688 2584 1439 2293 
Q 1191 2003 1191 1497 
Q 1191 994 1439 701 
Q 1688 409 2113 409 
Q 2538 409 2786 701 
Q 3034 994 3034 1497 
Q 3034 2003 2786 2293 
Q 2538 2584 2113 2584 
z
M 3366 4563 
L 3366 3988 
Q 3128 4100 2886 4159 
Q 2644 4219 2406 4219 
Q 1781 4219 1451 3797 
Q 1122 3375 1075 2522 
Q 1259 2794 1537 2939 
Q 1816 3084 2150 3084 
Q 2853 3084 3261 2657 
Q 3669 2231 3669 1497 
Q 3669 778 3244 343 
Q 2819 -91 2113 -91 
Q 1303 -91 875 529 
Q 447 1150 447 2328 
Q 447 3434 972 4092 
Q 1497 4750 2381 4750 
Q 2619 4750 2861 4703 
Q 3103 4656 3366 4563 
z
" transform="scale(0.015625)"/>
       </defs>
       <use xlink:href="#DejaVuSans-36"/>
       <use xlink:href="#DejaVuSans-30" x="63.623047"/>
       <use xlink:href="#DejaVuSans-30" x="127.246094"/>
      </g>
     </g>
    </g>
    <g id="xtick_5">
     <g id="line2d_9">
      <path d="M 447.722967 390.04 
L 447.722967 25.44 
" clip-path="url(#p9c6dcb5dd8)" style="fill: none; stroke: #b0b0b0; stroke-width: 0.8; stroke-linecap: square"/>
     </g>
     <g id="line2d_10">
      <g>
       <use xlink:href="#mf834cad97b" x="447.722967" y="390.04" style="stroke: #000000; stroke-width: 0.8"/>
      </g>
     </g>
     <g id="text_5">
      <!-- 800 -->
      <g transform="translate(438.179217 404.638438) scale(0.1 -0.1)">
       <defs>
        <path id="DejaVuSans-38" d="M 2034 2216 
Q 1584 2216 1326 1975 
Q 1069 1734 1069 1313 
Q 1069 891 1326 650 
Q 1584 409 2034 409 
Q 2484 409 2743 651 
Q 3003 894 3003 1313 
Q 3003 1734 2745 1975 
Q 2488 2216 2034 2216 
z
M 1403 2484 
Q 997 2584 770 2862 
Q 544 3141 544 3541 
Q 544 4100 942 4425 
Q 1341 4750 2034 4750 
Q 2731 4750 3128 4425 
Q 3525 4100 3525 3541 
Q 3525 3141 3298 2862 
Q 3072 2584 2669 2484 
Q 3125 2378 3379 2068 
Q 3634 1759 3634 1313 
Q 3634 634 3220 271 
Q 2806 -91 2034 -91 
Q 1263 -91 848 271 
Q 434 634 434 1313 
Q 434 1759 690 2068 
Q 947 2378 1403 2484 
z
M 1172 3481 
Q 1172 3119 1398 2916 
Q 1625 2713 2034 2713 
Q 2441 2713 2670 2916 
Q 2900 3119 2900 3481 
Q 2900 3844 2670 4047 
Q 2441 4250 2034 4250 
Q 1625 4250 1398 4047 
Q 1172 3844 1172 3481 
z
" transform="scale(0.015625)"/>
       </defs>
       <use xlink:href="#DejaVuSans-38"/>
       <use xlink:href="#DejaVuSans-30" x="63.623047"/>
       <use xlink:href="#DejaVuSans-30" x="127.246094"/>
      </g>
     </g>
    </g>
    <g id="xtick_6">
     <g id="line2d_11">
      <path d="M 542.100981 390.04 
L 542.100981 25.44 
" clip-path="url(#p9c6dcb5dd8)" style="fill: none; stroke: #b0b0b0; stroke-width: 0.8; stroke-linecap: square"/>
     </g>
     <g id="line2d_12">
      <g>
       <use xlink:href="#mf834cad97b" x="542.100981" y="390.04" style="stroke: #000000; stroke-width: 0.8"/>
      </g>
     </g>
     <g id="text_6">
      <!-- 1000 -->
      <g transform="translate(529.375981 404.638438) scale(0.1 -0.1)">
       <defs>
        <path id="DejaVuSans-31" d="M 794 531 
L 1825 531 
L 1825 4091 
L 703 3866 
L 703 4441 
L 1819 4666 
L 2450 4666 
L 2450 531 
L 3481 531 
L 3481 0 
L 794 0 
L 794 531 
z
" transform="scale(0.015625)"/>
       </defs>
       <use xlink:href="#DejaVuSans-31"/>
       <use xlink:href="#DejaVuSans-30" x="63.623047"/>
       <use xlink:href="#DejaVuSans-30" x="127.246094"/>
       <use xlink:href="#DejaVuSans-30" x="190.869141"/>
      </g>
     </g>
    </g>
    <g id="text_7">
     <!-- Iteration -->
     <g transform="translate(284.711406 418.316562) scale(0.1 -0.1)">
      <defs>
       <path id="DejaVuSans-49" d="M 628 4666 
L 1259 4666 
L 1259 0 
L 628 0 
L 628 4666 
z
" transform="scale(0.015625)"/>
       <path id="DejaVuSans-74" d="M 1172 4494 
L 1172 3500 
L 2356 3500 
L 2356 3053 
L 1172 3053 
L 1172 1153 
Q 1172 725 1289 603 
Q 1406 481 1766 481 
L 2356 481 
L 2356 0 
L 1766 0 
Q 1100 0 847 248 
Q 594 497 594 1153 
L 594 3053 
L 172 3053 
L 172 3500 
L 594 3500 
L 594 4494 
L 1172 4494 
z
" transform="scale(0.015625)"/>
       <path id="DejaVuSans-65" d="M 3597 1894 
L 3597 1613 
L 953 1613 
Q 991 1019 1311 708 
Q 1631 397 2203 397 
Q 2534 397 2845 478 
Q 3156 559 3463 722 
L 3463 178 
Q 3153 47 2828 -22 
Q 2503 -91 2169 -91 
Q 1331 -91 842 396 
Q 353 884 353 1716 
Q 353 2575 817 3079 
Q 1281 3584 2069 3584 
Q 2775 3584 3186 3129 
Q 3597 2675 3597 1894 
z
M 3022 2063 
Q 3016 2534 2758 2815 
Q 2500 3097 2075 3097 
Q 1594 3097 1305 2825 
Q 1016 2553 972 2059 
L 3022 2063 
z
" transform="scale(0.015625)"/>
       <path id="DejaVuSans-72" d="M 2631 2963 
Q 2534 3019 2420 3045 
Q 2306 3072 2169 3072 
Q 1681 3072 1420 2755 
Q 1159 2438 1159 1844 
L 1159 0 
L 581 0 
L 581 3500 
L 1159 3500 
L 1159 2956 
Q 1341 3275 1631 3429 
Q 1922 3584 2338 3584 
Q 2397 3584 2469 3576 
Q 2541 3569 2628 3553 
L 2631 2963 
z
" transform="scale(0.015625)"/>
       <path id="DejaVuSans-61" d="M 2194 1759 
Q 1497 1759 1228 1600 
Q 959 1441 959 1056 
Q 959 750 1161 570 
Q 1363 391 1709 391 
Q 2188 391 2477 730 
Q 2766 1069 2766 1631 
L 2766 1759 
L 2194 1759 
z
M 3341 1997 
L 3341 0 
L 2766 0 
L 2766 531 
Q 2569 213 2275 61 
Q 1981 -91 1556 -91 
Q 1019 -91 701 211 
Q 384 513 384 1019 
Q 384 1609 779 1909 
Q 1175 2209 1959 2209 
L 2766 2209 
L 2766 2266 
Q 2766 2663 2505 2880 
Q 2244 3097 1772 3097 
Q 1472 3097 1187 3025 
Q 903 2953 641 2809 
L 641 3341 
Q 956 3463 1253 3523 
Q 1550 3584 1831 3584 
Q 2591 3584 2966 3190 
Q 3341 2797 3341 1997 
z
" transform="scale(0.015625)"/>
       <path id="DejaVuSans-69" d="M 603 3500 
L 1178 3500 
L 1178 0 
L 603 0 
L 603 3500 
z
M 603 4863 
L 1178 4863 
L 1178 4134 
L 603 4134 
L 603 4863 
z
" transform="scale(0.015625)"/>
       <path id="DejaVuSans-6f" d="M 1959 3097 
Q 1497 3097 1228 2736 
Q 959 2375 959 1747 
Q 959 1119 1226 758 
Q 1494 397 1959 397 
Q 2419 397 2687 759 
Q 2956 1122 2956 1747 
Q 2956 2369 2687 2733 
Q 2419 3097 1959 3097 
z
M 1959 3584 
Q 2709 3584 3137 3096 
Q 3566 2609 3566 1747 
Q 3566 888 3137 398 
Q 2709 -91 1959 -91 
Q 1206 -91 779 398 
Q 353 888 353 1747 
Q 353 2609 779 3096 
Q 1206 3584 1959 3584 
z
" transform="scale(0.015625)"/>
       <path id="DejaVuSans-6e" d="M 3513 2113 
L 3513 0 
L 2938 0 
L 2938 2094 
Q 2938 2591 2744 2837 
Q 2550 3084 2163 3084 
Q 1697 3084 1428 2787 
Q 1159 2491 1159 1978 
L 1159 0 
L 581 0 
L 581 3500 
L 1159 3500 
L 1159 2956 
Q 1366 3272 1645 3428 
Q 1925 3584 2291 3584 
Q 2894 3584 3203 3211 
Q 3513 2838 3513 2113 
z
" transform="scale(0.015625)"/>
      </defs>
      <use xlink:href="#DejaVuSans-49"/>
      <use xlink:href="#DejaVuSans-74" x="29.492188"/>
      <use xlink:href="#DejaVuSans-65" x="68.701172"/>
      <use xlink:href="#DejaVuSans-72" x="130.224609"/>
      <use xlink:href="#DejaVuSans-61" x="171.337891"/>
      <use xlink:href="#DejaVuSans-74" x="232.617188"/>
      <use xlink:href="#DejaVuSans-69" x="271.826172"/>
      <use xlink:href="#DejaVuSans-6f" x="299.609375"/>
      <use xlink:href="#DejaVuSans-6e" x="360.791016"/>
     </g>
    </g>
   </g>
   <g id="matplotlib.axis_2">
    <g id="ytick_1">
     <g id="line2d_13">
      <path d="M 46.64 358.862479 
L 565.2 358.862479 
" clip-path="url(#p9c6dcb5dd8)" style="fill: none; stroke: #b0b0b0; stroke-width: 0.8; stroke-linecap: square"/>
     </g>
     <g id="line2d_14">
      <defs>
       <path id="m596aaf88c3" d="M 0 0 
L -3.5 0 
" style="stroke: #000000; stroke-width: 0.8"/>
      </defs>
      <g>
       <use xlink:href="#m596aaf88c3" x="46.64" y="358.862479" style="stroke: #000000; stroke-width: 0.8"/>
      </g>
     </g>
     <g id="text_8">
      <!-- −8 -->
      <g transform="translate(24.897813 362.661698) scale(0.1 -0.1)">
       <defs>
        <path id="DejaVuSans-2212" d="M 678 2272 
L 4684 2272 
L 4684 1741 
L 678 1741 
L 678 2272 
z
" transform="scale(0.015625)"/>
       </defs>
       <use xlink:href="#DejaVuSans-2212"/>
       <use xlink:href="#DejaVuSans-38" x="83.789062"/>
      </g>
     </g>
    </g>
    <g id="ytick_2">
     <g id="line2d_15">
      <path d="M 46.64 309.354706 
L 565.2 309.354706 
" clip-path="url(#p9c6dcb5dd8)" style="fill: none; stroke: #b0b0b0; stroke-width: 0.8; stroke-linecap: square"/>
     </g>
     <g id="line2d_16">
      <g>
       <use xlink:href="#m596aaf88c3" x="46.64" y="309.354706" style="stroke: #000000; stroke-width: 0.8"/>
      </g>
     </g>
     <g id="text_9">
      <!-- −6 -->
      <g transform="translate(24.897813 313.153924) scale(0.1 -0.1)">
       <use xlink:href="#DejaVuSans-2212"/>
       <use xlink:href="#DejaVuSans-36" x="83.789062"/>
      </g>
     </g>
    </g>
    <g id="ytick_3">
     <g id="line2d_17">
      <path d="M 46.64 259.846932 
L 565.2 259.846932 
" clip-path="url(#p9c6dcb5dd8)" style="fill: none; stroke: #b0b0b0; stroke-width: 0.8; stroke-linecap: square"/>
     </g>
     <g id="line2d_18">
      <g>
       <use xlink:href="#m596aaf88c3" x="46.64" y="259.846932" style="stroke: #000000; stroke-width: 0.8"/>
      </g>
     </g>
     <g id="text_10">
      <!-- −4 -->
      <g transform="translate(24.897813 263.646151) scale(0.1 -0.1)">
       <use xlink:href="#DejaVuSans-2212"/>
       <use xlink:href="#DejaVuSans-34" x="83.789062"/>
      </g>
     </g>
    </g>
    <g id="ytick_4">
     <g id="line2d_19">
      <path d="M 46.64 210.339158 
L 565.2 210.339158 
" clip-path="url(#p9c6dcb5dd8)" style="fill: none; stroke: #b0b0b0; stroke-width: 0.8; stroke-linecap: square"/>
     </g>
     <g id="line2d_20">
      <g>
       <use xlink:href="#m596aaf88c3" x="46.64" y="210.339158" style="stroke: #000000; stroke-width: 0.8"/>
      </g>
     </g>
     <g id="text_11">
      <!-- −2 -->
      <g transform="translate(24.897813 214.138377) scale(0.1 -0.1)">
       <use xlink:href="#DejaVuSans-2212"/>
       <use xlink:href="#DejaVuSans-32" x="83.789062"/>
      </g>
     </g>
    </g>
    <g id="ytick_5">
     <g id="line2d_21">
      <path d="M 46.64 160.831384 
L 565.2 160.831384 
" clip-path="url(#p9c6dcb5dd8)" style="fill: none; stroke: #b0b0b0; stroke-width: 0.8; stroke-linecap: square"/>
     </g>
     <g id="line2d_22">
      <g>
       <use xlink:href="#m596aaf88c3" x="46.64" y="160.831384" style="stroke: #000000; stroke-width: 0.8"/>
      </g>
     </g>
     <g id="text_12">
      <!-- 0 -->
      <g transform="translate(33.2775 164.630603) scale(0.1 -0.1)">
       <use xlink:href="#DejaVuSans-30"/>
      </g>
     </g>
    </g>
    <g id="ytick_6">
     <g id="line2d_23">
      <path d="M 46.64 111.323611 
L 565.2 111.323611 
" clip-path="url(#p9c6dcb5dd8)" style="fill: none; stroke: #b0b0b0; stroke-width: 0.8; stroke-linecap: square"/>
     </g>
     <g id="line2d_24">
      <g>
       <use xlink:href="#m596aaf88c3" x="46.64" y="111.323611" style="stroke: #000000; stroke-width: 0.8"/>
      </g>
     </g>
     <g id="text_13">
      <!-- 2 -->
      <g transform="translate(33.2775 115.122829) scale(0.1 -0.1)">
       <use xlink:href="#DejaVuSans-32"/>
      </g>
     </g>
    </g>
    <g id="ytick_7">
     <g id="line2d_25">
      <path d="M 46.64 61.815837 
L 565.2 61.815837 
" clip-path="url(#p9c6dcb5dd8)" style="fill: none; stroke: #b0b0b0; stroke-width: 0.8; stroke-linecap: square"/>
     </g>
     <g id="line2d_26">
      <g>
       <use xlink:href="#m596aaf88c3" x="46.64" y="61.815837" style="stroke: #000000; stroke-width: 0.8"/>
      </g>
     </g>
     <g id="text_14">
      <!-- 4 -->
      <g transform="translate(33.2775 65.615056) scale(0.1 -0.1)">
       <use xlink:href="#DejaVuSans-34"/>
      </g>
     </g>
    </g>
    <g id="text_15">
     <!-- Output -->
     <g transform="translate(18.818125 225.107969) rotate(-90) scale(0.1 -0.1)">
      <defs>
       <path id="DejaVuSans-4f" d="M 2522 4238 
Q 1834 4238 1429 3725 
Q 1025 3213 1025 2328 
Q 1025 1447 1429 934 
Q 1834 422 2522 422 
Q 3209 422 3611 934 
Q 4013 1447 4013 2328 
Q 4013 3213 3611 3725 
Q 3209 4238 2522 4238 
z
M 2522 4750 
Q 3503 4750 4090 4092 
Q 4678 3434 4678 2328 
Q 4678 1225 4090 567 
Q 3503 -91 2522 -91 
Q 1538 -91 948 565 
Q 359 1222 359 2328 
Q 359 3434 948 4092 
Q 1538 4750 2522 4750 
z
" transform="scale(0.015625)"/>
       <path id="DejaVuSans-75" d="M 544 1381 
L 544 3500 
L 1119 3500 
L 1119 1403 
Q 1119 906 1312 657 
Q 1506 409 1894 409 
Q 2359 409 2629 706 
Q 2900 1003 2900 1516 
L 2900 3500 
L 3475 3500 
L 3475 0 
L 2900 0 
L 2900 538 
Q 2691 219 2414 64 
Q 2138 -91 1772 -91 
Q 1169 -91 856 284 
Q 544 659 544 1381 
z
M 1991 3584 
L 1991 3584 
z
" transform="scale(0.015625)"/>
       <path id="DejaVuSans-70" d="M 1159 525 
L 1159 -1331 
L 581 -1331 
L 581 3500 
L 1159 3500 
L 1159 2969 
Q 1341 3281 1617 3432 
Q 1894 3584 2278 3584 
Q 2916 3584 3314 3078 
Q 3713 2572 3713 1747 
Q 3713 922 3314 415 
Q 2916 -91 2278 -91 
Q 1894 -91 1617 61 
Q 1341 213 1159 525 
z
M 3116 1747 
Q 3116 2381 2855 2742 
Q 2594 3103 2138 3103 
Q 1681 3103 1420 2742 
Q 1159 2381 1159 1747 
Q 1159 1113 1420 752 
Q 1681 391 2138 391 
Q 2594 391 2855 752 
Q 3116 1113 3116 1747 
z
" transform="scale(0.015625)"/>
      </defs>
      <use xlink:href="#DejaVuSans-4f"/>
      <use xlink:href="#DejaVuSans-75" x="78.710938"/>
      <use xlink:href="#DejaVuSans-74" x="142.089844"/>
      <use xlink:href="#DejaVuSans-70" x="181.298828"/>
      <use xlink:href="#DejaVuSans-75" x="244.775391"/>
      <use xlink:href="#DejaVuSans-74" x="308.154297"/>
     </g>
    </g>
   </g>
   <g id="line2d_27">
    <path d="M 70.210909 201.922837 
L 70.682799 199.694987 
L 71.154689 201.922837 
L 71.626579 197.467137 
L 72.098469 190.783587 
L 72.570359 187.565582 
L 73.04225 185.337732 
L 73.51414 185.337732 
L 73.98603 178.654183 
L 74.45792 178.654183 
L 74.92981 176.426333 
L 75.4017 177.664027 
L 75.87359 176.426333 
L 76.34548 178.654183 
L 76.81737 177.664027 
L 77.28926 182.119727 
L 77.76115 178.654183 
L 78.23304 185.337732 
L 78.70493 182.119727 
L 79.17682 183.109883 
L 80.120601 176.426333 
L 80.592491 176.426333 
L 81.064381 170.980478 
L 81.536271 159.841229 
L 82.008161 161.078923 
L 82.480051 158.851073 
L 82.951941 154.395374 
L 83.423831 151.177368 
L 83.895721 145.483974 
L 84.367611 146.721669 
L 84.839501 136.572575 
L 86.727062 105.630217 
L 87.670842 86.817263 
L 88.614622 71.469853 
L 89.086512 71.469853 
L 89.558402 75.925552 
L 90.030292 71.469853 
L 91.445962 71.469853 
L 92.389742 81.371407 
L 92.861633 85.827107 
L 93.333523 94.738506 
L 94.277303 109.095761 
L 94.749193 128.89887 
L 95.221083 136.572575 
L 95.692973 163.306773 
L 96.636753 200.932681 
L 97.108643 226.181646 
L 98.052423 261.579704 
L 98.524313 287.076207 
L 98.996203 302.671156 
L 99.468094 308.117011 
L 99.939984 315.790716 
L 100.411874 314.800561 
L 101.355654 288.313902 
L 102.299434 247.22245 
L 102.771324 242.76675 
L 103.243214 230.637345 
L 103.715104 226.181646 
L 104.658884 204.150686 
L 105.130774 204.150686 
L 105.602664 199.694987 
L 106.074555 196.476981 
L 106.546445 198.704831 
L 107.018335 196.476981 
L 107.490225 198.704831 
L 107.962115 203.160531 
L 108.434005 199.694987 
L 108.905895 201.922837 
L 109.377785 200.932681 
L 109.849675 201.922837 
L 110.321565 200.932681 
L 110.793455 206.378536 
L 111.265345 205.140842 
L 112.681016 218.507941 
L 113.152906 220.735791 
L 114.568576 237.320895 
L 115.040466 246.232294 
L 115.512356 249.450299 
L 115.984246 247.22245 
L 116.928026 247.22245 
L 117.399916 244.9946 
L 117.871806 238.558589 
L 118.343696 235.093045 
L 118.815586 216.280091 
L 120.231257 177.664027 
L 123.062597 74.687858 
L 123.534487 62.558453 
L 124.006377 60.330604 
L 124.478267 62.558453 
L 124.950157 67.014153 
L 125.422048 82.361563 
L 125.893938 90.282807 
L 126.365828 95.728662 
L 126.837718 96.966356 
L 127.309608 93.500812 
L 128.253388 82.361563 
L 128.725278 73.697702 
L 129.197168 70.232158 
L 129.669058 71.469853 
L 130.140948 74.687858 
L 130.612838 75.925552 
L 131.084728 86.817263 
L 131.556618 93.500812 
L 132.972289 146.721669 
L 135.803629 280.392658 
L 136.275519 296.977762 
L 136.747409 309.354706 
L 137.219299 315.790716 
L 137.691189 317.028411 
L 138.163079 302.671156 
L 138.63497 299.205612 
L 139.10686 281.630352 
L 140.05064 258.361699 
L 140.52253 240.5389 
L 142.41009 207.368692 
L 142.88198 203.160531 
L 143.35387 196.476981 
L 143.82576 194.249132 
L 144.29765 193.011437 
L 144.76954 198.704831 
L 145.241431 198.704831 
L 145.713321 197.467137 
L 147.128991 216.280091 
L 147.600881 226.181646 
L 148.544661 228.409496 
L 149.016551 228.409496 
L 149.488441 226.181646 
L 149.960331 222.96364 
L 150.432221 217.517785 
L 153.263562 143.256125 
L 153.735452 124.443171 
L 154.207342 112.313766 
L 154.679232 95.728662 
L 155.623012 72.460008 
L 156.094902 74.687858 
L 157.038682 86.817263 
L 157.510572 90.282807 
L 157.982462 94.738506 
L 158.454353 96.966356 
L 158.926243 93.500812 
L 159.398133 92.510657 
L 159.870023 83.599257 
L 160.813803 74.687858 
L 161.285693 67.014153 
L 162.229473 79.143558 
L 162.701363 81.371407 
L 163.173253 101.174517 
L 163.645143 112.313766 
L 164.588923 148.949519 
L 165.532704 193.011437 
L 166.004594 221.973485 
L 167.892154 308.117011 
L 168.364044 319.25626 
L 168.835934 326.929965 
L 169.307824 325.93981 
L 169.779714 318.018566 
L 170.723494 296.977762 
L 172.139165 248.460144 
L 172.611055 237.320895 
L 173.082945 218.507941 
L 173.554835 204.150686 
L 174.026725 196.476981 
L 174.498615 182.119727 
L 175.914285 161.078923 
L 176.386175 162.069079 
L 176.858065 164.296929 
L 177.329955 170.980478 
L 177.801845 182.119727 
L 178.745626 197.467137 
L 179.217516 207.368692 
L 180.633186 223.953796 
L 181.105076 216.280091 
L 181.576966 215.289936 
L 182.048856 210.834236 
L 182.520746 205.140842 
L 182.992636 197.467137 
L 183.936416 177.664027 
L 184.408306 167.762473 
L 186.295867 119.987471 
L 186.767757 115.77931 
L 187.239647 100.184361 
L 187.711537 91.272962 
L 188.183427 92.510657 
L 188.655317 92.510657 
L 189.127207 95.728662 
L 189.599097 103.402367 
L 190.070987 103.402367 
L 190.542877 110.085916 
L 191.014767 110.085916 
L 191.486658 103.402367 
L 191.958548 94.738506 
L 193.374218 78.153402 
L 194.317998 84.589413 
L 195.261778 96.966356 
L 196.205558 121.225165 
L 196.677448 148.949519 
L 197.149338 159.841229 
L 199.508789 274.946803 
L 199.980679 293.759757 
L 200.452569 305.889162 
L 200.924459 311.582556 
L 201.396349 308.117011 
L 201.868239 307.126856 
L 203.283909 270.491103 
L 203.755799 253.905999 
L 204.22769 247.22245 
L 204.69958 232.865195 
L 205.64336 218.507941 
L 206.11525 207.368692 
L 206.58714 206.378536 
L 207.05903 196.476981 
L 207.53092 192.021282 
L 208.00281 193.011437 
L 208.4747 188.555738 
L 208.94659 188.555738 
L 209.41848 189.793432 
L 210.834151 204.150686 
L 211.306041 206.378536 
L 211.777931 211.824391 
L 212.249821 214.052241 
L 212.721711 211.824391 
L 213.193601 208.606386 
L 213.665491 207.368692 
L 214.137381 205.140842 
L 214.609271 199.694987 
L 215.081161 192.021282 
L 216.024941 171.970633 
L 216.496831 159.841229 
L 216.968721 152.167524 
L 217.440612 137.81027 
L 218.384392 115.77931 
L 218.856282 101.174517 
L 219.328172 91.272962 
L 219.800062 86.817263 
L 220.271952 83.599257 
L 220.743842 92.510657 
L 221.215732 94.738506 
L 221.687622 103.402367 
L 222.159512 104.640061 
L 222.631402 103.402367 
L 223.103292 104.640061 
L 223.575182 94.738506 
L 224.518963 81.371407 
L 225.934633 72.460008 
L 226.878413 82.361563 
L 228.294083 122.215321 
L 230.653534 237.320895 
L 231.597314 291.531907 
L 232.069204 305.889162 
L 233.012984 338.069214 
L 233.484874 318.018566 
L 233.956764 326.929965 
L 234.428654 320.246416 
L 234.900544 304.899006 
L 235.372434 295.987607 
L 236.316214 256.133849 
L 236.788104 248.460144 
L 237.259995 229.64719 
L 239.147555 173.208328 
L 239.619445 163.306773 
L 240.091335 149.939674 
L 241.035115 134.344725 
L 241.507005 137.81027 
L 243.866456 196.476981 
L 244.338346 204.150686 
L 244.810236 207.368692 
L 245.282126 206.378536 
L 245.754016 206.378536 
L 246.225906 199.694987 
L 246.697796 198.704831 
L 247.169686 193.011437 
L 247.641576 193.011437 
L 248.113466 182.119727 
L 249.057246 168.752628 
L 249.529136 156.623224 
L 250.001026 148.949519 
L 250.472917 135.58242 
L 252.360477 96.966356 
L 252.832367 95.728662 
L 254.248037 112.313766 
L 254.719927 115.77931 
L 255.191817 115.77931 
L 255.663707 112.313766 
L 256.135597 110.085916 
L 257.079378 92.510657 
L 258.023158 83.599257 
L 258.495048 82.361563 
L 258.966938 82.361563 
L 259.438828 93.500812 
L 259.910718 94.738506 
L 260.854498 118.997316 
L 261.326388 135.58242 
L 261.798278 157.613379 
L 262.270168 174.198483 
L 263.213948 221.973485 
L 264.629619 291.531907 
L 265.573399 315.790716 
L 266.045289 322.474266 
L 266.989069 308.117011 
L 268.876629 261.579704 
L 270.2923 225.19149 
L 270.76419 217.517785 
L 271.23608 206.378536 
L 272.17986 193.011437 
L 272.65175 188.555738 
L 273.59553 182.119727 
L 274.06742 177.664027 
L 274.53931 179.891877 
L 275.0112 180.882033 
L 275.48309 185.337732 
L 275.95498 186.575427 
L 276.426871 189.793432 
L 276.898761 188.555738 
L 277.370651 193.011437 
L 277.842541 189.793432 
L 278.314431 190.783587 
L 278.786321 190.783587 
L 279.258211 189.793432 
L 279.730101 187.565582 
L 280.201991 182.119727 
L 280.673881 180.882033 
L 281.145771 170.980478 
L 281.617661 167.762473 
L 282.561441 147.711824 
L 283.033332 144.493819 
L 284.920892 107.858066 
L 285.392782 104.640061 
L 285.864672 98.946667 
L 286.336562 98.946667 
L 287.752232 115.77931 
L 288.224122 115.77931 
L 288.696012 117.759621 
L 289.167902 115.77931 
L 289.639793 112.313766 
L 291.055463 88.054957 
L 291.527353 83.599257 
L 291.999243 75.925552 
L 292.471133 71.469853 
L 293.414913 83.599257 
L 294.358693 104.640061 
L 294.830583 116.769466 
L 296.246254 182.119727 
L 298.605704 301.433462 
L 299.077594 318.018566 
L 299.549484 330.147971 
L 300.021374 335.841365 
L 300.493264 336.83152 
L 301.908934 304.899006 
L 302.852715 270.491103 
L 304.268385 221.973485 
L 304.740275 208.606386 
L 305.212165 192.021282 
L 306.155945 170.980478 
L 307.099725 149.939674 
L 307.571615 148.949519 
L 308.043505 158.851073 
L 308.515395 174.198483 
L 309.459176 189.793432 
L 309.931066 203.160531 
L 310.402956 210.834236 
L 310.874846 216.280091 
L 311.346736 211.824391 
L 311.818626 217.517785 
L 312.290516 215.289936 
L 312.762406 209.596542 
L 313.234296 209.596542 
L 313.706186 194.249132 
L 314.178076 189.793432 
L 315.121856 168.752628 
L 316.537527 123.453015 
L 317.953197 86.817263 
L 318.425087 81.371407 
L 318.896977 82.361563 
L 319.368867 85.827107 
L 320.784537 104.640061 
L 321.256427 106.867911 
L 321.728317 103.402367 
L 322.200207 103.402367 
L 323.615878 79.143558 
L 324.087768 76.915708 
L 324.559658 68.004309 
L 325.031548 71.469853 
L 325.975328 82.361563 
L 326.447218 91.272962 
L 326.919108 105.630217 
L 327.862888 142.265969 
L 331.166119 320.246416 
L 332.109899 336.83152 
L 332.581789 336.83152 
L 333.525569 326.929965 
L 334.469349 300.443306 
L 335.413129 267.273098 
L 335.88502 246.232294 
L 336.35691 230.637345 
L 336.8288 209.596542 
L 337.77258 180.882033 
L 338.24447 167.762473 
L 338.71636 159.841229 
L 339.18825 147.711824 
L 339.66014 145.483974 
L 340.13203 146.721669 
L 341.07581 168.752628 
L 341.5477 176.426333 
L 342.01959 190.783587 
L 342.491481 200.932681 
L 342.963371 208.606386 
L 343.435261 231.87504 
L 343.907151 214.052241 
L 344.379041 213.062086 
L 345.322821 197.467137 
L 345.794711 193.011437 
L 346.738491 170.980478 
L 347.210381 164.296929 
L 349.097942 123.453015 
L 349.569832 110.085916 
L 350.513612 97.956512 
L 352.401172 115.77931 
L 352.873062 116.769466 
L 353.344952 116.769466 
L 353.816842 115.77931 
L 354.288732 113.55146 
L 354.760622 103.402367 
L 355.232513 103.402367 
L 355.704403 94.738506 
L 356.176293 94.738506 
L 356.648183 93.500812 
L 357.120073 93.500812 
L 357.591963 95.728662 
L 358.063853 92.510657 
L 358.535743 104.640061 
L 359.007633 110.085916 
L 359.479523 123.453015 
L 359.951413 130.136565 
L 361.367083 188.555738 
L 361.838974 214.052241 
L 362.310864 230.637345 
L 363.726534 292.769601 
L 364.198424 302.671156 
L 364.670314 308.117011 
L 365.142204 307.126856 
L 365.614094 301.433462 
L 366.085984 289.304057 
L 366.557874 273.956647 
L 368.445435 239.548745 
L 368.917325 232.865195 
L 369.389215 228.409496 
L 369.861105 226.181646 
L 370.332995 220.735791 
L 370.804885 219.745635 
L 371.276775 216.280091 
L 371.748665 211.824391 
L 372.220555 211.824391 
L 372.692445 210.834236 
L 373.164335 207.368692 
L 373.636225 205.140842 
L 374.108115 206.378536 
L 374.580005 197.467137 
L 375.051896 192.021282 
L 375.995676 175.436178 
L 376.467566 170.980478 
L 376.939456 168.752628 
L 377.411346 158.851073 
L 378.355126 146.721669 
L 378.827016 136.572575 
L 379.298906 131.12672 
L 379.770796 121.225165 
L 380.714576 112.313766 
L 381.186466 110.085916 
L 381.658357 109.095761 
L 382.130247 115.77931 
L 382.602137 115.77931 
L 383.074027 123.453015 
L 383.545917 128.89887 
L 384.017807 132.364414 
L 384.489697 137.81027 
L 385.433477 137.81027 
L 385.905367 140.038119 
L 386.377257 137.81027 
L 386.849147 136.572575 
L 388.264818 121.225165 
L 388.736708 122.215321 
L 389.680488 104.640061 
L 390.624268 88.054957 
L 391.096158 85.827107 
L 391.568048 82.361563 
L 392.039938 86.817263 
L 392.511828 86.817263 
L 392.983718 97.956512 
L 393.455608 105.630217 
L 393.927498 115.77931 
L 395.343169 174.198483 
L 397.702619 299.205612 
L 398.174509 315.790716 
L 398.646399 328.16766 
L 399.118289 336.83152 
L 399.590179 333.613515 
L 400.062069 331.385665 
L 401.47774 292.769601 
L 401.94963 272.718953 
L 402.42152 259.351854 
L 403.3653 223.953796 
L 403.83719 213.062086 
L 404.30908 193.011437 
L 406.19664 151.177368 
L 406.66853 147.711824 
L 407.14042 146.721669 
L 407.61231 158.851073 
L 408.084201 164.296929 
L 408.556091 178.654183 
L 409.027981 186.575427 
L 410.443651 215.289936 
L 411.387431 219.745635 
L 411.859321 216.280091 
L 412.331211 214.052241 
L 412.803101 205.140842 
L 413.274991 200.932681 
L 413.746881 193.011437 
L 414.690662 167.762473 
L 415.634442 135.58242 
L 416.106332 121.225165 
L 417.522002 69.242003 
L 418.465782 49.191354 
L 418.937672 55.874904 
L 419.409562 60.330604 
L 419.881452 67.014153 
L 420.353342 71.469853 
L 420.825233 73.697702 
L 421.297123 73.697702 
L 421.769013 74.687858 
L 422.240903 71.469853 
L 423.184683 71.469853 
L 423.656573 73.697702 
L 424.128463 73.697702 
L 425.072243 91.272962 
L 426.016023 115.77931 
L 426.487913 141.028275 
L 426.959803 153.157679 
L 427.903584 196.476981 
L 429.791144 302.671156 
L 430.263034 322.474266 
L 431.206814 345.742919 
L 431.678704 350.198619 
L 432.622484 347.970769 
L 433.094374 290.541752 
L 433.566264 314.800561 
L 434.510045 282.620508 
L 434.981935 269.500948 
L 435.925715 229.64719 
L 436.397605 215.289936 
L 436.869495 194.249132 
L 437.341385 180.882033 
L 438.285165 148.949519 
L 438.757055 137.81027 
L 439.228945 132.364414 
L 439.700835 122.215321 
L 440.172725 134.344725 
L 440.644616 141.028275 
L 441.116506 157.613379 
L 442.532176 186.575427 
L 443.004066 195.239287 
L 443.475956 196.476981 
L 443.947846 200.932681 
L 444.419736 203.160531 
L 444.891626 200.932681 
L 445.363516 201.922837 
L 445.835406 195.239287 
L 446.307296 184.347577 
L 446.779186 182.119727 
L 447.251077 173.208328 
L 447.722967 158.851073 
L 448.194857 151.177368 
L 449.138637 126.67102 
L 450.082417 102.412211 
L 450.554307 90.282807 
L 451.498087 82.361563 
L 451.969977 84.589413 
L 452.441867 90.282807 
L 452.913757 92.510657 
L 453.385647 96.966356 
L 453.857538 91.272962 
L 454.329428 91.272962 
L 455.273208 73.697702 
L 455.745098 71.469853 
L 456.216988 64.786303 
L 456.688878 67.014153 
L 457.160768 70.232158 
L 457.632658 75.925552 
L 458.576438 97.956512 
L 459.048328 112.313766 
L 459.520218 130.136565 
L 460.463999 177.664027 
L 461.879669 255.143693 
L 463.295339 334.60367 
L 463.767229 347.970769 
L 464.239119 356.882169 
L 464.711009 361.337868 
L 465.182899 357.872324 
L 465.654789 347.970769 
L 466.126679 334.60367 
L 467.07046 293.759757 
L 468.48613 222.96364 
L 469.42991 169.742784 
L 470.84558 113.55146 
L 471.31747 103.402367 
L 472.26125 119.987471 
L 473.20503 148.949519 
L 473.676921 162.069079 
L 475.092591 192.021282 
L 476.036371 194.249132 
L 476.508261 193.011437 
L 476.980151 189.793432 
L 477.452041 188.555738 
L 478.395821 175.436178 
L 480.283382 161.078923 
L 481.699052 147.711824 
L 482.170942 145.483974 
L 482.642832 142.265969 
L 483.114722 140.038119 
L 483.586612 138.800425 
L 484.058502 140.038119 
L 484.530392 138.800425 
L 485.002282 141.028275 
L 485.946062 141.028275 
L 486.417952 146.721669 
L 486.889843 144.493819 
L 487.361733 144.493819 
L 487.833623 142.265969 
L 488.305513 138.800425 
L 488.777403 138.800425 
L 489.721183 132.364414 
L 491.136853 112.313766 
L 491.608743 107.858066 
L 492.080633 100.184361 
L 492.552523 101.174517 
L 493.496304 92.510657 
L 493.968194 94.738506 
L 494.440084 97.956512 
L 494.911974 105.630217 
L 495.383864 121.225165 
L 495.855754 131.12672 
L 496.327644 148.949519 
L 498.215204 241.776594 
L 499.158984 289.304057 
L 499.630875 305.889162 
L 500.102765 318.018566 
L 500.574655 322.474266 
L 501.518435 312.572711 
L 501.990325 299.205612 
L 502.462215 291.531907 
L 503.405995 262.817398 
L 503.877885 249.450299 
L 504.349775 241.776594 
L 504.821665 219.745635 
L 505.765445 203.160531 
L 506.237336 189.793432 
L 507.181116 171.970633 
L 507.653006 167.762473 
L 508.124896 157.613379 
L 508.596786 158.851073 
L 509.068676 154.395374 
L 510.012456 174.198483 
L 510.484346 182.119727 
L 511.428126 203.160531 
L 511.900016 205.140842 
L 512.371906 215.289936 
L 512.843797 215.289936 
L 513.315687 217.517785 
L 513.787577 215.289936 
L 514.259467 210.834236 
L 514.731357 204.150686 
L 515.675137 184.347577 
L 516.147027 173.208328 
L 516.618917 158.851073 
L 518.506477 90.282807 
L 519.450258 62.558453 
L 519.922148 57.112598 
L 520.394038 55.874904 
L 520.865928 68.004309 
L 521.337818 72.460008 
L 521.809708 84.589413 
L 522.281598 84.589413 
L 523.225378 82.361563 
L 523.697268 78.153402 
L 524.169158 67.014153 
L 524.641048 65.776459 
L 525.112938 55.874904 
L 525.584828 60.330604 
L 526.056719 57.112598 
L 526.528609 64.786303 
L 527.000499 67.014153 
L 528.416169 115.77931 
L 529.359949 171.970633 
L 532.191289 343.51507 
L 532.66318 359.110018 
L 533.13507 370.001729 
L 533.60696 373.467273 
L 534.07885 367.773879 
L 534.55074 372.229578 
L 535.96641 319.25626 
L 536.91019 261.579704 
L 537.85397 204.150686 
L 539.741531 86.817263 
L 540.213421 62.558453 
L 540.685311 55.874904 
L 541.157201 55.874904 
L 541.629091 71.469853 
L 541.629091 71.469853 
" clip-path="url(#p9c6dcb5dd8)" style="fill: none; stroke: #1f77b4; stroke-width: 1.5; stroke-linecap: square"/>
   </g>
   <g id="line2d_28">
    <path d="M 70.210909 150.434752 
L 70.682799 150.434752 
L 71.154689 156.623224 
L 71.626579 157.118301 
L 72.098469 157.860918 
L 72.570359 159.098612 
L 73.04225 159.098612 
L 73.51414 160.336307 
L 73.98603 160.831384 
L 74.92981 160.831384 
L 75.4017 161.326462 
L 77.76115 161.326462 
L 78.23304 162.564156 
L 78.70493 163.306773 
L 79.17682 163.801851 
L 80.120601 166.277239 
L 80.592491 168.25755 
L 81.064381 169.247706 
L 82.008161 173.703406 
L 82.480051 175.436178 
L 82.951941 179.149261 
L 84.839501 189.545893 
L 85.311391 192.51636 
L 86.255172 196.72452 
L 86.727062 197.962215 
L 89.086512 197.962215 
L 89.558402 195.486826 
L 90.030292 194.496671 
L 91.445962 184.595116 
L 92.861633 168.752628 
L 93.805413 154.642913 
L 94.749193 137.067653 
L 95.692973 118.749777 
L 96.164863 107.11545 
L 97.108643 88.797573 
L 97.580533 79.638635 
L 98.524313 68.004309 
L 98.996203 63.30107 
L 99.468094 61.320759 
L 101.827544 61.320759 
L 102.299434 62.558453 
L 104.658884 62.558453 
L 105.130774 62.063376 
L 105.602664 60.825681 
L 111.265345 60.825681 
L 111.737235 61.320759 
L 113.152906 61.320759 
L 113.624796 62.558453 
L 114.096686 64.538764 
L 115.040466 71.222314 
L 115.512356 71.717392 
L 116.928026 79.638635 
L 118.343696 93.748351 
L 120.703147 125.433326 
L 121.646927 139.543042 
L 122.590707 148.70198 
L 123.534487 156.623224 
L 124.006377 157.860918 
L 124.478267 158.355996 
L 124.950157 159.098612 
L 125.422048 158.355996 
L 126.365828 155.880607 
L 126.837718 155.880607 
L 127.309608 155.385529 
L 127.781498 154.642913 
L 128.253388 154.147835 
L 128.725278 153.405218 
L 129.669058 149.197058 
L 130.612838 140.780736 
L 131.084728 135.334881 
L 132.500399 111.323611 
L 133.916069 84.094335 
L 134.859849 67.014153 
L 135.331739 60.825681 
L 135.803629 56.617521 
L 136.275519 54.142132 
L 136.747409 52.904438 
L 138.163079 52.904438 
L 138.63497 53.399515 
L 139.10686 54.142132 
L 139.57875 57.112598 
L 140.05064 58.350293 
L 140.99442 63.796148 
L 141.46631 64.538764 
L 141.9382 65.776459 
L 142.41009 68.746925 
L 142.88198 69.242003 
L 143.82576 71.717392 
L 145.241431 71.717392 
L 146.657101 77.905863 
L 147.128991 81.618946 
L 148.072771 84.094335 
L 149.016551 88.302496 
L 150.432221 99.936823 
L 151.376001 109.095761 
L 154.207342 141.275814 
L 154.679232 143.256125 
L 155.623012 148.70198 
L 156.094902 150.434752 
L 157.510572 150.434752 
L 157.982462 149.197058 
L 158.926243 149.197058 
L 159.398133 148.70198 
L 159.870023 146.721669 
L 160.341913 146.226591 
L 160.813803 144.24628 
L 161.757583 138.305347 
L 162.701363 127.908715 
L 164.117033 104.144983 
L 166.004594 65.776459 
L 166.476484 57.855215 
L 166.948374 52.904438 
L 167.420264 49.191354 
L 167.892154 46.715966 
L 168.364044 46.715966 
L 168.835934 47.458582 
L 169.307824 47.458582 
L 169.779714 47.95366 
L 170.251604 48.696277 
L 170.723494 50.924127 
L 172.139165 60.825681 
L 173.554835 72.460008 
L 174.026725 74.935397 
L 174.970505 78.400941 
L 175.442395 78.400941 
L 175.914285 79.638635 
L 176.386175 81.618946 
L 176.858065 81.618946 
L 177.329955 82.114024 
L 178.273736 82.114024 
L 178.745626 83.351718 
L 180.161296 90.777884 
L 180.633186 92.015579 
L 182.048856 100.4319 
L 186.295867 138.305347 
L 186.767757 140.780736 
L 187.239647 142.01843 
L 188.183427 145.483974 
L 189.127207 145.483974 
L 189.599097 144.988897 
L 190.070987 144.24628 
L 190.542877 144.24628 
L 191.014767 143.751202 
L 191.486658 143.751202 
L 191.958548 142.01843 
L 192.430438 141.275814 
L 192.902328 139.543042 
L 193.374218 138.305347 
L 193.846108 135.334881 
L 195.261778 121.225165 
L 196.677448 98.699128 
L 198.093119 71.717392 
L 199.036899 58.350293 
L 199.508789 54.63721 
L 199.980679 52.161821 
L 200.452569 51.666743 
L 202.340129 51.666743 
L 202.812019 54.142132 
L 203.283909 55.379826 
L 203.755799 58.350293 
L 204.22769 60.083065 
L 205.17147 66.271536 
L 205.64336 68.004309 
L 206.11525 71.222314 
L 206.58714 72.955086 
L 207.05903 73.697702 
L 207.53092 74.935397 
L 208.00281 76.668169 
L 208.4747 77.905863 
L 208.94659 78.400941 
L 209.89037 82.856641 
L 210.36226 84.094335 
L 210.834151 86.322185 
L 211.306041 87.559879 
L 212.721711 93.748351 
L 214.137381 102.907289 
L 215.081161 110.828533 
L 216.968721 129.641487 
L 218.384392 142.513508 
L 218.856282 144.24628 
L 219.328172 146.721669 
L 219.800062 147.959363 
L 220.271952 149.939674 
L 221.687622 149.939674 
L 222.159512 149.197058 
L 223.103292 149.197058 
L 223.575182 148.70198 
L 224.047073 147.464285 
L 224.518963 145.483974 
L 224.990853 144.24628 
L 225.934633 138.800425 
L 226.878413 128.403793 
L 227.350303 122.46286 
L 228.294083 105.877755 
L 230.653534 59.092909 
L 231.125424 53.399515 
L 232.069204 46.715966 
L 233.012984 46.715966 
L 233.484874 47.95366 
L 233.956764 49.933971 
L 234.428654 49.933971 
L 234.900544 53.399515 
L 235.372434 55.874904 
L 235.844324 59.092909 
L 236.788104 67.509231 
L 237.259995 71.717392 
L 238.203775 81.618946 
L 238.675665 85.08449 
L 239.147555 89.54019 
L 239.619445 92.015579 
L 241.507005 96.22374 
L 243.394565 96.22374 
L 244.338346 101.174517 
L 244.810236 102.907289 
L 245.282126 103.402367 
L 245.754016 105.382678 
L 246.697796 110.085916 
L 247.641576 117.017005 
L 248.113466 119.987471 
L 248.585356 124.195632 
L 249.057246 127.166098 
L 250.001026 135.334881 
L 250.944807 142.513508 
L 251.416697 143.751202 
L 251.888587 145.483974 
L 252.360477 146.226591 
L 252.832367 146.721669 
L 255.663707 146.721669 
L 256.135597 146.226591 
L 256.607487 143.751202 
L 257.551268 141.275814 
L 258.023158 139.543042 
L 258.966938 133.35457 
L 259.910718 122.957937 
L 260.382608 117.017005 
L 263.685839 58.350293 
L 264.157729 53.399515 
L 264.629619 50.429049 
L 265.101509 46.715966 
L 266.045289 46.715966 
L 266.517179 47.458582 
L 266.989069 47.458582 
L 267.460959 47.95366 
L 268.876629 55.874904 
L 271.70797 74.935397 
L 274.06742 85.827107 
L 274.53931 87.559879 
L 275.0112 88.302496 
L 275.95498 94.243429 
L 276.898761 97.956512 
L 277.370651 101.174517 
L 277.842541 102.164672 
L 278.314431 105.382678 
L 278.786321 106.620372 
L 282.089551 130.384103 
L 282.561441 135.334881 
L 283.033332 138.305347 
L 283.977112 145.483974 
L 284.920892 150.434752 
L 285.392782 151.177368 
L 285.864672 151.672446 
L 288.696012 151.672446 
L 289.167902 151.177368 
L 289.639793 151.177368 
L 290.111683 150.434752 
L 290.583573 148.70198 
L 291.527353 146.226591 
L 292.471133 140.780736 
L 293.886803 124.938248 
L 295.302473 99.936823 
L 296.718144 69.984619 
L 297.661924 52.904438 
L 298.605704 43.745499 
L 299.077594 42.507805 
L 300.493264 42.507805 
L 300.965154 43.002883 
L 301.437044 44.983194 
L 301.908934 47.458582 
L 302.380824 50.924127 
L 305.212165 77.163247 
L 305.684055 80.87633 
L 306.155945 82.114024 
L 306.627835 82.114024 
L 307.099725 83.351718 
L 307.571615 85.827107 
L 308.515395 85.827107 
L 308.987285 86.322185 
L 309.459176 88.302496 
L 309.931066 92.015579 
L 310.402956 94.243429 
L 311.346736 96.718817 
L 311.818626 99.936823 
L 312.290516 101.669595 
L 312.762406 106.620372 
L 313.234296 109.095761 
L 314.649966 122.957937 
L 315.121856 129.146409 
L 315.593746 133.35457 
L 316.065637 139.543042 
L 317.481307 150.434752 
L 318.425087 154.642913 
L 318.896977 155.880607 
L 319.840757 155.880607 
L 320.312647 155.385529 
L 320.784537 154.642913 
L 321.256427 154.147835 
L 321.728317 154.147835 
L 322.200207 153.405218 
L 322.672098 151.672446 
L 323.143988 151.177368 
L 324.087768 148.70198 
L 325.031548 142.513508 
L 325.503438 136.325036 
L 325.975328 131.621798 
L 326.919108 116.274388 
L 328.334778 87.559879 
L 329.750449 58.350293 
L 330.222339 51.666743 
L 331.166119 44.240577 
L 331.638009 43.745499 
L 332.109899 44.240577 
L 332.581789 44.240577 
L 333.053679 44.983194 
L 333.525569 45.478271 
L 333.997459 47.95366 
L 335.413129 59.587987 
L 337.30069 78.400941 
L 337.77258 82.114024 
L 338.24447 84.094335 
L 339.18825 86.322185 
L 339.66014 89.54019 
L 340.13203 90.035268 
L 341.07581 90.035268 
L 341.5477 90.777884 
L 342.01959 92.510657 
L 342.491481 94.986045 
L 342.963371 96.718817 
L 343.435261 97.956512 
L 343.907151 99.936823 
L 344.379041 104.640061 
L 344.850931 105.382678 
L 346.266601 117.017005 
L 348.626052 137.067653 
L 349.097942 140.780736 
L 349.569832 142.513508 
L 350.041722 142.513508 
L 350.513612 143.256125 
L 350.985502 144.988897 
L 351.457392 145.483974 
L 353.344952 145.483974 
L 353.816842 144.988897 
L 354.288732 144.988897 
L 354.760622 144.24628 
L 355.232513 143.256125 
L 355.704403 141.275814 
L 356.176293 140.780736 
L 356.648183 137.562731 
L 357.120073 135.829959 
L 358.063853 128.403793 
L 358.535743 123.700554 
L 360.423303 96.22374 
L 360.895193 86.322185 
L 361.838974 70.479697 
L 362.310864 62.558453 
L 363.254644 54.142132 
L 363.726534 50.924127 
L 364.198424 49.933971 
L 365.614094 49.933971 
L 366.085984 50.429049 
L 366.557874 52.904438 
L 367.029764 54.142132 
L 367.501654 55.874904 
L 367.973544 59.092909 
L 368.445435 60.083065 
L 369.389215 65.776459 
L 371.276775 74.935397 
L 372.220555 81.618946 
L 372.692445 84.094335 
L 374.580005 97.956512 
L 375.051896 102.907289 
L 375.523786 105.877755 
L 379.298906 138.800425 
L 379.770796 142.01843 
L 380.242686 144.24628 
L 380.714576 145.483974 
L 381.658357 149.197058 
L 382.130247 149.939674 
L 384.961587 149.939674 
L 385.433477 150.434752 
L 388.264818 150.434752 
L 388.736708 149.939674 
L 389.208598 148.70198 
L 389.680488 148.70198 
L 390.152378 145.483974 
L 390.624268 144.988897 
L 391.568048 139.543042 
L 392.511828 130.384103 
L 392.983718 124.938248 
L 394.399388 101.669595 
L 396.758839 56.617521 
L 397.230729 50.429049 
L 397.702619 46.715966 
L 398.174509 44.240577 
L 399.118289 44.240577 
L 399.590179 44.983194 
L 400.062069 45.478271 
L 400.533959 46.220888 
L 401.005849 50.429049 
L 401.47774 52.904438 
L 403.3653 72.460008 
L 403.83719 76.173091 
L 404.78097 85.08449 
L 405.25286 87.559879 
L 405.72475 88.797573 
L 406.19664 90.777884 
L 406.66853 92.015579 
L 407.14042 94.243429 
L 407.61231 94.986045 
L 408.084201 94.986045 
L 408.556091 96.22374 
L 409.027981 96.718817 
L 409.971761 103.402367 
L 410.443651 104.144983 
L 410.915541 106.620372 
L 411.387431 108.353144 
L 411.859321 110.828533 
L 413.746881 127.908715 
L 414.690662 139.543042 
L 417.050112 166.277239 
L 418.465782 173.703406 
L 419.409562 173.703406 
L 420.353342 171.228017 
L 420.825233 168.752628 
L 421.297123 167.514934 
L 421.769013 165.039545 
L 422.240903 163.306773 
L 422.712793 160.336307 
L 423.656573 152.910141 
L 424.128463 147.959363 
L 425.544133 126.67102 
L 427.431694 88.302496 
L 428.375474 67.014153 
L 429.319254 50.429049 
L 430.263034 42.507805 
L 430.734924 42.012727 
L 431.206814 42.507805 
L 431.678704 42.507805 
L 432.150594 43.002883 
L 432.622484 43.745499 
L 433.094374 46.220888 
L 433.566264 50.429049 
L 434.038155 48.696277 
L 434.510045 59.587987 
L 434.981935 63.796148 
L 437.341385 91.272962 
L 438.285165 97.956512 
L 438.757055 99.936823 
L 439.228945 101.174517 
L 439.700835 104.144983 
L 440.172725 105.382678 
L 441.588396 105.382678 
L 442.060286 106.620372 
L 442.532176 110.085916 
L 443.004066 112.066227 
L 443.475956 112.561305 
L 443.947846 115.036694 
L 444.419736 116.274388 
L 445.835406 124.938248 
L 446.307296 129.146409 
L 446.779186 132.116876 
L 449.610527 157.118301 
L 450.082417 159.59369 
L 450.554307 161.326462 
L 451.498087 163.801851 
L 452.441867 163.801851 
L 452.913757 163.306773 
L 453.385647 163.306773 
L 453.857538 162.564156 
L 454.329428 162.069079 
L 454.801318 159.098612 
L 455.273208 158.355996 
L 455.745098 155.880607 
L 456.216988 154.147835 
L 456.688878 150.434752 
L 457.632658 140.038119 
L 458.576438 125.433326 
L 459.520218 106.620372 
L 461.879669 57.112598 
L 462.351559 50.429049 
L 462.823449 46.220888 
L 463.295339 43.745499 
L 463.767229 43.745499 
L 464.239119 44.983194 
L 464.711009 45.478271 
L 465.182899 47.95366 
L 467.07046 65.776459 
L 469.42991 97.956512 
L 469.9018 102.164672 
L 471.31747 110.085916 
L 472.26125 110.085916 
L 473.20503 109.095761 
L 473.676921 109.590838 
L 474.148811 109.590838 
L 474.620701 110.085916 
L 475.092591 110.085916 
L 475.564481 111.323611 
L 476.036371 113.303922 
L 476.508261 114.541616 
L 477.452041 118.254699 
L 477.923931 120.482549 
L 478.395821 123.700554 
L 478.867711 124.938248 
L 481.227162 135.829959 
L 481.699052 137.562731 
L 483.114722 141.275814 
L 483.586612 142.01843 
L 484.058502 142.513508 
L 488.777403 142.513508 
L 489.249293 142.01843 
L 490.193073 142.01843 
L 490.664963 140.780736 
L 491.608743 137.067653 
L 492.080633 136.325036 
L 492.552523 134.592264 
L 493.496304 129.641487 
L 494.440084 120.482549 
L 495.383864 108.353144 
L 496.327644 93.005734 
L 497.271424 75.430475 
L 498.215204 59.587987 
L 498.687094 54.63721 
L 499.158984 51.666743 
L 499.630875 49.933971 
L 500.102765 49.191354 
L 501.046545 49.191354 
L 501.518435 49.933971 
L 501.990325 50.924127 
L 503.877885 63.796148 
L 504.349775 68.746925 
L 505.293555 76.668169 
L 505.765445 78.400941 
L 506.709226 87.064801 
L 507.181116 89.54019 
L 507.653006 91.272962 
L 508.124896 92.015579 
L 508.596786 92.015579 
L 509.068676 92.510657 
L 509.540566 94.986045 
L 510.012456 94.986045 
L 510.484346 96.718817 
L 511.428126 103.402367 
L 512.843797 107.11545 
L 514.731357 121.720243 
L 516.618917 143.751202 
L 517.562697 155.880607 
L 518.506477 166.277239 
L 518.978367 168.752628 
L 519.450258 172.465711 
L 519.922148 174.9411 
L 520.865928 174.9411 
L 521.337818 174.198483 
L 521.809708 173.703406 
L 522.281598 172.465711 
L 522.753488 172.465711 
L 523.697268 168.25755 
L 524.169158 168.25755 
L 524.641048 166.277239 
L 525.584828 160.831384 
L 526.056719 154.642913 
L 526.528609 150.434752 
L 527.944279 124.938248 
L 528.888059 103.402367 
L 530.303729 68.746925 
L 530.775619 59.092909 
L 531.719399 47.95366 
L 532.191289 45.478271 
L 532.66318 45.478271 
L 533.13507 46.715966 
L 534.07885 52.161821 
L 535.49452 68.004309 
L 536.91019 90.035268 
L 539.269641 127.908715 
L 539.741531 130.384103 
L 540.213421 134.592264 
L 540.685311 136.325036 
L 541.629091 136.325036 
L 541.629091 136.325036 
" clip-path="url(#p9c6dcb5dd8)" style="fill: none; stroke: #ff7f0e; stroke-width: 1.5; stroke-linecap: square"/>
   </g>
   <g id="patch_3">
    <path d="M 46.64 390.04 
L 46.64 25.44 
" style="fill: none; stroke: #000000; stroke-width: 0.8; stroke-linejoin: miter; stroke-linecap: square"/>
   </g>
   <g id="patch_4">
    <path d="M 565.2 390.04 
L 565.2 25.44 
" style="fill: none; stroke: #000000; stroke-width: 0.8; stroke-linejoin: miter; stroke-linecap: square"/>
   </g>
   <g id="patch_5">
    <path d="M 46.64 390.04 
L 565.2 390.04 
" style="fill: none; stroke: #000000; stroke-width: 0.8; stroke-linejoin: miter; stroke-linecap: square"/>
   </g>
   <g id="patch_6">
    <path d="M 46.64 25.44 
L 565.2 25.44 
" style="fill: none; stroke: #000000; stroke-width: 0.8; stroke-linejoin: miter; stroke-linecap: square"/>
   </g>
   <g id="text_16">
    <!-- Plant Outputs -->
    <g transform="translate(264.929687 19.44) scale(0.12 -0.12)">
     <defs>
      <path id="DejaVuSans-50" d="M 1259 4147 
L 1259 2394 
L 2053 2394 
Q 2494 2394 2734 2622 
Q 2975 2850 2975 3272 
Q 2975 3691 2734 3919 
Q 2494 4147 2053 4147 
L 1259 4147 
z
M 628 4666 
L 2053 4666 
Q 2838 4666 3239 4311 
Q 3641 3956 3641 3272 
Q 3641 2581 3239 2228 
Q 2838 1875 2053 1875 
L 1259 1875 
L 1259 0 
L 628 0 
L 628 4666 
z
" transform="scale(0.015625)"/>
      <path id="DejaVuSans-6c" d="M 603 4863 
L 1178 4863 
L 1178 0 
L 603 0 
L 603 4863 
z
" transform="scale(0.015625)"/>
      <path id="DejaVuSans-20" transform="scale(0.015625)"/>
      <path id="DejaVuSans-73" d="M 2834 3397 
L 2834 2853 
Q 2591 2978 2328 3040 
Q 2066 3103 1784 3103 
Q 1356 3103 1142 2972 
Q 928 2841 928 2578 
Q 928 2378 1081 2264 
Q 1234 2150 1697 2047 
L 1894 2003 
Q 2506 1872 2764 1633 
Q 3022 1394 3022 966 
Q 3022 478 2636 193 
Q 2250 -91 1575 -91 
Q 1294 -91 989 -36 
Q 684 19 347 128 
L 347 722 
Q 666 556 975 473 
Q 1284 391 1588 391 
Q 1994 391 2212 530 
Q 2431 669 2431 922 
Q 2431 1156 2273 1281 
Q 2116 1406 1581 1522 
L 1381 1569 
Q 847 1681 609 1914 
Q 372 2147 372 2553 
Q 372 3047 722 3315 
Q 1072 3584 1716 3584 
Q 2034 3584 2315 3537 
Q 2597 3491 2834 3397 
z
" transform="scale(0.015625)"/>
     </defs>
     <use xlink:href="#DejaVuSans-50"/>
     <use xlink:href="#DejaVuSans-6c" x="60.302734"/>
     <use xlink:href="#DejaVuSans-61" x="88.085938"/>
     <use xlink:href="#DejaVuSans-6e" x="149.365234"/>
     <use xlink:href="#DejaVuSans-74" x="212.744141"/>
     <use xlink:href="#DejaVuSans-20" x="251.953125"/>
     <use xlink:href="#DejaVuSans-4f" x="283.740234"/>
     <use xlink:href="#DejaVuSans-75" x="362.451172"/>
     <use xlink:href="#DejaVuSans-74" x="425.830078"/>
     <use xlink:href="#DejaVuSans-70" x="465.039062"/>
     <use xlink:href="#DejaVuSans-75" x="528.515625"/>
     <use xlink:href="#DejaVuSans-74" x="591.894531"/>
     <use xlink:href="#DejaVuSans-73" x="631.103516"/>
    </g>
   </g>
   <g id="legend_1">
    <g id="patch_7">
     <path d="M 53.64 385.04 
L 152.136875 385.04 
Q 154.136875 385.04 154.136875 383.04 
L 154.136875 354.68375 
Q 154.136875 352.68375 152.136875 352.68375 
L 53.64 352.68375 
Q 51.64 352.68375 51.64 354.68375 
L 51.64 383.04 
Q 51.64 385.04 53.64 385.04 
z
" style="fill: #ffffff; opacity: 0.8; stroke: #cccccc; stroke-linejoin: miter"/>
    </g>
    <g id="line2d_29">
     <path d="M 55.64 360.782187 
L 65.64 360.782187 
L 75.64 360.782187 
" style="fill: none; stroke: #1f77b4; stroke-width: 1.5; stroke-linecap: square"/>
    </g>
    <g id="text_17">
     <!-- Angle (deg) -->
     <g transform="translate(83.64 364.282187) scale(0.1 -0.1)">
      <defs>
       <path id="DejaVuSans-41" d="M 2188 4044 
L 1331 1722 
L 3047 1722 
L 2188 4044 
z
M 1831 4666 
L 2547 4666 
L 4325 0 
L 3669 0 
L 3244 1197 
L 1141 1197 
L 716 0 
L 50 0 
L 1831 4666 
z
" transform="scale(0.015625)"/>
       <path id="DejaVuSans-67" d="M 2906 1791 
Q 2906 2416 2648 2759 
Q 2391 3103 1925 3103 
Q 1463 3103 1205 2759 
Q 947 2416 947 1791 
Q 947 1169 1205 825 
Q 1463 481 1925 481 
Q 2391 481 2648 825 
Q 2906 1169 2906 1791 
z
M 3481 434 
Q 3481 -459 3084 -895 
Q 2688 -1331 1869 -1331 
Q 1566 -1331 1297 -1286 
Q 1028 -1241 775 -1147 
L 775 -588 
Q 1028 -725 1275 -790 
Q 1522 -856 1778 -856 
Q 2344 -856 2625 -561 
Q 2906 -266 2906 331 
L 2906 616 
Q 2728 306 2450 153 
Q 2172 0 1784 0 
Q 1141 0 747 490 
Q 353 981 353 1791 
Q 353 2603 747 3093 
Q 1141 3584 1784 3584 
Q 2172 3584 2450 3431 
Q 2728 3278 2906 2969 
L 2906 3500 
L 3481 3500 
L 3481 434 
z
" transform="scale(0.015625)"/>
       <path id="DejaVuSans-28" d="M 1984 4856 
Q 1566 4138 1362 3434 
Q 1159 2731 1159 2009 
Q 1159 1288 1364 580 
Q 1569 -128 1984 -844 
L 1484 -844 
Q 1016 -109 783 600 
Q 550 1309 550 2009 
Q 550 2706 781 3412 
Q 1013 4119 1484 4856 
L 1984 4856 
z
" transform="scale(0.015625)"/>
       <path id="DejaVuSans-64" d="M 2906 2969 
L 2906 4863 
L 3481 4863 
L 3481 0 
L 2906 0 
L 2906 525 
Q 2725 213 2448 61 
Q 2172 -91 1784 -91 
Q 1150 -91 751 415 
Q 353 922 353 1747 
Q 353 2572 751 3078 
Q 1150 3584 1784 3584 
Q 2172 3584 2448 3432 
Q 2725 3281 2906 2969 
z
M 947 1747 
Q 947 1113 1208 752 
Q 1469 391 1925 391 
Q 2381 391 2643 752 
Q 2906 1113 2906 1747 
Q 2906 2381 2643 2742 
Q 2381 3103 1925 3103 
Q 1469 3103 1208 2742 
Q 947 2381 947 1747 
z
" transform="scale(0.015625)"/>
       <path id="DejaVuSans-29" d="M 513 4856 
L 1013 4856 
Q 1481 4119 1714 3412 
Q 1947 2706 1947 2009 
Q 1947 1309 1714 600 
Q 1481 -109 1013 -844 
L 513 -844 
Q 928 -128 1133 580 
Q 1338 1288 1338 2009 
Q 1338 2731 1133 3434 
Q 928 4138 513 4856 
z
" transform="scale(0.015625)"/>
      </defs>
      <use xlink:href="#DejaVuSans-41"/>
      <use xlink:href="#DejaVuSans-6e" x="68.408203"/>
      <use xlink:href="#DejaVuSans-67" x="131.787109"/>
      <use xlink:href="#DejaVuSans-6c" x="195.263672"/>
      <use xlink:href="#DejaVuSans-65" x="223.046875"/>
      <use xlink:href="#DejaVuSans-20" x="284.570312"/>
      <use xlink:href="#DejaVuSans-28" x="316.357422"/>
      <use xlink:href="#DejaVuSans-64" x="355.371094"/>
      <use xlink:href="#DejaVuSans-65" x="418.847656"/>
      <use xlink:href="#DejaVuSans-67" x="480.371094"/>
      <use xlink:href="#DejaVuSans-29" x="543.847656"/>
     </g>
    </g>
    <g id="line2d_30">
     <path d="M 55.64 375.460312 
L 65.64 375.460312 
L 75.64 375.460312 
" style="fill: none; stroke: #ff7f0e; stroke-width: 1.5; stroke-linecap: square"/>
    </g>
    <g id="text_18">
     <!-- Position (rad) -->
     <g transform="translate(83.64 378.960312) scale(0.1 -0.1)">
      <use xlink:href="#DejaVuSans-50"/>
      <use xlink:href="#DejaVuSans-6f" x="56.677734"/>
      <use xlink:href="#DejaVuSans-73" x="117.859375"/>
      <use xlink:href="#DejaVuSans-69" x="169.958984"/>
      <use xlink:href="#DejaVuSans-74" x="197.742188"/>
      <use xlink:href="#DejaVuSans-69" x="236.951172"/>
      <use xlink:href="#DejaVuSans-6f" x="264.734375"/>
      <use xlink:href="#DejaVuSans-6e" x="325.916016"/>
      <use xlink:href="#DejaVuSans-20" x="389.294922"/>
      <use xlink:href="#DejaVuSans-28" x="421.082031"/>
      <use xlink:href="#DejaVuSans-72" x="460.095703"/>
      <use xlink:href="#DejaVuSans-61" x="501.208984"/>
      <use xlink:href="#DejaVuSans-64" x="562.488281"/>
      <use xlink:href="#DejaVuSans-29" x="625.964844"/>
     </g>
    </g>
   </g>
  </g>
 </g>
 <defs>
  <clipPath id="p9c6dcb5dd8">
   <rect x="46.64" y="25.44" width="518.56" height="364.6"/>
  </clipPath>
 </defs>
</svg>
