<?xml version="1.0" encoding="utf-8" standalone="no"?>
<!DOCTYPE svg PUBLIC "-//W3C//DTD SVG 1.1//EN"
  "http://www.w3.org/Graphics/SVG/1.1/DTD/svg11.dtd">
<svg xmlns:xlink="http://www.w3.org/1999/xlink" width="576pt" height="432pt" viewBox="0 0 576 432" xmlns="http://www.w3.org/2000/svg" version="1.1">
 <metadata>
  <rdf:RDF xmlns:dc="http://purl.org/dc/elements/1.1/" xmlns:cc="http://creativecommons.org/ns#" xmlns:rdf="http://www.w3.org/1999/02/22-rdf-syntax-ns#">
   <cc:Work>
    <dc:type rdf:resource="http://purl.org/dc/dcmitype/StillImage"/>
    <dc:date>2025-08-03T18:06:22.809091</dc:date>
    <dc:format>image/svg+xml</dc:format>
    <dc:creator>
     <cc:Agent>
      <dc:title>Matplotlib v3.6.3, https://matplotlib.org/</dc:title>
     </cc:Agent>
    </dc:creator>
   </cc:Work>
  </rdf:RDF>
 </metadata>
 <defs>
  <style type="text/css">*{stroke-linejoin: round; stroke-linecap: butt}</style>
 </defs>
 <g id="figure_1">
  <g id="patch_1">
   <path d="M 0 432 
L 576 432 
L 576 0 
L 0 0 
z
" style="fill: #ffffff"/>
  </g>
  <g id="axes_1">
   <g id="patch_2">
    <path d="M 59.42 390.04 
L 565.2 390.04 
L 565.2 25.44 
L 59.42 25.44 
z
" style="fill: #ffffff"/>
   </g>
   <g id="matplotlib.axis_1">
    <g id="xtick_1">
     <g id="line2d_1">
      <path d="M 82.41 390.04 
L 82.41 25.44 
" clip-path="url(#p3aa496db4a)" style="fill: none; stroke: #b0b0b0; stroke-width: 0.8; stroke-linecap: square"/>
     </g>
     <g id="line2d_2">
      <defs>
       <path id="ma7a9108e48" d="M 0 0 
L 0 3.5 
" style="stroke: #000000; stroke-width: 0.8"/>
      </defs>
      <g>
       <use xlink:href="#ma7a9108e48" x="82.41" y="390.04" style="stroke: #000000; stroke-width: 0.8"/>
      </g>
     </g>
     <g id="text_1">
      <!-- 0 -->
      <g transform="translate(79.22875 404.638438) scale(0.1 -0.1)">
       <defs>
        <path id="DejaVuSans-30" d="M 2034 4250 
Q 1547 4250 1301 3770 
Q 1056 3291 1056 2328 
Q 1056 1369 1301 889 
Q 1547 409 2034 409 
Q 2525 409 2770 889 
Q 3016 1369 3016 2328 
Q 3016 3291 2770 3770 
Q 2525 4250 2034 4250 
z
M 2034 4750 
Q 2819 4750 3233 4129 
Q 3647 3509 3647 2328 
Q 3647 1150 3233 529 
Q 2819 -91 2034 -91 
Q 1250 -91 836 529 
Q 422 1150 422 2328 
Q 422 3509 836 4129 
Q 1250 4750 2034 4750 
z
" transform="scale(0.015625)"/>
       </defs>
       <use xlink:href="#DejaVuSans-30"/>
      </g>
     </g>
    </g>
    <g id="xtick_2">
     <g id="line2d_3">
      <path d="M 174.462052 390.04 
L 174.462052 25.44 
" clip-path="url(#p3aa496db4a)" style="fill: none; stroke: #b0b0b0; stroke-width: 0.8; stroke-linecap: square"/>
     </g>
     <g id="line2d_4">
      <g>
       <use xlink:href="#ma7a9108e48" x="174.462052" y="390.04" style="stroke: #000000; stroke-width: 0.8"/>
      </g>
     </g>
     <g id="text_2">
      <!-- 200 -->
      <g transform="translate(164.918302 404.638438) scale(0.1 -0.1)">
       <defs>
        <path id="DejaVuSans-32" d="M 1228 531 
L 3431 531 
L 3431 0 
L 469 0 
L 469 531 
Q 828 903 1448 1529 
Q 2069 2156 2228 2338 
Q 2531 2678 2651 2914 
Q 2772 3150 2772 3378 
Q 2772 3750 2511 3984 
Q 2250 4219 1831 4219 
Q 1534 4219 1204 4116 
Q 875 4013 500 3803 
L 500 4441 
Q 881 4594 1212 4672 
Q 1544 4750 1819 4750 
Q 2544 4750 2975 4387 
Q 3406 4025 3406 3419 
Q 3406 3131 3298 2873 
Q 3191 2616 2906 2266 
Q 2828 2175 2409 1742 
Q 1991 1309 1228 531 
z
" transform="scale(0.015625)"/>
       </defs>
       <use xlink:href="#DejaVuSans-32"/>
       <use xlink:href="#DejaVuSans-30" x="63.623047"/>
       <use xlink:href="#DejaVuSans-30" x="127.246094"/>
      </g>
     </g>
    </g>
    <g id="xtick_3">
     <g id="line2d_5">
      <path d="M 266.514104 390.04 
L 266.514104 25.44 
" clip-path="url(#p3aa496db4a)" style="fill: none; stroke: #b0b0b0; stroke-width: 0.8; stroke-linecap: square"/>
     </g>
     <g id="line2d_6">
      <g>
       <use xlink:href="#ma7a9108e48" x="266.514104" y="390.04" style="stroke: #000000; stroke-width: 0.8"/>
      </g>
     </g>
     <g id="text_3">
      <!-- 400 -->
      <g transform="translate(256.970354 404.638438) scale(0.1 -0.1)">
       <defs>
        <path id="DejaVuSans-34" d="M 2419 4116 
L 825 1625 
L 2419 1625 
L 2419 4116 
z
M 2253 4666 
L 3047 4666 
L 3047 1625 
L 3713 1625 
L 3713 1100 
L 3047 1100 
L 3047 0 
L 2419 0 
L 2419 1100 
L 313 1100 
L 313 1709 
L 2253 4666 
z
" transform="scale(0.015625)"/>
       </defs>
       <use xlink:href="#DejaVuSans-34"/>
       <use xlink:href="#DejaVuSans-30" x="63.623047"/>
       <use xlink:href="#DejaVuSans-30" x="127.246094"/>
      </g>
     </g>
    </g>
    <g id="xtick_4">
     <g id="line2d_7">
      <path d="M 358.566156 390.04 
L 358.566156 25.44 
" clip-path="url(#p3aa496db4a)" style="fill: none; stroke: #b0b0b0; stroke-width: 0.8; stroke-linecap: square"/>
     </g>
     <g id="line2d_8">
      <g>
       <use xlink:href="#ma7a9108e48" x="358.566156" y="390.04" style="stroke: #000000; stroke-width: 0.8"/>
      </g>
     </g>
     <g id="text_4">
      <!-- 600 -->
      <g transform="translate(349.022406 404.638438) scale(0.1 -0.1)">
       <defs>
        <path id="DejaVuSans-36" d="M 2113 2584 
Q 1688 2584 1439 2293 
Q 1191 2003 1191 1497 
Q 1191 994 1439 701 
Q 1688 409 2113 409 
Q 2538 409 2786 701 
Q 3034 994 3034 1497 
Q 3034 2003 2786 2293 
Q 2538 2584 2113 2584 
z
M 3366 4563 
L 3366 3988 
Q 3128 4100 2886 4159 
Q 2644 4219 2406 4219 
Q 1781 4219 1451 3797 
Q 1122 3375 1075 2522 
Q 1259 2794 1537 2939 
Q 1816 3084 2150 3084 
Q 2853 3084 3261 2657 
Q 3669 2231 3669 1497 
Q 3669 778 3244 343 
Q 2819 -91 2113 -91 
Q 1303 -91 875 529 
Q 447 1150 447 2328 
Q 447 3434 972 4092 
Q 1497 4750 2381 4750 
Q 2619 4750 2861 4703 
Q 3103 4656 3366 4563 
z
" transform="scale(0.015625)"/>
       </defs>
       <use xlink:href="#DejaVuSans-36"/>
       <use xlink:href="#DejaVuSans-30" x="63.623047"/>
       <use xlink:href="#DejaVuSans-30" x="127.246094"/>
      </g>
     </g>
    </g>
    <g id="xtick_5">
     <g id="line2d_9">
      <path d="M 450.618208 390.04 
L 450.618208 25.44 
" clip-path="url(#p3aa496db4a)" style="fill: none; stroke: #b0b0b0; stroke-width: 0.8; stroke-linecap: square"/>
     </g>
     <g id="line2d_10">
      <g>
       <use xlink:href="#ma7a9108e48" x="450.618208" y="390.04" style="stroke: #000000; stroke-width: 0.8"/>
      </g>
     </g>
     <g id="text_5">
      <!-- 800 -->
      <g transform="translate(441.074458 404.638438) scale(0.1 -0.1)">
       <defs>
        <path id="DejaVuSans-38" d="M 2034 2216 
Q 1584 2216 1326 1975 
Q 1069 1734 1069 1313 
Q 1069 891 1326 650 
Q 1584 409 2034 409 
Q 2484 409 2743 651 
Q 3003 894 3003 1313 
Q 3003 1734 2745 1975 
Q 2488 2216 2034 2216 
z
M 1403 2484 
Q 997 2584 770 2862 
Q 544 3141 544 3541 
Q 544 4100 942 4425 
Q 1341 4750 2034 4750 
Q 2731 4750 3128 4425 
Q 3525 4100 3525 3541 
Q 3525 3141 3298 2862 
Q 3072 2584 2669 2484 
Q 3125 2378 3379 2068 
Q 3634 1759 3634 1313 
Q 3634 634 3220 271 
Q 2806 -91 2034 -91 
Q 1263 -91 848 271 
Q 434 634 434 1313 
Q 434 1759 690 2068 
Q 947 2378 1403 2484 
z
M 1172 3481 
Q 1172 3119 1398 2916 
Q 1625 2713 2034 2713 
Q 2441 2713 2670 2916 
Q 2900 3119 2900 3481 
Q 2900 3844 2670 4047 
Q 2441 4250 2034 4250 
Q 1625 4250 1398 4047 
Q 1172 3844 1172 3481 
z
" transform="scale(0.015625)"/>
       </defs>
       <use xlink:href="#DejaVuSans-38"/>
       <use xlink:href="#DejaVuSans-30" x="63.623047"/>
       <use xlink:href="#DejaVuSans-30" x="127.246094"/>
      </g>
     </g>
    </g>
    <g id="xtick_6">
     <g id="line2d_11">
      <path d="M 542.67026 390.04 
L 542.67026 25.44 
" clip-path="url(#p3aa496db4a)" style="fill: none; stroke: #b0b0b0; stroke-width: 0.8; stroke-linecap: square"/>
     </g>
     <g id="line2d_12">
      <g>
       <use xlink:href="#ma7a9108e48" x="542.67026" y="390.04" style="stroke: #000000; stroke-width: 0.8"/>
      </g>
     </g>
     <g id="text_6">
      <!-- 1000 -->
      <g transform="translate(529.94526 404.638438) scale(0.1 -0.1)">
       <defs>
        <path id="DejaVuSans-31" d="M 794 531 
L 1825 531 
L 1825 4091 
L 703 3866 
L 703 4441 
L 1819 4666 
L 2450 4666 
L 2450 531 
L 3481 531 
L 3481 0 
L 794 0 
L 794 531 
z
" transform="scale(0.015625)"/>
       </defs>
       <use xlink:href="#DejaVuSans-31"/>
       <use xlink:href="#DejaVuSans-30" x="63.623047"/>
       <use xlink:href="#DejaVuSans-30" x="127.246094"/>
       <use xlink:href="#DejaVuSans-30" x="190.869141"/>
      </g>
     </g>
    </g>
    <g id="text_7">
     <!-- Iteration -->
     <g transform="translate(291.101406 418.316562) scale(0.1 -0.1)">
      <defs>
       <path id="DejaVuSans-49" d="M 628 4666 
L 1259 4666 
L 1259 0 
L 628 0 
L 628 4666 
z
" transform="scale(0.015625)"/>
       <path id="DejaVuSans-74" d="M 1172 4494 
L 1172 3500 
L 2356 3500 
L 2356 3053 
L 1172 3053 
L 1172 1153 
Q 1172 725 1289 603 
Q 1406 481 1766 481 
L 2356 481 
L 2356 0 
L 1766 0 
Q 1100 0 847 248 
Q 594 497 594 1153 
L 594 3053 
L 172 3053 
L 172 3500 
L 594 3500 
L 594 4494 
L 1172 4494 
z
" transform="scale(0.015625)"/>
       <path id="DejaVuSans-65" d="M 3597 1894 
L 3597 1613 
L 953 1613 
Q 991 1019 1311 708 
Q 1631 397 2203 397 
Q 2534 397 2845 478 
Q 3156 559 3463 722 
L 3463 178 
Q 3153 47 2828 -22 
Q 2503 -91 2169 -91 
Q 1331 -91 842 396 
Q 353 884 353 1716 
Q 353 2575 817 3079 
Q 1281 3584 2069 3584 
Q 2775 3584 3186 3129 
Q 3597 2675 3597 1894 
z
M 3022 2063 
Q 3016 2534 2758 2815 
Q 2500 3097 2075 3097 
Q 1594 3097 1305 2825 
Q 1016 2553 972 2059 
L 3022 2063 
z
" transform="scale(0.015625)"/>
       <path id="DejaVuSans-72" d="M 2631 2963 
Q 2534 3019 2420 3045 
Q 2306 3072 2169 3072 
Q 1681 3072 1420 2755 
Q 1159 2438 1159 1844 
L 1159 0 
L 581 0 
L 581 3500 
L 1159 3500 
L 1159 2956 
Q 1341 3275 1631 3429 
Q 1922 3584 2338 3584 
Q 2397 3584 2469 3576 
Q 2541 3569 2628 3553 
L 2631 2963 
z
" transform="scale(0.015625)"/>
       <path id="DejaVuSans-61" d="M 2194 1759 
Q 1497 1759 1228 1600 
Q 959 1441 959 1056 
Q 959 750 1161 570 
Q 1363 391 1709 391 
Q 2188 391 2477 730 
Q 2766 1069 2766 1631 
L 2766 1759 
L 2194 1759 
z
M 3341 1997 
L 3341 0 
L 2766 0 
L 2766 531 
Q 2569 213 2275 61 
Q 1981 -91 1556 -91 
Q 1019 -91 701 211 
Q 384 513 384 1019 
Q 384 1609 779 1909 
Q 1175 2209 1959 2209 
L 2766 2209 
L 2766 2266 
Q 2766 2663 2505 2880 
Q 2244 3097 1772 3097 
Q 1472 3097 1187 3025 
Q 903 2953 641 2809 
L 641 3341 
Q 956 3463 1253 3523 
Q 1550 3584 1831 3584 
Q 2591 3584 2966 3190 
Q 3341 2797 3341 1997 
z
" transform="scale(0.015625)"/>
       <path id="DejaVuSans-69" d="M 603 3500 
L 1178 3500 
L 1178 0 
L 603 0 
L 603 3500 
z
M 603 4863 
L 1178 4863 
L 1178 4134 
L 603 4134 
L 603 4863 
z
" transform="scale(0.015625)"/>
       <path id="DejaVuSans-6f" d="M 1959 3097 
Q 1497 3097 1228 2736 
Q 959 2375 959 1747 
Q 959 1119 1226 758 
Q 1494 397 1959 397 
Q 2419 397 2687 759 
Q 2956 1122 2956 1747 
Q 2956 2369 2687 2733 
Q 2419 3097 1959 3097 
z
M 1959 3584 
Q 2709 3584 3137 3096 
Q 3566 2609 3566 1747 
Q 3566 888 3137 398 
Q 2709 -91 1959 -91 
Q 1206 -91 779 398 
Q 353 888 353 1747 
Q 353 2609 779 3096 
Q 1206 3584 1959 3584 
z
" transform="scale(0.015625)"/>
       <path id="DejaVuSans-6e" d="M 3513 2113 
L 3513 0 
L 2938 0 
L 2938 2094 
Q 2938 2591 2744 2837 
Q 2550 3084 2163 3084 
Q 1697 3084 1428 2787 
Q 1159 2491 1159 1978 
L 1159 0 
L 581 0 
L 581 3500 
L 1159 3500 
L 1159 2956 
Q 1366 3272 1645 3428 
Q 1925 3584 2291 3584 
Q 2894 3584 3203 3211 
Q 3513 2838 3513 2113 
z
" transform="scale(0.015625)"/>
      </defs>
      <use xlink:href="#DejaVuSans-49"/>
      <use xlink:href="#DejaVuSans-74" x="29.492188"/>
      <use xlink:href="#DejaVuSans-65" x="68.701172"/>
      <use xlink:href="#DejaVuSans-72" x="130.224609"/>
      <use xlink:href="#DejaVuSans-61" x="171.337891"/>
      <use xlink:href="#DejaVuSans-74" x="232.617188"/>
      <use xlink:href="#DejaVuSans-69" x="271.826172"/>
      <use xlink:href="#DejaVuSans-6f" x="299.609375"/>
      <use xlink:href="#DejaVuSans-6e" x="360.791016"/>
     </g>
    </g>
   </g>
   <g id="matplotlib.axis_2">
    <g id="ytick_1">
     <g id="line2d_13">
      <path d="M 59.42 357.902431 
L 565.2 357.902431 
" clip-path="url(#p3aa496db4a)" style="fill: none; stroke: #b0b0b0; stroke-width: 0.8; stroke-linecap: square"/>
     </g>
     <g id="line2d_14">
      <defs>
       <path id="m3803fe685d" d="M 0 0 
L -3.5 0 
" style="stroke: #000000; stroke-width: 0.8"/>
      </defs>
      <g>
       <use xlink:href="#m3803fe685d" x="59.42" y="357.902431" style="stroke: #000000; stroke-width: 0.8"/>
      </g>
     </g>
     <g id="text_8">
      <!-- −200 -->
      <g transform="translate(24.952813 361.70165) scale(0.1 -0.1)">
       <defs>
        <path id="DejaVuSans-2212" d="M 678 2272 
L 4684 2272 
L 4684 1741 
L 678 1741 
L 678 2272 
z
" transform="scale(0.015625)"/>
       </defs>
       <use xlink:href="#DejaVuSans-2212"/>
       <use xlink:href="#DejaVuSans-32" x="83.789062"/>
       <use xlink:href="#DejaVuSans-30" x="147.412109"/>
       <use xlink:href="#DejaVuSans-30" x="211.035156"/>
      </g>
     </g>
    </g>
    <g id="ytick_2">
     <g id="line2d_15">
      <path d="M 59.42 277.873422 
L 565.2 277.873422 
" clip-path="url(#p3aa496db4a)" style="fill: none; stroke: #b0b0b0; stroke-width: 0.8; stroke-linecap: square"/>
     </g>
     <g id="line2d_16">
      <g>
       <use xlink:href="#m3803fe685d" x="59.42" y="277.873422" style="stroke: #000000; stroke-width: 0.8"/>
      </g>
     </g>
     <g id="text_9">
      <!-- −100 -->
      <g transform="translate(24.952813 281.672641) scale(0.1 -0.1)">
       <use xlink:href="#DejaVuSans-2212"/>
       <use xlink:href="#DejaVuSans-31" x="83.789062"/>
       <use xlink:href="#DejaVuSans-30" x="147.412109"/>
       <use xlink:href="#DejaVuSans-30" x="211.035156"/>
      </g>
     </g>
    </g>
    <g id="ytick_3">
     <g id="line2d_17">
      <path d="M 59.42 197.844413 
L 565.2 197.844413 
" clip-path="url(#p3aa496db4a)" style="fill: none; stroke: #b0b0b0; stroke-width: 0.8; stroke-linecap: square"/>
     </g>
     <g id="line2d_18">
      <g>
       <use xlink:href="#m3803fe685d" x="59.42" y="197.844413" style="stroke: #000000; stroke-width: 0.8"/>
      </g>
     </g>
     <g id="text_10">
      <!-- 0 -->
      <g transform="translate(46.0575 201.643632) scale(0.1 -0.1)">
       <use xlink:href="#DejaVuSans-30"/>
      </g>
     </g>
    </g>
    <g id="ytick_4">
     <g id="line2d_19">
      <path d="M 59.42 117.815404 
L 565.2 117.815404 
" clip-path="url(#p3aa496db4a)" style="fill: none; stroke: #b0b0b0; stroke-width: 0.8; stroke-linecap: square"/>
     </g>
     <g id="line2d_20">
      <g>
       <use xlink:href="#m3803fe685d" x="59.42" y="117.815404" style="stroke: #000000; stroke-width: 0.8"/>
      </g>
     </g>
     <g id="text_11">
      <!-- 100 -->
      <g transform="translate(33.3325 121.614623) scale(0.1 -0.1)">
       <use xlink:href="#DejaVuSans-31"/>
       <use xlink:href="#DejaVuSans-30" x="63.623047"/>
       <use xlink:href="#DejaVuSans-30" x="127.246094"/>
      </g>
     </g>
    </g>
    <g id="ytick_5">
     <g id="line2d_21">
      <path d="M 59.42 37.786395 
L 565.2 37.786395 
" clip-path="url(#p3aa496db4a)" style="fill: none; stroke: #b0b0b0; stroke-width: 0.8; stroke-linecap: square"/>
     </g>
     <g id="line2d_22">
      <g>
       <use xlink:href="#m3803fe685d" x="59.42" y="37.786395" style="stroke: #000000; stroke-width: 0.8"/>
      </g>
     </g>
     <g id="text_12">
      <!-- 200 -->
      <g transform="translate(33.3325 41.585614) scale(0.1 -0.1)">
       <use xlink:href="#DejaVuSans-32"/>
       <use xlink:href="#DejaVuSans-30" x="63.623047"/>
       <use xlink:href="#DejaVuSans-30" x="127.246094"/>
      </g>
     </g>
    </g>
    <g id="text_13">
     <!-- Control Input (PWM) -->
     <g transform="translate(18.873125 258.110313) rotate(-90) scale(0.1 -0.1)">
      <defs>
       <path id="DejaVuSans-43" d="M 4122 4306 
L 4122 3641 
Q 3803 3938 3442 4084 
Q 3081 4231 2675 4231 
Q 1875 4231 1450 3742 
Q 1025 3253 1025 2328 
Q 1025 1406 1450 917 
Q 1875 428 2675 428 
Q 3081 428 3442 575 
Q 3803 722 4122 1019 
L 4122 359 
Q 3791 134 3420 21 
Q 3050 -91 2638 -91 
Q 1578 -91 968 557 
Q 359 1206 359 2328 
Q 359 3453 968 4101 
Q 1578 4750 2638 4750 
Q 3056 4750 3426 4639 
Q 3797 4528 4122 4306 
z
" transform="scale(0.015625)"/>
       <path id="DejaVuSans-6c" d="M 603 4863 
L 1178 4863 
L 1178 0 
L 603 0 
L 603 4863 
z
" transform="scale(0.015625)"/>
       <path id="DejaVuSans-20" transform="scale(0.015625)"/>
       <path id="DejaVuSans-70" d="M 1159 525 
L 1159 -1331 
L 581 -1331 
L 581 3500 
L 1159 3500 
L 1159 2969 
Q 1341 3281 1617 3432 
Q 1894 3584 2278 3584 
Q 2916 3584 3314 3078 
Q 3713 2572 3713 1747 
Q 3713 922 3314 415 
Q 2916 -91 2278 -91 
Q 1894 -91 1617 61 
Q 1341 213 1159 525 
z
M 3116 1747 
Q 3116 2381 2855 2742 
Q 2594 3103 2138 3103 
Q 1681 3103 1420 2742 
Q 1159 2381 1159 1747 
Q 1159 1113 1420 752 
Q 1681 391 2138 391 
Q 2594 391 2855 752 
Q 3116 1113 3116 1747 
z
" transform="scale(0.015625)"/>
       <path id="DejaVuSans-75" d="M 544 1381 
L 544 3500 
L 1119 3500 
L 1119 1403 
Q 1119 906 1312 657 
Q 1506 409 1894 409 
Q 2359 409 2629 706 
Q 2900 1003 2900 1516 
L 2900 3500 
L 3475 3500 
L 3475 0 
L 2900 0 
L 2900 538 
Q 2691 219 2414 64 
Q 2138 -91 1772 -91 
Q 1169 -91 856 284 
Q 544 659 544 1381 
z
M 1991 3584 
L 1991 3584 
z
" transform="scale(0.015625)"/>
       <path id="DejaVuSans-28" d="M 1984 4856 
Q 1566 4138 1362 3434 
Q 1159 2731 1159 2009 
Q 1159 1288 1364 580 
Q 1569 -128 1984 -844 
L 1484 -844 
Q 1016 -109 783 600 
Q 550 1309 550 2009 
Q 550 2706 781 3412 
Q 1013 4119 1484 4856 
L 1984 4856 
z
" transform="scale(0.015625)"/>
       <path id="DejaVuSans-50" d="M 1259 4147 
L 1259 2394 
L 2053 2394 
Q 2494 2394 2734 2622 
Q 2975 2850 2975 3272 
Q 2975 3691 2734 3919 
Q 2494 4147 2053 4147 
L 1259 4147 
z
M 628 4666 
L 2053 4666 
Q 2838 4666 3239 4311 
Q 3641 3956 3641 3272 
Q 3641 2581 3239 2228 
Q 2838 1875 2053 1875 
L 1259 1875 
L 1259 0 
L 628 0 
L 628 4666 
z
" transform="scale(0.015625)"/>
       <path id="DejaVuSans-57" d="M 213 4666 
L 850 4666 
L 1831 722 
L 2809 4666 
L 3519 4666 
L 4500 722 
L 5478 4666 
L 6119 4666 
L 4947 0 
L 4153 0 
L 3169 4050 
L 2175 0 
L 1381 0 
L 213 4666 
z
" transform="scale(0.015625)"/>
       <path id="DejaVuSans-4d" d="M 628 4666 
L 1569 4666 
L 2759 1491 
L 3956 4666 
L 4897 4666 
L 4897 0 
L 4281 0 
L 4281 4097 
L 3078 897 
L 2444 897 
L 1241 4097 
L 1241 0 
L 628 0 
L 628 4666 
z
" transform="scale(0.015625)"/>
       <path id="DejaVuSans-29" d="M 513 4856 
L 1013 4856 
Q 1481 4119 1714 3412 
Q 1947 2706 1947 2009 
Q 1947 1309 1714 600 
Q 1481 -109 1013 -844 
L 513 -844 
Q 928 -128 1133 580 
Q 1338 1288 1338 2009 
Q 1338 2731 1133 3434 
Q 928 4138 513 4856 
z
" transform="scale(0.015625)"/>
      </defs>
      <use xlink:href="#DejaVuSans-43"/>
      <use xlink:href="#DejaVuSans-6f" x="69.824219"/>
      <use xlink:href="#DejaVuSans-6e" x="131.005859"/>
      <use xlink:href="#DejaVuSans-74" x="194.384766"/>
      <use xlink:href="#DejaVuSans-72" x="233.59375"/>
      <use xlink:href="#DejaVuSans-6f" x="272.457031"/>
      <use xlink:href="#DejaVuSans-6c" x="333.638672"/>
      <use xlink:href="#DejaVuSans-20" x="361.421875"/>
      <use xlink:href="#DejaVuSans-49" x="393.208984"/>
      <use xlink:href="#DejaVuSans-6e" x="422.701172"/>
      <use xlink:href="#DejaVuSans-70" x="486.080078"/>
      <use xlink:href="#DejaVuSans-75" x="549.556641"/>
      <use xlink:href="#DejaVuSans-74" x="612.935547"/>
      <use xlink:href="#DejaVuSans-20" x="652.144531"/>
      <use xlink:href="#DejaVuSans-28" x="683.931641"/>
      <use xlink:href="#DejaVuSans-50" x="722.945312"/>
      <use xlink:href="#DejaVuSans-57" x="783.248047"/>
      <use xlink:href="#DejaVuSans-4d" x="882.125"/>
      <use xlink:href="#DejaVuSans-29" x="968.404297"/>
     </g>
    </g>
   </g>
   <g id="line2d_23">
    <path d="M 82.41 286.801458 
L 82.87026 230.934007 
L 83.330521 249.917689 
L 83.790781 238.301478 
L 84.251041 231.49181 
L 84.711301 236.302353 
L 85.171562 237.003407 
L 85.631822 243.478554 
L 86.092082 229.241394 
L 86.552342 239.645165 
L 87.012603 235.57569 
L 87.472863 243.525772 
L 87.933123 240.043709 
L 88.393383 248.505977 
L 88.853644 244.483719 
L 89.313904 258.219898 
L 89.774164 245.330426 
L 90.234424 269.526396 
L 90.694685 255.137181 
L 91.154945 264.167654 
L 91.615205 258.128665 
L 92.075465 256.79138 
L 92.535726 265.014361 
L 92.995986 253.732671 
L 93.456246 237.381144 
L 93.916507 257.587669 
L 94.376767 252.372178 
L 94.837027 248.68124 
L 95.297287 248.843699 
L 95.757548 241.882776 
L 96.217808 254.316883 
L 96.678068 229.445468 
L 97.138328 225.997018 
L 97.598589 214.254361 
L 98.519109 198.888792 
L 98.979369 179.57379 
L 100.36015 140.215524 
L 100.82041 144.252987 
L 101.280671 145.873575 
L 101.740931 122.078549 
L 102.201191 117.96986 
L 103.121712 98.089854 
L 103.581972 99.68003 
L 104.502492 84.876264 
L 104.962753 88.069422 
L 105.423013 79.034147 
L 105.883273 76.950191 
L 106.343534 100.697199 
L 106.803794 81.292565 
L 107.264054 124.492224 
L 107.724314 121.972111 
L 108.184575 135.835536 
L 108.644835 164.408293 
L 109.105095 165.872024 
L 109.565355 189.497387 
L 110.025616 227.587194 
L 110.485876 235.195552 
L 110.946136 235.396425 
L 111.406396 257.081085 
L 111.866657 254.484944 
L 112.326917 236.023052 
L 112.787177 226.19629 
L 113.707698 187.279784 
L 114.167958 209.308569 
L 114.628218 189.758282 
L 115.088478 198.626296 
L 115.548739 180.796634 
L 116.008999 170.213597 
L 116.469259 186.012924 
L 116.92952 174.862483 
L 117.38978 174.11181 
L 117.85004 184.609216 
L 118.3103 176.872011 
L 119.230821 194.817716 
L 119.691081 181.354436 
L 120.151341 192.448057 
L 120.611602 188.032056 
L 121.071862 192.803386 
L 121.532122 190.067994 
L 121.992382 205.859318 
L 122.452643 196.821642 
L 122.912903 211.443743 
L 123.373163 215.542028 
L 123.833423 226.274718 
L 124.293684 226.799709 
L 125.214204 253.219685 
L 125.674464 266.296425 
L 126.134725 288.161151 
L 126.594985 288.769371 
L 127.055245 286.940709 
L 127.975766 305.582666 
L 128.436026 309.976259 
L 128.896286 306.873534 
L 129.356547 316.663483 
L 129.816807 285.746676 
L 130.277067 291.142232 
L 130.737327 281.046572 
L 131.197588 276.640175 
L 132.118108 235.475654 
L 132.578368 235.650117 
L 133.038629 202.322836 
L 133.498889 197.282609 
L 133.959149 172.035058 
L 134.419409 161.692109 
L 134.87967 165.170169 
L 135.80019 166.627498 
L 136.26045 189.839912 
L 136.720711 180.852654 
L 137.180971 176.551095 
L 137.641231 167.123677 
L 138.561752 135.87315 
L 139.022012 122.729185 
L 139.482272 101.745579 
L 139.942533 95.1808 
L 140.402793 93.496989 
L 140.863053 87.608455 
L 141.323313 74.802213 
L 141.783574 87.057855 
L 142.243834 74.420474 
L 142.704094 93.711467 
L 143.164354 96.656535 
L 144.084875 129.828559 
L 144.545135 134.606291 
L 145.005395 164.249035 
L 145.465656 173.289913 
L 145.925916 206.671613 
L 146.846436 244.085975 
L 147.306697 259.818077 
L 147.766957 268.771723 
L 148.227217 273.175719 
L 148.687477 246.168329 
L 149.147738 266.717378 
L 149.607998 237.501188 
L 150.068258 244.617367 
L 150.528519 237.096241 
L 150.988779 217.786842 
L 151.449039 227.799271 
L 151.909299 223.751404 
L 152.36956 214.281571 
L 152.82982 216.687243 
L 153.29008 216.963343 
L 153.75034 208.892418 
L 154.210601 214.522459 
L 154.670861 214.890592 
L 155.131121 231.236517 
L 155.591381 224.550093 
L 156.051642 224.947037 
L 156.511902 245.8106 
L 156.972162 259.90771 
L 157.432422 266.718178 
L 157.892683 288.514079 
L 158.352943 282.876035 
L 158.813203 289.724918 
L 159.273463 294.065691 
L 160.193984 298.628145 
L 160.654244 297.718215 
L 161.114505 281.826055 
L 161.574765 281.523545 
L 162.035025 272.096928 
L 162.495285 251.257374 
L 162.955546 260.391885 
L 163.876066 216.356723 
L 164.336326 213.097142 
L 164.796587 185.47753 
L 165.256847 175.511518 
L 165.717107 160.203569 
L 166.177367 174.973723 
L 166.637628 180.888667 
L 167.097888 178.624646 
L 167.558148 173.583619 
L 168.018408 172.452009 
L 168.478669 166.586683 
L 168.938929 149.565313 
L 169.399189 145.513444 
L 169.859449 116.719807 
L 170.31971 111.083364 
L 170.77997 96.879015 
L 171.24023 73.440119 
L 171.70049 86.355201 
L 172.160751 81.872776 
L 172.621011 66.27032 
L 173.081271 97.124704 
L 173.541532 83.472556 
L 174.001792 99.65202 
L 174.462052 107.940625 
L 175.382573 139.478457 
L 175.842833 172.279946 
L 176.303093 182.762146 
L 176.763353 218.505502 
L 177.223614 240.655931 
L 178.144134 270.9157 
L 178.604394 285.89633 
L 179.064655 283.718741 
L 179.524915 276.854653 
L 180.445435 271.873647 
L 180.905696 257.914987 
L 181.365956 259.033793 
L 181.826216 239.372266 
L 182.286476 246.643702 
L 182.746737 222.827869 
L 183.206997 219.127328 
L 183.667257 223.321648 
L 184.127518 200.721456 
L 184.587778 205.222287 
L 185.508298 187.070108 
L 185.968559 200.254887 
L 186.428819 202.279621 
L 186.889079 214.875386 
L 187.349339 232.276894 
L 187.8096 236.069469 
L 188.26986 246.696521 
L 188.73012 264.710251 
L 189.19038 270.470739 
L 189.650641 283.602699 
L 190.110901 289.171917 
L 190.571161 271.363862 
L 191.031421 284.671086 
L 191.491682 281.023364 
L 191.951942 280.123838 
L 192.412202 274.155274 
L 192.872462 263.800321 
L 193.332723 262.608689 
L 193.792983 253.692657 
L 194.253243 241.42341 
L 194.713504 236.508028 
L 195.173764 216.976148 
L 195.634024 210.036032 
L 196.094284 213.007509 
L 196.554545 177.004859 
L 197.014805 172.644879 
L 197.475065 183.51762 
L 197.935325 175.575541 
L 198.395586 177.665098 
L 198.855846 186.061742 
L 199.316106 169.848665 
L 199.776366 181.529699 
L 200.236627 167.374168 
L 201.157147 126.975525 
L 201.617407 118.378008 
L 202.077668 106.900248 
L 202.537928 89.272258 
L 202.998188 95.437693 
L 203.458448 87.269132 
L 203.918709 86.019879 
L 204.378969 82.658661 
L 204.839229 86.644105 
L 205.299489 92.499828 
L 205.75975 130.459988 
L 206.22001 108.015052 
L 206.68027 142.102608 
L 207.140531 151.574041 
L 207.600791 181.150362 
L 208.521311 226.433976 
L 208.981572 247.691282 
L 209.441832 260.386283 
L 209.902092 267.363212 
L 210.362352 260.775224 
L 210.822613 272.465862 
L 211.282873 252.553044 
L 211.743133 248.281896 
L 212.203393 246.843774 
L 212.663654 230.767547 
L 213.123914 243.400926 
L 213.584174 225.199929 
L 214.044434 234.672162 
L 214.504695 229.350233 
L 214.964955 218.311032 
L 215.425215 234.104757 
L 215.885475 213.165967 
L 216.345736 217.840461 
L 216.805996 228.748415 
L 217.266256 218.19659 
L 218.186777 231.275731 
L 219.107297 252.415394 
L 219.567558 259.8805 
L 220.027818 262.159726 
L 220.488078 276.760218 
L 220.948338 279.047447 
L 221.408599 275.864694 
L 221.868859 276.594558 
L 222.329119 283.563484 
L 222.789379 285.009609 
L 223.24964 280.689643 
L 223.7099 275.308492 
L 224.63042 260.76402 
L 225.090681 249.603975 
L 225.550941 250.814814 
L 226.011201 228.685992 
L 226.471461 225.950601 
L 226.931722 209.69831 
L 227.391982 187.262978 
L 227.852242 180.033157 
L 228.312503 177.465026 
L 228.772763 171.416433 
L 229.233023 190.889092 
L 229.693283 178.530212 
L 230.153544 191.344457 
L 230.613804 176.848002 
L 231.074064 167.469403 
L 231.534324 167.306144 
L 231.994585 135.728297 
L 232.454845 125.630237 
L 232.915105 109.85732 
L 233.375365 103.143686 
L 233.835626 88.543994 
L 234.295886 77.989768 
L 234.756146 79.221415 
L 235.216406 73.377696 
L 235.676667 83.565389 
L 236.136927 79.176598 
L 236.597187 91.129731 
L 237.057447 110.142223 
L 237.517708 113.954805 
L 237.977968 130.000621 
L 238.438228 167.98639 
L 238.898488 174.13902 
L 239.819009 242.668661 
L 240.279269 247.128678 
L 240.73953 281.583567 
L 241.19979 303.473902 
L 241.66005 247.640063 
L 242.12031 309.189573 
L 243.040831 276.742612 
L 243.501091 286.987926 
L 243.961351 264.470164 
L 244.421612 250.081748 
L 244.881872 268.641275 
L 245.342132 241.791543 
L 245.802392 241.058477 
L 246.262653 234.199991 
L 247.183173 210.66506 
L 247.643433 207.066956 
L 248.103694 186.741188 
L 248.563954 184.782078 
L 249.024214 173.22829 
L 249.484474 190.264866 
L 249.944735 211.955128 
L 250.404995 217.631585 
L 250.865255 243.663422 
L 251.325516 242.981574 
L 251.785776 261.966856 
L 252.246036 269.752078 
L 252.706296 270.994128 
L 253.166557 266.837422 
L 253.626817 272.865207 
L 254.087077 261.330625 
L 254.547337 272.054513 
L 255.007598 265.252047 
L 255.467858 277.601323 
L 255.928118 255.165191 
L 256.388378 258.677664 
L 256.848639 254.242456 
L 257.308899 237.955753 
L 257.769159 237.962955 
L 258.229419 217.169018 
L 258.68968 212.032756 
L 259.14994 200.850303 
L 259.6102 183.284735 
L 260.07046 172.686494 
L 260.530721 176.332615 
L 260.990981 185.788843 
L 261.451241 189.783091 
L 261.911502 187.126928 
L 262.371762 185.407105 
L 262.832022 176.740763 
L 263.292282 164.209021 
L 263.752543 158.560573 
L 264.212803 129.759734 
L 264.673063 117.989067 
L 265.133323 110.223852 
L 265.593584 97.097494 
L 266.514104 81.723922 
L 266.974364 96.94784 
L 267.434625 73.190429 
L 267.894885 86.239959 
L 268.355145 89.842064 
L 268.815405 101.352637 
L 269.275666 120.390738 
L 269.735926 120.586809 
L 270.196186 155.015288 
L 270.656446 162.830921 
L 271.576967 207.454296 
L 272.037227 247.883351 
L 272.497487 249.190225 
L 272.957748 267.879399 
L 273.418008 279.562034 
L 273.878268 265.34408 
L 274.338529 265.231239 
L 274.798789 258.043034 
L 275.259049 263.095265 
L 276.17957 245.412856 
L 276.63983 244.262839 
L 277.10009 236.037457 
L 277.56035 234.022327 
L 278.020611 235.999844 
L 278.480871 224.315608 
L 278.941131 227.825681 
L 279.401391 223.555333 
L 280.321912 225.78254 
L 280.782172 223.340855 
L 281.242432 219.394625 
L 281.702693 232.169655 
L 282.162953 231.98879 
L 282.623213 245.095941 
L 283.083473 245.461673 
L 283.543734 254.055188 
L 284.003994 249.167016 
L 284.464254 266.215596 
L 284.924515 253.935945 
L 285.384775 265.465724 
L 285.845035 266.067543 
L 286.305295 268.756517 
L 286.765556 268.921377 
L 287.225816 262.455033 
L 287.686076 271.354259 
L 288.146336 252.92758 
L 288.606597 261.777187 
L 289.066857 243.981937 
L 289.527117 237.630835 
L 289.987377 243.979536 
L 290.447638 228.332264 
L 291.828418 195.974935 
L 292.288679 195.944524 
L 292.748939 181.908237 
L 293.209199 184.31791 
L 293.669459 193.189926 
L 294.12972 194.179084 
L 294.58998 196.556746 
L 295.05024 184.977349 
L 295.510501 186.026529 
L 296.431021 164.517933 
L 297.351542 129.919792 
L 297.811802 111.746804 
L 298.272062 105.414109 
L 298.732322 83.175648 
L 299.192583 72.266093 
L 299.652843 81.807952 
L 300.113103 74.039536 
L 300.573363 78.093006 
L 301.033624 77.633639 
L 301.493884 78.206647 
L 301.954144 100.729211 
L 302.874665 127.32205 
L 304.255445 182.618894 
L 304.715706 233.78384 
L 305.175966 234.903446 
L 305.636226 261.560309 
L 306.096486 279.345956 
L 306.556747 287.96428 
L 307.017007 294.149722 
L 307.477267 280.467162 
L 307.937528 284.931981 
L 308.397788 277.236391 
L 308.858048 261.264201 
L 309.318308 260.522333 
L 309.778569 251.276581 
L 310.238829 248.601211 
L 310.699089 233.42371 
L 311.159349 231.463799 
L 311.61961 213.700561 
L 312.07987 216.100631 
L 313.00039 188.909174 
L 313.460651 179.192852 
L 313.920911 190.292075 
L 314.841431 235.562885 
L 315.301692 234.300828 
L 315.761952 244.859855 
L 316.222212 272.276993 
L 316.682472 276.844249 
L 317.142733 283.432237 
L 317.602993 269.248696 
L 318.063253 295.692681 
L 318.523514 287.039144 
L 318.983774 284.687892 
L 319.444034 297.029966 
L 319.904294 267.015086 
L 320.364555 284.044459 
L 320.824815 267.237567 
L 321.285075 265.160014 
L 321.745335 243.68663 
L 322.205596 234.701773 
L 322.665856 217.101793 
L 323.126116 208.812389 
L 323.586376 188.137695 
L 324.046637 178.875937 
L 324.506897 175.282635 
L 324.967157 179.568188 
L 325.427417 180.060367 
L 325.887678 185.710415 
L 326.347938 189.376544 
L 327.268458 178.501402 
L 327.728719 162.504403 
L 328.188979 161.512043 
L 328.649239 133.330628 
L 329.109499 122.804413 
L 329.56976 102.342596 
L 330.03002 100.855657 
L 330.49028 71.141686 
L 330.950541 81.070885 
L 331.871061 69.731575 
L 332.331321 69.38665 
L 332.791582 78.369906 
L 333.251842 90.563126 
L 333.712102 95.850642 
L 334.172362 121.186226 
L 334.632623 132.085377 
L 335.092883 154.998482 
L 335.553143 190.296877 
L 336.013403 198.910399 
L 336.933924 271.989689 
L 337.394184 266.098754 
L 337.854444 288.361224 
L 338.314705 288.071519 
L 338.774965 289.543252 
L 339.235225 293.803196 
L 339.695485 284.918376 
L 340.155746 279.734897 
L 340.616006 273.158913 
L 341.076266 262.792755 
L 341.536527 246.012273 
L 341.996787 246.25316 
L 342.457047 222.872685 
L 342.917307 219.642714 
L 343.377568 211.831083 
L 343.837828 198.946413 
L 344.298088 196.752017 
L 344.758348 176.999257 
L 345.218609 188.854754 
L 345.678869 191.962281 
L 346.139129 214.364801 
L 346.599389 225.263152 
L 347.05965 229.059728 
L 347.51991 255.767809 
L 348.44043 273.374191 
L 348.900691 324.030153 
L 349.360951 254.807461 
L 349.821211 284.767121 
L 350.281471 269.311118 
L 350.741732 267.77216 
L 351.201992 272.345818 
L 351.662252 257.613278 
L 352.122513 249.702411 
L 352.582773 251.795169 
L 353.043033 240.138144 
L 353.503293 234.482494 
L 353.963554 215.846138 
L 354.423814 212.467314 
L 354.884074 189.304518 
L 355.344334 189.078035 
L 355.804595 175.891656 
L 356.264855 192.451258 
L 356.725115 192.552095 
L 357.185375 195.149836 
L 357.645636 192.057515 
L 359.026416 173.598024 
L 359.486677 165.544705 
L 359.946937 138.38366 
L 360.407197 146.10886 
L 360.867457 117.452072 
L 361.327718 123.276584 
L 361.787978 110.609592 
L 362.708498 100.306658 
L 363.168759 79.725597 
L 363.629019 102.946014 
L 364.089279 87.481209 
L 364.54954 102.626699 
L 365.0098 87.894959 
L 365.47006 115.315298 
L 365.93032 133.728372 
L 366.390581 136.193266 
L 366.850841 168.188864 
L 367.311101 169.150012 
L 367.771361 201.208032 
L 368.231622 221.585819 
L 368.691882 247.832933 
L 369.152142 252.793931 
L 369.612402 261.996467 
L 370.072663 261.547504 
L 370.532923 258.125464 
L 371.453443 234.617743 
L 371.913704 241.06648 
L 372.373964 236.518432 
L 372.834224 242.210895 
L 373.294484 234.504902 
L 374.215005 241.814751 
L 374.675265 247.820929 
L 375.135526 243.071207 
L 375.595786 253.270904 
L 376.056046 250.670762 
L 376.516306 250.669961 
L 376.976567 262.114109 
L 377.436827 264.282896 
L 377.897087 263.02484 
L 378.357347 267.461648 
L 378.817608 279.039445 
L 379.277868 261.234591 
L 379.738128 266.598135 
L 380.198388 255.662971 
L 380.658649 253.798295 
L 381.579169 262.14212 
L 382.039429 244.54294 
L 382.49969 245.522495 
L 382.95995 242.183685 
L 383.42021 227.417533 
L 383.88047 228.407492 
L 384.340731 211.551782 
L 384.800991 212.336866 
L 385.261251 204.434802 
L 385.721512 202.839824 
L 386.181772 200.675839 
L 386.642032 214.618493 
L 387.102292 201.487334 
L 387.562553 216.578404 
L 388.022813 216.359925 
L 388.483073 214.708926 
L 388.943333 220.924779 
L 389.403594 211.422935 
L 389.863854 209.91919 
L 390.324114 213.221187 
L 390.784374 202.770199 
L 391.244635 200.638226 
L 391.704895 186.653957 
L 392.165155 180.392487 
L 392.625415 169.977512 
L 393.085676 175.781216 
L 393.545936 145.183725 
L 394.006196 135.733899 
L 394.466456 115.37532 
L 394.926717 103.012438 
L 395.386977 98.776503 
L 395.847237 83.693436 
L 396.307497 88.138247 
L 396.767758 70.447034 
L 397.228018 85.808602 
L 397.688278 75.949028 
L 398.148539 78.722834 
L 398.608799 99.495964 
L 399.069059 106.664962 
L 399.529319 118.940612 
L 399.98958 144.742765 
L 400.44984 159.861845 
L 401.830621 245.42406 
L 402.290881 258.58323 
L 403.211401 292.62837 
L 403.671662 285.396949 
L 404.131922 296.035205 
L 404.592182 281.028966 
L 405.052442 279.610852 
L 405.512703 276.604162 
L 405.972963 258.524008 
L 406.433223 263.41138 
L 406.893483 245.842611 
L 407.353744 240.205368 
L 407.814004 242.182885 
L 408.274264 214.580079 
L 408.734525 222.173232 
L 409.194785 215.729296 
L 409.655045 195.752455 
L 410.115305 189.601425 
L 410.575566 193.169919 
L 411.035826 195.244271 
L 411.496086 224.341218 
L 411.956346 219.521871 
L 412.416607 247.93457 
L 412.876867 248.332314 
L 413.797387 288.057914 
L 414.717908 293.202979 
L 415.178168 300.594458 
L 415.638428 295.197301 
L 416.098689 302.31188 
L 416.558949 290.135467 
L 417.019209 299.650916 
L 417.479469 292.183409 
L 417.93973 278.937808 
L 418.39999 272.926029 
L 418.86025 250.799608 
L 419.320511 245.166366 
L 419.780771 232.029604 
L 420.701291 183.579242 
L 422.082072 145.458224 
L 422.542332 164.908474 
L 423.002593 158.66141 
L 423.462853 159.801023 
L 423.923113 153.19783 
L 424.843634 132.096581 
L 425.303894 124.917178 
L 425.764154 107.194754 
L 426.224414 101.16937 
L 426.684675 90.082151 
L 427.144935 84.58896 
L 427.605195 69.148163 
L 428.065455 76.216325 
L 428.525716 72.470167 
L 428.985976 76.714906 
L 429.446236 75.958632 
L 429.906496 107.887005 
L 430.366757 90.214199 
L 430.827017 114.326139 
L 431.287277 128.299204 
L 432.207798 181.922642 
L 432.668058 194.269517 
L 433.128318 245.243194 
L 434.048839 271.235816 
L 434.509099 294.387408 
L 434.969359 302.437526 
L 435.42962 306.557419 
L 435.88988 319.121173 
L 436.35014 193.754931 
L 436.8104 344.191861 
L 437.270661 277.114747 
L 437.730921 283.298588 
L 438.191181 282.243006 
L 438.651441 260.291049 
L 439.111702 253.652642 
L 439.571962 251.046898 
L 440.032222 227.65762 
L 440.492482 229.408654 
L 440.952743 209.879976 
L 441.413003 196.012549 
L 441.873263 188.660284 
L 442.333524 188.138495 
L 442.793784 170.121564 
L 443.254044 210.33374 
L 443.714304 206.71803 
L 444.174565 235.806173 
L 444.634825 236.87216 
L 445.095085 250.842824 
L 445.555345 259.802071 
L 446.015606 273.035668 
L 446.475866 266.165178 
L 446.936126 280.198265 
L 447.396386 282.811212 
L 447.856647 280.029403 
L 448.316907 290.148271 
L 449.237427 266.578928 
L 449.697688 279.710088 
L 450.157948 266.222799 
L 450.618208 248.341917 
L 451.078468 251.66072 
L 451.538729 232.170456 
L 451.998989 225.728921 
L 452.459249 213.50449 
L 453.37977 178.807112 
L 453.84003 179.68263 
L 454.30029 172.367178 
L 454.760551 176.027705 
L 455.220811 180.988703 
L 455.681071 172.529637 
L 456.141331 175.170594 
L 456.601592 149.028318 
L 457.061852 150.740939 
L 457.522112 117.149563 
L 457.982372 104.92113 
L 458.442633 99.883304 
L 458.902893 77.491988 
L 459.363153 80.029708 
L 459.823413 71.951579 
L 460.283674 68.47592 
L 460.743934 70.98723 
L 461.204194 72.715056 
L 461.664454 77.405556 
L 462.124715 86.310384 
L 463.965756 156.858356 
L 464.886276 218.192589 
L 465.346537 245.221586 
L 465.806797 287.067955 
L 466.267057 294.773948 
L 466.727317 312.647627 
L 467.187578 325.114546 
L 467.647838 326.993627 
L 468.108098 325.150559 
L 468.568358 321.774935 
L 469.028619 306.906346 
L 469.488879 297.908684 
L 470.86966 254.535362 
L 471.32992 223.639363 
L 471.79018 213.47728 
L 472.25044 199.176896 
L 472.710701 168.374531 
L 473.170961 165.946451 
L 473.631221 156.683093 
L 474.091481 183.592847 
L 474.551742 189.114849 
L 475.012002 210.867534 
L 475.472262 219.060103 
L 475.932523 231.941573 
L 476.392783 237.444367 
L 476.853043 251.893605 
L 477.313303 259.348307 
L 477.773564 252.577853 
L 478.233824 257.908585 
L 478.694084 255.85264 
L 479.154344 252.959591 
L 479.614605 257.622081 
L 480.074865 246.929405 
L 480.535125 243.364113 
L 480.995385 244.988702 
L 481.455646 241.80995 
L 481.915906 244.325261 
L 482.376166 237.858117 
L 482.836426 234.816215 
L 483.296687 232.901921 
L 483.756947 224.672538 
L 484.217207 226.08665 
L 484.677467 220.642277 
L 485.597988 217.225038 
L 486.058248 220.195715 
L 486.518509 213.246796 
L 486.978769 218.242207 
L 487.439029 213.20198 
L 487.899289 211.186849 
L 488.35955 223.252823 
L 488.81981 208.45706 
L 489.28007 209.747128 
L 490.200591 195.040997 
L 490.660851 197.551507 
L 491.121111 186.794008 
L 491.581371 180.850253 
L 492.501892 150.672114 
L 493.422412 132.181412 
L 493.882673 113.920392 
L 494.342933 119.388774 
L 494.803193 99.596 
L 495.263453 86.02148 
L 495.723714 86.784956 
L 496.183974 80.493876 
L 496.644234 83.590999 
L 497.104494 99.329503 
L 497.564755 91.01689 
L 499.866056 187.37982 
L 500.786577 243.888303 
L 501.707097 275.96553 
L 502.167357 280.861705 
L 502.627618 274.329737 
L 503.087878 277.994266 
L 503.548138 263.122475 
L 504.008398 274.689068 
L 504.468659 257.589269 
L 504.928919 256.90262 
L 505.389179 250.641151 
L 505.849439 260.141394 
L 506.3097 223.937071 
L 506.76996 241.311369 
L 507.23022 234.015924 
L 507.69048 219.314596 
L 508.150741 220.122088 
L 508.611001 212.198416 
L 509.071261 214.729734 
L 509.531522 194.841725 
L 509.991782 209.69831 
L 510.452042 195.883702 
L 510.912302 230.322586 
L 511.372563 234.954665 
L 511.832823 244.483719 
L 512.753343 280.760068 
L 513.213604 273.378192 
L 513.673864 299.328399 
L 514.134124 289.933794 
L 514.594384 302.875285 
L 515.054645 300.570449 
L 515.514905 300.671286 
L 516.435425 291.989739 
L 516.895686 283.973233 
L 517.355946 278.885789 
L 517.816206 264.230076 
L 518.276466 246.012273 
L 518.736727 237.993366 
L 519.657247 194.520008 
L 520.577768 164.59156 
L 521.038028 163.770462 
L 521.498288 159.480107 
L 521.958549 182.995831 
L 522.418809 169.457323 
L 522.879069 186.130567 
L 523.339329 162.393163 
L 523.79959 154.325438 
L 524.25985 144.216174 
L 524.72011 127.097969 
L 525.18037 99.251875 
L 525.640631 101.487886 
L 526.100891 67.947728 
L 526.561151 81.640692 
L 527.021411 52.526138 
L 527.481672 63.622961 
L 527.941932 42.012727 
L 528.402192 61.086041 
L 528.862452 69.865223 
L 529.322713 64.320013 
L 529.782973 105.103596 
L 530.243233 110.832073 
L 531.163754 166.228153 
L 531.624014 183.092666 
L 532.544535 262.053287 
L 533.925315 325.227387 
L 534.385576 336.069717 
L 534.845836 335.00293 
L 535.306096 373.382442 
L 535.766356 345.060976 
L 536.226617 352.759767 
L 536.686877 337.186922 
L 537.147137 308.615765 
L 537.607397 301.063428 
L 538.067658 286.259662 
L 539.448438 201.027167 
L 539.908699 184.200267 
L 540.829219 125.464577 
L 541.289479 134.497451 
L 541.74974 134.142923 
L 542.21 163.675227 
L 542.21 163.675227 
" clip-path="url(#p3aa496db4a)" style="fill: none; stroke: #1f77b4; stroke-width: 2.5; stroke-linecap: square"/>
   </g>
   <g id="line2d_24">
    <path d="M 82.41 286.791054 
L 82.87026 230.873185 
L 83.330521 249.883276 
L 83.790781 238.303078 
L 84.251041 231.518219 
L 84.711301 236.297552 
L 85.171562 236.966594 
L 85.631822 243.448143 
L 86.092082 229.243795 
L 86.552342 239.618755 
L 87.012603 235.588495 
L 87.472863 243.539377 
L 87.933123 239.992491 
L 88.393383 248.475566 
L 88.853644 244.484519 
L 89.313904 258.239105 
L 89.774164 245.360036 
L 90.234424 269.515192 
L 90.694685 255.146784 
L 91.154945 264.217272 
L 91.615205 258.160676 
L 92.075465 256.764971 
L 92.535726 265.030367 
L 92.995986 253.680653 
L 93.456246 237.411555 
L 93.916507 257.654093 
L 94.376767 252.383382 
L 94.837027 248.698046 
L 95.297287 248.871709 
L 95.757548 241.911586 
L 96.217808 254.33449 
L 96.678068 229.45107 
L 97.138328 226.00182 
L 97.598589 214.274369 
L 98.519109 198.936809 
L 98.979369 179.539378 
L 100.36015 140.269143 
L 100.82041 144.351423 
L 101.280671 145.867172 
L 101.740931 122.119364 
L 102.201191 118.018678 
L 103.121712 98.153077 
L 103.581972 99.720045 
L 104.502492 84.833849 
L 104.962753 88.111837 
L 105.423013 79.068559 
L 105.883273 77.035822 
L 106.343534 100.665988 
L 106.803794 81.383798 
L 107.264054 124.50823 
L 107.724314 121.984916 
L 108.184575 135.881953 
L 108.644835 164.414695 
L 109.105095 165.928044 
L 109.565355 189.500589 
L 110.025616 227.622407 
L 110.485876 235.21796 
L 110.946136 235.40923 
L 111.406396 257.097091 
L 111.866657 254.453733 
L 112.326917 235.940622 
L 112.787177 226.203493 
L 113.707698 187.29659 
L 114.167958 209.33898 
L 114.628218 189.783091 
L 115.088478 198.6367 
L 115.548739 180.823043 
L 116.008999 170.261615 
L 116.469259 186.038534 
L 116.92952 174.846477 
L 117.38978 174.188638 
L 117.85004 184.642027 
L 118.3103 176.861607 
L 119.230821 194.836123 
L 119.691081 181.387248 
L 120.151341 192.45526 
L 120.611602 188.049663 
L 121.071862 192.89782 
L 121.532122 190.087201 
L 121.992382 205.881726 
L 122.452643 196.880864 
L 122.912903 211.470952 
L 123.373163 215.618856 
L 123.833423 226.360349 
L 124.293684 226.811713 
L 125.214204 253.249296 
L 125.674464 266.348444 
L 126.134725 288.167553 
L 126.594985 288.760568 
L 127.055245 286.940709 
L 127.975766 305.588268 
L 128.436026 310.033079 
L 128.896286 306.847925 
L 129.356547 316.665883 
L 129.816807 285.775486 
L 130.277067 291.163839 
L 130.737327 281.049773 
L 131.197588 276.700997 
L 132.118108 235.506065 
L 132.578368 235.690932 
L 133.038629 202.345245 
L 133.498889 197.330627 
L 133.959149 172.060667 
L 134.419409 161.771337 
L 134.87967 165.202981 
L 135.33993 165.850416 
L 135.80019 166.696323 
L 136.26045 189.894331 
L 136.720711 180.873461 
L 137.180971 176.567901 
L 137.641231 167.132481 
L 138.561752 135.921167 
L 139.022012 122.799611 
L 139.482272 101.812003 
L 139.942533 95.239221 
L 140.402793 93.543406 
L 140.863053 87.667676 
L 141.323313 74.828622 
L 141.783574 87.129881 
L 142.243834 74.51731 
L 142.704094 93.74748 
L 143.164354 96.712555 
L 144.084875 129.817355 
L 144.545135 134.651107 
L 145.005395 164.277046 
L 145.465656 173.386748 
L 145.925916 206.685218 
L 146.846436 244.077171 
L 147.306697 259.816477 
L 147.766957 268.743713 
L 148.227217 273.198127 
L 148.687477 246.173932 
L 149.147738 266.782202 
L 149.607998 237.537201 
L 150.068258 244.656582 
L 150.528519 237.137856 
L 150.988779 217.787642 
L 151.449039 227.864095 
L 151.909299 223.777013 
L 152.36956 214.287974 
L 152.82982 216.73286 
L 153.29008 217.002557 
L 153.75034 208.987652 
L 154.210601 214.575278 
L 154.670861 214.96662 
L 155.131121 231.258125 
L 155.591381 224.617318 
L 156.051642 224.98145 
L 156.511902 245.830607 
L 156.972162 259.96373 
L 157.432422 266.773398 
L 157.892683 288.523682 
L 158.352943 282.91605 
L 158.813203 289.792142 
L 159.273463 294.056088 
L 160.193984 298.728181 
L 160.654244 297.745425 
L 161.114505 281.846862 
L 161.574765 281.533949 
L 162.035025 272.086524 
L 162.495285 251.30059 
L 162.955546 260.478317 
L 163.876066 216.411143 
L 164.336326 213.144359 
L 164.796587 185.591172 
L 165.256847 175.587545 
L 165.717107 160.229979 
L 166.177367 175.060955 
L 166.637628 180.960693 
L 167.097888 178.648655 
L 167.558148 173.543605 
L 168.018408 172.497625 
L 168.478669 166.654707 
L 168.938929 149.622934 
L 169.399189 145.615881 
L 169.859449 116.767824 
L 170.31971 111.147387 
L 170.77997 96.931834 
L 171.24023 73.468129 
L 171.70049 86.430428 
L 172.160751 81.9384 
L 172.621011 66.387963 
L 173.081271 97.201532 
L 173.541532 83.535779 
L 174.001792 99.687233 
L 174.462052 108.035059 
L 175.382573 139.5969 
L 175.842833 172.312758 
L 176.303093 182.80056 
L 176.763353 218.551119 
L 177.223614 240.759969 
L 178.144134 270.942109 
L 178.604394 285.881125 
L 179.064655 283.789967 
L 179.524915 276.865857 
L 179.985175 274.016824 
L 180.445435 271.932068 
L 180.905696 257.969407 
L 181.365956 259.021789 
L 181.826216 239.421084 
L 182.286476 246.69332 
L 182.746737 222.871885 
L 183.206997 219.156138 
L 183.667257 223.324849 
L 184.127518 200.812689 
L 184.587778 205.279908 
L 185.508298 187.119726 
L 185.968559 200.289299 
L 186.428819 202.354848 
L 186.889079 214.917002 
L 187.349339 232.344118 
L 187.8096 236.09988 
L 188.26986 246.758143 
L 188.73012 264.721455 
L 189.19038 270.44833 
L 189.650641 283.589094 
L 190.110901 289.28956 
L 190.571161 271.332651 
L 191.031421 284.669485 
L 191.491682 281.072181 
L 191.951942 280.149447 
L 192.412202 274.207293 
L 192.872462 263.806723 
L 193.332723 262.635899 
L 193.792983 253.717466 
L 194.253243 241.429012 
L 194.713504 236.543241 
L 195.173764 217.072183 
L 195.634024 210.096054 
L 196.094284 213.033119 
L 196.554545 177.045674 
L 197.014805 172.692896 
L 197.475065 183.591247 
L 197.935325 175.613955 
L 198.395586 177.77874 
L 198.855846 186.125765 
L 199.316106 169.902285 
L 199.776366 181.556109 
L 200.236627 167.396576 
L 201.157147 126.973924 
L 201.617407 118.429227 
L 202.077668 106.977876 
L 202.537928 89.267456 
L 202.998188 95.533728 
L 203.458448 87.296342 
L 203.918709 86.052691 
L 204.378969 82.761098 
L 204.839229 86.696124 
L 205.299489 92.592661 
L 205.75975 130.52081 
L 206.22001 108.102283 
L 206.68027 142.125816 
L 207.140531 151.542029 
L 207.600791 181.210384 
L 208.521311 226.485195 
L 208.981572 247.651267 
L 209.441832 260.415894 
L 209.902092 267.304791 
L 210.362352 260.79043 
L 210.822613 272.534687 
L 211.282873 252.621869 
L 211.743133 248.278694 
L 212.203393 246.85818 
L 212.663654 230.862782 
L 213.123914 243.458547 
L 213.584174 225.245545 
L 214.044434 234.697772 
L 214.504695 229.429462 
L 214.964955 218.341443 
L 215.425215 234.206394 
L 215.885475 213.185174 
L 216.345736 217.854866 
L 216.805996 228.813239 
L 217.266256 218.229402 
L 218.186777 231.27173 
L 219.107297 252.378581 
L 219.567558 259.893305 
L 220.027818 262.235754 
L 220.488078 276.813838 
L 220.948338 279.111471 
L 221.408599 275.899907 
L 221.868859 276.591357 
L 222.329119 283.617904 
L 222.789379 285.035218 
L 223.24964 280.723255 
L 223.7099 275.346906 
L 224.63042 260.79123 
L 225.090681 249.603175 
L 225.550941 250.913249 
L 226.011201 228.742013 
L 226.471461 225.97541 
L 226.931722 209.793544 
L 227.391982 187.286186 
L 227.852242 180.050763 
L 228.312503 177.506641 
L 228.772763 171.472454 
L 229.233023 190.919503 
L 229.693283 178.573428 
L 230.153544 191.382071 
L 230.613804 176.873612 
L 231.074064 167.534226 
L 231.534324 167.338155 
L 231.994585 135.754707 
L 232.454845 125.681455 
L 232.915105 109.883729 
L 233.375365 103.202907 
L 233.835626 88.623223 
L 234.295886 78.036985 
L 234.756146 79.300643 
L 235.216406 73.402505 
L 235.676667 83.631813 
L 236.136927 79.164594 
L 236.597187 91.158542 
L 237.057447 110.215049 
L 237.517708 113.990018 
L 237.977968 130.047838 
L 238.438228 168.081625 
L 238.898488 174.16623 
L 239.819009 242.659858 
L 240.279269 247.143083 
L 240.73953 281.609176 
L 241.19979 303.517918 
L 241.66005 247.640063 
L 242.12031 309.184772 
L 243.040831 276.787428 
L 243.501091 287.007133 
L 243.961351 264.480567 
L 244.421612 250.094553 
L 244.881872 268.611665 
L 245.342132 241.78194 
L 245.802392 241.09369 
L 246.262653 234.318434 
L 247.183173 210.773099 
L 247.643433 207.119775 
L 248.103694 186.80121 
L 248.563954 184.851703 
L 249.024214 173.302717 
L 249.484474 190.308882 
L 249.944735 211.98714 
L 250.404995 217.694008 
L 250.865255 243.791468 
L 251.325516 243.068006 
L 251.785776 262.012473 
L 252.246036 269.78489 
L 252.706296 271.02614 
L 253.166557 266.852627 
L 253.626817 272.866807 
L 254.087077 261.345031 
L 254.547337 272.124938 
L 255.007598 265.294462 
L 255.467858 277.618129 
L 255.928118 255.169192 
L 256.388378 258.725681 
L 256.848639 254.254461 
L 257.308899 237.980562 
L 257.769159 238.020576 
L 258.229419 217.227439 
L 258.68968 212.055964 
L 259.14994 200.895119 
L 259.6102 183.271131 
L 260.07046 172.752918 
L 260.530721 176.406242 
L 260.990981 185.921691 
L 261.451241 189.8079 
L 261.911502 187.174145 
L 262.371762 185.387898 
L 262.832022 176.783979 
L 263.292282 164.23303 
L 263.752543 158.623796 
L 264.212803 129.837362 
L 264.673063 118.070697 
L 265.133323 110.303081 
L 265.593584 97.198331 
L 266.514104 81.769538 
L 266.974364 97.033471 
L 267.434625 73.261654 
L 267.894885 86.303182 
L 268.355145 89.899685 
L 268.815405 101.433466 
L 269.275666 120.39634 
L 269.735926 120.707653 
L 270.196186 155.02009 
L 270.656446 162.895745 
L 271.576967 207.487909 
L 272.037227 247.920164 
L 272.497487 249.223037 
L 272.957748 267.881 
L 273.418008 279.602849 
L 273.878268 265.37209 
L 274.338529 265.262451 
L 274.798789 258.045435 
L 275.259049 263.139281 
L 276.17957 245.415257 
L 276.63983 244.323661 
L 277.10009 236.121488 
L 277.56035 234.051938 
L 278.020611 236.005446 
L 278.480871 224.346019 
L 278.941131 227.915313 
L 279.401391 223.60335 
L 280.321912 225.846563 
L 280.782172 223.388072 
L 281.242432 219.483457 
L 281.702693 232.256087 
L 282.162953 232.011198 
L 282.623213 245.115148 
L 283.083473 245.542503 
L 283.543734 254.083198 
L 284.003994 249.25825 
L 284.464254 266.195589 
L 284.924515 253.989565 
L 285.384775 265.486532 
L 285.845035 266.117161 
L 286.305295 268.82054 
L 286.765556 268.951788 
L 287.225816 262.547867 
L 287.686076 271.394273 
L 288.146336 252.981999 
L 288.606597 261.793993 
L 289.066857 244.066768 
L 289.527117 237.754079 
L 289.987377 243.985938 
L 290.447638 228.425098 
L 291.828418 196.064568 
L 292.288679 195.934121 
L 292.748939 181.933846 
L 293.209199 184.420347 
L 293.669459 193.239544 
L 294.12972 194.321536 
L 294.58998 196.625571 
L 295.05024 185.028568 
L 295.510501 186.091353 
L 296.431021 164.577154 
L 297.351542 130.005423 
L 297.811802 111.778816 
L 298.272062 105.529351 
L 298.732322 83.268482 
L 299.192583 72.297305 
L 299.652843 81.867174 
L 300.113103 74.113163 
L 300.573363 78.193842 
L 301.033624 77.71847 
L 301.493884 78.258666 
L 301.954144 100.829247 
L 302.874665 127.355662 
L 304.255445 182.684518 
L 304.715706 233.813451 
L 305.175966 234.978673 
L 305.636226 261.541902 
L 306.096486 279.356359 
L 306.556747 288.053912 
L 307.017007 294.147321 
L 307.477267 280.499974 
L 307.937528 284.979198 
L 308.397788 277.196377 
L 308.858048 261.354634 
L 309.318308 260.59756 
L 309.778569 251.332601 
L 310.238829 248.649229 
L 310.699089 233.514943 
L 311.159349 231.501413 
L 311.61961 213.745377 
L 312.07987 216.218273 
L 313.00039 188.92518 
L 313.460651 179.230466 
L 313.920911 190.324087 
L 314.841431 235.665322 
L 315.301692 234.398463 
L 315.761952 244.935082 
L 316.222212 272.309005 
L 316.682472 276.933081 
L 317.142733 283.443441 
L 317.602993 269.308717 
L 318.063253 295.749502 
L 318.523514 287.08236 
L 318.983774 284.667084 
L 319.444034 297.058776 
L 319.904294 267.032692 
L 320.364555 284.070068 
L 320.824815 267.250371 
L 321.285075 265.270454 
L 321.745335 243.793068 
L 322.205596 234.7754 
L 322.665856 217.183423 
L 323.126116 208.906823 
L 323.586376 188.249735 
L 324.046637 178.935959 
L 324.506897 175.318648 
L 324.967157 179.623408 
L 325.427417 180.144397 
L 325.887678 185.748028 
L 326.347938 189.430963 
L 327.268458 178.57983 
L 327.728719 162.603639 
L 328.188979 161.574466 
L 328.649239 133.331428 
L 329.109499 122.889243 
L 329.56976 102.398616 
L 330.03002 100.867661 
L 330.49028 71.240122 
L 330.950541 81.122104 
L 331.871061 69.757184 
L 332.331321 69.393852 
L 332.791582 78.445133 
L 333.251842 90.68557 
L 333.712102 95.862647 
L 334.172362 121.301468 
L 334.632623 132.083776 
L 335.092883 155.013688 
L 335.553143 190.375306 
L 336.013403 198.974423 
L 336.933924 272.083323 
L 337.394184 266.133967 
L 337.854444 288.367626 
L 338.314705 288.13154 
L 338.774965 289.53845 
L 339.235225 293.836008 
L 339.695485 284.967994 
L 340.155746 279.790917 
L 340.616006 273.161314 
L 341.076266 262.799958 
L 341.536527 246.075496 
L 341.996787 246.271567 
L 342.457047 222.915901 
L 342.917307 219.717942 
L 343.377568 211.861494 
L 343.837828 198.998431 
L 344.298088 196.811239 
L 344.758348 177.047275 
L 345.218609 188.92438 
L 345.678869 192.007097 
L 346.139129 214.425623 
L 346.599389 225.276757 
L 347.05965 229.155763 
L 347.51991 255.775812 
L 348.44043 273.383795 
L 348.900691 324.142193 
L 349.360951 254.841873 
L 349.821211 284.701497 
L 350.281471 269.346331 
L 350.741732 267.831382 
L 351.201992 272.422646 
L 351.662252 257.61808 
L 352.122513 249.743225 
L 352.582773 251.788767 
L 353.043033 240.152549 
L 353.503293 234.558521 
L 353.963554 215.945374 
L 354.423814 212.500125 
L 354.884074 189.389348 
L 355.344334 189.187675 
L 355.804595 175.924468 
L 356.264855 192.476867 
L 356.725115 192.638526 
L 357.185375 195.205056 
L 357.645636 192.079123 
L 359.026416 173.64044 
L 359.486677 165.552708 
L 359.946937 138.414871 
L 360.407197 146.144873 
L 360.867457 117.47288 
L 361.327718 123.365416 
L 361.787978 110.68722 
L 362.708498 100.387487 
L 363.168759 79.766412 
L 363.629019 102.994832 
L 364.089279 87.521223 
L 364.54954 102.65871 
L 365.0098 87.949378 
L 365.47006 115.307295 
L 365.93032 133.767587 
L 366.390581 136.258089 
L 366.850841 168.257688 
L 367.311101 169.20123 
L 367.771361 201.253649 
L 368.231622 221.569813 
L 368.691882 247.873748 
L 369.152142 252.855553 
L 369.612402 261.97646 
L 370.072663 261.629934 
L 370.532923 258.119061 
L 371.453443 234.618543 
L 371.913704 241.129703 
L 372.373964 236.601662 
L 372.834224 242.222899 
L 373.294484 234.502501 
L 374.215005 241.859568 
L 374.675265 247.87935 
L 375.135526 243.088013 
L 375.595786 253.28611 
L 376.056046 250.696371 
L 376.516306 250.698772 
L 376.976567 262.221348 
L 377.436827 264.291699 
L 377.897087 263.119274 
L 378.357347 267.52167 
L 378.817608 279.089863 
L 379.277868 261.257799 
L 379.738128 266.645352 
L 380.198388 255.801421 
L 380.658649 253.817502 
L 381.579169 262.164528 
L 382.039429 244.567749 
L 382.49969 245.584918 
L 382.95995 242.273318 
L 383.42021 227.452745 
L 383.88047 228.474716 
L 384.340731 211.579792 
L 384.800991 212.414494 
L 385.261251 204.542041 
L 385.721512 202.894244 
L 386.181772 200.693446 
L 386.642032 214.655307 
L 387.102292 201.573765 
L 387.562553 216.603213 
L 388.022813 216.437553 
L 388.483073 214.764146 
L 388.943333 220.967995 
L 389.403594 211.493361 
L 389.863854 209.951202 
L 390.324114 213.265203 
L 390.784374 202.843825 
L 391.244635 200.720656 
L 391.704895 186.698773 
L 392.165155 180.466914 
L 392.625415 170.043136 
L 393.085676 175.818029 
L 393.545936 145.278959 
L 394.006196 135.853943 
L 394.466456 115.389725 
L 394.926717 103.101271 
L 395.386977 98.831723 
L 395.847237 83.803075 
L 396.307497 88.199869 
L 396.767758 70.514258 
L 397.228018 85.879028 
L 397.688278 76.018654 
L 398.148539 78.842877 
L 398.608799 99.575993 
L 399.069059 106.732187 
L 399.529319 119.011038 
L 399.98958 144.78358 
L 400.44984 159.975486 
L 401.830621 245.45207 
L 402.290881 258.598435 
L 403.211401 292.704398 
L 403.671662 285.356935 
L 404.131922 296.025602 
L 404.592182 281.032167 
L 405.052442 279.615653 
L 405.512703 276.668985 
L 405.972963 258.548017 
L 406.433223 263.487407 
L 406.893483 245.889028 
L 407.353744 240.209369 
L 407.814004 242.271717 
L 408.274264 214.672913 
L 408.734525 222.146822 
L 409.194785 215.806924 
L 409.655045 195.818879 
L 410.115305 189.700661 
L 410.575566 193.241144 
L 411.035826 195.260276 
L 411.496086 224.398838 
L 411.956346 219.63151 
L 412.416607 247.998593 
L 412.876867 248.336315 
L 413.797387 288.140343 
L 414.717908 293.252597 
L 415.178168 300.635273 
L 415.638428 295.246119 
L 416.098689 302.343892 
L 416.558949 290.175481 
L 417.019209 299.666922 
L 417.479469 292.235428 
L 417.93973 278.957015 
L 418.39999 272.972445 
L 418.86025 250.752391 
L 419.320511 245.191175 
L 419.780771 232.103231 
L 420.701291 183.649668 
L 422.082072 145.445419 
L 422.542332 164.966896 
L 423.002593 158.703025 
L 423.462853 159.812227 
L 423.923113 153.262653 
L 424.843634 132.207021 
L 425.303894 124.969197 
L 425.764154 107.269181 
L 426.224414 101.288614 
L 426.684675 90.13257 
L 427.144935 84.61617 
L 427.605195 69.227392 
L 428.065455 76.396391 
L 428.525716 72.510182 
L 428.985976 76.765324 
L 429.446236 76.061069 
L 429.906496 107.920618 
L 430.366757 90.219801 
L 430.827017 114.434979 
L 431.287277 128.360827 
L 432.207798 181.922642 
L 432.668058 194.321536 
L 433.128318 245.301615 
L 434.048839 271.267027 
L 434.509099 294.438626 
L 434.969359 302.406315 
L 435.42962 306.570224 
L 435.88988 319.144382 
L 436.35014 193.777339 
L 436.8104 344.239078 
L 437.270661 277.09554 
L 437.730921 283.317795 
L 438.191181 282.311831 
L 438.651441 260.347869 
L 439.111702 253.695858 
L 439.571962 251.114122 
L 440.032222 227.706437 
L 440.492482 229.499087 
L 440.952743 209.922391 
L 441.413003 196.09898 
L 441.873263 188.800335 
L 442.333524 188.174508 
L 442.793784 170.139971 
L 443.254044 210.381758 
L 443.714304 206.814865 
L 444.174565 235.866195 
L 444.634825 236.932982 
L 445.095085 250.898844 
L 445.555345 259.883701 
L 446.015606 273.066079 
L 446.475866 266.214796 
L 446.936126 280.255085 
L 447.396386 282.800008 
L 447.856647 280.093427 
L 448.316907 290.151472 
L 449.237427 266.593333 
L 449.697688 279.774911 
L 450.157948 266.224399 
L 450.618208 248.434751 
L 451.078468 251.700735 
L 451.538729 232.218473 
L 451.998989 225.757731 
L 452.459249 213.598924 
L 453.37977 178.825519 
L 453.84003 179.725045 
L 454.30029 172.434402 
L 454.760551 176.12454 
L 455.220811 181.00631 
L 455.681071 172.633675 
L 456.141331 175.238619 
L 456.601592 149.073134 
L 457.061852 150.832172 
L 457.522112 117.220789 
L 457.982372 104.951541 
L 458.442633 99.89851 
L 458.902893 77.614432 
L 459.363153 80.104135 
L 459.823413 72.019604 
L 460.283674 68.637578 
L 460.743934 71.045651 
L 461.204194 72.783881 
L 461.664454 77.434367 
L 462.124715 86.38161 
L 463.965756 156.89677 
L 464.886276 218.227001 
L 465.346537 245.215184 
L 465.806797 287.095965 
L 466.267057 294.762744 
L 466.727317 312.647627 
L 467.187578 325.122549 
L 467.647838 327.048047 
L 468.108098 325.124149 
L 468.568358 321.806947 
L 469.028619 306.907146 
L 469.488879 297.946298 
L 470.86966 254.567374 
L 471.32992 223.680178 
L 471.79018 213.584519 
L 472.25044 199.199304 
L 472.710701 168.48337 
L 473.170961 165.954454 
L 473.631221 156.719906 
L 474.091481 183.654469 
L 474.551742 189.187675 
L 475.012002 210.887541 
L 475.472262 219.124927 
L 475.932523 231.952777 
L 476.392783 237.566011 
L 476.853043 251.862393 
L 477.313303 259.436339 
L 477.773564 252.628271 
L 478.233824 257.971008 
L 478.694084 255.939871 
L 479.154344 252.999606 
L 479.614605 257.599673 
L 480.074865 246.983025 
L 480.535125 243.424135 
L 480.995385 245.049524 
L 481.455646 241.830757 
L 481.915906 244.301253 
L 482.376166 237.936546 
L 482.836426 234.869034 
L 483.296687 232.914725 
L 483.756947 224.735761 
L 484.217207 226.081048 
L 484.677467 220.715903 
L 485.597988 217.275456 
L 486.058248 220.226926 
L 486.518509 213.31322 
L 486.978769 218.282221 
L 487.439029 213.275607 
L 487.899289 211.285285 
L 488.35955 223.340055 
L 488.81981 208.474666 
L 489.28007 209.795145 
L 490.200591 195.070608 
L 490.660851 197.632336 
L 491.121111 186.846827 
L 491.581371 180.863858 
L 492.501892 150.756145 
L 493.422412 132.223827 
L 493.882673 113.970811 
L 494.342933 119.484809 
L 494.803193 99.5968 
L 495.263453 86.171934 
L 495.723714 86.897797 
L 496.183974 80.570704 
L 496.644234 83.569391 
L 497.104494 99.45675 
L 497.564755 91.076112 
L 499.866056 187.431839 
L 500.786577 243.933119 
L 501.707097 275.950325 
L 502.167357 280.915325 
L 502.627618 274.338541 
L 503.087878 278.014273 
L 503.548138 263.1905 
L 504.008398 274.735484 
L 504.468659 257.642889 
L 504.928919 256.978648 
L 505.389179 250.691569 
L 505.849439 260.141394 
L 506.3097 223.953077 
L 506.76996 241.357786 
L 507.23022 234.043134 
L 507.69048 219.434639 
L 508.150741 220.204518 
L 508.611001 212.259238 
L 509.071261 214.796158 
L 509.531522 194.920153 
L 509.991782 209.755931 
L 510.452042 195.997344 
L 510.912302 230.365001 
L 511.372563 234.998681 
L 511.832823 244.57095 
L 512.753343 280.787278 
L 513.213604 273.395799 
L 513.673864 299.354808 
L 514.134124 289.946598 
L 514.594384 302.9169 
L 515.054645 300.631271 
L 515.514905 300.708099 
L 516.435425 292.02175 
L 516.895686 283.96523 
L 517.355946 278.929805 
L 517.816206 264.326912 
L 518.276466 246.005871 
L 518.736727 238.012573 
L 519.657247 194.537614 
L 520.577768 164.579555 
L 521.038028 163.860094 
L 521.498288 159.581744 
L 521.958549 183.071858 
L 522.418809 169.55736 
L 522.879069 186.180985 
L 523.339329 162.449983 
L 523.79959 154.422273 
L 524.25985 144.228979 
L 524.72011 127.138784 
L 525.18037 99.283087 
L 525.640631 101.579919 
L 526.100891 68.038161 
L 526.561151 81.769538 
L 527.021411 52.629376 
L 527.481672 63.731 
L 527.941932 42.114364 
L 528.402192 61.176474 
L 528.862452 69.962859 
L 529.322713 64.372832 
L 529.782973 105.187627 
L 530.243233 110.901698 
L 531.163754 166.318586 
L 531.624014 183.15909 
L 532.544535 262.042083 
L 533.925315 325.218584 
L 534.385576 336.109731 
L 534.845836 335.012534 
L 535.306096 373.467273 
L 535.766356 345.059375 
L 536.226617 352.803783 
L 536.686877 337.215732 
L 537.147137 308.637373 
L 537.607397 301.131452 
L 538.067658 286.317283 
L 539.448438 201.097592 
L 539.908699 184.284298 
L 540.829219 125.470179 
L 541.289479 134.590285 
L 541.74974 134.253363 
L 542.21 163.754456 
L 542.21 163.754456 
" clip-path="url(#p3aa496db4a)" style="fill: none; stroke-dasharray: 12,9; stroke-dashoffset: 0; stroke: #ff7f0e; stroke-width: 1.5"/>
   </g>
   <g id="patch_3">
    <path d="M 59.42 390.04 
L 59.42 25.44 
" style="fill: none; stroke: #000000; stroke-width: 0.8; stroke-linejoin: miter; stroke-linecap: square"/>
   </g>
   <g id="patch_4">
    <path d="M 565.2 390.04 
L 565.2 25.44 
" style="fill: none; stroke: #000000; stroke-width: 0.8; stroke-linejoin: miter; stroke-linecap: square"/>
   </g>
   <g id="patch_5">
    <path d="M 59.42 390.04 
L 565.2 390.04 
" style="fill: none; stroke: #000000; stroke-width: 0.8; stroke-linejoin: miter; stroke-linecap: square"/>
   </g>
   <g id="patch_6">
    <path d="M 59.42 25.44 
L 565.2 25.44 
" style="fill: none; stroke: #000000; stroke-width: 0.8; stroke-linejoin: miter; stroke-linecap: square"/>
   </g>
   <g id="text_14">
    <!-- Control Input Comparison -->
    <g transform="translate(235.350625 19.44) scale(0.12 -0.12)">
     <defs>
      <path id="DejaVuSans-6d" d="M 3328 2828 
Q 3544 3216 3844 3400 
Q 4144 3584 4550 3584 
Q 5097 3584 5394 3201 
Q 5691 2819 5691 2113 
L 5691 0 
L 5113 0 
L 5113 2094 
Q 5113 2597 4934 2840 
Q 4756 3084 4391 3084 
Q 3944 3084 3684 2787 
Q 3425 2491 3425 1978 
L 3425 0 
L 2847 0 
L 2847 2094 
Q 2847 2600 2669 2842 
Q 2491 3084 2119 3084 
Q 1678 3084 1418 2786 
Q 1159 2488 1159 1978 
L 1159 0 
L 581 0 
L 581 3500 
L 1159 3500 
L 1159 2956 
Q 1356 3278 1631 3431 
Q 1906 3584 2284 3584 
Q 2666 3584 2933 3390 
Q 3200 3197 3328 2828 
z
" transform="scale(0.015625)"/>
      <path id="DejaVuSans-73" d="M 2834 3397 
L 2834 2853 
Q 2591 2978 2328 3040 
Q 2066 3103 1784 3103 
Q 1356 3103 1142 2972 
Q 928 2841 928 2578 
Q 928 2378 1081 2264 
Q 1234 2150 1697 2047 
L 1894 2003 
Q 2506 1872 2764 1633 
Q 3022 1394 3022 966 
Q 3022 478 2636 193 
Q 2250 -91 1575 -91 
Q 1294 -91 989 -36 
Q 684 19 347 128 
L 347 722 
Q 666 556 975 473 
Q 1284 391 1588 391 
Q 1994 391 2212 530 
Q 2431 669 2431 922 
Q 2431 1156 2273 1281 
Q 2116 1406 1581 1522 
L 1381 1569 
Q 847 1681 609 1914 
Q 372 2147 372 2553 
Q 372 3047 722 3315 
Q 1072 3584 1716 3584 
Q 2034 3584 2315 3537 
Q 2597 3491 2834 3397 
z
" transform="scale(0.015625)"/>
     </defs>
     <use xlink:href="#DejaVuSans-43"/>
     <use xlink:href="#DejaVuSans-6f" x="69.824219"/>
     <use xlink:href="#DejaVuSans-6e" x="131.005859"/>
     <use xlink:href="#DejaVuSans-74" x="194.384766"/>
     <use xlink:href="#DejaVuSans-72" x="233.59375"/>
     <use xlink:href="#DejaVuSans-6f" x="272.457031"/>
     <use xlink:href="#DejaVuSans-6c" x="333.638672"/>
     <use xlink:href="#DejaVuSans-20" x="361.421875"/>
     <use xlink:href="#DejaVuSans-49" x="393.208984"/>
     <use xlink:href="#DejaVuSans-6e" x="422.701172"/>
     <use xlink:href="#DejaVuSans-70" x="486.080078"/>
     <use xlink:href="#DejaVuSans-75" x="549.556641"/>
     <use xlink:href="#DejaVuSans-74" x="612.935547"/>
     <use xlink:href="#DejaVuSans-20" x="652.144531"/>
     <use xlink:href="#DejaVuSans-43" x="683.931641"/>
     <use xlink:href="#DejaVuSans-6f" x="753.755859"/>
     <use xlink:href="#DejaVuSans-6d" x="814.9375"/>
     <use xlink:href="#DejaVuSans-70" x="912.349609"/>
     <use xlink:href="#DejaVuSans-61" x="975.826172"/>
     <use xlink:href="#DejaVuSans-72" x="1037.105469"/>
     <use xlink:href="#DejaVuSans-69" x="1078.21875"/>
     <use xlink:href="#DejaVuSans-73" x="1106.001953"/>
     <use xlink:href="#DejaVuSans-6f" x="1158.101562"/>
     <use xlink:href="#DejaVuSans-6e" x="1219.283203"/>
    </g>
   </g>
   <g id="legend_1">
    <g id="patch_7">
     <path d="M 66.42 63.3525 
L 160.712188 63.3525 
Q 162.712188 63.3525 162.712188 61.3525 
L 162.712188 32.44 
Q 162.712188 30.44 160.712188 30.44 
L 66.42 30.44 
Q 64.42 30.44 64.42 32.44 
L 64.42 61.3525 
Q 64.42 63.3525 66.42 63.3525 
z
" style="fill: #ffffff; opacity: 0.8; stroke: #cccccc; stroke-linejoin: miter"/>
    </g>
    <g id="line2d_25">
     <path d="M 68.42 38.538438 
L 78.42 38.538438 
L 88.42 38.538438 
" style="fill: none; stroke: #1f77b4; stroke-width: 2.5; stroke-linecap: square"/>
    </g>
    <g id="text_15">
     <!-- u_Original -->
     <g transform="translate(96.42 42.038438) scale(0.1 -0.1)">
      <defs>
       <path id="DejaVuSans-5f" d="M 3263 -1063 
L 3263 -1509 
L -63 -1509 
L -63 -1063 
L 3263 -1063 
z
" transform="scale(0.015625)"/>
       <path id="DejaVuSans-4f" d="M 2522 4238 
Q 1834 4238 1429 3725 
Q 1025 3213 1025 2328 
Q 1025 1447 1429 934 
Q 1834 422 2522 422 
Q 3209 422 3611 934 
Q 4013 1447 4013 2328 
Q 4013 3213 3611 3725 
Q 3209 4238 2522 4238 
z
M 2522 4750 
Q 3503 4750 4090 4092 
Q 4678 3434 4678 2328 
Q 4678 1225 4090 567 
Q 3503 -91 2522 -91 
Q 1538 -91 948 565 
Q 359 1222 359 2328 
Q 359 3434 948 4092 
Q 1538 4750 2522 4750 
z
" transform="scale(0.015625)"/>
       <path id="DejaVuSans-67" d="M 2906 1791 
Q 2906 2416 2648 2759 
Q 2391 3103 1925 3103 
Q 1463 3103 1205 2759 
Q 947 2416 947 1791 
Q 947 1169 1205 825 
Q 1463 481 1925 481 
Q 2391 481 2648 825 
Q 2906 1169 2906 1791 
z
M 3481 434 
Q 3481 -459 3084 -895 
Q 2688 -1331 1869 -1331 
Q 1566 -1331 1297 -1286 
Q 1028 -1241 775 -1147 
L 775 -588 
Q 1028 -725 1275 -790 
Q 1522 -856 1778 -856 
Q 2344 -856 2625 -561 
Q 2906 -266 2906 331 
L 2906 616 
Q 2728 306 2450 153 
Q 2172 0 1784 0 
Q 1141 0 747 490 
Q 353 981 353 1791 
Q 353 2603 747 3093 
Q 1141 3584 1784 3584 
Q 2172 3584 2450 3431 
Q 2728 3278 2906 2969 
L 2906 3500 
L 3481 3500 
L 3481 434 
z
" transform="scale(0.015625)"/>
      </defs>
      <use xlink:href="#DejaVuSans-75"/>
      <use xlink:href="#DejaVuSans-5f" x="63.378906"/>
      <use xlink:href="#DejaVuSans-4f" x="113.378906"/>
      <use xlink:href="#DejaVuSans-72" x="192.089844"/>
      <use xlink:href="#DejaVuSans-69" x="233.203125"/>
      <use xlink:href="#DejaVuSans-67" x="260.986328"/>
      <use xlink:href="#DejaVuSans-69" x="324.462891"/>
      <use xlink:href="#DejaVuSans-6e" x="352.246094"/>
      <use xlink:href="#DejaVuSans-61" x="415.625"/>
      <use xlink:href="#DejaVuSans-6c" x="476.904297"/>
     </g>
    </g>
    <g id="line2d_26">
     <path d="M 68.42 53.494688 
L 78.42 53.494688 
L 88.42 53.494688 
" style="fill: none; stroke-dasharray: 12,9; stroke-dashoffset: 0; stroke: #ff7f0e; stroke-width: 1.5"/>
    </g>
    <g id="text_16">
     <!-- u_Encrypted -->
     <g transform="translate(96.42 56.994688) scale(0.1 -0.1)">
      <defs>
       <path id="DejaVuSans-45" d="M 628 4666 
L 3578 4666 
L 3578 4134 
L 1259 4134 
L 1259 2753 
L 3481 2753 
L 3481 2222 
L 1259 2222 
L 1259 531 
L 3634 531 
L 3634 0 
L 628 0 
L 628 4666 
z
" transform="scale(0.015625)"/>
       <path id="DejaVuSans-63" d="M 3122 3366 
L 3122 2828 
Q 2878 2963 2633 3030 
Q 2388 3097 2138 3097 
Q 1578 3097 1268 2742 
Q 959 2388 959 1747 
Q 959 1106 1268 751 
Q 1578 397 2138 397 
Q 2388 397 2633 464 
Q 2878 531 3122 666 
L 3122 134 
Q 2881 22 2623 -34 
Q 2366 -91 2075 -91 
Q 1284 -91 818 406 
Q 353 903 353 1747 
Q 353 2603 823 3093 
Q 1294 3584 2113 3584 
Q 2378 3584 2631 3529 
Q 2884 3475 3122 3366 
z
" transform="scale(0.015625)"/>
       <path id="DejaVuSans-79" d="M 2059 -325 
Q 1816 -950 1584 -1140 
Q 1353 -1331 966 -1331 
L 506 -1331 
L 506 -850 
L 844 -850 
Q 1081 -850 1212 -737 
Q 1344 -625 1503 -206 
L 1606 56 
L 191 3500 
L 800 3500 
L 1894 763 
L 2988 3500 
L 3597 3500 
L 2059 -325 
z
" transform="scale(0.015625)"/>
       <path id="DejaVuSans-64" d="M 2906 2969 
L 2906 4863 
L 3481 4863 
L 3481 0 
L 2906 0 
L 2906 525 
Q 2725 213 2448 61 
Q 2172 -91 1784 -91 
Q 1150 -91 751 415 
Q 353 922 353 1747 
Q 353 2572 751 3078 
Q 1150 3584 1784 3584 
Q 2172 3584 2448 3432 
Q 2725 3281 2906 2969 
z
M 947 1747 
Q 947 1113 1208 752 
Q 1469 391 1925 391 
Q 2381 391 2643 752 
Q 2906 1113 2906 1747 
Q 2906 2381 2643 2742 
Q 2381 3103 1925 3103 
Q 1469 3103 1208 2742 
Q 947 2381 947 1747 
z
" transform="scale(0.015625)"/>
      </defs>
      <use xlink:href="#DejaVuSans-75"/>
      <use xlink:href="#DejaVuSans-5f" x="63.378906"/>
      <use xlink:href="#DejaVuSans-45" x="113.378906"/>
      <use xlink:href="#DejaVuSans-6e" x="176.5625"/>
      <use xlink:href="#DejaVuSans-63" x="239.941406"/>
      <use xlink:href="#DejaVuSans-72" x="294.921875"/>
      <use xlink:href="#DejaVuSans-79" x="336.035156"/>
      <use xlink:href="#DejaVuSans-70" x="395.214844"/>
      <use xlink:href="#DejaVuSans-74" x="458.691406"/>
      <use xlink:href="#DejaVuSans-65" x="497.900391"/>
      <use xlink:href="#DejaVuSans-64" x="559.423828"/>
     </g>
    </g>
   </g>
  </g>
 </g>
 <defs>
  <clipPath id="p3aa496db4a">
   <rect x="59.42" y="25.44" width="505.78" height="364.6"/>
  </clipPath>
 </defs>
</svg>
